<svg version="1.2" xmlns="http://www.w3.org/2000/svg" viewBox="0 0 900 300" width="1800" height="600">
	<title>20682-ai</title>
	<defs>
		<linearGradient id="g1" x1="515.7" y1="206.1" x2="466.6" y2="206.1" gradientUnits="userSpaceOnUse">
			<stop offset="0" stop-color="#7c747c"/>
			<stop offset="1" stop-color="#4f3e52"/>
		</linearGradient>
		<linearGradient id="g2" x1="524.3" y1="517.2" x2="169.4" y2="-97.5" gradientUnits="userSpaceOnUse">
			<stop offset="0" stop-color="#2e3437"/>
			<stop offset=".995" stop-color="#d2846f"/>
		</linearGradient>
	</defs>
	<style>
		.s0 { fill: #f58463 } 
		.s1 { opacity: .5;fill: #1d5077 } 
		.s2 { opacity: .3;mix-blend-mode: multiply;fill: #79676d } 
		.s3 { opacity: .3;mix-blend-mode: multiply;fill: #aca3ab } 
		.s4 { opacity: .6;fill: #dfd0c4 } 
		.s5 { fill: #005594 } 
		.s6 { fill: #114273 } 
		.s7 { opacity: .2;fill: #c3c6cd } 
		.s8 { opacity: .3;mix-blend-mode: screen;fill: #aca3ab } 
		.s9 { fill: #554b50 } 
		.s10 { opacity: .1;fill: #005594 } 
		.s11 { fill: #423a3e } 
		.s12 { fill: #f4efea } 
		.s13 { fill: #c42e27 } 
		.s14 { fill: #ffffff } 
		.s15 { fill: #ffc257 } 
		.s16 { fill: #aecc32 } 
		.s17 { opacity: .1;fill: #ffffff } 
		.s18 { opacity: .5;fill: #f3feff } 
		.s19 { opacity: .7;fill: #ffffff } 
		.s20 { opacity: .4;mix-blend-mode: multiply;fill: #a59a95 } 
		.s21 { fill: #0c3966 } 
		.s22 { fill: #f4beab } 
		.s23 { opacity: .1;mix-blend-mode: multiply;fill: #7a665a } 
		.s24 { fill: #263d63 } 
		.s25 { fill: #d2d2d2 } 
		.s26 { fill: #f4cfc1 } 
		.s27 { fill: #7a665a } 
		.s28 { fill: #f89c3e } 
		.s29 { fill: #f9d8cd } 
		.s30 { fill: #e4e4e4 } 
		.s31 { fill: #605d57 } 
		.s32 { fill: #726f65 } 
		.s33 { fill: #cc6f23 } 
		.s34 { fill: #e3e5e3 } 
		.s35 { fill: #004277 } 
		.s36 { fill: #392b26 } 
		.s37 { opacity: 0;mix-blend-mode: multiply;fill: #7a665a } 
		.s38 { fill: #51474c } 
		.s39 { opacity: .3;mix-blend-mode: multiply;fill: #7a665a } 
		.s40 { fill: url(#g1) } 
		.s41 { fill: #5ca30a } 
		.s42 { fill: #3d2f25 } 
		.s43 { fill: #548c0c } 
		.s44 { fill: #f15d52 } 
		.s45 { mix-blend-mode: overlay;fill: url(#g2) } 
	</style>
	<g id="_Artboards_">
	</g>
	<g id="Layer 1">
		<g id="&lt;Group&gt;">
			<g id="&lt;Group&gt;">
				<g id="&lt;Group&gt;">
					<path id="&lt;Path&gt;" class="s0" d="m899.3 300.7h-900v-300h900z"/>
					<path id="&lt;Path&gt;" class="s1" d="m899.3 227.4h-900v73.3h900z"/>
					<path id="&lt;Path&gt;" class="s2" d="m899.3 227.4h-900v-8.6h900z"/>
				</g>
				<g id="&lt;Group&gt;">
					<g id="&lt;Group&gt;">
						<g id="&lt;Group&gt;">
							<g id="&lt;Group&gt;">
								<path id="&lt;Path&gt;" class="s3" d="m45.2 163.3l5 3.8h108.4v-138.1h-108.8l-17.2-0.3 12.6 7.6h4.6v122.7z"/>
								<g id="&lt;Group&gt;">
									<path id="&lt;Path&gt;" class="s4" d="m142.5 152.9h-85.4v-108.5h85.4z"/>
									<path id="&lt;Compound Path&gt;" fill-rule="evenodd" class="s5" d="m149.8 36.3v124.7h-100v-124.7zm-46.3 8.1v50.4h39v-50.4zm-46.3 0v50.4h39v-50.4zm0 108.5h39.1v-50.8h-39.1zm85.4 0v-50.9h-39v50.9z"/>
									<g id="&lt;Group&gt;">
										<path id="&lt;Path&gt;" class="s6" d="m57.1 152.9v-50.8h1.9v50.8z"/>
										<path id="&lt;Path&gt;" class="s6" d="m103.4 152.9v-50.8h1.9v50.8z"/>
										<path id="&lt;Path&gt;" class="s6" d="m57.1 94.8v-50.4h1.9v50.4z"/>
										<path id="&lt;Path&gt;" class="s6" d="m103.4 94.8v-50.4h1.9v50.4z"/>
										<path id="&lt;Path&gt;" class="s6" d="m57.1 44.4h39v1.9h-39z"/>
										<path id="&lt;Path&gt;" class="s6" d="m57.1 102.1h39v1.8h-39z"/>
										<path id="&lt;Path&gt;" class="s6" d="m103.4 102.1h39.1v1.8h-39.1z"/>
										<path id="&lt;Path&gt;" class="s6" d="m103.4 44.4h39.1v1.9h-39.1z"/>
									</g>
								</g>
								<path id="&lt;Path&gt;" class="s6" d="m154.5 163.3h-109.3v-3.9h109.3z"/>
								<path id="&lt;Path&gt;" class="s6" d="m154.5 36.3h-109.3v-3.9h109.3z"/>
								<path id="&lt;Path&gt;" class="s7" d="m49.8 36.3v119.2l100-119.2z"/>
							</g>
							<path id="&lt;Path&gt;" class="s8" d="m158.6 29c0 0 0 92.3 0.5 134 0.3 20.8-42.9-9.8-49.3-56.1-6.5-46.4-3.5-77.9-3.5-77.9z"/>
							<path id="&lt;Path&gt;" class="s8" d="m40.9 29c0 0-0.3 92.3-0.8 134-0.3 20.8 42.9-9.8 49.4-56.1 6.4-46.4 3.5-77.9 3.5-77.9z"/>
							<path id="&lt;Path&gt;" class="s9" d="m166.2 29h-132.2c-1.3 0-2.5-1.1-2.5-2.5 0-1.3 1.2-2.4 2.5-2.4h132.2c1.4 0 2.5 1.1 2.5 2.4 0 1.4-1.1 2.5-2.5 2.5z"/>
						</g>
						<g id="&lt;Group&gt;">
							<path id="&lt;Path&gt;" class="s10" d="m293 111.9h88.8v-65.2h-88.8z"/>
							<g id="&lt;Group&gt;">
								<path id="&lt;Path&gt;" class="s11" d="m298.9 104.2h75.3v-51.7h-75.3z"/>
								<path id="&lt;Compound Path&gt;" fill-rule="evenodd" class="s12" d="m379.9 46.7v63.3h-86.8v-63.3zm-5.8 5.8h-75.2v51.7h75.2z"/>
								<path id="&lt;Path&gt;" class="s13" d="m312.6 57.7c-2.7 0.2-4.5-0.2-4.5-0.2l3 45.5c0 0 2.2 0.4 4.7 0.3 2.5-0.1 4.2-0.8 4.2-0.8l-3-45.6c0 0-1.7 0.6-4.4 0.8z"/>
								<path id="&lt;Path&gt;" class="s5" d="m323.8 63.6c-2.8 0.1-4.6-0.3-4.6-0.3l2.6 39.7c0 0 2.8 0.3 4.6 0.3 2.3 0 4.3-0.8 4.3-0.8l-2.7-39.8c0 0-1.3 0.7-4.2 0.9z"/>
								<path id="&lt;Path&gt;" class="s14" d="m303.6 68.4v34.4c0 0 0.7 0.4 1.8 0.4 1.1 0 1.7-0.4 1.7-0.4v-34.4c0 0-0.7 0.4-1.7 0.3-1.3 0-1.8-0.3-1.8-0.3z"/>
								<path id="&lt;Path&gt;" class="s15" d="m366.3 58.1l-18.1 42 2.4 1 1.7 0.7 18.1-41.9-1.8-0.8z"/>
								<path id="&lt;Path&gt;" class="s16" d="m360.1 61.6l-28 36.1 1.9 1.5 1.6 1.2 28-36.1-1.7-1.3z"/>
								<path id="&lt;Path&gt;" class="s17" d="m310.8 57.7l3.1 45.6h1.6l-2.9-45.6z"/>
								<path id="&lt;Path&gt;" class="s16" d="m324.1 67.5c-2.5 0.1-4.6-0.2-4.6-0.2l0.3 5c0 0 2.5 0.3 4.8 0.2 2.6-0.1 4-0.7 4-0.7l-0.3-4.8c0 0-2 0.3-4.2 0.5z"/>
							</g>
						</g>
						<g id="&lt;Group&gt;">
							<path id="&lt;Path&gt;" class="s18" d="m463.4 141.4l-53.1-0.3 0.3-67 53.1 0.3z"/>
							<path id="&lt;Path&gt;" class="s19" d="m408.8 81.8l-1.9-2.3 9.9-8.3 1.9 2.3z"/>
							<path id="&lt;Path&gt;" class="s19" d="m455 73.7l1.9-2.3 10.1 8-1.9 2.4z"/>
							<path id="&lt;Path&gt;" class="s19" d="m407.1 135.9l1.9-2.4 10.1 8.1-1.9 2.4z"/>
							<path id="&lt;Path&gt;" class="s19" d="m456.5 143.8l-1.8-2.5 10.3-7.7 1.9 2.4z"/>
						</g>
					</g>
					<g id="&lt;Group&gt;">
						<g id="&lt;Group&gt;">
							<path id="&lt;Path&gt;" class="s20" d="m96.8 258.2c0 13.8 39 25 95.9 25 56.9 0 95.1-11.2 95.1-25 0-13.9-12.6-29.1-95.1-29.1-81.1 0-95.9 15.2-95.9 29.1z"/>
							<g id="&lt;Group&gt;">
								<g id="&lt;Group&gt;">
									<path id="&lt;Path&gt;" class="s5" d="m287.8 206.8l-13.7-15.2-158.6-0.9-10 11.1z"/>
									<path id="&lt;Path&gt;" class="s21" d="m280.2 143.3l-2.7 48.3-162.6-0.9-3.6-46.9z"/>
									<path id="&lt;Path&gt;" class="s6" d="m284.2 204.1l-10.1-12.5 3.1-48.3 13.4 10.7z"/>
									<path id="&lt;Path&gt;" class="s6" d="m104.9 204.8l10.6-14.1-2.4-47.4-10.6 7.6z"/>
									<path id="&lt;Path&gt;" class="s11" d="m279.4 233.6l-5.2 33.4c0 0-0.8 0.7-2.7 0.8-1.8 0-2.7-0.8-2.7-0.8v-33.9z"/>
									<path id="&lt;Path&gt;" class="s11" d="m270.1 209l-5.3 33.4c0 0-0.8 0.8-2.7 0.8-1.7 0-2.6-0.8-2.6-0.8v-33.9z"/>
									<path id="&lt;Path&gt;" class="s11" d="m122.3 208.1l5.3 33.4c0 0 0.8 0.7 2.7 0.7 1.7 0 2.6-0.7 2.6-0.7v-34z"/>
									<path id="&lt;Path&gt;" class="s11" d="m111.6 231.9l5.6 35.1c0 0 0.7 0.7 2.7 0.8 1.7 0 2.6-0.8 2.6-0.8v-33.9z"/>
									<path id="&lt;Path&gt;" class="s5" d="m321 156.5c0 0-31.5-14.4-41.6-14.6-10-0.1-167.4-2.4-177.2 0.4-5.4 1.6-29.6 10.6-29.6 10.6l30.6-1.3c0 0 4.4-2.9 9.9-5.8 3.1-1.7 43.9-2.3 82.1-1.7 41.9 0.7 78.2-1.6 82 0.8 6 3.9 13.4 9.1 13.4 9.1z"/>
									<path id="&lt;Path&gt;" class="s21" d="m283.4 203c4.2 3 2.2 26.4-3.2 27.5-5.3 1.1-169 1.8-173-4.7-3.9-6.6-5.2-22.1-1.7-25.7 3.6-3.7 174.3 0.3 177.9 2.9z"/>
									<path id="&lt;Path&gt;" class="s5" d="m71.1 153.8c2.1-2.9 27.5-3 31.4-2.9 4 0 6 68.6 10.9 71.6 2.4 1.5 41.7 2.3 82.1 2.3 40.4 1.1 79.7 1.3 82.1-0.1 5.1-2.9 11.6-70.9 12.4-71.2 3.8-1 29.6 0.6 31.8 3.6 2.3 3.3-25 81.7-35.8 81.6-5.1-0.1-47.3-0.5-90.6-1.3-43.3-0.3-85.6-1.1-90.7-1.1-10.7-0.2-36.1-79.3-33.6-82.5z"/>
								</g>
								<g id="&lt;Group&gt;">
									<path id="&lt;Path&gt;" class="s22" d="m181 252.2c-0.4 1.9-2.2 3.2-4 2.9-1.7-0.2-2.1-0.5-2.1-2.4 0 0-2-44.4 3.2-56 0.5-1.1 0.7 1.8-0.5 1.9-21.3 1.6-25.8-14.5-25.8-14.5-1.9-1.3 2.2-3 3.8-4.8 2.2-2.4 5-5.4 5.4-5.4 0.7 0 8-0.8 10.8-1.1 0.7-0.1 1.3 0.1 1.9 0.4 0 0 19.5 8.3 23.2 15.4 2.8 5.2-15.9 63.6-15.9 63.6z"/>
									<path id="&lt;Path&gt;" class="s23" d="m172.6 178.6c0 0 14.4 11.2 14.2 14.9-0.1 3.7-10.4 59.1-10.4 59.1l-1.6-1.8c0 0-1.1-47.2 3.3-54.1 4.4-6.8-20.2-14.3-20.2-14.3z"/>
									<path id="&lt;Path&gt;" class="s13" d="m119.8 166c0 0 5.5 18.7 3 18.2-10.8-1.9-9.3-5.9-9.3-5.9 0 0-3.4-8.8-2.7-13.1 0.7-4.3 9 0.8 9 0.8z"/>
									<path id="&lt;Path&gt;" class="s24" d="m154 202.5c0 0 4.8-0.5 10-3.6 5.1-3.1-14.5-3.9-14.5-3.9z"/>
									<path id="&lt;Path&gt;" class="s14" d="m173.1 118.9c0 0 26.2 12.3 27.3 14.4 1.1 2.2-2.7 9-2.7 9l-37-13.6z"/>
									<path id="&lt;Path&gt;" class="s23" d="m197.2 139.1c0 0 1.8-3.3 2.6-6.1q0 0.1 0.1 0.2c1.1 2.1-2.7 8.9-2.7 8.9l-37-13.6 2.7-2.1z"/>
									<path id="&lt;Path&gt;" class="s14" d="m149.5 116.3c15.1-2.9 24.3 3.2 23.6 2.6 0.8 0.6-3.7 0.8-4.1 9.7-0.2 5.3 2.5 12.8 0.1 18.2-3 6.9-4.1 6.9-4.9 9.8-3.1 10.1-0.9 7.7-1.8 11.1-2.8 11.4-22.6 1.7-27.4-3.7 5.5-26.1-9.3-35-5.8-39.4 3.9-4.9 6.8-5.7 20.3-8.3z"/>
									<path id="&lt;Path&gt;" class="s23" d="m129.2 124.4c2.5-3.2 3.8 1.4 5.1 3.8 3.8 7.1 10.1 8.1 4.7 34.2 3.3 3.8 16.3 6 23.4 5.3-10.2 6.1-23.4 0.7-27.4-3.9 5.5-26.1-9.3-35-5.8-39.4z"/>
									<path id="&lt;Path&gt;" class="s14" d="m134.1 121.2c0 0-1.4-1.2-4.9 3.4-7.1 12.7-14.9 23.9-16.6 37.7 3.2 1.6 9.1 1.1 9.1 1.1 0 0 11.5-17.4 14.7-29.3 1.3-4.9-2.3-12.9-2.3-12.9z"/>
									<path id="&lt;Path&gt;" class="s25" d="m158.1 119.6l-0.1 21.2-11-14.6z"/>
									<path id="&lt;Path&gt;" class="s22" d="m156.7 114.5c0 0 4.7 8.9-3.1 12.2-10.3 4.4-10.7-12.2-10.7-12.2z"/>
									<path id="&lt;Path&gt;" class="s26" d="m169.5 257.5c-0.5 2-2.2 3.2-4 3-1.8-0.3-1.9-2.3-2-4.2 0 0-1.5-40.7 3.7-52.3 0.5-1.1-4-1.5-5.2-1.6-22.2-1.9-21.7-13-21.7-13-1.9-1.3 2.2-2.9 3.8-4.7 2.2-2.5 4.9-5.4 5.4-5.4 0.6 0 8-0.9 10.8-1.2 0.6 0 1.3 0.1 1.9 0.4 0 0 18.9 7.8 22.6 14.9 2.7 5.2-15.3 64.1-15.3 64.1z"/>
									<g id="&lt;Group&gt;" style="opacity: .1;mix-blend-mode: multiply">
										<path id="&lt;Path&gt;" class="s27" d="m142.6 186c-0.6 0.6-0.7 1.1 0 1.6 0 0-0.5 11.1 21.7 13 1.2 0.1 5.7 0.5 5.2 1.6-5.2 11.6-3.7 52.3-3.7 52.3 0.1 1.9 0.2 3.9 2 4.2q0.6 0 1.3-0.1c-0.8 1.3-2.2 2.1-3.6 1.9-1.8-0.3-1.9-2.3-2-4.2 0 0-1.5-40.7 3.7-52.2 0.5-1.2-4-1.6-5.2-1.7-22.2-1.9-21.7-12.9-21.7-12.9-1.4-1 0.5-2.2 2.3-3.5z"/>
									</g>
									<path id="&lt;Path&gt;" class="s28" d="m160.1 182.7c-8.7 3.7-6.1 19.8-6.1 19.8 0 0-27.9-5.7-27.7-20.2 0.2-14.6 8.7-18.3 8.7-18.3 0 0 13.4 10.7 27.4 3.7 7.4 4.8 15.9 5.4 25 12.5-3.2-1.7-9.4-5.1-27.3 2.5z"/>
									<g id="&lt;Group&gt;" style="opacity: .1;mix-blend-mode: multiply">
										<path id="&lt;Path&gt;" class="s27" d="m163.7 180.4c7.3-3.1 12.7-4.3 16.7-4.6 2.3 1.1 4.6 2.6 7 4.4-3.2-1.7-9.3-4.9-26.5 2.2 0.8-0.9 1.7-1.5 2.8-2z"/>
										<path id="&lt;Path&gt;" class="s27" d="m135 164c0 0 0.2 0.1 0.4 0.2-2.5 2.6-5.4 7.4-5.5 15.8-0.2 11.1 16.1 17 23.8 19.2 0.1 1.9 0.3 3.3 0.3 3.3 0 0-27.9-5.7-27.7-20.2 0.2-14.6 8.7-18.3 8.7-18.3z"/>
									</g>
									<g id="&lt;Group&gt;">
										<path id="&lt;Path&gt;" class="s29" d="m108.4 175.1c0 0-0.1-3.8 3.6-4.1 3.6-0.3 2.9 3.4 2.9 3.4z"/>
										<path id="&lt;Path&gt;" class="s30" d="m138 162.6l2.1 32.5h-21.1l-10.2-33.2z"/>
										<path id="&lt;Path&gt;" class="s29" d="m119.6 175.2c-2.5-1.3-7.9-2.2-10.8-1-1.1 0.5 0.4 9.6 1.5 10.4 1.5 1.1 2.6 1.1 5.1 1.3 1.4 0.1 6.3-9.6 4.2-10.7z"/>
									</g>
									<path id="&lt;Path&gt;" class="s23" d="m157.6 117c0 0 0.5 7.8-5.8 8.4-6.2 0.5-8.5-7-8.5-7z"/>
									<g id="&lt;Group&gt;">
										<path id="&lt;Path&gt;" class="s31" d="m149.7 89.9c0 0-5-9.2-13.9-3.8-9 5.5-1.2 21.7-4 22.4-2.8 0.7 5.2 4.5 5.6-5.2 0.3-9.6 8.6-10.2 8.6-10.2z"/>
										<path id="&lt;Path&gt;" class="s28" d="m149.7 89.3l-8.2 1.7-0.4-0.8c-0.3-0.7 0.1-1.5 0.8-1.6l6.5-1c0.7-0.1 1.3 0.4 1.3 1.1z"/>
										<path id="&lt;Path&gt;" class="s26" d="m148.3 90c-3.4 0.4-10.9 0.8-11.4 8.2-0.6 7.4 4.4 23 13.9 25.8 3.3 0.9 6.5-4.6 7.4-9.5 1-4.9 2.4-10.6 1-15-1.5-4.4-7-9.8-10.9-9.5z"/>
										<path id="&lt;Path&gt;" class="s32" d="m160.6 106.2c0 0-6-8.5-15-4.8-4.7 1.9-5.6 9.7-7.1 9.7-1.4 0-4-6.6-2.5-12.7 1.3-5 3.5-8.1 7.7-9.1 9.3-2.1 17.8 2.1 16.9 16.9z"/>
										<path id="&lt;Path&gt;" class="s26" d="m139.7 110.1c0 0-2.2-2.4-2.8-0.9-0.5 1.5 0.8 4.2 1.9 5.3 1 1.1 3 1.6 3 1.6z"/>
										<path id="&lt;Path&gt;" class="s26" d="m159.4 105.2c0 0 0.7-3.1 1.9-2.1 1.3 1 0.4 5.3 0.1 6.8-0.3 1.5-2.8 2.7-2.8 2.7z"/>
									</g>
									<path id="&lt;Path&gt;" class="s23" d="m167.6 149.8l-2.3 4.3c0 0-5.9-0.8-10.6 0-21.3 3.7 8.2-3.8 12.9-4.3z"/>
									<path id="&lt;Path&gt;" class="s33" d="m181.4 250.9c0 0 2.1 3.5 5.1 6 6.1 5.2 8.2 11.8 3.3 11.9-8.4 0.2-9-3.3-16.6-6.5-1-0.5-0.7-0.9-0.6-2 0.3-5.9 2.2-9.7 2.2-9.7 0 0 0.5 1.6 3.2 1.7 2.4 0 3.4-1.4 3.4-1.4z"/>
									<path id="&lt;Path&gt;" class="s28" d="m170.3 254.6c0 0 5.6 5.7 10.5 9 6.5 4.5 5.6 10.4 0.7 10.5-8.3 0.2-12.6-1.9-19.1-8.1-0.8-0.8-0.7-0.9-0.7-2 0.3-5.9 1.8-9.5 1.8-9.5 0 0 1.6 1.9 3.4 1.7 2.4-0.1 3.4-1.6 3.4-1.6z"/>
								</g>
								<g id="&lt;Group&gt;">
									<path id="&lt;Path&gt;" class="s26" d="m202 116.5c0 0-2.3 1.3-1.7 4.1 0.6 2.9 3-0.5 3-0.5z"/>
									<path id="&lt;Path&gt;" class="s26" d="m198.4 122.7c0 0-7.5 10.1-14.5 28.8-3.5 9.2-5.9 11.6-1.8 14.3 5.9 3.8 7.7-1.6 15.1-16.5 8.8-17.9 1.2-26.6 1.2-26.6z"/>
									<path id="&lt;Path&gt;" class="s34" d="m240.5 120.6l-20.3-5.1c0 0-19.1 2.2-21.1 5.1-1.1 1.5-0.1 8.8 0.3 25.3 0.2 13.6-0.3 37.2-0.3 37.2l33.6 0.1 8.7-52.1z"/>
									<path id="&lt;Path&gt;" class="s26" d="m243.9 122.9c2.2 0.5 11.6 30.8 10.6 39.3-1.1 8.6-10.6 6-10.6 6l-6.3-43.4z"/>
									<path id="&lt;Path&gt;" class="s34" d="m237 118.7c0 0 5 1.5 7.1 3.1 8 5.9 11.6 41 11.6 41l-15.7 5.7z"/>
									<path id="&lt;Path&gt;" class="s35" d="m212.6 249.6c0 0 1.5 7.9 1.2 11.3-0.2 1.8-1.5 9.8-4.1 11.4-2.6 1.6-13.9 1.6-13.9 0 0-6.3 1.9-11.2 4.2-16.9 2.4-5.8 2.4-5.8 2.4-5.8z"/>
									<path id="&lt;Path&gt;" class="s35" d="m254.2 247c0 0 6.4 9.2 10.5 12.4 2.6 2.1 2.3 3.6 1.7 5.8-0.6 2.3-9.4 0.9-14.7-1-5.4-1.9-12.5-3.3-12.5-5.6 0-2.3 2.5-11.6 2.5-11.6z"/>
									<path id="&lt;Path&gt;" class="s36" d="m270.1 191.3l-12 57.4h-16.9c0 0 7.2-51 8.8-55 1.5-4 20.1-2.4 20.1-2.4z"/>
									<path id="&lt;Path&gt;" class="s22" d="m234.1 120.7c0 0-0.8 9.6-9.1 8.6-11-1.4-4.8-13.8-4.8-13.8z"/>
									<path id="&lt;Path&gt;" class="s26" d="m241 110.6c0 0 3-2.6 3.4-0.6 0.4 1.9-1.5 5.1-2.9 6.4-1.4 1.2-3.8 1.6-3.8 1.6z"/>
									<path id="&lt;Path&gt;" class="s36" d="m192.8 187.4c0.7-6.3 5.8-10 6.1-11.1 0.3-1.4 1.6-1.5 3.6-1.1 0.4 0 0.7 0.2 0.7 0.2q0 0 0 0c4.5 1.2 11.8 4.8 18.1 4.8 9.7 0 12.9-6.4 12.9-6.4 0 0 32.9 6.2 35.3 9.3 1.3 1.7 3.3 19.2-13.6 16.6-16.9-2.6-27.5-7.1-31.2-7.4-3.4 0.5-11.8 6-14 6-2.9 0-19.9 7.4-17.9-10.9z"/>
									<g id="&lt;Group&gt;" style="opacity: .1;mix-blend-mode: multiply">
										<path id="&lt;Path&gt;" class="s27" d="m192.8 187.4c0.7-6.3 5.8-10 6.1-11.1 0.2-0.9 0.9-1.2 1.8-1.3-1.6 1.9-4.3 5-4.8 9.4-2 18.4 14.9 11 17.8 11 2.2 0 10.6-5.5 14-6 3.2 0.3 11.4 3.5 24.3 6.1-2.6 13.6-7.8 50.3-7.8 50.3h14.5l-0.6 2.9h-16.9c0 0 5.2-36.7 7.7-50.3-12.8-2.6-21-5.8-24.2-6.1-3.4 0.5-11.8 6-14 6-2.9 0-19.9 7.4-17.9-10.9z"/>
									</g>
									<path id="&lt;Path&gt;" class="s36" d="m214.8 191.1c0.6 3.2 0 63.3 0 63.3l-16.8-1.8c0 0-6.6-63.2-4.9-66.2 1.6-3.1 20.4-2.5 21.7 4.7z"/>
									<path id="&lt;Path&gt;" class="s23" d="m193.1 186.4c0.3-0.6 1.1-1 2.2-1.2-0.9 7.8 5.1 65.4 5.1 65.4l14.4 1.5c0 1.5 0 2.3 0 2.3l-16.8-1.8c0 0-6.6-63.2-4.9-66.2z"/>
									<path id="&lt;Path&gt;" class="s26" d="m213.2 114c0.6 2.2 1.1 3.9 0 4.8-2.3 1.9-6.9 6.2-8.5 5.4-1.6-0.8-2.7-7.7-2.7-7.7 0 0 10.7-4.5 11.2-2.5z"/>
									<path id="&lt;Path&gt;" class="s23" d="m233.8 122.1c0 0-3.5 7.8-9.8 5-6.3-2.8-3.8-11.6-3.8-11.6z"/>
									<path id="&lt;Path&gt;" class="s34" d="m218 118.9l16.2 2.1c0 0-7.3 58.1-7.4 58.3 0 0.1-13-5.7-13-5.7 0 0 4-48.2 3.9-48.6-0.1-0.5 0.3-6.1 0.3-6.1z"/>
									<path id="&lt;Path&gt;" class="s25" d="m225.4 120.8l0.3 1.2-1.3-0.2z"/>
									<path id="&lt;Path&gt;" class="s25" d="m228 121.1l-0.5 1.2h1.1z"/>
									<path id="&lt;Path&gt;" class="s13" d="m223.9 127.6l3.5 0.5c0 0 1.3 2.2 0.4 3.6-1.3 1.9-5.1 1.3-5.7-1.1-0.6-2.1 1.8-3 1.8-3z"/>
									<path id="&lt;Path&gt;" class="s13" d="m222.2 124.5l0.5 4.5 1.5-0.9-0.4-6.4z"/>
									<path id="&lt;Path&gt;" class="s13" d="m230 125.7l-2.3 3.5-0.8-0.8 2.4-5.9z"/>
									<path id="&lt;Path&gt;" class="s37" d="m230 125.7l-7.8-1.2 2.2-2.7 4.2 0.5z"/>
									<path id="&lt;Path&gt;" class="s30" d="m220.2 115.5l-3.7 3.8 4.2 8.8 4.7-6.1z"/>
									<path id="&lt;Path&gt;" class="s30" d="m230.6 128.6l-2.6-6.3 6.2-3.6 1.5 4.1z"/>
									<g id="&lt;Group&gt;">
										<path id="&lt;Path&gt;" class="s26" d="m233.1 89.3c3.3 0.8 10.7 2.2 10.4 10.4-0.4 8.1-7.3 24.5-17 26.3-3.4 0.6-6-5.8-6.3-11.3-0.3-5.5-1.1-11.9 0.9-16.5 1.9-4.6 8.1-9.9 12-8.9z"/>
										<path id="&lt;Path&gt;" class="s32" d="m220.6 105.9c0 0 11.1-3.5 15.7-1.3 4.7 2.2 1.9 8.8 3.3 9 0.7 0.1 2.7-1.6 3.9-4.3 1.4-3.3 2.1-6 1.6-9.7-0.8-6.8-3.9-10-10.4-11.1-5-0.9-10.5-1-14.9 6.9-1.3 2.3-2.1 11 0.8 10.5z"/>
										<path id="&lt;Path&gt;" class="s26" d="m220.6 105.9c0 0-1.6-3.1-2.5-1.7-0.9 1.4-0.3 4.6 0.4 6.1 0.7 1.5 2.5 2.6 2.5 2.6z"/>
									</g>
									<path id="&lt;Path&gt;" class="s34" d="m200.3 119.6c-4 1-27.2 39.6-20.4 50.4 8.6 0 11.4-5.7 11.4-5.7l9-21.5z"/>
									<path id="&lt;Path&gt;" class="s23" d="m179.9 164.7c8.6 0 11.4-5.7 11.4-5.7l9-21.5v5.4l-9 21.5c0 0-2.8 5.7-11.4 5.7-1.3-2-1.5-4.9-1.1-8.3 0.2 1.1 0.6 2.1 1.1 2.9z"/>
									<path id="&lt;Path&gt;" class="s23" d="m235.2 133.7c0 0 3.2 31.3-11.7 39.4-9.9 5.3-19.6 1.8-19.6 1.8 0 0 9.2 5.8 18.9 5.3 8.7-0.5 11.4-6.4 11.4-6.4l4.2-24.4z"/>
									<path id="&lt;Path&gt;" class="s13" d="m223.2 130.5l-7.2 52.5 2 6.4 3.2-5.6 5.2-53.2z"/>
									<path id="&lt;Path&gt;" class="s26" d="m184.9 160.2c10.5 6.8 20.1 12.3 27.7 19.9 3.4 3.4 1.1 5.9-1 4.7-2.2-1.2-20.3-7.4-27.6-12.7-6.2-4.5-5-15.6 0.9-11.9z"/>
									<path id="&lt;Path&gt;" class="s26" d="m212.8 180.5c2.2 2.1 8.5 9.9 10.1 12.6 1.7 2.6-0.7 6.5-1.8 9.5-1 3.1-2.7 1.8-3.5 2-1.5 0.5-1.6-7.4-2.6-9.2-0.9-1.8-3.8-3.2-4.8-8.1-0.7-3.4 0.3-4.3-1-6.3-1.2-2.1 3.6-0.5 3.6-0.5z"/>
									<path id="&lt;Path&gt;" class="s34" d="m192.3 161.9l22 16.6-5.3 8.2c0 0-26-10.5-29.1-16.1-2.6-4.5-2-10 1.8-12.9 3.9-2.9 10.6 4.2 10.6 4.2z"/>
									<path id="&lt;Path&gt;" class="s23" d="m242.9 130c0 0 12.1 23.1 12.8 31.9 0.6 8.8-7.2 1.6-7.2 1.6l-8.9-33.8 1.8-0.7z"/>
									<path id="&lt;Path&gt;" class="s29" d="m239.7 128.8c0 0 14.8 32.5 14.5 34.8-0.6 4-1.5 10.6-4.6 12-3 1.4-9.5-7.4-10.2-12.7-0.7-5.2-4.9-34.8-4.9-34.8z"/>
									<path id="&lt;Path&gt;" class="s29" d="m244.5 106.6c0.4 1 1.4 10.2 0.6 11.8-0.8 1.7-4.8 9.6-5.6 11-0.8 1.3-4.4 0.3-4.9-0.5-0.6-0.9 0.5-9.1 0.8-10.5 0.3-1.3-1.9-8.3-1.8-9.8 0.2-1.5 5.3-5.3 6.7-5.6 1.3-0.4 3.7 2.5 4.2 3.6z"/>
									<path id="&lt;Path&gt;" class="s34" d="m255.7 162.8c0 0 1.9 12.5-4.6 13.6-6.4 1.1-11.2-4.6-12.7-11.4-1.6-6.9-4.6-33.2-4.6-33.2l7.6-2.8z"/>
								</g>
							</g>
						</g>
						<g id="&lt;Group&gt;">
							<path id="&lt;Path&gt;" class="s20" d="m323.9 262.9l8.5-26.6h63l12.8 28.4h-38.2c0 0 14.7 13.8-4.6 14.4-30.7 0.9-57.8 3.4-55.8-3.9 2.7-10.5 9.9-9.5 14.3-12.3z"/>
							<g id="&lt;Group&gt;">
								<path id="&lt;Path&gt;" class="s30" d="m393 248.3c0 0-1.1 1.3-2.9 1.3-2.1 0-2.8-1.3-2.8-1.3v-72.2h5.7z"/>
								<path id="&lt;Path&gt;" class="s30" d="m349.8 248.3c0 0-1 1.3-2.8 1.3-2.1 0-2.9-1.3-2.9-1.3v-72.2h5.7z"/>
								<g id="&lt;Group&gt;">
									<path id="&lt;Path&gt;" class="s30" d="m338.4 260.4c0 0-1.1 1.5-3 1.5-2.2 0-3-1.5-3-1.5v-82h6z"/>
									<path id="&lt;Path&gt;" class="s30" d="m403.7 260.4c0 0-1.1 1.5-3 1.5-2.2 0-3-1.5-3-1.5v-82h6z"/>
									<g id="&lt;Group&gt;">
										<path id="&lt;Path&gt;" class="s25" d="m413.8 189h-94.1v-7.1h94.1z"/>
										<path id="&lt;Path&gt;" class="s30" d="m319.7 181.9l14.2-7.6h72.9l7 7.6z"/>
									</g>
								</g>
							</g>
							<g id="&lt;Group&gt;">
								<path id="&lt;Path&gt;" class="s38" d="m373 270.2l-56.6 1.4c-1.3 0.1-2.4-0.9-2.4-2l-1.1-27.8c0-1.2 0.7-5 4.5-5 13.4 0 37.1-1.2 51.1-1.2 5.8 0 5.7 3.7 5.7 4.9l1 28.2c0 1.2-0.9 1.4-2.2 1.5z"/>
								<path id="&lt;Path&gt;" class="s11" d="m373 274.8l-56.6 1.5c-1.3 0-2.4-0.9-2.4-2l-1.1-32.5c0-1.2 1-2.2 2.3-2.2l56.6-1.5c1.3 0 2.4 0.9 2.4 2.1l1.1 32.5c0 1.1-1 2.1-2.3 2.1z"/>
								<path id="&lt;Path&gt;" class="s39" d="m322.4 269.6c-4.8-6-5.2-30-5.2-30h-2c-1.3 0-2.3 1-2.3 2.2l1.1 32.5c0 1.1 1.1 2 2.4 2l56.6-1.5c1.3 0 2.3-1 2.3-2.1l-0.1-2c0 0-49.2 3.4-52.8-1.1z"/>
								<path id="&lt;Path&gt;" class="s11" d="m343.2 229.7c4.5-0.1 9.5 4 9.6 7.9l3-0.1c-0.2-6-5.8-10.7-12.6-10.5-6.9 0.1-12.3 5.1-12.1 11.1h2.9c-0.1-4 4.7-8.3 9.2-8.4z"/>
							</g>
						</g>
						<g id="&lt;Group&gt;">
							<path id="&lt;Path&gt;" class="s20" d="m466.2 247.9c0 4.6 11.2 8.3 25.1 8.3 13.8 0 25.1-3.7 25.1-8.3 0-4.6-11.3-8.3-25.1-8.3-13.9 0-25.1 3.7-25.1 8.3z"/>
							<g id="&lt;Group&gt;">
								<path id="&lt;Path&gt;" class="s40" d="m466.6 207.5c0 1.1 11 2.3 24.5 2.3 13.6 0 24.6-1.2 24.6-2.3 0-1-11-1.4-24.6-1.4-13.5 0-24.5 0.4-24.5 1.4z"/>
								<path id="&lt;Path&gt;" class="s28" d="m512.8 208c0 0 0.6 36.2-11.1 42.4-6.1 3.2-15.9 2.4-20.7 0.1-10-4.7-11.5-42.5-11.5-42.5 0 0 9.1 1.3 21.6 1.2 13.3-0.2 21.7-1.2 21.7-1.2z"/>
								<g id="&lt;Group&gt;">
									<path id="&lt;Path&gt;" class="s41" d="m461.1 153c0 0-4.9 1.7-7 1.5-4.6-0.6-6.3-6.1-10-11.1 5.9 1 10.9 1.9 14.5 4.3 1.6 1 2.5 5.3 2.5 5.3z"/>
									<path id="&lt;Path&gt;" class="s41" d="m479.3 109.8c0 0-3.8 1.3-5.3 1.1-3.6-0.4-4.8-4.6-7.6-8.4 4.5 0.8 8.2 1.5 11 3.2 1.2 0.8 1.9 4.1 1.9 4.1z"/>
									<path id="&lt;Path&gt;" class="s41" d="m513.8 146.5c0 0 9.2 0.6 12.2-0.6 6.5-2.7 8.4-10.4 8.9-19.2-6.2 5.6-8.4 3.5-16.3 11.5-1.8 1.9-4.8 8.3-4.8 8.3z"/>
									<path id="&lt;Path&gt;" class="s41" d="m482.2 132.1c0 0 7-2 8.9-3.6 4-3.4 3.2-9.3 0.9-15.6-3 5.5-5.2 4.6-8.7 12.2-0.8 1.8-1.1 7-1.1 7z"/>
									<path id="&lt;Path&gt;" class="s16" d="m513.5 158.2c0 0-2.9 2.2-9 0-6.5-2.4-6.9-7.6-8.9-16.6 11.7 7.6 12.3 4.3 16.8 11.8 1.5 2.5 1.1 4.8 1.1 4.8z"/>
									<path id="&lt;Path&gt;" class="s16" d="m482.2 130.2c0 0-3.3 2.4-10.1 0-7.5-2.7-7.8-8.6-10.2-18.8 13.3 8.6 14 4.8 19 13.3 1.7 2.9 1.3 5.5 1.3 5.5z"/>
									<path id="&lt;Path&gt;" class="s16" d="m485.7 154.3c0 0-3 2.2-9 0-6.6-2.3-6.9-7.5-9-16.6 11.7 7.6 12.4 4.3 16.8 11.8 1.5 2.5 1.2 4.8 1.2 4.8z"/>
									<path id="&lt;Path&gt;" class="s42" d="m497.6 212c8.2-16.8 12.3-33.2 14.2-47.5-2.7-2.7-7.8-8.7-13.8-19.4 0.1-0.1 0.3-0.2 0.3-0.2 0 0 6.2 11 13.8 17.3 2.9-24.2-0.6-41.3-0.6-41.3 0 0 0 0 1.7-0.1 4.1 31.8 0.7 55.2-3.5 70.3 7.8-6.7 14.2-18.1 14.2-18.1 0 0 0.2 0.2 0.4 0.3-7.4 13-13.5 19.5-15.7 21.6-3.7 11.6-7.6 17.4-7.6 17.4z"/>
									<path id="&lt;Path&gt;" class="s42" d="m450.6 164.6c0.2-0.1 0.5-0.4 0.5-0.4 0 0 9.5 17 21.2 27.1-6.2-16.6-13.4-40.8-15-67.8 0.7 0 0.7 0 0.7 0 0 0-1.1 14.9 9.8 48.1 6.6-5.5 11-15.7 11-15.7 0 0 0.2 0.1 0.4 0.2-4.4 10.1-8.7 15.5-10.7 17.7 3.2 9.5 7.4 20.4 12.8 32.9 8.5-63.8-8-120.4-8-120.4 0 0 0 0 1.7-0.2 3.9 16.5 6.6 31.4 8.5 44.8 8.1-6.8 15.8-19.1 15.8-19.1 0 0 0.3 0.1 0.4 0.2-7.5 13.2-13.6 19.6-15.8 21.8 7.6 57.6-1.2 81.6-1.2 81.6l-3.5-0.3c0.6-3 1-1.3 1.5-4.3-1.4-2.7-3.4-7.2-5.8-13-2.6-2.3-12.3-11.9-24.3-33.2z"/>
									<path id="&lt;Path&gt;" class="s43" d="m514.7 146.7c0 0 4.2 2 6 2 4.1-0.1 6.1-4.8 9.8-8.8-5.3 0.3-9.7 0.6-13.1 2.3-1.5 0.8-2.7 4.5-2.7 4.5z"/>
									<path id="&lt;Path&gt;" class="s43" d="m512.1 165.2c0 0 4.8 2.3 7 2.3 4.8 0 7.1-5.5 11.4-10.2-6.2 0.4-11.3 0.8-15.3 2.8-1.7 0.8-3.1 5.1-3.1 5.1z"/>
									<path id="&lt;Path&gt;" class="s43" d="m465.1 165.6c0 0 4.5-0.5 6.1-1.5 3.5-2.3 2.6-7.3 3.6-12.7-4.3 3.1-7.9 5.8-9.8 9-0.9 1.5 0.1 5.2 0.1 5.2z"/>
									<path id="&lt;Path&gt;" class="s43" d="m500.7 149c0 0-3.8-0.2-5.2-0.9-3.1-1.6-2.7-5.9-3.9-10.3 3.8 2.2 7 4.2 8.9 6.8 0.8 1.2 0.2 4.4 0.2 4.4z"/>
									<path id="&lt;Path&gt;" class="s41" d="m504.1 193.6c0 0 9.5 7.3 13.6 8.2 9 1.8 16.7-5.1 23.7-14.3-10.9 1.5-11.6-2.3-26.1 0.6-3.3 0.7-11.2 5.5-11.2 5.5z"/>
									<path id="&lt;Path&gt;" class="s16" d="m486.1 165.4c0 0 3.7 0.6 5.2 0.1 3.2-1 3.6-5.2 5.5-9.3-4 1.5-7.4 2.9-9.7 5.1-1 1-1 4.1-1 4.1z"/>
									<path id="&lt;Path&gt;" class="s16" d="m491.3 124.2c0 0 4.8 2.1 6.7 2.1 4-0.2 6.6-4 8.7-8.7-4.6 1.8-5.3 0.2-11.2 3-1.4 0.7-4.2 3.6-4.2 3.6z"/>
									<path id="&lt;Path&gt;" class="s16" d="m460.7 152.7c0 0 6-3.7 7.2-5.6 2.7-4.1 0.1-8.6-4-13-1.1 5.4-3.4 5.3-4.3 12.6-0.2 1.7 1.1 6 1.1 6z"/>
									<path id="&lt;Path&gt;" class="s43" d="m497.3 115.6c0 0-0.9-3.9-0.5-5.4 0.8-3.5 5.1-4.2 9.2-6.5-1.3 4.3-2.4 7.9-4.5 10.5-0.9 1.1-4.2 1.4-4.2 1.4z"/>
									<path id="&lt;Path&gt;" class="s43" d="m517.4 182.5c0 0 2.7-4.5 4.5-5.7 3.8-2.5 8.7 0.7 14.7 2.2-5.1 3-9.5 5.4-13.8 6-1.9 0.2-5.4-2.5-5.4-2.5z"/>
									<path id="&lt;Path&gt;" class="s41" d="m484.3 167.7c0 0 2.5-3.7 4.1-4.6 3.5-2 7.5 1 12.6 2.6-4.6 2.4-8.5 4.2-12.2 4.5-1.7 0.1-4.5-2.5-4.5-2.5z"/>
									<path id="&lt;Path&gt;" class="s41" d="m464.6 165.9c0 0 2.2-3.3 3.6-4.1 3.1-1.7 6.6 0.9 11.1 2.4-4.1 2-7.5 3.6-10.8 3.8-1.4 0.1-3.9-2.1-3.9-2.1z"/>
									<path id="&lt;Path&gt;" class="s43" d="m506.5 195.2c0 0-6.1 1.2-8.5 0.6-5.4-1.4-6.4-8.3-10-14.8 6.9 2.1 12.6 4.1 16.5 7.4 1.7 1.5 2 6.8 2 6.8z"/>
									<path id="&lt;Path&gt;" class="s16" d="m520.7 177.8c0 0 4.7 1.3 6.7 0.9 4.3-0.8 5.5-6.2 8.6-11.2-5.5 1.4-10.1 2.7-13.4 5.1-1.4 1.1-1.9 5.2-1.9 5.2z"/>
									<path id="&lt;Path&gt;" class="s43" d="m478.1 157.4c0 0 2.6 0.4 3.4 0.1 1.9-0.7 1.2-3.2 1.5-5.8-2.3 1-4.2 1.8-5.2 3.1-0.5 0.7 0.3 2.6 0.3 2.6z"/>
									<path id="&lt;Path&gt;" class="s43" d="m457.9 125c0 0 2-1.8 2.3-2.6 0.8-1.9-1.7-3-3.4-4.9-0.8 2.4-1.4 4.4-1 6 0.1 0.8 2.1 1.5 2.1 1.5z"/>
									<path id="&lt;Path&gt;" class="s43" d="m451.3 164.9c0 0-3.8 1.6-5.2 1.5-3.2-0.1-3.2-4.3-4.8-8 4 0.4 7.3 0.9 9.3 2.5 1 0.7 0.7 4 0.7 4z"/>
									<path id="&lt;Path&gt;" class="s43" d="m459.6 139.8c0 0-1.4 3.4-2.3 4.3-2.1 1.8-4.7-0.8-8-2.2 2.8-2.2 5.1-3.9 7.4-4.2 1.1-0.1 2.9 2.1 2.9 2.1z"/>
									<path id="&lt;Path&gt;" class="s43" d="m475.7 97.1c0 0 5.4-3 6.7-4.9 2.8-4-1.8-8.6-4.3-14.4-3.3 5.3-5.9 9.9-6.1 14.2-0.1 1.9 3.7 5.1 3.7 5.1z"/>
									<path id="&lt;Path&gt;" class="s43" d="m513.2 128.9c0 0 5.3-4.1 6.5-6.6 2.5-5.4-2.4-11-5.3-18.4-3 7.1-5.3 13.1-5.3 18.6 0 2.5 4.1 6.4 4.1 6.4z"/>
									<path id="&lt;Path&gt;" class="s43" d="m470.2 192.1c0 0 7.2-3.3 8.1-7.5 1.3-6.5 1-9.1-1.5-17.2-5.5 6.3-8.2 11.7-9.3 17.2-0.4 2.6 2.7 7.5 2.7 7.5z"/>
									<path id="&lt;Path&gt;" class="s41" d="m513.3 128.7c0 0-3.7-0.1-5.1-0.9-4.1-2.5-5-4.6-5-11.2 10.1 3 10.1 12.1 10.1 12.1z"/>
									<path id="&lt;Path&gt;" class="s41" d="m459.6 140c0 0-5.1-0.2-7-1.3-5.8-3.5-7-6.4-7-15.6 14 4.1 14 16.9 14 16.9z"/>
									<path id="&lt;Path&gt;" class="s16" d="m513.2 128.7c0 0 3.7-0.1 5-0.9 4.2-2.5 5-4.6 5-11.2-10 3-10 12.1-10 12.1z"/>
									<path id="&lt;Path&gt;" class="s16" d="m511.3 175.3c0 0-4.6-1.8-6-3.3-3-3.3-0.7-8.3-0.3-14.3 3.7 4.5 6.7 8.2 7.9 12.2 0.5 1.8-1.6 5.4-1.6 5.4z"/>
									<path id="&lt;Path&gt;" class="s16" d="m463.6 182.1c0 0-5.8-2.3-7.5-4.1-3.7-4.1-0.9-10.3-0.3-17.7 4.5 5.4 8.2 10.1 9.7 15 0.6 2.3-1.9 6.8-1.9 6.8z"/>
									<path id="&lt;Path&gt;" class="s43" d="m511.4 175.5c0 0-5.6 2.7-8.1 2.7-5.6-0.1-8.3-6.5-13.3-12 7.1 0.5 13.2 1 17.8 3.3 2.1 1 3.6 6 3.6 6z"/>
									<path id="&lt;Path&gt;" class="s43" d="m464.6 185.6c0 0-6.9 3.4-10.1 3.4-6.9-0.1-10.2-8-16.4-14.9 8.8 0.6 16.3 1.2 22 4 2.6 1.3 4.5 7.5 4.5 7.5z"/>
									<path id="&lt;Path&gt;" class="s43" d="m514.6 142.4c0 0-6.5 3.1-9.4 3.1-6.5 0-9.6-7.4-15.4-13.8 8.3 0.5 15.2 1.1 20.6 3.7 2.4 1.2 4.2 7 4.2 7z"/>
									<path id="&lt;Path&gt;" class="s41" d="m513.4 140.6c0 0-5.4 2-7.7 1.7-5.2-0.6-7-6.7-11.1-12.3 6.6 1.1 12 2.2 16.1 4.7 1.8 1.2 2.7 5.9 2.7 5.9z"/>
									<path id="&lt;Path&gt;" class="s41" d="m483.4 148.9c0 0-3.9-0.4-5.3-1.2-3-1.8-2.4-6.1-3.3-10.7 3.7 2.5 6.8 4.7 8.6 7.4 0.8 1.3 0 4.5 0 4.5z"/>
									<path id="&lt;Path&gt;" class="s41" d="m481.5 127.4c0 0-4.3 1.5-6.1 1.3-3.9-0.4-5.3-5.2-8.5-9.5 5.1 0.9 9.3 1.7 12.4 3.7 1.4 0.9 2.2 4.5 2.2 4.5z"/>
									<path id="&lt;Path&gt;" class="s41" d="m485.9 191.9c0 0-4.8 1-6.7 0.5-4.3-1.1-5.1-6.5-7.9-11.7 5.4 1.7 9.9 3.2 13 5.9 1.4 1.2 1.6 5.3 1.6 5.3z"/>
								</g>
								<path id="&lt;Path&gt;" class="s33" d="m468.1 214.7c-3.1-3.1-1.5-7.2-1.5-7.2 0 0 10.3 1.5 24.5 1.3 15.1-0.2 24.6-1.3 24.6-1.3 0 0 1.5 4.2-1.7 7.2-1.9 1.9-44.1 1.9-45.9 0z"/>
							</g>
						</g>
					</g>
				</g>
				<g id="&lt;Group&gt;">
					<g id="&lt;Group&gt;">
						<path id="&lt;Compound Path&gt;" class="s14" d="m616.5 58.6q0.4 0 0.7 0.3 0.3 0.3 0.3 0.7v14.4q0 2.5-0.8 4.4-0.8 1.9-2.3 3.2-1.4 1.3-3.4 1.9-2.1 0.7-4.5 0.7-2.4 0-4.4-0.7-2-0.6-3.5-1.9-1.4-1.3-2.2-3.2-0.8-1.9-0.8-4.4v-14.4q0-0.4 0.3-0.7 0.3-0.3 0.7-0.3h4.7q0.4 0 0.7 0.3 0.3 0.3 0.3 0.7v14.2q0 2.2 1 3.4 1.1 1.2 3.2 1.2 2.2 0 3.3-1.2 1-1.2 1-3.4v-14.2q0-0.4 0.3-0.7 0.3-0.3 0.7-0.3z"/>
						<path id="&lt;Compound Path&gt;" class="s14" d="m639.5 83.8q-0.6 0-0.9-0.3-0.4-0.3-0.5-0.5l-8.3-12.3v12.2q0 0.4-0.3 0.6-0.2 0.3-0.6 0.3h-4.8q-0.4 0-0.6-0.3-0.3-0.2-0.3-0.6v-23.3q0-0.4 0.3-0.7 0.2-0.3 0.6-0.3h3.8q0.6 0 1 0.4 0.4 0.3 0.5 0.5l8.2 12.3v-12.2q0-0.4 0.3-0.7 0.3-0.3 0.7-0.3h4.7q0.4 0 0.7 0.3 0.3 0.3 0.3 0.7v23.3q0 0.4-0.3 0.6-0.3 0.3-0.7 0.3z"/>
						<path id="&lt;Compound Path&gt;" class="s14" d="m668.2 78.1q0.4 0 0.7 0.3 0.3 0.3 0.3 0.6v3.9q0 0.4-0.3 0.6-0.3 0.3-0.7 0.3h-17q-0.4 0-0.7-0.3-0.3-0.2-0.3-0.6v-23.3q0-0.4 0.3-0.7 0.3-0.3 0.7-0.3h16.8q0.3 0 0.6 0.3 0.3 0.3 0.3 0.7v3.8q0 0.4-0.3 0.7-0.3 0.3-0.6 0.3h-11.1v3.9h10.3q0.4 0 0.6 0.3 0.3 0.3 0.3 0.7v3.8q0 0.4-0.3 0.7-0.2 0.2-0.6 0.2h-10.3v4.1z"/>
						<path id="&lt;Compound Path&gt;" class="s14" d="m684.8 77.5q-0.3-0.3-0.5-0.6l-3.4-6v12q0 0.4-0.3 0.6-0.3 0.3-0.7 0.3h-4.7q-0.4 0-0.7-0.3-0.2-0.2-0.2-0.6v-23.3q0-0.4 0.2-0.7 0.3-0.3 0.7-0.3h4.2q0.7 0 1.1 0.4 0.3 0.4 0.4 0.6l5.9 10 5.8-10q0.1-0.2 0.5-0.6 0.3-0.4 1.1-0.4h4.1q0.4 0 0.7 0.3 0.3 0.3 0.3 0.7v23.3q0 0.4-0.3 0.6-0.3 0.3-0.7 0.3h-4.7q-0.4 0-0.7-0.3-0.3-0.2-0.3-0.6v-12l-3.3 6q-0.2 0.3-0.5 0.6-0.3 0.3-0.9 0.3h-2.3q-0.5 0-0.8-0.3z"/>
						<path id="&lt;Compound Path&gt;" fill-rule="evenodd" class="s14" d="m716.5 58.6q2.3 0 4.2 0.6 1.8 0.5 3.1 1.5 1.3 1.1 2 2.7 0.7 1.6 0.7 3.7 0 2.1-0.7 3.7-0.7 1.6-2 2.6-1.3 1-3.1 1.6-1.9 0.5-4.2 0.5h-4.6v7.4q0 0.4-0.3 0.6-0.3 0.3-0.7 0.3h-4.7q-0.4 0-0.7-0.3-0.3-0.2-0.3-0.6v-23.3q0-0.4 0.3-0.7 0.3-0.3 0.7-0.3zm-4.6 11.3h4.4q1.6 0 2.5-0.7 1-0.6 1-2.1 0-1.6-1-2.2-0.9-0.7-2.5-0.7h-4.4z"/>
						<path id="&lt;Compound Path&gt;" class="s14" d="m748.5 78.1q0.4 0 0.7 0.3 0.3 0.3 0.3 0.6v3.9q0 0.4-0.3 0.6-0.3 0.3-0.7 0.3h-16.7q-0.4 0-0.7-0.3-0.3-0.2-0.3-0.6v-23.3q0-0.4 0.3-0.7 0.3-0.3 0.7-0.3h4.7q0.4 0 0.7 0.3 0.3 0.3 0.3 0.7v18.5z"/>
						<path id="&lt;Compound Path&gt;" fill-rule="evenodd" class="s14" d="m752.3 68q0.1-2 0.8-3.8 0.8-1.7 2.2-3.1 1.5-1.3 3.5-2.1 2-0.7 4.7-0.7 2.6 0 4.7 0.7 2 0.8 3.4 2.1 1.5 1.4 2.2 3.1 0.8 1.8 0.9 3.8 0.1 1.6 0.1 3.3 0 1.7-0.1 3.1-0.1 2.1-0.9 3.8-0.7 1.8-2.2 3.2-1.4 1.3-3.4 2-2.1 0.8-4.7 0.8-2.7 0-4.7-0.8-2-0.7-3.5-2-1.4-1.4-2.2-3.2-0.7-1.7-0.8-3.8-0.1-1.4-0.1-3.1 0-1.7 0.1-3.3zm15.8 6.3q0-0.7 0-1.5 0.1-0.8 0.1-1.6 0-0.8-0.1-1.6 0-0.8 0-1.4-0.1-0.9-0.4-1.6-0.3-0.8-0.9-1.4-0.5-0.5-1.4-0.8-0.8-0.4-1.9-0.4-1.1 0-1.9 0.4-0.9 0.3-1.4 0.8-0.6 0.6-0.9 1.4-0.3 0.7-0.4 1.6 0 0.6-0.1 1.4 0 0.8 0 1.6 0 0.8 0 1.6 0.1 0.8 0.1 1.5 0.2 1.8 1.3 2.9 1.1 1.2 3.3 1.2 2.2 0 3.3-1.2 1.1-1.1 1.3-2.9z"/>
						<path id="&lt;Compound Path&gt;" class="s14" d="m791.7 82.9q0 0.4-0.3 0.6-0.3 0.3-0.7 0.3h-4.7q-0.4 0-0.7-0.3-0.2-0.2-0.2-0.6v-7.7l-8.4-15.3q-0.1-0.3-0.1-0.5 0-0.3 0.2-0.5 0.3-0.3 0.6-0.3h4.9q0.7 0 1.1 0.4 0.4 0.4 0.4 0.5l4.6 8.9 4.5-8.9q0.1-0.1 0.5-0.5 0.3-0.4 1.1-0.4h4.9q0.3 0 0.5 0.3 0.3 0.2 0.3 0.5 0 0.2-0.2 0.5l-8.3 15.3z"/>
						<path id="&lt;Compound Path&gt;" class="s14" d="m822.2 78.1q0.4 0 0.7 0.3 0.3 0.3 0.3 0.6v3.9q0 0.4-0.3 0.6-0.3 0.3-0.7 0.3h-17.1q-0.3 0-0.6-0.3-0.3-0.2-0.3-0.6v-23.3q0-0.4 0.3-0.7 0.3-0.3 0.6-0.3h16.8q0.4 0 0.7 0.3 0.3 0.3 0.3 0.7v3.8q0 0.4-0.3 0.7-0.3 0.3-0.7 0.3h-11.1v3.9h10.3q0.4 0 0.7 0.3 0.3 0.3 0.3 0.7v3.8q0 0.4-0.3 0.7-0.3 0.2-0.7 0.2h-10.3v4.1z"/>
						<path id="&lt;Compound Path&gt;" fill-rule="evenodd" class="s14" d="m838.7 58.6q2.5 0 4.6 0.8 2 0.7 3.5 2 1.5 1.4 2.4 3.2 0.8 1.9 0.9 4.1 0 0.7 0 1.4 0 0.6 0 1.2 0 0.5 0 1.2 0 0.6 0 1.3-0.1 2.2-0.9 4.1-0.9 1.8-2.3 3.1-1.5 1.4-3.5 2.1-2 0.7-4.5 0.7h-9.7q-0.4 0-0.7-0.3-0.3-0.2-0.3-0.6v-23.3q0-0.4 0.3-0.7 0.3-0.3 0.7-0.3zm4.7 9.9q-0.2-4.1-4.9-4.1h-3.7v13.7h3.9q4.5 0 4.7-4.2 0-0.7 0-1.4 0-0.7 0-1.3 0-0.6 0-1.3 0-0.6 0-1.4z"/>
					</g>
					<g id="&lt;Group&gt;">
						<path id="&lt;Compound Path&gt;" class="s14" d="m686.8 104q0-0.3 0.3-0.3h0.2q0.3 0 0.3 0.3v4.8q0 1.8-0.8 2.6-0.8 0.8-2.3 0.8-0.7 0-1.3-0.2-0.6-0.2-1-0.6-0.4-0.4-0.6-1.1-0.2-0.6-0.2-1.5v-4.8q0-0.3 0.3-0.3h0.2q0.3 0 0.3 0.3v4.9q0 1.3 0.6 2 0.6 0.6 1.7 0.6 1.1 0 1.7-0.6 0.6-0.7 0.6-2z"/>
						<path id="&lt;Compound Path&gt;" class="s14" d="m690.8 110q0 0.7 0.2 1 0.3 0.4 0.8 0.4h0.6q0.3 0 0.3 0.3v0.1q0 0.3-0.3 0.3h-0.7q-0.4 0-0.8-0.2-0.3-0.1-0.5-0.4-0.1-0.3-0.2-0.6-0.1-0.4-0.1-0.8v-3.6h-0.9q-0.3 0-0.3-0.2v-0.2q0-0.3 0.3-0.3h0.9v-2q0-0.2 0.3-0.2h0.2q0.2 0 0.2 0.2v2h1.5q0.3 0 0.3 0.3v0.2q0 0.2-0.3 0.2h-1.5z"/>
						<path id="&lt;Compound Path&gt;" fill-rule="evenodd" class="s14" d="m696.7 108.5q0.1-0.6 0.3-1.1 0.2-0.5 0.5-0.9 0.3-0.4 0.8-0.6 0.5-0.2 1.1-0.2 1.2 0 1.9 0.8 0.7 0.9 0.7 2.3v0.2q0 0.1-0.1 0.2-0.1 0.1-0.2 0.1h-4.2v0.1q0 0.4 0.1 0.8 0.1 0.4 0.4 0.7 0.2 0.2 0.6 0.4 0.3 0.2 0.8 0.2 0.3 0 0.6-0.1 0.3-0.1 0.5-0.2 0.2-0.1 0.3-0.3 0.2-0.1 0.2-0.2 0.1-0.1 0.2-0.2 0 0 0.2 0h0.2q0.1 0 0.2 0.1 0 0 0 0.2 0 0.1-0.2 0.4-0.1 0.2-0.5 0.5-0.3 0.2-0.7 0.3-0.5 0.2-1 0.2-0.6 0-1.1-0.2-0.5-0.2-0.8-0.6-0.3-0.3-0.5-0.8-0.2-0.5-0.3-1.2 0-0.1 0-0.4 0-0.3 0-0.5zm0.8 0.1h3.8v-0.1q0-0.4-0.2-0.8-0.1-0.4-0.3-0.7-0.3-0.3-0.6-0.4-0.4-0.2-0.8-0.2-0.5 0-0.9 0.2-0.3 0.1-0.5 0.4-0.3 0.3-0.4 0.7-0.1 0.4-0.1 0.8z"/>
						<path id="&lt;Compound Path&gt;" class="s14" d="m708.8 111.8q0 0.3-0.3 0.3h-0.2q-0.3 0-0.3-0.3v-3.3q0.1-1-0.4-1.5-0.5-0.6-1.4-0.6-0.9 0-1.4 0.6-0.5 0.5-0.5 1.5v3.3q0 0.3-0.2 0.3h-0.2q-0.3 0-0.3-0.3v-5.7q0-0.3 0.3-0.3h0.2q0.2 0 0.2 0.3v0.6q0.3-0.4 0.8-0.7 0.5-0.3 1.2-0.3 0.6 0 1.1 0.2 0.5 0.2 0.8 0.6 0.3 0.4 0.4 0.8 0.2 0.5 0.2 1.1z"/>
						<path id="&lt;Compound Path&gt;" class="s14" d="m711.5 104.3q0 0.1 0 0.2-0.1 0.1-0.2 0.1h-0.5q-0.3 0-0.3-0.3v-0.5q0-0.1 0.1-0.2 0.1 0 0.2 0h0.5q0.1 0 0.2 0 0 0.1 0 0.2zm-0.1 7.6q0 0.2-0.3 0.2h-0.2q-0.2 0-0.2-0.2v-5.7q0-0.3 0.2-0.3h0.2q0.3 0 0.3 0.3z"/>
						<path id="&lt;Compound Path&gt;" class="s14" d="m714.1 106.5q0.3-0.4 0.7-0.6 0.4-0.2 1-0.2 0.7 0 1.2 0.3 0.4 0.3 0.7 0.9 0.3-0.6 0.8-0.9 0.6-0.3 1.2-0.3 0.5 0 0.9 0.2 0.4 0.2 0.7 0.5 0.3 0.3 0.5 0.8 0.2 0.5 0.2 1.1v3.5q0 0.3-0.3 0.3h-0.2q-0.2 0-0.2-0.3v-3.4q0-0.5-0.2-0.9-0.1-0.4-0.3-0.7-0.3-0.2-0.6-0.3-0.2-0.1-0.6-0.1-0.2 0-0.5 0.1-0.3 0.1-0.5 0.3-0.3 0.3-0.4 0.7-0.2 0.4-0.2 0.9v3.4q0 0.3-0.2 0.3h-0.2q-0.3 0-0.3-0.3v-3.4q0-0.5-0.1-0.9-0.2-0.4-0.4-0.7-0.2-0.2-0.5-0.3-0.3-0.1-0.6-0.1-0.3 0-0.6 0.1-0.3 0.1-0.5 0.3-0.2 0.3-0.4 0.7-0.1 0.3-0.1 0.9v3.4q0 0.3-0.3 0.3h-0.2q-0.3 0-0.3-0.3v-5.7q0-0.3 0.3-0.3h0.2q0.3 0 0.3 0.3z"/>
						<path id="&lt;Compound Path&gt;" fill-rule="evenodd" class="s14" d="m731 112.1q-0.2 0-0.2-0.3v-0.5q-0.1 0.1-0.3 0.3-0.2 0.2-0.4 0.3-0.3 0.1-0.6 0.2-0.4 0.1-0.8 0.1-0.5 0-0.9-0.1-0.4-0.2-0.7-0.4-0.2-0.3-0.4-0.6-0.2-0.3-0.2-0.7 0-0.4 0.2-0.7 0.2-0.3 0.5-0.6 0.3-0.2 0.7-0.4 0.5-0.2 1-0.2l1.9-0.3v-0.4q0-0.7-0.4-1-0.4-0.4-1.3-0.4-0.6 0-1 0.3-0.4 0.2-0.5 0.5 0 0.2-0.1 0.2 0 0.1-0.1 0.1h-0.2q-0.1 0-0.2-0.1-0.1-0.1-0.1-0.2 0-0.1 0.1-0.4 0.2-0.2 0.4-0.5 0.3-0.2 0.7-0.4 0.4-0.2 1-0.2 0.8 0 1.2 0.2 0.5 0.2 0.7 0.5 0.3 0.3 0.4 0.7 0.1 0.4 0.1 0.7v4q0 0.3-0.3 0.3zm-2.2-0.6q0.4 0 0.8-0.1 0.3-0.2 0.6-0.4 0.3-0.3 0.4-0.7 0.2-0.5 0.2-1v-0.4l-1.6 0.2q-2 0.3-2 1.3 0 0.3 0.2 0.5 0.1 0.2 0.3 0.3 0.2 0.2 0.5 0.2 0.3 0.1 0.6 0.1z"/>
						<path id="&lt;Compound Path&gt;" fill-rule="evenodd" class="s14" d="m735.7 105.7q0.7 0 1.2 0.3 0.5 0.3 0.8 0.7v-2.9q0-0.2 0.2-0.2h0.2q0.3 0 0.3 0.2v8q0 0.3-0.3 0.3h-0.2q-0.2 0-0.2-0.3v-0.5q-0.3 0.4-0.8 0.6-0.5 0.3-1.2 0.3-0.7 0-1.2-0.3-0.5-0.2-0.8-0.6-0.3-0.4-0.5-1-0.1-0.5-0.1-1 0-0.3 0-0.7 0-0.5 0.1-1 0.2-0.5 0.5-0.9 0.3-0.5 0.8-0.7 0.5-0.3 1.2-0.3zm2 3.7q0-0.2 0-0.5 0-0.3 0-0.4 0-0.4-0.1-0.8-0.2-0.3-0.4-0.6-0.2-0.3-0.6-0.5-0.4-0.2-0.9-0.2-0.5 0-0.8 0.2-0.4 0.2-0.6 0.5-0.2 0.3-0.4 0.7-0.1 0.4-0.1 0.8 0 0.4 0 0.7 0 0.4 0.1 0.8 0.2 0.4 0.4 0.7 0.2 0.3 0.6 0.5 0.3 0.2 0.8 0.2 0.5 0 0.9-0.2 0.4-0.2 0.6-0.5 0.2-0.3 0.4-0.7 0.1-0.3 0.1-0.7z"/>
						<path id="&lt;Compound Path&gt;" class="s14" d="m744.2 106.5q0.3-0.4 0.7-0.6 0.4-0.2 1-0.2 0.7 0 1.2 0.3 0.5 0.3 0.7 0.9 0.3-0.6 0.8-0.9 0.6-0.3 1.3-0.3 0.4 0 0.9 0.2 0.4 0.2 0.7 0.5 0.3 0.3 0.4 0.8 0.2 0.5 0.2 1.1v3.5q0 0.3-0.3 0.3h-0.2q-0.2 0-0.2-0.3v-3.4q0-0.5-0.2-0.9-0.1-0.4-0.3-0.7-0.2-0.2-0.5-0.3-0.3-0.1-0.7-0.1-0.2 0-0.5 0.1-0.3 0.1-0.5 0.3-0.3 0.3-0.4 0.7-0.1 0.4-0.1 0.9v3.4q0 0.3-0.3 0.3h-0.2q-0.3 0-0.3-0.3v-3.4q0-0.5-0.1-0.9-0.2-0.4-0.4-0.7-0.2-0.2-0.5-0.3-0.3-0.1-0.6-0.1-0.3 0-0.6 0.1-0.3 0.1-0.5 0.3-0.2 0.3-0.4 0.7-0.1 0.3-0.1 0.9v3.4q0 0.3-0.3 0.3h-0.2q-0.2 0-0.2-0.3v-5.7q0-0.3 0.2-0.3h0.2q0.3 0 0.3 0.3z"/>
						<path id="&lt;Compound Path&gt;" class="s14" d="m754.9 104.3q0 0.1-0.1 0.2-0.1 0.1-0.2 0.1h-0.5q-0.2 0-0.2-0.3v-0.5q0-0.1 0-0.2 0.1 0 0.2 0h0.5q0.1 0 0.2 0 0.1 0.1 0.1 0.2zm-0.2 7.6q0 0.2-0.2 0.2h-0.2q-0.3 0-0.3-0.2v-5.7q0-0.3 0.3-0.3h0.2q0.2 0 0.2 0.3z"/>
						<path id="&lt;Compound Path&gt;" class="s14" d="m761.9 111.8q0 0.3-0.3 0.3h-0.2q-0.3 0-0.3-0.3v-3.3q0-1-0.4-1.5-0.5-0.6-1.4-0.6-0.9 0-1.4 0.6-0.5 0.5-0.5 1.5v3.3q0 0.3-0.3 0.3h-0.2q-0.2 0-0.2-0.3v-5.7q0-0.3 0.2-0.3h0.2q0.3 0 0.3 0.3v0.6q0.3-0.4 0.8-0.7 0.4-0.3 1.2-0.3 0.6 0 1.1 0.2 0.4 0.2 0.8 0.6 0.3 0.4 0.4 0.8 0.2 0.5 0.2 1.1z"/>
						<path id="&lt;Compound Path&gt;" class="s14" d="m764.6 104.3q0 0.1-0.1 0.2 0 0.1-0.2 0.1h-0.4q-0.3 0-0.3-0.3v-0.5q0-0.1 0.1-0.2 0.1 0 0.2 0h0.4q0.2 0 0.2 0 0.1 0.1 0.1 0.2zm-0.1 7.6q0 0.2-0.3 0.2h-0.2q-0.2 0-0.2-0.2v-5.7q0-0.3 0.2-0.3h0.2q0.3 0 0.3 0.3z"/>
						<path id="&lt;Compound Path&gt;" class="s14" d="m767.2 106.5q0.3-0.4 0.7-0.6 0.4-0.2 1-0.2 0.7 0 1.1 0.3 0.5 0.3 0.8 0.9 0.3-0.6 0.8-0.9 0.5-0.3 1.2-0.3 0.5 0 0.9 0.2 0.4 0.2 0.7 0.5 0.3 0.3 0.5 0.8 0.2 0.5 0.2 1.1v3.5q0 0.3-0.3 0.3h-0.2q-0.3 0-0.3-0.3v-3.4q0-0.5-0.1-0.9-0.1-0.4-0.3-0.7-0.3-0.2-0.6-0.3-0.3-0.1-0.6-0.1-0.3 0-0.5 0.1-0.3 0.1-0.6 0.3-0.2 0.3-0.3 0.7-0.2 0.4-0.2 0.9v3.4q0 0.3-0.2 0.3h-0.2q-0.3 0-0.3-0.3v-3.4q0-0.5-0.2-0.9-0.1-0.4-0.3-0.7-0.3-0.2-0.5-0.3-0.3-0.1-0.6-0.1-0.3 0-0.6 0.1-0.3 0.1-0.5 0.3-0.3 0.3-0.4 0.7-0.1 0.3-0.1 0.9v3.4q0 0.3-0.3 0.3h-0.2q-0.3 0-0.3-0.3v-5.7q0-0.3 0.3-0.3h0.2q0.3 0 0.3 0.3z"/>
						<path id="&lt;Compound Path&gt;" class="s14" d="m781.6 112q-0.1-0.1-0.2-0.2l-2.2-5.6q0-0.1 0-0.1 0-0.1 0.1-0.2 0-0.1 0.1-0.1h0.3q0.1 0 0.2 0.1 0 0.1 0.1 0.1l2 5.2 2-5.2q0 0 0.1-0.1 0.1-0.1 0.2-0.1h0.2q0.1 0 0.2 0.1 0.1 0.1 0.1 0.2 0 0-0.1 0.1l-2.2 5.6q0 0.1-0.1 0.2-0.1 0.1-0.3 0.1h-0.2q-0.2 0-0.3-0.1z"/>
						<path id="&lt;Compound Path&gt;" fill-rule="evenodd" class="s14" d="m785.6 108.5q0.1-0.6 0.3-1.1 0.2-0.5 0.5-0.9 0.3-0.4 0.8-0.6 0.5-0.2 1.1-0.2 1.2 0 1.9 0.8 0.7 0.9 0.7 2.3v0.2q0 0.1-0.1 0.2 0 0.1-0.2 0.1h-4.2v0.1q0 0.4 0.1 0.8 0.2 0.4 0.4 0.7 0.2 0.2 0.6 0.4 0.3 0.2 0.8 0.2 0.4 0 0.6-0.1 0.3-0.1 0.5-0.2 0.2-0.1 0.4-0.3 0.1-0.1 0.1-0.2 0.1-0.1 0.2-0.2 0.1 0 0.2 0h0.2q0.1 0 0.2 0.1 0.1 0 0 0.2 0 0.1-0.1 0.4-0.2 0.2-0.5 0.5-0.4 0.2-0.8 0.3-0.5 0.2-1 0.2-0.6 0-1.1-0.2-0.4-0.2-0.8-0.6-0.3-0.3-0.5-0.8-0.2-0.5-0.3-1.2 0-0.1 0-0.4 0-0.3 0-0.5zm0.8 0.1h3.8v-0.1q0-0.4-0.1-0.8-0.2-0.4-0.4-0.7-0.3-0.3-0.6-0.4-0.4-0.2-0.8-0.2-0.5 0-0.8 0.2-0.4 0.1-0.6 0.4-0.3 0.3-0.4 0.7-0.1 0.4-0.1 0.8z"/>
						<path id="&lt;Compound Path&gt;" class="s14" d="m797.7 111.8q0 0.3-0.3 0.3h-0.2q-0.2 0-0.2-0.3v-3.3q0-1-0.5-1.5-0.5-0.6-1.4-0.6-0.8 0-1.3 0.6-0.6 0.5-0.6 1.5v3.3q0 0.3-0.2 0.3h-0.2q-0.3 0-0.3-0.3v-5.7q0-0.3 0.3-0.3h0.2q0.2 0 0.2 0.3v0.6q0.4-0.4 0.8-0.7 0.5-0.3 1.3-0.3 0.6 0 1 0.2 0.5 0.2 0.8 0.6 0.3 0.4 0.4 0.8 0.2 0.5 0.2 1.1z"/>
						<path id="&lt;Compound Path&gt;" class="s14" d="m800.4 104.3q0 0.1 0 0.2-0.1 0.1-0.2 0.1h-0.5q-0.2 0-0.2-0.3v-0.5q0-0.1 0-0.2 0.1 0 0.2 0h0.5q0.1 0 0.2 0 0 0.1 0 0.2zm-0.1 7.6q0 0.2-0.2 0.2h-0.3q-0.2 0-0.2-0.2v-5.7q0-0.3 0.2-0.3h0.3q0.2 0 0.2 0.3z"/>
						<path id="&lt;Compound Path&gt;" fill-rule="evenodd" class="s14" d="m806.3 112.1q-0.2 0-0.2-0.3v-0.5q-0.1 0.1-0.3 0.3-0.2 0.2-0.4 0.3-0.3 0.1-0.6 0.2-0.4 0.1-0.9 0.1-0.4 0-0.8-0.1-0.4-0.2-0.7-0.4-0.3-0.3-0.4-0.6-0.2-0.3-0.2-0.7 0-0.4 0.2-0.7 0.1-0.3 0.5-0.6 0.3-0.2 0.7-0.4 0.4-0.2 1-0.2l1.9-0.3v-0.4q0-0.7-0.4-1-0.4-0.4-1.3-0.4-0.6 0-1 0.3-0.4 0.2-0.5 0.5 0 0.2-0.1 0.2 0 0.1-0.2 0.1h-0.1q-0.1 0-0.2-0.1-0.1-0.1-0.1-0.2 0-0.1 0.1-0.4 0.2-0.2 0.4-0.5 0.3-0.2 0.7-0.4 0.4-0.2 1-0.2 0.7 0 1.2 0.2 0.5 0.2 0.7 0.5 0.3 0.3 0.4 0.7 0.1 0.4 0.1 0.7v4q0 0.3-0.3 0.3zm-2.2-0.6q0.4 0 0.7-0.1 0.4-0.2 0.7-0.4 0.3-0.3 0.4-0.7 0.2-0.5 0.2-1v-0.4l-1.6 0.2q-2 0.3-2 1.3 0 0.3 0.2 0.5 0.1 0.2 0.3 0.3 0.2 0.2 0.5 0.2 0.3 0.1 0.6 0.1z"/>
						<path id="&lt;Compound Path&gt;" class="s14" d="m809.4 106.5q0.3-0.4 0.7-0.6 0.4-0.2 1-0.2 0.7 0 1.2 0.3 0.5 0.3 0.8 0.9 0.2-0.6 0.8-0.9 0.5-0.3 1.2-0.3 0.5 0 0.9 0.2 0.4 0.2 0.7 0.5 0.3 0.3 0.5 0.8 0.1 0.5 0.1 1.1v3.5q0 0.3-0.2 0.3h-0.2q-0.3 0-0.3-0.3v-3.4q0-0.5-0.1-0.9-0.2-0.4-0.4-0.7-0.2-0.2-0.5-0.3-0.3-0.1-0.6-0.1-0.3 0-0.6 0.1-0.3 0.1-0.5 0.3-0.2 0.3-0.4 0.7-0.1 0.4-0.1 0.9v3.4q0 0.3-0.3 0.3h-0.2q-0.2 0-0.2-0.3v-3.4q0-0.5-0.2-0.9-0.1-0.4-0.4-0.7-0.2-0.2-0.5-0.3-0.3-0.1-0.6-0.1-0.3 0-0.5 0.1-0.3 0.1-0.6 0.3-0.2 0.3-0.3 0.7-0.2 0.3-0.2 0.9v3.4q0 0.3-0.2 0.3h-0.2q-0.3 0-0.3-0.3v-5.7q0-0.3 0.3-0.3h0.2q0.2 0 0.2 0.3z"/>
						<path id="&lt;Compound Path&gt;" class="s14" d="m819.2 111.3q0-0.2 0.1-0.2 0-0.1 0.2-0.1h0.5q0.1 0 0.2 0 0 0.1 0 0.2 0 0.1 0 0.2l-0.6 1.3q0 0.2-0.1 0.2 0 0.1-0.2 0.1h-0.2q-0.1 0-0.1-0.1-0.1-0.1 0-0.2z"/>
						<path id="&lt;Compound Path&gt;" fill-rule="evenodd" class="s14" d="m827.4 112.2q-0.7 0-1.2-0.2-0.4-0.3-0.7-0.7-0.3-0.4-0.5-0.9-0.1-0.5-0.1-1 0-0.2 0-0.4 0-0.3 0-0.4 0-0.6 0.1-1.1 0.2-0.5 0.5-0.9 0.3-0.4 0.7-0.6 0.5-0.3 1.2-0.3 0.8 0 1.3 0.3 0.5 0.3 0.8 0.7v-0.6q0-0.3 0.2-0.3h0.2q0.3 0 0.3 0.3v8q0 0.3-0.3 0.3h-0.2q-0.2 0-0.2-0.3v-2.8q-0.3 0.4-0.8 0.6-0.5 0.3-1.3 0.3zm2.1-3.7q-0.1-0.3-0.2-0.7-0.1-0.4-0.3-0.7-0.3-0.3-0.6-0.5-0.4-0.2-0.9-0.2-0.5 0-0.9 0.2-0.3 0.2-0.6 0.5-0.2 0.3-0.3 0.7-0.1 0.4-0.1 0.8 0 0.4 0 0.7 0 0.4 0.1 0.8 0.1 0.4 0.3 0.7 0.3 0.3 0.6 0.5 0.4 0.2 0.9 0.2 0.5 0 0.9-0.2 0.3-0.2 0.6-0.5 0.2-0.2 0.3-0.6 0.1-0.4 0.2-0.7 0-0.2 0-0.5 0-0.3 0-0.5z"/>
						<path id="&lt;Compound Path&gt;" class="s14" d="m832.1 106.1q0-0.3 0.2-0.3h0.2q0.3 0 0.3 0.3v3.4q0 2 1.8 2 0.9 0 1.4-0.5 0.5-0.6 0.5-1.5v-3.4q0-0.3 0.2-0.3h0.3q0.2 0 0.2 0.3v5.7q0 0.3-0.2 0.3h-0.3q-0.2 0-0.2-0.3v-0.5q-0.3 0.4-0.8 0.6-0.5 0.3-1.2 0.3-0.6 0-1.1-0.2-0.4-0.2-0.7-0.6-0.3-0.3-0.5-0.8-0.1-0.5-0.1-1.1z"/>
						<path id="&lt;Compound Path&gt;" class="s14" d="m840 104.3q0 0.1-0.1 0.2 0 0.1-0.2 0.1h-0.4q-0.3 0-0.3-0.3v-0.5q0-0.1 0.1-0.2 0.1 0 0.2 0h0.4q0.2 0 0.2 0 0.1 0.1 0.1 0.2zm-0.1 7.6q0 0.2-0.3 0.2h-0.2q-0.2 0-0.2-0.2v-5.7q0-0.3 0.2-0.3h0.2q0.3 0 0.3 0.3z"/>
						<path id="&lt;Compound Path&gt;" class="s14" d="m845.5 110.4q0-0.2-0.1-0.4-0.1-0.2-0.4-0.3-0.2-0.1-0.6-0.3-0.4-0.1-0.9-0.2-0.6-0.1-1-0.3-0.3-0.2-0.5-0.4-0.3-0.2-0.3-0.5-0.1-0.2-0.1-0.5 0-0.3 0.1-0.7 0.2-0.3 0.4-0.5 0.3-0.3 0.7-0.4 0.4-0.2 1-0.2 0.5 0 1 0.2 0.4 0.1 0.6 0.4 0.3 0.2 0.4 0.4 0.1 0.2 0.2 0.3 0 0.2-0.1 0.2-0.1 0.1-0.2 0.1h-0.2q-0.2 0-0.2-0.1-0.1-0.2-0.3-0.3-0.1-0.2-0.2-0.3-0.2-0.1-0.4-0.1-0.3-0.1-0.6-0.1-0.8 0-1.1 0.3-0.4 0.3-0.4 0.8 0 0.2 0.1 0.3 0.1 0.2 0.3 0.3 0.2 0.2 0.5 0.3 0.4 0.1 1 0.2 0.6 0.2 0.9 0.3 0.4 0.2 0.7 0.4 0.2 0.2 0.3 0.5 0.1 0.3 0.1 0.6 0 0.4-0.2 0.7-0.1 0.3-0.4 0.6-0.3 0.2-0.8 0.4-0.4 0.1-1 0.1-0.6 0-1.1-0.2-0.4-0.1-0.7-0.4-0.3-0.2-0.4-0.4-0.2-0.3-0.2-0.4 0-0.1 0.1-0.2 0.1 0 0.2 0h0.2q0 0 0.1 0 0.1 0 0.1 0.1 0.1 0.2 0.3 0.3 0.1 0.2 0.3 0.3 0.2 0.1 0.5 0.1 0.3 0.1 0.6 0.1 0.7 0 1.2-0.3 0.5-0.2 0.5-0.8z"/>
						<path id="&lt;Compound Path&gt;" class="s14" d="m698.4 126.2q0 0.3-0.2 0.3h-0.2q-0.3 0-0.3-0.3v-3.3q0-1-0.5-1.5-0.4-0.6-1.3-0.6-0.9 0-1.4 0.6-0.5 0.5-0.5 1.5v3.3q0 0.3-0.3 0.3h-0.2q-0.3 0-0.3-0.3v-5.7q0-0.3 0.3-0.3h0.2q0.3 0 0.3 0.3v0.6q0.3-0.4 0.7-0.7 0.5-0.3 1.3-0.3 0.6 0 1 0.2 0.5 0.2 0.8 0.6 0.3 0.4 0.5 0.8 0.1 0.5 0.1 1.1z"/>
						<path id="&lt;Compound Path&gt;" fill-rule="evenodd" class="s14" d="m702.7 120.1q0.6 0 1.1 0.2 0.5 0.2 0.8 0.6 0.4 0.4 0.6 0.9 0.1 0.5 0.2 1.1 0 0.1 0 0.2 0 0.1 0 0.3 0 0.1 0 0.2 0 0.2 0 0.3-0.1 0.5-0.2 1-0.2 0.6-0.6 0.9-0.3 0.4-0.8 0.6-0.5 0.2-1.1 0.2-0.7 0-1.2-0.2-0.4-0.2-0.8-0.6-0.3-0.3-0.5-0.9-0.2-0.5-0.2-1 0-0.1 0-0.3 0-0.1 0-0.2 0-0.2 0-0.3 0-0.1 0-0.2 0-0.6 0.2-1.1 0.2-0.5 0.5-0.9 0.4-0.4 0.8-0.6 0.5-0.2 1.2-0.2zm1.9 2.8q0-1-0.5-1.5-0.6-0.6-1.4-0.6-0.9 0-1.4 0.6-0.5 0.5-0.5 1.5-0.1 0.2-0.1 0.5 0 0.2 0.1 0.4 0 1 0.5 1.6 0.5 0.5 1.4 0.5 0.8 0 1.4-0.5 0.5-0.6 0.5-1.6 0-0.2 0-0.4 0-0.3 0-0.5z"/>
						<path id="&lt;Compound Path&gt;" class="s14" d="m710.6 124.8q0-0.2-0.1-0.4-0.1-0.2-0.3-0.3-0.2-0.1-0.6-0.3-0.4-0.1-1-0.2-0.5-0.1-0.9-0.3-0.4-0.2-0.6-0.4-0.2-0.2-0.2-0.5-0.1-0.2-0.1-0.5 0-0.3 0.1-0.7 0.1-0.3 0.4-0.5 0.3-0.3 0.7-0.4 0.4-0.2 0.9-0.2 0.6 0 1 0.2 0.4 0.1 0.7 0.4 0.3 0.2 0.4 0.4 0.1 0.2 0.1 0.3 0 0.2 0 0.2-0.1 0.1-0.2 0.1h-0.2q-0.2 0-0.3-0.1-0.1-0.2-0.2-0.3-0.1-0.2-0.3-0.3-0.1-0.1-0.4-0.1-0.2-0.1-0.6-0.1-0.7 0-1 0.3-0.4 0.3-0.4 0.8 0 0.2 0.1 0.3 0.1 0.2 0.3 0.3 0.2 0.2 0.5 0.3 0.4 0.1 0.9 0.2 0.6 0.2 1 0.3 0.4 0.2 0.6 0.4 0.3 0.2 0.4 0.5 0.1 0.3 0.1 0.6 0 0.4-0.2 0.7-0.1 0.3-0.4 0.6-0.3 0.2-0.8 0.4-0.4 0.1-1 0.1-0.6 0-1.1-0.2-0.4-0.1-0.7-0.4-0.3-0.2-0.5-0.4-0.1-0.3-0.1-0.4 0-0.1 0.1-0.2 0.1 0 0.2 0h0.1q0.1 0 0.2 0 0 0 0.1 0.1 0.1 0.2 0.3 0.3 0.1 0.2 0.3 0.3 0.2 0.1 0.5 0.1 0.2 0.1 0.6 0.1 0.7 0 1.2-0.3 0.4-0.2 0.4-0.8z"/>
						<path id="&lt;Compound Path&gt;" class="s14" d="m714.1 124.4q0 0.7 0.2 1 0.2 0.4 0.8 0.4h0.6q0.3 0 0.3 0.3v0.1q0 0.3-0.3 0.3h-0.7q-0.5 0-0.8-0.2-0.3-0.1-0.5-0.4-0.2-0.3-0.2-0.6-0.1-0.4-0.1-0.8v-3.6h-1q-0.2 0-0.2-0.2v-0.2q0-0.3 0.2-0.3h1v-2q0-0.2 0.2-0.2h0.2q0.3 0 0.3 0.2v2h1.5q0.3 0 0.3 0.3v0.2q0 0.2-0.3 0.2h-1.5z"/>
						<path id="&lt;Compound Path&gt;" class="s14" d="m719.6 120.2h0.4q0.3 0 0.3 0.3v0.2q0 0.2-0.3 0.2h-0.5q-0.7 0-1.1 0.5-0.4 0.4-0.4 1.1v3.7q0 0.1-0.1 0.2-0.1 0.1-0.2 0.1h-0.2q-0.3 0-0.3-0.3v-5.7q0-0.1 0.1-0.2 0.1-0.1 0.2-0.1h0.2q0.1 0 0.2 0.1 0.1 0.1 0.1 0.2v0.6q0.4-0.9 1.6-0.9z"/>
						<path id="&lt;Compound Path&gt;" class="s14" d="m721.3 120.5q0-0.3 0.3-0.3h0.2q0.3 0 0.3 0.3v3.4q0 2 1.8 2 0.8 0 1.3-0.5 0.5-0.6 0.5-1.5v-3.4q0-0.3 0.3-0.3h0.2q0.3 0 0.3 0.3v5.7q0 0.3-0.3 0.3h-0.2q-0.3 0-0.3-0.3v-0.5q-0.3 0.4-0.7 0.6-0.5 0.3-1.3 0.3-0.6 0-1-0.2-0.5-0.2-0.8-0.6-0.3-0.3-0.4-0.8-0.2-0.5-0.2-1.1z"/>
						<path id="&lt;Compound Path&gt;" fill-rule="evenodd" class="s14" d="m730.7 120.1q0.7 0 1.2 0.3 0.5 0.3 0.8 0.7v-2.9q0-0.2 0.3-0.2h0.2q0.2 0 0.2 0.2v8q0 0.3-0.2 0.3h-0.2q-0.3 0-0.3-0.3v-0.5q-0.3 0.4-0.8 0.6-0.5 0.3-1.2 0.3-0.7 0-1.2-0.3-0.5-0.2-0.8-0.6-0.3-0.4-0.4-1-0.2-0.5-0.2-1 0-0.3 0-0.7 0-0.5 0.2-1 0.1-0.5 0.4-0.9 0.3-0.5 0.8-0.7 0.5-0.3 1.2-0.3zm2 3.7q0-0.2 0-0.5 0-0.3 0-0.4 0-0.4-0.1-0.8-0.2-0.3-0.4-0.6-0.2-0.3-0.6-0.5-0.4-0.2-0.9-0.2-0.5 0-0.8 0.2-0.4 0.2-0.6 0.5-0.2 0.3-0.3 0.7-0.2 0.4-0.2 0.8 0 0.4 0 0.7 0 0.4 0.2 0.8 0.1 0.4 0.3 0.7 0.2 0.3 0.6 0.5 0.3 0.2 0.8 0.2 0.6 0 0.9-0.2 0.4-0.2 0.6-0.5 0.2-0.3 0.4-0.7 0.1-0.3 0.1-0.7z"/>
						<path id="&lt;Compound Path&gt;" fill-rule="evenodd" class="s14" d="m738.2 122.9q0-0.6 0.2-1.1 0.2-0.5 0.5-0.9 0.4-0.4 0.8-0.6 0.5-0.2 1.1-0.2 1.2 0 1.9 0.8 0.7 0.9 0.7 2.3v0.2q0 0.1 0 0.2-0.1 0.1-0.2 0.1h-4.3v0.1q0 0.4 0.1 0.8 0.2 0.4 0.4 0.7 0.3 0.2 0.6 0.4 0.4 0.2 0.8 0.2 0.4 0 0.7-0.1 0.2-0.1 0.5-0.2 0.2-0.1 0.3-0.3 0.1-0.1 0.2-0.2 0.1-0.1 0.1-0.2 0.1 0 0.2 0h0.2q0.1 0 0.2 0.1 0.1 0 0.1 0.2-0.1 0.1-0.2 0.4-0.2 0.2-0.5 0.5-0.3 0.2-0.8 0.3-0.4 0.2-1 0.2-0.6 0-1.1-0.2-0.4-0.2-0.8-0.6-0.3-0.3-0.5-0.8-0.2-0.5-0.2-1.2-0.1-0.1-0.1-0.4 0-0.3 0.1-0.5zm0.7 0.1h3.8v-0.1q0-0.4-0.1-0.8-0.2-0.4-0.4-0.7-0.2-0.3-0.6-0.4-0.4-0.2-0.8-0.2-0.5 0-0.8 0.2-0.4 0.1-0.6 0.4-0.3 0.3-0.4 0.7-0.1 0.4-0.1 0.8z"/>
						<path id="&lt;Compound Path&gt;" class="s14" d="m747 123.9l-1.8 2.4q-0.1 0.1-0.2 0.1 0 0.1-0.1 0.1h-0.3q-0.1 0-0.2-0.1 0-0.1 0-0.2 0 0 0-0.1 0 0 0.1-0.1l2.1-2.7-2-2.6q-0.1-0.1-0.1-0.1 0-0.1 0-0.1 0-0.1 0.1-0.2 0-0.1 0.1-0.1h0.3q0.1 0 0.2 0.1 0 0.1 0.1 0.1l1.8 2.3 1.8-2.3q0 0 0.1-0.1 0.1-0.1 0.2-0.1h0.2q0.1 0 0.2 0.1 0.1 0.1 0.1 0.2 0 0-0.1 0.1 0 0 0 0.1l-2.1 2.6 2.1 2.7q0.1 0.1 0.1 0.1 0 0.1 0 0.1 0 0.1 0 0.2-0.1 0.1-0.2 0.1h-0.3q-0.1 0-0.1-0.1-0.1 0-0.2-0.1z"/>
						<path id="&lt;Compound Path&gt;" fill-rule="evenodd" class="s14" d="m750.7 122.9q0-0.6 0.2-1.1 0.2-0.5 0.6-0.9 0.3-0.4 0.8-0.6 0.4-0.2 1-0.2 1.3 0 2 0.8 0.7 0.9 0.7 2.3v0.2q0 0.1-0.1 0.2-0.1 0.1-0.2 0.1h-4.3v0.1q0 0.4 0.2 0.8 0.1 0.4 0.3 0.7 0.3 0.2 0.6 0.4 0.4 0.2 0.8 0.2 0.4 0 0.7-0.1 0.3-0.1 0.5-0.2 0.2-0.1 0.3-0.3 0.1-0.1 0.2-0.2 0.1-0.1 0.1-0.2 0.1 0 0.2 0h0.2q0.1 0 0.2 0.1 0.1 0 0.1 0.2 0 0.1-0.2 0.4-0.2 0.2-0.5 0.5-0.3 0.2-0.8 0.3-0.4 0.2-1 0.2-0.6 0-1-0.2-0.5-0.2-0.8-0.6-0.4-0.3-0.6-0.8-0.2-0.5-0.2-1.2 0-0.1 0-0.4 0-0.3 0-0.5zm0.7 0.1h3.8v-0.1q0-0.4-0.1-0.8-0.1-0.4-0.4-0.7-0.2-0.3-0.6-0.4-0.3-0.2-0.8-0.2-0.4 0-0.8 0.2-0.3 0.1-0.6 0.4-0.2 0.3-0.4 0.7-0.1 0.4-0.1 0.8z"/>
						<path id="&lt;Compound Path&gt;" class="s14" d="m759.9 120.2h0.5q0.2 0 0.2 0.3v0.2q0 0.2-0.2 0.2h-0.6q-0.7 0-1.1 0.5-0.4 0.4-0.4 1.1v3.7q0 0.1-0.1 0.2-0.1 0.1-0.2 0.1h-0.2q-0.3 0-0.3-0.3v-5.7q0-0.1 0.1-0.2 0.1-0.1 0.2-0.1h0.2q0.1 0 0.2 0.1 0.1 0.1 0.1 0.2v0.6q0.4-0.9 1.6-0.9z"/>
						<path id="&lt;Compound Path&gt;" class="s14" d="m762 122.9q0 0.2 0 0.5 0 0.2 0 0.4 0.1 1.1 0.6 1.6 0.5 0.5 1.3 0.5 0.7 0 1.1-0.3 0.5-0.2 0.7-0.9 0.1-0.2 0.1-0.2 0.1-0.1 0.2-0.1h0.2q0.1 0 0.2 0.1 0 0.1 0 0.2 0 0.3-0.1 0.7-0.2 0.3-0.5 0.6-0.3 0.3-0.8 0.4-0.4 0.2-1.1 0.2-1.2 0-1.9-0.7-0.7-0.8-0.7-2.1 0-0.1 0-0.4 0-0.3 0-0.5 0-1.3 0.7-2 0.7-0.8 1.9-0.8 0.7 0 1.1 0.2 0.5 0.2 0.8 0.5 0.3 0.2 0.5 0.6 0.1 0.3 0.1 0.6 0 0.2 0 0.2-0.1 0.1-0.2 0.1h-0.2q-0.1 0-0.2-0.1 0 0-0.1-0.2-0.2-0.6-0.7-0.9-0.4-0.3-1.1-0.3-0.8 0-1.3 0.5-0.5 0.5-0.6 1.6z"/>
						<path id="&lt;Compound Path&gt;" class="s14" d="m768.9 118.7q0 0.1-0.1 0.2-0.1 0.1-0.2 0.1h-0.5q-0.2 0-0.2-0.3v-0.5q0-0.1 0.1-0.2 0 0 0.1 0h0.5q0.1 0 0.2 0 0.1 0.1 0.1 0.2zm-0.2 7.6q0 0.2-0.2 0.2h-0.2q-0.3 0-0.3-0.2v-5.7q0-0.3 0.3-0.3h0.2q0.2 0 0.2 0.3z"/>
						<path id="&lt;Compound Path&gt;" class="s14" d="m771.9 124.4q0 0.7 0.2 1 0.2 0.4 0.7 0.4h0.7q0.3 0 0.3 0.3v0.1q0 0.3-0.3 0.3h-0.7q-0.5 0-0.8-0.2-0.3-0.1-0.5-0.4-0.2-0.3-0.3-0.6 0-0.4 0-0.8v-3.6h-1q-0.2 0-0.2-0.2v-0.2q0-0.3 0.2-0.3h1v-2q0-0.2 0.2-0.2h0.2q0.3 0 0.3 0.2v2h1.5q0.2 0 0.2 0.3v0.2q0 0.2-0.2 0.2h-1.5z"/>
						<path id="&lt;Compound Path&gt;" fill-rule="evenodd" class="s14" d="m779.1 126.5q-0.3 0-0.3-0.3v-0.5q-0.1 0.1-0.3 0.3-0.2 0.2-0.4 0.3-0.3 0.1-0.6 0.2-0.4 0.1-0.8 0.1-0.5 0-0.8-0.1-0.4-0.2-0.7-0.4-0.3-0.3-0.5-0.6-0.2-0.3-0.2-0.7 0-0.4 0.2-0.7 0.2-0.3 0.5-0.6 0.3-0.2 0.7-0.4 0.5-0.2 1-0.2l1.9-0.3v-0.4q0-0.7-0.4-1-0.4-0.4-1.2-0.4-0.7 0-1.1 0.3-0.3 0.2-0.4 0.5-0.1 0.2-0.1 0.2-0.1 0.1-0.2 0.1h-0.2q-0.1 0-0.2-0.1-0.1-0.1-0.1-0.2 0-0.1 0.2-0.4 0.1-0.2 0.4-0.5 0.2-0.2 0.6-0.4 0.5-0.2 1.1-0.2 0.7 0 1.1 0.2 0.5 0.2 0.8 0.5 0.2 0.3 0.3 0.7 0.1 0.4 0.1 0.7v4q0 0.3-0.2 0.3zm-2.3-0.6q0.4 0 0.8-0.1 0.3-0.2 0.6-0.4 0.3-0.3 0.4-0.7 0.2-0.5 0.2-1v-0.4l-1.5 0.2q-2 0.3-2 1.3 0 0.3 0.1 0.5 0.1 0.2 0.4 0.3 0.2 0.2 0.4 0.2 0.3 0.1 0.6 0.1z"/>
						<path id="&lt;Compound Path&gt;" class="s14" d="m782.6 124.4q0 0.7 0.2 1 0.2 0.4 0.7 0.4h0.7q0.2 0 0.2 0.3v0.1q0 0.3-0.2 0.3h-0.7q-0.5 0-0.8-0.2-0.3-0.1-0.5-0.4-0.2-0.3-0.3-0.6-0.1-0.4-0.1-0.8v-3.6h-0.9q-0.3 0-0.3-0.2v-0.2q0-0.3 0.3-0.3h0.9v-2q0-0.2 0.3-0.2h0.2q0.3 0 0.3 0.2v2h1.5q0.2 0 0.2 0.3v0.2q0 0.2-0.2 0.2h-1.5z"/>
						<path id="&lt;Compound Path&gt;" class="s14" d="m786.5 118.7q0 0.1 0 0.2-0.1 0.1-0.2 0.1h-0.5q-0.3 0-0.3-0.3v-0.5q0-0.1 0.1-0.2 0.1 0 0.2 0h0.5q0.1 0 0.2 0 0 0.1 0 0.2zm-0.1 7.6q0 0.2-0.3 0.2h-0.2q-0.2 0-0.2-0.2v-5.7q0-0.3 0.2-0.3h0.2q0.3 0 0.3 0.3z"/>
						<path id="&lt;Compound Path&gt;" fill-rule="evenodd" class="s14" d="m790.7 120.1q0.7 0 1.2 0.2 0.5 0.2 0.8 0.6 0.3 0.4 0.5 0.9 0.2 0.5 0.2 1.1 0 0.1 0 0.2 0 0.1 0 0.3 0 0.1 0 0.2 0 0.2 0 0.3 0 0.5-0.2 1-0.2 0.6-0.5 0.9-0.3 0.4-0.8 0.6-0.5 0.2-1.2 0.2-0.6 0-1.1-0.2-0.5-0.2-0.8-0.6-0.4-0.3-0.5-0.9-0.2-0.5-0.2-1 0-0.1 0-0.3 0-0.1 0-0.2 0-0.2 0-0.3 0-0.1 0-0.2 0-0.6 0.2-1.1 0.1-0.5 0.5-0.9 0.3-0.4 0.8-0.6 0.5-0.2 1.1-0.2zm2 2.8q-0.1-1-0.6-1.5-0.5-0.6-1.4-0.6-0.8 0-1.3 0.6-0.6 0.5-0.6 1.5 0 0.2 0 0.5 0 0.2 0 0.4 0 1 0.6 1.6 0.5 0.5 1.3 0.5 0.9 0 1.4-0.5 0.5-0.6 0.6-1.6 0-0.2 0-0.4 0-0.3 0-0.5z"/>
						<path id="&lt;Compound Path&gt;" class="s14" d="m800.2 126.2q0 0.3-0.2 0.3h-0.2q-0.3 0-0.3-0.3v-3.3q0-1-0.5-1.5-0.4-0.6-1.3-0.6-0.9 0-1.4 0.6-0.5 0.5-0.5 1.5v3.3q0 0.3-0.3 0.3h-0.2q-0.3 0-0.3-0.3v-5.7q0-0.3 0.3-0.3h0.2q0.3 0 0.3 0.3v0.6q0.3-0.4 0.8-0.7 0.4-0.3 1.2-0.3 0.6 0 1.1 0.2 0.4 0.2 0.7 0.6 0.3 0.4 0.5 0.8 0.1 0.5 0.1 1.1z"/>
						<path id="&lt;Compound Path&gt;" class="s14" d="m805.2 120.5q0-0.3 0.2-0.3h0.2q0.3 0 0.3 0.3v3.4q0 2 1.8 2 0.8 0 1.4-0.5 0.5-0.6 0.5-1.5v-3.4q0-0.3 0.2-0.3h0.2q0.3 0 0.3 0.3v5.7q0 0.3-0.3 0.3h-0.2q-0.2 0-0.2-0.3v-0.5q-0.4 0.4-0.8 0.6-0.5 0.3-1.2 0.3-0.6 0-1.1-0.2-0.4-0.2-0.7-0.6-0.3-0.3-0.5-0.8-0.1-0.5-0.1-1.1z"/>
						<path id="&lt;Compound Path&gt;" class="s14" d="m813 126.2q0 0.3-0.3 0.3h-0.2q-0.2 0-0.2-0.3v-8q0-0.2 0.2-0.2h0.2q0.3 0 0.3 0.2z"/>
						<path id="&lt;Compound Path&gt;" class="s14" d="m815.7 126.2q0 0.3-0.3 0.3h-0.2q-0.2 0-0.2-0.3v-8q0-0.2 0.2-0.2h0.2q0.3 0 0.3 0.2z"/>
						<path id="&lt;Compound Path&gt;" fill-rule="evenodd" class="s14" d="m821.7 126.5q-0.3 0-0.3-0.3v-0.5q-0.1 0.1-0.2 0.3-0.2 0.2-0.5 0.3-0.2 0.1-0.6 0.2-0.3 0.1-0.8 0.1-0.4 0-0.8-0.1-0.4-0.2-0.7-0.4-0.3-0.3-0.4-0.6-0.2-0.3-0.2-0.7 0-0.4 0.2-0.7 0.1-0.3 0.4-0.6 0.3-0.2 0.8-0.4 0.4-0.2 1-0.2l1.8-0.3v-0.4q0-0.7-0.3-1-0.4-0.4-1.3-0.4-0.7 0-1 0.3-0.4 0.2-0.5 0.5 0 0.2-0.1 0.2-0.1 0.1-0.2 0.1h-0.1q-0.1 0-0.2-0.1-0.1-0.1-0.1-0.2 0-0.1 0.1-0.4 0.1-0.2 0.4-0.5 0.3-0.2 0.7-0.4 0.4-0.2 1-0.2 0.7 0 1.2 0.2 0.4 0.2 0.7 0.5 0.3 0.3 0.4 0.7 0.1 0.4 0.1 0.7v4q0 0.3-0.3 0.3zm-2.3-0.6q0.5 0 0.8-0.1 0.4-0.2 0.7-0.4 0.2-0.3 0.4-0.7 0.2-0.5 0.2-1v-0.4l-1.6 0.2q-2 0.3-2 1.3 0 0.3 0.2 0.5 0.1 0.2 0.3 0.3 0.2 0.2 0.5 0.2 0.3 0.1 0.5 0.1z"/>
						<path id="&lt;Compound Path&gt;" class="s14" d="m824.8 120.9q0.3-0.4 0.7-0.6 0.4-0.2 1-0.2 0.7 0 1.2 0.3 0.5 0.3 0.7 0.9 0.3-0.6 0.9-0.9 0.5-0.3 1.2-0.3 0.5 0 0.9 0.2 0.4 0.2 0.7 0.5 0.3 0.3 0.5 0.8 0.1 0.5 0.1 1.1v3.5q0 0.3-0.2 0.3h-0.2q-0.3 0-0.3-0.3v-3.4q0-0.5-0.1-0.9-0.2-0.4-0.4-0.7-0.2-0.2-0.5-0.3-0.3-0.1-0.6-0.1-0.3 0-0.6 0.1-0.3 0.1-0.5 0.3-0.2 0.3-0.4 0.7-0.1 0.4-0.1 0.9v3.4q0 0.3-0.3 0.3h-0.2q-0.3 0-0.3-0.3v-3.4q0-0.5-0.1-0.9-0.2-0.4-0.4-0.7-0.2-0.2-0.5-0.3-0.3-0.1-0.6-0.1-0.3 0-0.6 0.1-0.2 0.1-0.5 0.3-0.2 0.3-0.3 0.7-0.2 0.3-0.2 0.9v3.4q0 0.3-0.3 0.3h-0.2q-0.2 0-0.2-0.3v-5.7q0-0.3 0.2-0.3h0.2q0.3 0 0.3 0.3z"/>
						<path id="&lt;Compound Path&gt;" class="s14" d="m835.1 122.9q-0.1 0.2-0.1 0.5 0 0.2 0.1 0.4 0 1.1 0.5 1.6 0.6 0.5 1.4 0.5 0.6 0 1-0.3 0.5-0.2 0.7-0.9 0.1-0.2 0.1-0.2 0.1-0.1 0.2-0.1h0.2q0.1 0 0.2 0.1 0.1 0.1 0.1 0.2-0.1 0.3-0.2 0.7-0.2 0.3-0.5 0.6-0.3 0.3-0.7 0.4-0.5 0.2-1.1 0.2-1.3 0-2-0.7-0.6-0.8-0.7-2.1 0-0.1 0-0.4 0-0.3 0-0.5 0.1-1.3 0.7-2 0.7-0.8 2-0.8 0.6 0 1.1 0.2 0.4 0.2 0.7 0.5 0.3 0.2 0.5 0.6 0.1 0.3 0.2 0.6 0 0.2-0.1 0.2-0.1 0.1-0.2 0.1h-0.2q-0.1 0-0.2-0.1 0 0-0.1-0.2-0.2-0.6-0.7-0.9-0.4-0.3-1-0.3-0.8 0-1.4 0.5-0.5 0.5-0.5 1.6z"/>
						<path id="&lt;Compound Path&gt;" fill-rule="evenodd" class="s14" d="m843.4 120.1q0.7 0 1.2 0.2 0.5 0.2 0.8 0.6 0.3 0.4 0.5 0.9 0.2 0.5 0.2 1.1 0 0.1 0 0.2 0 0.1 0 0.3 0 0.1 0 0.2 0 0.2 0 0.3 0 0.5-0.2 1-0.2 0.6-0.5 0.9-0.3 0.4-0.8 0.6-0.5 0.2-1.2 0.2-0.6 0-1.1-0.2-0.5-0.2-0.8-0.6-0.4-0.3-0.6-0.9-0.1-0.5-0.1-1 0-0.1-0.1-0.3 0-0.1 0-0.2 0-0.2 0-0.3 0.1-0.1 0.1-0.2 0-0.6 0.1-1.1 0.2-0.5 0.6-0.9 0.3-0.4 0.8-0.6 0.5-0.2 1.1-0.2zm2 2.8q-0.1-1-0.6-1.5-0.5-0.6-1.4-0.6-0.8 0-1.3 0.6-0.6 0.5-0.6 1.5 0 0.2 0 0.5 0 0.2 0 0.4 0 1 0.6 1.6 0.5 0.5 1.3 0.5 0.9 0 1.4-0.5 0.5-0.6 0.6-1.6 0-0.2 0-0.4 0-0.3 0-0.5z"/>
						<path id="&lt;Compound Path&gt;" class="s14" d="m706.7 140.6q0 0.3-0.3 0.3h-0.2q-0.2 0-0.2-0.3v-8q0-0.2 0.2-0.2h0.2q0.3 0 0.3 0.2z"/>
						<path id="&lt;Compound Path&gt;" fill-rule="evenodd" class="s14" d="m712.7 140.9q-0.2 0-0.2-0.3v-0.5q-0.2 0.1-0.3 0.3-0.2 0.2-0.5 0.3-0.2 0.1-0.6 0.2-0.3 0.1-0.8 0.1-0.4 0-0.8-0.1-0.4-0.2-0.7-0.4-0.3-0.3-0.4-0.6-0.2-0.3-0.2-0.7 0-0.4 0.2-0.7 0.1-0.3 0.4-0.6 0.4-0.2 0.8-0.4 0.4-0.2 1-0.2l1.9-0.3v-0.4q0-0.7-0.4-1-0.4-0.4-1.3-0.4-0.6 0-1 0.3-0.4 0.2-0.5 0.5 0 0.2-0.1 0.2-0.1 0.1-0.2 0.1h-0.1q-0.1 0-0.2-0.1-0.1-0.1-0.1-0.2 0-0.1 0.1-0.4 0.1-0.2 0.4-0.5 0.3-0.2 0.7-0.4 0.4-0.2 1-0.2 0.7 0 1.2 0.2 0.5 0.2 0.7 0.5 0.3 0.3 0.4 0.7 0.1 0.4 0.1 0.7v4q0 0.3-0.3 0.3zm-2.2-0.6q0.4 0 0.7-0.1 0.4-0.2 0.7-0.4 0.2-0.3 0.4-0.7 0.2-0.5 0.2-1v-0.4l-1.6 0.2q-2 0.3-2 1.3 0 0.3 0.2 0.5 0.1 0.2 0.3 0.3 0.2 0.2 0.5 0.2 0.3 0.1 0.6 0.1z"/>
						<path id="&lt;Compound Path&gt;" fill-rule="evenodd" class="s14" d="m717.8 134.5q0.7 0 1.2 0.3 0.5 0.2 0.8 0.7 0.3 0.4 0.4 0.9 0.2 0.5 0.2 1 0 0.4 0 0.7 0 0.5-0.2 1-0.1 0.6-0.4 1-0.3 0.4-0.8 0.6-0.5 0.3-1.2 0.3-0.7 0-1.2-0.3-0.5-0.2-0.8-0.6v0.5q0 0.3-0.2 0.3h-0.2q-0.3 0-0.3-0.3v-8q0-0.2 0.3-0.2h0.2q0.2 0 0.2 0.2v2.9q0.3-0.4 0.8-0.7 0.5-0.3 1.2-0.3zm-2 3.7q0 0.4 0.2 0.7 0.1 0.4 0.3 0.7 0.2 0.3 0.6 0.5 0.4 0.2 0.9 0.2 0.5 0 0.9-0.2 0.3-0.2 0.5-0.5 0.3-0.3 0.4-0.7 0.1-0.4 0.1-0.8 0-0.3 0-0.7 0-0.4-0.1-0.8-0.1-0.4-0.4-0.7-0.2-0.3-0.5-0.5-0.4-0.2-0.9-0.2-0.5 0-0.9 0.2-0.4 0.2-0.6 0.5-0.2 0.3-0.3 0.6-0.2 0.4-0.2 0.8 0 0.1 0 0.4 0 0.3 0 0.5z"/>
						<path id="&lt;Compound Path&gt;" fill-rule="evenodd" class="s14" d="m724.4 134.5q0.7 0 1.2 0.2 0.5 0.2 0.8 0.6 0.3 0.4 0.5 0.9 0.2 0.5 0.2 1.1 0 0.1 0 0.2 0 0.1 0 0.3 0 0.1 0 0.2 0 0.2 0 0.3 0 0.5-0.2 1-0.2 0.6-0.5 0.9-0.3 0.4-0.8 0.6-0.5 0.2-1.2 0.2-0.6 0-1.1-0.2-0.5-0.2-0.8-0.6-0.4-0.3-0.6-0.9-0.1-0.5-0.1-1 0-0.1-0.1-0.3 0-0.1 0-0.2 0-0.2 0-0.3 0.1-0.1 0.1-0.2 0-0.6 0.1-1.1 0.2-0.5 0.6-0.9 0.3-0.4 0.8-0.6 0.5-0.2 1.1-0.2zm2 2.8q-0.1-1-0.6-1.5-0.5-0.6-1.4-0.6-0.8 0-1.3 0.6-0.6 0.5-0.6 1.5 0 0.2 0 0.5 0 0.2 0 0.4 0 1 0.6 1.6 0.5 0.5 1.3 0.5 0.9 0 1.4-0.5 0.5-0.6 0.6-1.6 0-0.2 0-0.4 0-0.3 0-0.5z"/>
						<path id="&lt;Compound Path&gt;" class="s14" d="m731.1 134.6h0.4q0.3 0 0.3 0.3v0.2q0 0.2-0.3 0.2h-0.5q-0.7 0-1.1 0.5-0.4 0.4-0.4 1.1v3.7q0 0.1-0.1 0.2-0.1 0.1-0.2 0.1h-0.2q-0.3 0-0.3-0.3v-5.7q0-0.1 0.1-0.2 0.1-0.1 0.2-0.1h0.2q0.1 0 0.2 0.1 0.1 0.1 0.1 0.2v0.6q0.4-0.9 1.6-0.9z"/>
						<path id="&lt;Compound Path&gt;" class="s14" d="m733.8 133.1q0 0.1-0.1 0.2-0.1 0.1-0.2 0.1h-0.5q-0.2 0-0.2-0.3v-0.5q0-0.1 0.1-0.2 0 0 0.1 0h0.5q0.1 0 0.2 0 0.1 0.1 0.1 0.2zm-0.2 7.6q0 0.2-0.2 0.2h-0.2q-0.3 0-0.3-0.2v-5.7q0-0.3 0.3-0.3h0.2q0.2 0 0.2 0.3z"/>
						<path id="&lt;Compound Path&gt;" class="s14" d="m739.2 139.2q0-0.2-0.1-0.4-0.1-0.2-0.3-0.3-0.2-0.1-0.6-0.3-0.4-0.1-1-0.2-0.6-0.1-0.9-0.3-0.4-0.2-0.6-0.4-0.2-0.2-0.3-0.5 0-0.2 0-0.5 0-0.3 0.1-0.7 0.1-0.3 0.4-0.5 0.3-0.3 0.7-0.4 0.4-0.2 0.9-0.2 0.6 0 1 0.2 0.4 0.1 0.7 0.4 0.3 0.2 0.4 0.4 0.1 0.2 0.1 0.3 0 0.2-0.1 0.2 0 0.1-0.1 0.1h-0.2q-0.2 0-0.3-0.1-0.1-0.2-0.2-0.3-0.1-0.2-0.3-0.3-0.1-0.1-0.4-0.1-0.2-0.1-0.6-0.1-0.7 0-1.1 0.3-0.3 0.3-0.3 0.8 0 0.2 0.1 0.3 0 0.2 0.2 0.3 0.2 0.2 0.6 0.3 0.4 0.1 0.9 0.2 0.6 0.2 1 0.3 0.4 0.2 0.6 0.4 0.3 0.2 0.4 0.5 0.1 0.3 0.1 0.6 0 0.4-0.2 0.7-0.2 0.3-0.5 0.6-0.3 0.2-0.7 0.4-0.4 0.1-1 0.1-0.7 0-1.1-0.2-0.5-0.1-0.7-0.4-0.3-0.2-0.5-0.4-0.1-0.3-0.1-0.4 0-0.1 0.1-0.2 0.1 0 0.1 0h0.2q0.1 0 0.2 0 0 0 0.1 0.1 0.1 0.2 0.2 0.3 0.2 0.2 0.4 0.3 0.2 0.1 0.4 0.1 0.3 0.1 0.7 0.1 0.7 0 1.2-0.3 0.4-0.2 0.4-0.8z"/>
						<path id="&lt;Compound Path&gt;" class="s14" d="m749.8 140.6q0 0.3-0.3 0.3h-0.2q-0.2 0-0.2-0.3v-3.3q0-1-0.5-1.5-0.5-0.6-1.4-0.6-0.8 0-1.4 0.6-0.5 0.5-0.5 1.5v3.3q0 0.3-0.2 0.3h-0.2q-0.3 0-0.3-0.3v-5.7q0-0.3 0.3-0.3h0.2q0.2 0 0.2 0.3v0.6q0.3-0.4 0.8-0.7 0.5-0.3 1.2-0.3 0.7 0 1.1 0.2 0.5 0.2 0.8 0.6 0.3 0.4 0.4 0.8 0.2 0.5 0.2 1.1z"/>
						<path id="&lt;Compound Path&gt;" class="s14" d="m752.5 133.1q0 0.1 0 0.2-0.1 0.1-0.2 0.1h-0.5q-0.3 0-0.3-0.3v-0.5q0-0.1 0.1-0.2 0.1 0 0.2 0h0.5q0.1 0 0.2 0 0 0.1 0 0.2zm-0.1 7.6q0 0.2-0.3 0.2h-0.2q-0.2 0-0.2-0.2v-5.7q0-0.3 0.2-0.3h0.2q0.3 0 0.3 0.3z"/>
						<path id="&lt;Compound Path&gt;" class="s14" d="m758 139.2q0-0.2-0.1-0.4-0.1-0.2-0.4-0.3-0.2-0.1-0.6-0.3-0.4-0.1-0.9-0.2-0.6-0.1-1-0.3-0.3-0.2-0.5-0.4-0.2-0.2-0.3-0.5-0.1-0.2-0.1-0.5 0-0.3 0.2-0.7 0.1-0.3 0.4-0.5 0.2-0.3 0.6-0.4 0.4-0.2 1-0.2 0.6 0 1 0.2 0.4 0.1 0.6 0.4 0.3 0.2 0.4 0.4 0.2 0.2 0.2 0.3 0 0.2-0.1 0.2-0.1 0.1-0.2 0.1h-0.2q-0.1 0-0.2-0.1-0.1-0.2-0.2-0.3-0.1-0.2-0.3-0.3-0.2-0.1-0.4-0.1-0.3-0.1-0.6-0.1-0.8 0-1.1 0.3-0.3 0.3-0.3 0.8 0 0.2 0 0.3 0.1 0.2 0.3 0.3 0.2 0.2 0.6 0.3 0.3 0.1 0.9 0.2 0.6 0.2 1 0.3 0.3 0.2 0.6 0.4 0.2 0.2 0.3 0.5 0.1 0.3 0.1 0.6 0 0.4-0.1 0.7-0.2 0.3-0.5 0.6-0.3 0.2-0.7 0.4-0.5 0.1-1.1 0.1-0.6 0-1.1-0.2-0.4-0.1-0.7-0.4-0.3-0.2-0.4-0.4-0.1-0.3-0.2-0.4 0-0.1 0.1-0.2 0.1 0 0.2 0h0.2q0.1 0 0.1 0 0.1 0 0.1 0.1 0.2 0.2 0.3 0.3 0.1 0.2 0.3 0.3 0.2 0.1 0.5 0.1 0.3 0.1 0.6 0.1 0.7 0 1.2-0.3 0.5-0.2 0.5-0.8z"/>
						<path id="&lt;Compound Path&gt;" class="s14" d="m761.1 133.1q0 0.1-0.1 0.2 0 0.1-0.2 0.1h-0.4q-0.3 0-0.3-0.3v-0.5q0-0.1 0.1-0.2 0.1 0 0.2 0h0.4q0.2 0 0.2 0 0.1 0.1 0.1 0.2zm-0.1 7.6q0 0.2-0.3 0.2h-0.2q-0.2 0-0.2-0.2v-5.7q0-0.3 0.2-0.3h0.2q0.3 0 0.3 0.3z"/>
						<path id="&lt;Compound Path&gt;" class="s14" d="m766 134.9q0-0.3 0.2-0.3h0.2q0.3 0 0.3 0.3v3.4q0 2 1.8 2 0.8 0 1.4-0.5 0.5-0.6 0.5-1.5v-3.4q0-0.3 0.2-0.3h0.2q0.3 0 0.3 0.3v5.7q0 0.3-0.3 0.3h-0.2q-0.2 0-0.2-0.3v-0.5q-0.4 0.4-0.8 0.6-0.5 0.3-1.2 0.3-0.6 0-1.1-0.2-0.4-0.2-0.7-0.6-0.3-0.3-0.5-0.8-0.1-0.5-0.1-1.1z"/>
						<path id="&lt;Compound Path&gt;" class="s14" d="m774.2 138.8q0 0.7 0.3 1 0.2 0.4 0.7 0.4h0.7q0.2 0 0.2 0.3v0.1q0 0.3-0.2 0.3h-0.8q-0.4 0-0.7-0.2-0.4-0.1-0.5-0.4-0.2-0.3-0.3-0.6-0.1-0.4-0.1-0.8v-3.6h-0.9q-0.3 0-0.3-0.2v-0.2q0-0.3 0.3-0.3h0.9v-2q0-0.2 0.3-0.2h0.2q0.2 0 0.2 0.2v2h1.5q0.3 0 0.3 0.3v0.2q0 0.2-0.3 0.2h-1.5z"/>
						<path id="&lt;Compound Path&gt;" fill-rule="evenodd" class="s14" d="m784.5 140.9q-0.2 0-0.2-0.3v-0.5q-0.2 0.1-0.3 0.3-0.2 0.2-0.5 0.3-0.2 0.1-0.6 0.2-0.3 0.1-0.8 0.1-0.4 0-0.8-0.1-0.4-0.2-0.7-0.4-0.3-0.3-0.4-0.6-0.2-0.3-0.2-0.7 0-0.4 0.2-0.7 0.1-0.3 0.4-0.6 0.4-0.2 0.8-0.4 0.4-0.2 1-0.2l1.9-0.3v-0.4q0-0.7-0.4-1-0.4-0.4-1.3-0.4-0.7 0-1 0.3-0.4 0.2-0.5 0.5 0 0.2-0.1 0.2-0.1 0.1-0.2 0.1h-0.1q-0.1 0-0.2-0.1-0.1-0.1-0.1-0.2 0-0.1 0.1-0.4 0.1-0.2 0.4-0.5 0.3-0.2 0.7-0.4 0.4-0.2 1-0.2 0.7 0 1.2 0.2 0.5 0.2 0.7 0.5 0.3 0.3 0.4 0.7 0.1 0.4 0.1 0.7v4q0 0.3-0.3 0.3zm-2.2-0.6q0.4 0 0.7-0.1 0.4-0.2 0.7-0.4 0.2-0.3 0.4-0.7 0.2-0.5 0.2-1v-0.4l-1.6 0.2q-2 0.3-2 1.3 0 0.3 0.2 0.5 0.1 0.2 0.3 0.3 0.2 0.2 0.5 0.2 0.3 0.1 0.6 0.1z"/>
						<path id="&lt;Compound Path&gt;" class="s14" d="m787.6 140.6q0 0.3-0.2 0.3h-0.2q-0.3 0-0.3-0.3v-8q0-0.2 0.3-0.2h0.2q0.2 0 0.2 0.2z"/>
						<path id="&lt;Compound Path&gt;" class="s14" d="m790.4 133.1q0 0.1 0 0.2-0.1 0.1-0.2 0.1h-0.5q-0.3 0-0.3-0.3v-0.5q0-0.1 0.1-0.2 0.1 0 0.2 0h0.5q0.1 0 0.2 0 0 0.1 0 0.2zm-0.1 7.6q0 0.2-0.3 0.2h-0.2q-0.2 0-0.2-0.2v-5.7q0-0.3 0.2-0.3h0.2q0.3 0 0.3 0.3z"/>
						<path id="&lt;Compound Path&gt;" fill-rule="evenodd" class="s14" d="m794.5 141q-0.7 0-1.2-0.2-0.4-0.3-0.7-0.7-0.3-0.4-0.5-0.9-0.1-0.5-0.1-1-0.1-0.2-0.1-0.4 0-0.3 0.1-0.4 0-0.6 0.1-1.1 0.2-0.5 0.5-0.9 0.3-0.4 0.7-0.6 0.5-0.3 1.2-0.3 0.8 0 1.3 0.3 0.4 0.3 0.7 0.7v-0.6q0-0.3 0.3-0.3h0.2q0.3 0 0.3 0.3v8q0 0.3-0.3 0.3h-0.2q-0.3 0-0.3-0.3v-2.8q-0.3 0.4-0.7 0.6-0.5 0.3-1.3 0.3zm2-3.7q0-0.3-0.1-0.7-0.1-0.4-0.3-0.7-0.3-0.3-0.6-0.5-0.4-0.2-0.9-0.2-0.5 0-0.9 0.2-0.3 0.2-0.6 0.5-0.2 0.3-0.3 0.7-0.1 0.4-0.1 0.8 0 0.4 0 0.7 0 0.4 0.1 0.8 0.1 0.4 0.3 0.7 0.3 0.3 0.6 0.5 0.4 0.2 0.9 0.2 0.5 0 0.9-0.2 0.3-0.2 0.6-0.5 0.2-0.2 0.3-0.6 0.1-0.4 0.1-0.7 0-0.2 0-0.5 0-0.3 0-0.5z"/>
						<path id="&lt;Compound Path&gt;" class="s14" d="m799.2 134.9q0-0.3 0.2-0.3h0.2q0.3 0 0.3 0.3v3.4q0 2 1.8 2 0.8 0 1.4-0.5 0.5-0.6 0.5-1.5v-3.4q0-0.3 0.2-0.3h0.2q0.3 0 0.3 0.3v5.7q0 0.3-0.3 0.3h-0.2q-0.2 0-0.2-0.3v-0.5q-0.4 0.4-0.8 0.6-0.5 0.3-1.2 0.3-0.6 0-1.1-0.2-0.4-0.2-0.7-0.6-0.3-0.3-0.5-0.8-0.1-0.5-0.1-1.1z"/>
						<path id="&lt;Compound Path&gt;" class="s14" d="m807.1 133.1q0 0.1-0.1 0.2 0 0.1-0.2 0.1h-0.4q-0.3 0-0.3-0.3v-0.5q0-0.1 0.1-0.2 0.1 0 0.2 0h0.4q0.2 0 0.2 0 0.1 0.1 0.1 0.2zm-0.1 7.6q0 0.2-0.3 0.2h-0.2q-0.3 0-0.3-0.2v-5.7q0-0.3 0.3-0.3h0.2q0.3 0 0.3 0.3z"/>
						<path id="&lt;Compound Path&gt;" fill-rule="evenodd" class="s14" d="m811.7 141q-0.8 0-1.3-0.3-0.4-0.2-0.7-0.6v2.8q0 0.3-0.3 0.3h-0.2q-0.3 0-0.3-0.3v-8q0-0.3 0.3-0.3h0.2q0.3 0 0.3 0.3v0.6q0.3-0.4 0.7-0.7 0.5-0.3 1.3-0.3 0.7 0 1.2 0.3 0.4 0.2 0.7 0.6 0.3 0.4 0.5 0.9 0.1 0.5 0.1 1.1 0.1 0.1 0.1 0.4 0 0.2-0.1 0.4 0 0.5-0.1 1-0.2 0.5-0.5 0.9-0.3 0.4-0.7 0.7-0.5 0.2-1.2 0.2zm-2-3.7q0 0.2 0 0.5 0 0.3 0 0.5 0 0.3 0.1 0.7 0.1 0.4 0.3 0.6 0.3 0.3 0.6 0.5 0.4 0.2 0.9 0.2 0.5 0 0.9-0.2 0.3-0.2 0.6-0.5 0.2-0.3 0.3-0.7 0.1-0.4 0.1-0.8 0-0.3 0-0.7 0-0.4-0.1-0.8-0.1-0.4-0.3-0.7-0.3-0.3-0.6-0.5-0.4-0.2-0.9-0.2-0.5 0-0.9 0.2-0.3 0.2-0.6 0.5-0.2 0.3-0.3 0.7-0.1 0.4-0.1 0.7z"/>
						<path id="&lt;Compound Path&gt;" fill-rule="evenodd" class="s14" d="m818.7 137.3q0-0.6 0.2-1.1 0.2-0.5 0.6-0.9 0.3-0.4 0.7-0.6 0.5-0.2 1.1-0.2 1.3 0 2 0.8 0.7 0.9 0.7 2.3v0.2q0 0.1-0.1 0.2-0.1 0.1-0.2 0.1h-4.3v0.1q0 0.4 0.2 0.8 0.1 0.4 0.3 0.7 0.3 0.2 0.6 0.4 0.4 0.2 0.8 0.2 0.4 0 0.7-0.1 0.3-0.1 0.5-0.2 0.2-0.1 0.3-0.3 0.1-0.1 0.2-0.2 0.1-0.1 0.1-0.2 0.1 0 0.2 0h0.2q0.1 0 0.2 0.1 0.1 0 0.1 0.2 0 0.1-0.2 0.4-0.2 0.2-0.5 0.5-0.3 0.2-0.8 0.3-0.4 0.2-1 0.2-0.6 0-1-0.2-0.5-0.2-0.8-0.6-0.4-0.3-0.6-0.8-0.2-0.5-0.2-1.2 0-0.1 0-0.4 0-0.3 0-0.5zm0.7 0.1h3.8v-0.1q0-0.4-0.1-0.8-0.1-0.4-0.4-0.7-0.2-0.3-0.6-0.4-0.4-0.2-0.8-0.2-0.5 0-0.8 0.2-0.3 0.1-0.6 0.4-0.2 0.3-0.4 0.7-0.1 0.4-0.1 0.8z"/>
						<path id="&lt;Compound Path&gt;" class="s14" d="m827.6 138.3l-1.9 2.4q-0.1 0.1-0.1 0.1-0.1 0.1-0.2 0.1h-0.3q-0.1 0-0.1-0.1-0.1-0.1-0.1-0.2 0 0 0-0.1 0 0 0.1-0.1l2.1-2.7-2-2.6q-0.1-0.1-0.1-0.1 0-0.1 0-0.1 0-0.1 0.1-0.2 0-0.1 0.1-0.1h0.3q0.1 0 0.2 0.1 0 0.1 0.1 0.1l1.8 2.3 1.8-2.3q0.1 0 0.1-0.1 0.1-0.1 0.2-0.1h0.2q0.1 0 0.2 0.1 0.1 0.1 0.1 0.2 0 0 0 0.1-0.1 0-0.1 0.1l-2.1 2.6 2.2 2.7q0 0.1 0 0.1 0.1 0.1 0.1 0.1 0 0.1-0.1 0.2-0.1 0.1-0.2 0.1h-0.2q-0.2 0-0.2-0.1-0.1 0-0.1-0.1z"/>
						<path id="&lt;Compound Path&gt;" fill-rule="evenodd" class="s14" d="m834.4 137.3q0.1-0.6 0.3-1.1 0.2-0.5 0.5-0.9 0.3-0.4 0.8-0.6 0.5-0.2 1.1-0.2 1.2 0 1.9 0.8 0.7 0.9 0.7 2.3v0.2q0 0.1-0.1 0.2 0 0.1-0.2 0.1h-4.2v0.1q0 0.4 0.1 0.8 0.2 0.4 0.4 0.7 0.2 0.2 0.6 0.4 0.3 0.2 0.8 0.2 0.4 0 0.6-0.1 0.3-0.1 0.5-0.2 0.2-0.1 0.4-0.3 0.1-0.1 0.1-0.2 0.1-0.1 0.2-0.2 0.1 0 0.2 0h0.2q0.1 0 0.2 0.1 0.1 0 0 0.2 0 0.1-0.1 0.4-0.2 0.2-0.5 0.5-0.4 0.2-0.8 0.3-0.5 0.2-1 0.2-0.6 0-1.1-0.2-0.4-0.2-0.8-0.6-0.3-0.3-0.5-0.8-0.2-0.5-0.3-1.2 0-0.1 0-0.4 0-0.3 0-0.5zm0.8 0.1h3.8v-0.1q0-0.4-0.1-0.8-0.2-0.4-0.4-0.7-0.3-0.3-0.6-0.4-0.4-0.2-0.8-0.2-0.5 0-0.8 0.2-0.4 0.1-0.6 0.4-0.3 0.3-0.4 0.7-0.1 0.4-0.1 0.8z"/>
						<path id="&lt;Compound Path&gt;" fill-rule="evenodd" class="s14" d="m845.4 140.9q-0.3 0-0.3-0.3v-0.5q-0.1 0.1-0.3 0.3-0.1 0.2-0.4 0.3-0.2 0.1-0.6 0.2-0.3 0.1-0.8 0.1-0.4 0-0.8-0.1-0.4-0.2-0.7-0.4-0.3-0.3-0.5-0.6-0.2-0.3-0.2-0.7 0-0.4 0.2-0.7 0.2-0.3 0.5-0.6 0.3-0.2 0.7-0.4 0.5-0.2 1-0.2l1.9-0.3v-0.4q0-0.7-0.4-1-0.4-0.4-1.2-0.4-0.7 0-1.1 0.3-0.3 0.2-0.4 0.5-0.1 0.2-0.1 0.2-0.1 0.1-0.2 0.1h-0.2q-0.1 0-0.2-0.1 0-0.1 0-0.2 0-0.1 0.1-0.4 0.1-0.2 0.4-0.5 0.2-0.2 0.7-0.4 0.4-0.2 1-0.2 0.7 0 1.1 0.2 0.5 0.2 0.8 0.5 0.2 0.3 0.3 0.7 0.1 0.4 0.1 0.7v4q0 0.3-0.2 0.3zm-2.3-0.6q0.4 0 0.8-0.1 0.4-0.2 0.6-0.4 0.3-0.3 0.5-0.7 0.1-0.5 0.1-1v-0.4l-1.5 0.2q-2 0.3-2 1.3 0 0.3 0.1 0.5 0.2 0.2 0.4 0.3 0.2 0.2 0.5 0.2 0.2 0.1 0.5 0.1z"/>
						<path id="&lt;Compound Path&gt;" class="s14" d="m730.3 151.7q0 0.2 0 0.5 0 0.2 0 0.4 0.1 1.1 0.6 1.6 0.5 0.5 1.4 0.5 0.6 0 1-0.3 0.5-0.2 0.7-0.9 0.1-0.2 0.1-0.2 0.1-0.1 0.2-0.1h0.2q0.1 0 0.2 0.1 0.1 0.1 0.1 0.2-0.1 0.3-0.2 0.7-0.2 0.3-0.5 0.6-0.3 0.3-0.7 0.4-0.5 0.2-1.1 0.2-1.3 0-2-0.7-0.6-0.8-0.7-2.1 0-0.1 0-0.4 0-0.3 0-0.5 0.1-1.3 0.7-2 0.7-0.8 2-0.8 0.6 0 1.1 0.2 0.4 0.2 0.7 0.5 0.3 0.2 0.5 0.6 0.1 0.3 0.2 0.6 0 0.2-0.1 0.2-0.1 0.1-0.2 0.1h-0.2q-0.1 0-0.2-0.1 0 0-0.1-0.2-0.2-0.6-0.7-0.9-0.4-0.3-1-0.3-0.9 0-1.4 0.5-0.5 0.5-0.6 1.6z"/>
						<path id="&lt;Compound Path&gt;" fill-rule="evenodd" class="s14" d="m738.7 148.9q0.7 0 1.2 0.2 0.4 0.2 0.8 0.6 0.3 0.4 0.5 0.9 0.2 0.5 0.2 1.1 0 0.1 0 0.2 0 0.1 0 0.3 0 0.1 0 0.2 0 0.2 0 0.3 0 0.5-0.2 1-0.2 0.6-0.5 0.9-0.4 0.4-0.8 0.6-0.5 0.2-1.2 0.2-0.6 0-1.1-0.2-0.5-0.2-0.9-0.6-0.3-0.3-0.5-0.9-0.1-0.5-0.2-1 0-0.1 0-0.3 0-0.1 0-0.2 0-0.2 0-0.3 0-0.1 0-0.2 0.1-0.6 0.2-1.1 0.2-0.5 0.5-0.9 0.4-0.4 0.9-0.6 0.5-0.2 1.1-0.2zm1.9 2.8q0-1-0.5-1.5-0.5-0.6-1.4-0.6-0.8 0-1.4 0.6-0.5 0.5-0.5 1.5 0 0.2 0 0.5 0 0.2 0 0.4 0 1 0.5 1.6 0.6 0.5 1.4 0.5 0.9 0 1.4-0.5 0.5-0.6 0.5-1.6 0.1-0.2 0.1-0.4 0-0.3-0.1-0.5z"/>
						<path id="&lt;Compound Path&gt;" class="s14" d="m743.8 149.7q0.3-0.4 0.7-0.6 0.4-0.2 1-0.2 0.7 0 1.1 0.3 0.5 0.3 0.8 0.9 0.3-0.6 0.8-0.9 0.5-0.3 1.2-0.3 0.5 0 0.9 0.2 0.4 0.2 0.7 0.5 0.3 0.3 0.5 0.8 0.2 0.5 0.2 1.1v3.5q0 0.3-0.3 0.3h-0.2q-0.2 0-0.2-0.3v-3.4q-0.1-0.5-0.2-0.9-0.1-0.4-0.3-0.7-0.3-0.2-0.6-0.3-0.3-0.1-0.6-0.1-0.3 0-0.5 0.1-0.3 0.1-0.6 0.3-0.2 0.3-0.3 0.7-0.2 0.4-0.2 0.9v3.4q0 0.3-0.2 0.3h-0.2q-0.3 0-0.3-0.3v-3.4q0-0.5-0.2-0.9-0.1-0.4-0.3-0.7-0.3-0.2-0.5-0.3-0.3-0.1-0.6-0.1-0.3 0-0.6 0.1-0.3 0.1-0.5 0.3-0.2 0.3-0.4 0.7-0.1 0.3-0.1 0.9v3.4q0 0.3-0.3 0.3h-0.2q-0.3 0-0.3-0.3v-5.7q0-0.3 0.3-0.3h0.2q0.3 0 0.3 0.3z"/>
						<path id="&lt;Compound Path&gt;" class="s14" d="m754.3 149.7q0.3-0.4 0.7-0.6 0.4-0.2 1-0.2 0.7 0 1.2 0.3 0.5 0.3 0.7 0.9 0.3-0.6 0.8-0.9 0.6-0.3 1.3-0.3 0.5 0 0.9 0.2 0.4 0.2 0.7 0.5 0.3 0.3 0.4 0.8 0.2 0.5 0.2 1.1v3.5q0 0.3-0.2 0.3h-0.2q-0.3 0-0.3-0.3v-3.4q0-0.5-0.1-0.9-0.2-0.4-0.4-0.7-0.2-0.2-0.5-0.3-0.3-0.1-0.6-0.1-0.3 0-0.6 0.1-0.3 0.1-0.5 0.3-0.3 0.3-0.4 0.7-0.1 0.4-0.1 0.9v3.4q0 0.3-0.3 0.3h-0.2q-0.3 0-0.3-0.3v-3.4q0-0.5-0.1-0.9-0.2-0.4-0.4-0.7-0.2-0.2-0.5-0.3-0.3-0.1-0.6-0.1-0.3 0-0.6 0.1-0.2 0.1-0.5 0.3-0.2 0.3-0.4 0.7-0.1 0.3-0.1 0.9v3.4q0 0.3-0.3 0.3h-0.2q-0.2 0-0.2-0.3v-5.7q0-0.3 0.2-0.3h0.2q0.3 0 0.3 0.3z"/>
						<path id="&lt;Compound Path&gt;" fill-rule="evenodd" class="s14" d="m766.5 148.9q0.6 0 1.1 0.2 0.5 0.2 0.8 0.6 0.4 0.4 0.5 0.9 0.2 0.5 0.2 1.1 0 0.1 0 0.2 0.1 0.1 0.1 0.3 0 0.1-0.1 0.2 0 0.2 0 0.3 0 0.5-0.2 1-0.1 0.6-0.5 0.9-0.3 0.4-0.8 0.6-0.5 0.2-1.1 0.2-0.7 0-1.2-0.2-0.5-0.2-0.8-0.6-0.3-0.3-0.5-0.9-0.2-0.5-0.2-1 0-0.1 0-0.3 0-0.1 0-0.2 0-0.2 0-0.3 0-0.1 0-0.2 0-0.6 0.2-1.1 0.2-0.5 0.5-0.9 0.3-0.4 0.8-0.6 0.5-0.2 1.2-0.2zm1.9 2.8q0-1-0.6-1.5-0.5-0.6-1.3-0.6-0.9 0-1.4 0.6-0.5 0.5-0.6 1.5 0 0.2 0 0.5 0 0.2 0 0.4 0.1 1 0.6 1.6 0.5 0.5 1.4 0.5 0.8 0 1.3-0.5 0.6-0.6 0.6-1.6 0-0.2 0-0.4 0-0.3 0-0.5z"/>
						<path id="&lt;Compound Path&gt;" fill-rule="evenodd" class="s14" d="m773.1 148.9q0.7 0 1.2 0.3 0.5 0.3 0.8 0.7v-2.9q0-0.2 0.2-0.2h0.2q0.3 0 0.3 0.2v8q0 0.3-0.3 0.3h-0.2q-0.2 0-0.2-0.3v-0.5q-0.3 0.4-0.8 0.6-0.5 0.3-1.2 0.3-0.8 0-1.2-0.3-0.5-0.2-0.8-0.6-0.3-0.4-0.5-1-0.1-0.5-0.1-1 0-0.3 0-0.7 0-0.5 0.1-1 0.2-0.5 0.5-0.9 0.3-0.5 0.8-0.7 0.4-0.3 1.2-0.3zm2 3.7q0-0.2 0-0.5 0-0.3 0-0.4 0-0.4-0.2-0.8-0.1-0.3-0.3-0.6-0.2-0.3-0.6-0.5-0.4-0.2-0.9-0.2-0.5 0-0.9 0.2-0.3 0.2-0.5 0.5-0.3 0.3-0.4 0.7-0.1 0.4-0.1 0.8 0 0.4 0 0.7 0 0.4 0.1 0.8 0.1 0.4 0.4 0.7 0.2 0.3 0.5 0.5 0.4 0.2 0.9 0.2 0.5 0 0.9-0.2 0.4-0.2 0.6-0.5 0.2-0.3 0.3-0.7 0.2-0.3 0.2-0.7z"/>
						<path id="&lt;Compound Path&gt;" fill-rule="evenodd" class="s14" d="m780.1 148.9q0.7 0 1.2 0.2 0.5 0.2 0.8 0.6 0.3 0.4 0.5 0.9 0.2 0.5 0.2 1.1 0 0.1 0 0.2 0 0.1 0 0.3 0 0.1 0 0.2 0 0.2 0 0.3 0 0.5-0.2 1-0.2 0.6-0.5 0.9-0.3 0.4-0.8 0.6-0.5 0.2-1.2 0.2-0.6 0-1.1-0.2-0.5-0.2-0.8-0.6-0.4-0.3-0.5-0.9-0.2-0.5-0.2-1 0-0.1 0-0.3 0-0.1 0-0.2 0-0.2 0-0.3 0-0.1 0-0.2 0-0.6 0.2-1.1 0.1-0.5 0.5-0.9 0.3-0.4 0.8-0.6 0.5-0.2 1.1-0.2zm2 2.8q-0.1-1-0.6-1.5-0.5-0.6-1.4-0.6-0.8 0-1.3 0.6-0.6 0.5-0.6 1.5 0 0.2 0 0.5 0 0.2 0 0.4 0 1 0.6 1.6 0.5 0.5 1.3 0.5 0.9 0 1.4-0.5 0.5-0.6 0.6-1.6 0-0.2 0-0.4 0-0.3 0-0.5z"/>
						<path id="&lt;Compound Path&gt;" class="s14" d="m788 151.7q0 0.2 0 0.5 0 0.2 0 0.4 0 1.1 0.6 1.6 0.5 0.5 1.3 0.5 0.7 0 1.1-0.3 0.4-0.2 0.7-0.9 0-0.2 0.1-0.2 0-0.1 0.2-0.1h0.1q0.1 0 0.2 0.1 0.1 0.1 0.1 0.2 0 0.3-0.2 0.7-0.1 0.3-0.4 0.6-0.3 0.3-0.8 0.4-0.4 0.2-1.1 0.2-1.3 0-1.9-0.7-0.7-0.8-0.7-2.1 0-0.1 0-0.4 0-0.3 0-0.5 0-1.3 0.7-2 0.6-0.8 1.9-0.8 0.7 0 1.1 0.2 0.5 0.2 0.8 0.5 0.3 0.2 0.4 0.6 0.2 0.3 0.2 0.6 0 0.2-0.1 0.2-0.1 0.1-0.2 0.1h-0.1q-0.2 0-0.2-0.1-0.1 0-0.1-0.2-0.3-0.6-0.7-0.9-0.4-0.3-1.1-0.3-0.8 0-1.3 0.5-0.6 0.5-0.6 1.6z"/>
						<path id="&lt;Compound Path&gt;" fill-rule="evenodd" class="s14" d="m796.4 148.9q0.6 0 1.1 0.2 0.5 0.2 0.8 0.6 0.4 0.4 0.5 0.9 0.2 0.5 0.2 1.1 0 0.1 0 0.2 0 0.1 0 0.3 0 0.1 0 0.2 0 0.2 0 0.3 0 0.5-0.2 1-0.1 0.6-0.5 0.9-0.3 0.4-0.8 0.6-0.5 0.2-1.1 0.2-0.7 0-1.2-0.2-0.5-0.2-0.8-0.6-0.3-0.3-0.5-0.9-0.2-0.5-0.2-1 0-0.1 0-0.3 0-0.1 0-0.2 0-0.2 0-0.3 0-0.1 0-0.2 0-0.6 0.2-1.1 0.2-0.5 0.5-0.9 0.3-0.4 0.8-0.6 0.5-0.2 1.2-0.2zm1.9 2.8q0-1-0.6-1.5-0.5-0.6-1.3-0.6-0.9 0-1.4 0.6-0.5 0.5-0.6 1.5 0 0.2 0 0.5 0 0.2 0 0.4 0.1 1 0.6 1.6 0.5 0.5 1.4 0.5 0.8 0 1.3-0.5 0.6-0.6 0.6-1.6 0-0.2 0-0.4 0-0.3 0-0.5z"/>
						<path id="&lt;Compound Path&gt;" class="s14" d="m805.9 155q0 0.3-0.3 0.3h-0.2q-0.3 0-0.3-0.3v-3.3q0-1-0.4-1.5-0.5-0.6-1.4-0.6-0.9 0-1.4 0.6-0.5 0.5-0.5 1.5v3.3q0 0.3-0.3 0.3h-0.2q-0.2 0-0.2-0.3v-5.7q0-0.3 0.2-0.3h0.2q0.3 0 0.3 0.3v0.6q0.3-0.4 0.8-0.7 0.4-0.3 1.2-0.3 0.6 0 1.1 0.2 0.4 0.2 0.8 0.6 0.3 0.4 0.4 0.8 0.2 0.5 0.2 1.1z"/>
						<path id="&lt;Compound Path&gt;" class="s14" d="m811.4 153.6q0-0.2-0.1-0.4-0.1-0.2-0.3-0.3-0.3-0.1-0.7-0.3-0.4-0.1-0.9-0.2-0.6-0.1-1-0.3-0.3-0.2-0.5-0.4-0.2-0.2-0.3-0.5-0.1-0.2-0.1-0.5 0-0.3 0.2-0.7 0.1-0.3 0.4-0.5 0.2-0.3 0.6-0.4 0.4-0.2 1-0.2 0.6 0 1 0.2 0.4 0.1 0.7 0.4 0.2 0.2 0.3 0.4 0.2 0.2 0.2 0.3 0 0.2-0.1 0.2-0.1 0.1-0.2 0.1h-0.2q-0.1 0-0.2-0.1-0.1-0.2-0.2-0.3-0.1-0.2-0.3-0.3-0.2-0.1-0.4-0.1-0.3-0.1-0.6-0.1-0.7 0-1.1 0.3-0.3 0.3-0.3 0.8 0 0.2 0 0.3 0.1 0.2 0.3 0.3 0.2 0.2 0.6 0.3 0.3 0.1 0.9 0.2 0.6 0.2 1 0.3 0.4 0.2 0.6 0.4 0.2 0.2 0.3 0.5 0.1 0.3 0.1 0.6 0 0.4-0.1 0.7-0.2 0.3-0.5 0.6-0.3 0.2-0.7 0.4-0.5 0.1-1.1 0.1-0.6 0-1-0.2-0.5-0.1-0.8-0.4-0.3-0.2-0.4-0.4-0.1-0.3-0.1-0.4-0.1-0.1 0-0.2 0.1 0 0.2 0h0.2q0.1 0 0.1 0 0.1 0 0.2 0.1 0.1 0.2 0.2 0.3 0.2 0.2 0.4 0.3 0.2 0.1 0.4 0.1 0.3 0.1 0.6 0.1 0.8 0 1.2-0.3 0.5-0.2 0.5-0.8z"/>
						<path id="&lt;Compound Path&gt;" fill-rule="evenodd" class="s14" d="m813.4 151.7q0-0.6 0.2-1.1 0.2-0.5 0.5-0.9 0.4-0.4 0.8-0.6 0.5-0.2 1.1-0.2 1.2 0 1.9 0.8 0.7 0.9 0.7 2.3v0.2q0 0.1 0 0.2-0.1 0.1-0.2 0.1h-4.3v0.1q0 0.4 0.1 0.8 0.2 0.4 0.4 0.7 0.3 0.2 0.6 0.4 0.3 0.2 0.8 0.2 0.4 0 0.7-0.1 0.2-0.1 0.4-0.2 0.2-0.1 0.4-0.3 0.1-0.1 0.1-0.2 0.2-0.1 0.2-0.2 0.1 0 0.2 0h0.2q0.1 0 0.2 0.1 0.1 0 0.1 0.2-0.1 0.1-0.2 0.4-0.2 0.2-0.5 0.5-0.3 0.2-0.8 0.3-0.5 0.2-1 0.2-0.6 0-1.1-0.2-0.4-0.2-0.8-0.6-0.3-0.3-0.5-0.8-0.2-0.5-0.2-1.2-0.1-0.1-0.1-0.4 0-0.3 0.1-0.5zm0.7 0.1h3.8v-0.1q0-0.4-0.1-0.8-0.2-0.4-0.4-0.7-0.3-0.3-0.6-0.4-0.4-0.2-0.8-0.2-0.5 0-0.8 0.2-0.4 0.1-0.6 0.4-0.3 0.3-0.4 0.7-0.1 0.4-0.1 0.8z"/>
						<path id="&lt;Compound Path&gt;" fill-rule="evenodd" class="s14" d="m822.5 155.4q-0.7 0-1.2-0.2-0.5-0.3-0.8-0.7-0.3-0.4-0.4-0.9-0.2-0.5-0.2-1 0-0.2 0-0.4 0-0.3 0-0.4 0-0.6 0.2-1.1 0.1-0.5 0.4-0.9 0.3-0.4 0.8-0.6 0.5-0.3 1.2-0.3 0.7 0 1.2 0.3 0.5 0.3 0.8 0.7v-0.6q0-0.3 0.3-0.3h0.2q0.2 0 0.2 0.3v8q0 0.3-0.2 0.3h-0.2q-0.3 0-0.3-0.3v-2.8q-0.3 0.4-0.8 0.6-0.5 0.3-1.2 0.3zm2-3.7q0-0.3-0.1-0.7-0.1-0.4-0.4-0.7-0.2-0.3-0.6-0.5-0.3-0.2-0.8-0.2-0.6 0-0.9 0.2-0.4 0.2-0.6 0.5-0.2 0.3-0.3 0.7-0.1 0.4-0.2 0.8 0 0.4 0 0.7 0.1 0.4 0.2 0.8 0.1 0.4 0.3 0.7 0.2 0.3 0.6 0.5 0.3 0.2 0.9 0.2 0.5 0 0.8-0.2 0.4-0.2 0.6-0.5 0.3-0.2 0.4-0.6 0.1-0.4 0.1-0.7 0-0.2 0-0.5 0-0.3 0-0.5z"/>
						<path id="&lt;Compound Path&gt;" class="s14" d="m827.1 149.3q0-0.3 0.3-0.3h0.2q0.3 0 0.3 0.3v3.4q0 2 1.7 2 0.9 0 1.4-0.5 0.5-0.6 0.5-1.5v-3.4q0-0.3 0.3-0.3h0.2q0.3 0 0.3 0.3v5.7q0 0.3-0.3 0.3h-0.2q-0.3 0-0.3-0.3v-0.5q-0.3 0.4-0.7 0.6-0.5 0.3-1.3 0.3-0.6 0-1-0.2-0.5-0.2-0.8-0.6-0.3-0.3-0.4-0.8-0.2-0.5-0.2-1.1z"/>
						<path id="&lt;Compound Path&gt;" fill-rule="evenodd" class="s14" d="m838.3 155.3q-0.3 0-0.3-0.3v-0.5q-0.1 0.1-0.3 0.3-0.1 0.2-0.4 0.3-0.2 0.1-0.6 0.2-0.3 0.1-0.8 0.1-0.4 0-0.8-0.1-0.4-0.2-0.7-0.4-0.3-0.3-0.5-0.6-0.2-0.3-0.2-0.7 0-0.4 0.2-0.7 0.2-0.3 0.5-0.6 0.3-0.2 0.7-0.4 0.5-0.2 1-0.2l1.9-0.3v-0.4q0-0.7-0.4-1-0.4-0.4-1.2-0.4-0.7 0-1.1 0.3-0.3 0.2-0.4 0.5-0.1 0.2-0.1 0.2-0.1 0.1-0.2 0.1h-0.2q-0.1 0-0.2-0.1 0-0.1 0-0.2 0-0.1 0.1-0.4 0.1-0.2 0.4-0.5 0.2-0.2 0.7-0.4 0.4-0.2 1-0.2 0.7 0 1.1 0.2 0.5 0.2 0.8 0.5 0.2 0.3 0.3 0.7 0.1 0.4 0.1 0.7v4q0 0.3-0.2 0.3zm-2.3-0.6q0.4 0 0.8-0.1 0.3-0.2 0.6-0.4 0.3-0.3 0.5-0.7 0.1-0.5 0.1-1v-0.4l-1.5 0.2q-2 0.3-2 1.3 0 0.3 0.1 0.5 0.1 0.2 0.4 0.3 0.2 0.2 0.5 0.2 0.2 0.1 0.5 0.1z"/>
						<path id="&lt;Compound Path&gt;" class="s14" d="m841.8 153.2q0 0.7 0.2 1 0.2 0.4 0.7 0.4h0.7q0.2 0 0.2 0.3v0.1q0 0.3-0.2 0.3h-0.7q-0.5 0-0.8-0.2-0.3-0.1-0.5-0.4-0.2-0.3-0.3-0.6-0.1-0.4-0.1-0.8v-3.6h-0.9q-0.3 0-0.3-0.2v-0.2q0-0.3 0.3-0.3h0.9v-2q0-0.2 0.3-0.2h0.2q0.3 0 0.3 0.2v2h1.5q0.2 0 0.2 0.3v0.2q0 0.2-0.2 0.2h-1.5z"/>
						<path id="&lt;Compound Path&gt;" class="s14" d="m845.9 155q0 0.1-0.1 0.2 0 0.1-0.2 0.1h-0.5q-0.3 0-0.3-0.3v-0.6q0-0.1 0.1-0.2 0 0 0.2 0h0.5q0.2 0 0.2 0 0.1 0.1 0.1 0.2z"/>
					</g>
					<g id="&lt;Group&gt;">
						<path id="&lt;Path&gt;" class="s14" d="m837.4 233.3h-138.3c-5.8 0-10.5-4.8-10.5-10.6v-32.3c0-5.9 4.7-10.6 10.5-10.6h138.3c5.8 0 10.5 4.7 10.5 10.6v32.3c0 5.8-4.7 10.6-10.5 10.6z"/>
						<g id="&lt;Group&gt;">
							<path id="&lt;Compound Path&gt;" fill-rule="evenodd" class="s44" d="m706 198.5q2.6 0 4.2 1.3 1.6 1.2 1.6 3.8 0 2-1 3.2-1 1.2-2.8 1.6l4 6.9q0.1 0.2 0.1 0.3 0 0.2-0.1 0.4-0.2 0.1-0.4 0.1h-0.3q-0.4 0-0.6-0.2-0.2-0.2-0.4-0.5l-3.9-6.7h-5.2v6.9q0 0.5-0.6 0.5h-0.5q-0.5 0-0.5-0.5v-16.5q0-0.6 0.5-0.6zm-4.8 8.7h4.7q4.3 0 4.3-3.6 0-3.6-4.3-3.6h-4.7z"/>
							<path id="&lt;Compound Path&gt;" class="s44" d="m726.9 214.6q0.5 0 0.5 0.6v0.4q0 0.5-0.5 0.5h-10q-0.6 0-0.6-0.5v-16.5q0-0.6 0.6-0.6h9.8q0.5 0 0.5 0.6v0.4q0 0.5-0.5 0.5h-8.8v6.4h8.2q0.6 0 0.6 0.6v0.4q0 0.5-0.6 0.5h-8.2v6.7z"/>
							<path id="&lt;Compound Path&gt;" fill-rule="evenodd" class="s44" d="m742.1 211.7h-8.9l-1.6 4q0 0.1-0.2 0.3-0.1 0.1-0.3 0.1h-0.6q-0.1 0-0.3-0.1-0.2-0.2-0.2-0.4 0-0.1 0.1-0.3l6.4-16.3q0.1-0.2 0.2-0.4 0.2-0.1 0.5-0.1h0.8q0.3 0 0.5 0.1 0.2 0.2 0.3 0.4l6.3 16.3q0.1 0.2 0.1 0.3 0 0.2-0.2 0.4-0.1 0.1-0.3 0.1h-0.5q-0.3 0-0.4-0.1-0.1-0.2-0.2-0.3zm-8.3-1.5h7.7l-3.8-9.9z"/>
							<path id="&lt;Compound Path&gt;" fill-rule="evenodd" class="s44" d="m754.7 198.5q2 0 3.3 0.5 1.3 0.4 2.1 1.3 0.8 0.8 1.2 2.1 0.3 1.3 0.4 2.9 0 1.1 0 2 0 0.9 0 2-0.1 1.7-0.4 3-0.4 1.3-1.2 2.1-0.7 0.9-2.1 1.3-1.3 0.4-3.2 0.4h-5.5q-0.5 0-0.5-0.5v-16.5q0-0.6 0.5-0.6zm5.4 6.9q0-1.4-0.3-2.4-0.3-1-1-1.7-0.6-0.6-1.7-0.9-1-0.4-2.5-0.4h-4.2v14.6h4.3q1.5 0 2.5-0.3 1.1-0.3 1.7-0.9 0.6-0.7 0.9-1.7 0.3-1 0.3-2.5 0-0.6 0-1 0.1-0.5 0.1-0.9 0-0.4-0.1-0.9 0-0.4 0-1z"/>
							<path id="&lt;Compound Path&gt;" class="s44" d="m780.7 211.9q-0.6 0-0.8-0.5l-4.8-9.5v13.7q0 0.5-0.5 0.5h-0.5q-0.6 0-0.6-0.5v-16.5q0-0.6 0.6-0.6h0.6q0.3 0 0.4 0.1 0.1 0.2 0.2 0.2l5.7 11.2 5.7-11.2q0 0 0.2-0.2 0.1-0.1 0.3-0.1h0.6q0.6 0 0.6 0.6v16.5q0 0.5-0.6 0.5h-0.4q-0.6 0-0.6-0.5v-13.7l-4.8 9.5q-0.2 0.5-0.8 0.5z"/>
							<path id="&lt;Compound Path&gt;" fill-rule="evenodd" class="s44" d="m799.7 198.3q1.5 0 2.7 0.4 1.2 0.4 2 1.3 0.9 0.9 1.4 2.1 0.5 1.3 0.5 3.1 0.1 1.1 0.1 2.1 0 1-0.1 2.1-0.1 3.6-1.8 5.3-1.7 1.7-4.8 1.7-3.1 0-4.8-1.7-1.7-1.7-1.8-5.3-0.1-1.1-0.1-2.1 0-1 0.1-2.1 0-1.8 0.5-3.1 0.5-1.2 1.4-2.1 0.8-0.9 2-1.3 1.2-0.4 2.7-0.4zm0 1.5q-1 0-1.9 0.3-1 0.3-1.6 1-0.7 0.7-1.1 1.7-0.4 1.1-0.4 2.5-0.1 0.6-0.1 1.1 0 0.5 0 0.9 0 0.5 0 1 0 0.4 0.1 1 0 1.5 0.4 2.5 0.4 1.1 1.1 1.7 0.6 0.7 1.5 1 0.9 0.4 2 0.4 1.1 0 2-0.4 0.9-0.3 1.6-1 0.6-0.6 1-1.7 0.4-1 0.5-2.5 0-0.6 0-1 0-0.5 0-1 0-0.4 0-0.9 0-0.5 0-1.1-0.1-1.4-0.5-2.5-0.4-1-1-1.7-0.7-0.7-1.6-1-0.9-0.3-2-0.3z"/>
							<path id="&lt;Compound Path&gt;" fill-rule="evenodd" class="s44" d="m817.4 198.5q2.7 0 4.2 1.3 1.6 1.2 1.6 3.8 0 2-1 3.2-1 1.2-2.8 1.6l4.1 6.9q0 0.2 0 0.3 0 0.2-0.1 0.4-0.2 0.1-0.4 0.1h-0.3q-0.4 0-0.6-0.2-0.2-0.2-0.3-0.5l-4-6.7h-5.2v6.9q0 0.5-0.6 0.5h-0.4q-0.6 0-0.6-0.5v-16.5q0-0.6 0.6-0.6zm-4.9 8.7h4.7q4.4 0 4.4-3.6 0-3.6-4.4-3.6h-4.7z"/>
							<path id="&lt;Compound Path&gt;" class="s44" d="m838.3 214.6q0.6 0 0.6 0.6v0.4q0 0.5-0.6 0.5h-10q-0.6 0-0.6-0.5v-16.5q0-0.6 0.6-0.6h9.8q0.6 0 0.6 0.6v0.4q0 0.5-0.6 0.5h-8.8v6.4h8.2q0.6 0 0.6 0.6v0.4q0 0.5-0.6 0.5h-8.2v6.7z"/>
						</g>
					</g>
				</g>
				<path id="&lt;Path&gt;" class="s45" d="m899.3 0.7h-900v300h900z"/>
			</g>
		</g>
	</g>
</svg>