<svg version="1.2" xmlns="http://www.w3.org/2000/svg" viewBox="0 0 900 300" width="1800" height="600">
	<title>20682-ai</title>
	<defs>
		<linearGradient id="g1" x1="524.3" y1="517.2" x2="169.4" y2="-97.5" gradientUnits="userSpaceOnUse">
			<stop offset="0" stop-color="#6a5258"/>
			<stop offset=".995" stop-color="#e2ac7e"/>
		</linearGradient>
	</defs>
	<style>
		.s0 { fill: #0094b3 } 
		.s1 { opacity: .6;mix-blend-mode: multiply;fill: #4d4261 } 
		.s2 { opacity: .4;mix-blend-mode: multiply;fill: #79676d } 
		.s3 { mix-blend-mode: multiply;fill: #d6edef } 
		.s4 { fill: #ebebec } 
		.s5 { fill: #ff6d68 } 
		.s6 { opacity: .8;fill: #aca3ab } 
		.s7 { opacity: .3;fill: #597070 } 
		.s8 { fill: #005594 } 
		.s9 { fill: #96989a } 
		.s10 { fill: #f5931f } 
		.s11 { fill: #493737 } 
		.s12 { opacity: .5;fill: #f3feff } 
		.s13 { opacity: .7;fill: #ffffff } 
		.s14 { fill: #565759 } 
		.s15 { fill: #f89c3e } 
		.s16 { fill: #ffffff } 
		.s17 { fill: #e2d4bc } 
		.s18 { opacity: .2;mix-blend-mode: multiply;fill: #a59a95 } 
		.s19 { fill: #968375 } 
		.s20 { fill: #827062 } 
		.s21 { fill: #004277 } 
		.s22 { fill: #baa490 } 
		.s23 { opacity: .2;fill: #000000 } 
		.s24 { fill: #a08c7c } 
		.s25 { fill: #ccb29e } 
		.s26 { fill: #d2d2d2 } 
		.s27 { opacity: .1;mix-blend-mode: multiply;fill: #7a665a } 
		.s28 { opacity: .4;mix-blend-mode: multiply;fill: #a59a95 } 
		.s29 { fill: #e4e4e4 } 
		.s30 { fill: #40383c } 
		.s31 { fill: #554b50 } 
		.s32 { fill: #de7d26 } 
		.s33 { fill: #fccb47 } 
		.s34 { fill: #877471 } 
		.s35 { fill: #423a3e } 
		.s36 { fill: #f4beab } 
		.s37 { fill: #f4cfc1 } 
		.s38 { fill: #726f65 } 
		.s39 { fill: #575a5d } 
		.s40 { fill: #adafb2 } 
		.s41 { fill: #808285 } 
		.s42 { fill: #5d6062 } 
		.s43 { fill: #574b51 } 
		.s44 { fill: #312a2d } 
		.s45 { fill: #007b94 } 
		.s46 { mix-blend-mode: overlay;fill: url(#g1) } 
	</style>
	<g id="_Artboards_">
	</g>
	<g id="Layer 1">
		<g id="&lt;Group&gt;">
			<g id="&lt;Group&gt;">
				<g id="&lt;Group&gt;">
					<path id="&lt;Path&gt;" class="s0" d="m899.3 300.7h-900v-300h900z"/>
					<path id="&lt;Path&gt;" class="s1" d="m899.3 226.7h-900v74h900z"/>
					<path id="&lt;Path&gt;" class="s2" d="m899.3 226.7h-900v-8.6h900z"/>
				</g>
				<g id="&lt;Group&gt;">
					<g id="&lt;Group&gt;">
						<g id="&lt;Group&gt;">
							<path id="&lt;Path&gt;" class="s3" d="m539.4 163.9h-129.3v-119.9h129.3z"/>
							<path id="&lt;Path&gt;" class="s4" d="m538.2 162.5h-129.3v-118.5h129.3z"/>
							<path id="&lt;Path&gt;" class="s5" d="m486.4 134.4l-11.1 3.4-3.4-11.1 11.1-3.4z"/>
							<path id="&lt;Path&gt;" class="s6" d="m499.7 130.2l-11 3.4-3.4-11 11.1-3.4z"/>
							<path id="&lt;Path&gt;" class="s7" d="m453.5 66.8h-35.2v-1.4h35.2z"/>
							<path id="&lt;Path&gt;" class="s7" d="m453.5 70.9h-35.2v-1.4h35.2z"/>
							<path id="&lt;Path&gt;" class="s7" d="m453.5 74.9h-35.2v-1.4h35.2z"/>
							<path id="&lt;Path&gt;" class="s7" d="m453.5 78.9h-35.2v-1.3h35.2z"/>
							<path id="&lt;Path&gt;" class="s7" d="m453.5 83h-35.2v-1.4h35.2z"/>
							<path id="&lt;Path&gt;" class="s7" d="m426.5 128.5h-8.2v-0.7h8.2z"/>
							<path id="&lt;Path&gt;" class="s7" d="m426.5 130.3h-8.2v-0.7h8.2z"/>
							<path id="&lt;Path&gt;" class="s7" d="m426.5 132.2h-8.2v-0.7h8.2z"/>
							<path id="&lt;Path&gt;" class="s7" d="m426.5 134.1h-8.2v-0.7h8.2z"/>
							<path id="&lt;Path&gt;" class="s7" d="m426.5 136h-8.2v-0.7h8.2z"/>
							<path id="&lt;Path&gt;" class="s7" d="m437.8 128.5h-8.1v-0.7h8.1z"/>
							<path id="&lt;Path&gt;" class="s7" d="m437.8 130.3h-8.1v-0.7h8.1z"/>
							<path id="&lt;Path&gt;" class="s7" d="m437.8 132.2h-8.1v-0.7h8.1z"/>
							<path id="&lt;Path&gt;" class="s7" d="m437.8 134.1h-8.1v-0.7h8.1z"/>
							<path id="&lt;Path&gt;" class="s7" d="m437.8 136h-8.1v-0.7h8.1z"/>
							<path id="&lt;Path&gt;" class="s7" d="m449.2 128.5h-8.2v-0.7h8.2z"/>
							<path id="&lt;Path&gt;" class="s7" d="m449.2 130.3h-8.2v-0.7h8.2z"/>
							<path id="&lt;Path&gt;" class="s7" d="m449.2 132.2h-8.2v-0.7h8.2z"/>
							<path id="&lt;Path&gt;" class="s7" d="m449.2 134.1h-8.2v-0.7h8.2z"/>
							<path id="&lt;Path&gt;" class="s7" d="m449.2 136h-8.2v-0.7h8.2z"/>
							<path id="&lt;Path&gt;" class="s7" d="m426.5 139.5h-8.2v-0.7h8.2z"/>
							<path id="&lt;Path&gt;" class="s7" d="m426.5 141.4h-8.2v-0.7h8.2z"/>
							<path id="&lt;Path&gt;" class="s7" d="m426.5 143.2h-8.2v-0.7h8.2z"/>
							<path id="&lt;Path&gt;" class="s7" d="m426.5 145.1h-8.2v-0.7h8.2z"/>
							<path id="&lt;Path&gt;" class="s7" d="m426.5 147h-8.2v-0.7h8.2z"/>
							<path id="&lt;Path&gt;" class="s7" d="m437.8 139.5h-8.1v-0.7h8.1z"/>
							<path id="&lt;Path&gt;" class="s7" d="m437.8 141.4h-8.1v-0.7h8.1z"/>
							<path id="&lt;Path&gt;" class="s7" d="m437.8 143.2h-8.1v-0.7h8.1z"/>
							<path id="&lt;Path&gt;" class="s7" d="m437.8 145.1h-8.1v-0.7h8.1z"/>
							<path id="&lt;Path&gt;" class="s7" d="m437.8 147h-8.1v-0.7h8.1z"/>
							<path id="&lt;Path&gt;" class="s7" d="m449.2 139.5h-8.2v-0.7h8.2z"/>
							<path id="&lt;Path&gt;" class="s7" d="m449.2 141.4h-8.2v-0.7h8.2z"/>
							<path id="&lt;Path&gt;" class="s7" d="m449.2 143.2h-8.2v-0.7h8.2z"/>
							<path id="&lt;Path&gt;" class="s7" d="m449.2 145.1h-8.2v-0.7h8.2z"/>
							<path id="&lt;Path&gt;" class="s7" d="m449.2 147h-8.2v-0.7h8.2z"/>
							<path id="&lt;Compound Path&gt;" fill-rule="evenodd" class="s5" d="m475.5 83.7h-18.3v-18.3h18.3zm-16.9-1.4h15.5v-15.5h-15.5z"/>
							<path id="&lt;Compound Path&gt;" fill-rule="evenodd" class="s8" d="m495.4 83.7h-18.3v-18.3h18.3zm-16.9-1.4h15.5v-15.5h-15.5z"/>
							<g id="&lt;Group&gt;">
								<path id="&lt;Compound Path&gt;" fill-rule="evenodd" class="s9" d="m492.6 106.1l-18.5 8.7c-0.2 0.1-0.5 0-0.6-0.2l-6.9-14.7c-0.1-0.2 0-0.5 0.2-0.6l18.5-8.7c0.3-0.2 0.6 0 0.7 0.2l6.9 14.6c0.1 0.3 0 0.6-0.3 0.7zm-18.4 7.6l17.5-8.3-6.4-13.7-17.6 8.3z"/>
								<path id="&lt;Path&gt;" class="s9" d="m479.9 103.2q-0.1 0-0.3 0l-12.7-3c-0.2 0-0.4-0.3-0.4-0.6 0.1-0.3 0.4-0.4 0.7-0.4l12.2 2.9 5.7-11.3c0.1-0.3 0.4-0.4 0.6-0.2 0.3 0.1 0.4 0.4 0.3 0.7l-5.8 11.6q-0.1 0.2-0.3 0.3z"/>
							</g>
							<path id="&lt;Path&gt;" class="s10" d="m437.7 115.9l-15.9 1.4-1.8-21.3 16-1.3z"/>
							<path id="&lt;Path&gt;" class="s10" d="m453.2 115.4l-14.5-5.6 7.7-19.9 14.5 5.7z"/>
							<path id="&lt;Compound Path&gt;" fill-rule="evenodd" class="s7" d="m526 148.9h-5.6v-83.1h5.6zm-4.9-0.7h4.2v-81.8h-4.2z"/>
							<path id="&lt;Path&gt;" class="s11" d="m413.2 48c0 0.5-0.5 0.9-1 0.9-0.6 0-1-0.4-1-0.9 0-0.6 0.4-1 1-1 0.5 0 1 0.4 1 1z"/>
							<path id="&lt;Path&gt;" class="s11" d="m535.1 159.3c0 0.6-0.4 1-0.9 1-0.6 0-1-0.4-1-1 0-0.5 0.4-0.9 1-0.9 0.5 0 0.9 0.4 0.9 0.9z"/>
							<path id="&lt;Path&gt;" class="s11" d="m413.7 159.3c0 0.6-0.5 1-1 1-0.6 0-1-0.4-1-1 0-0.5 0.4-0.9 1-0.9 0.5 0 1 0.4 1 0.9z"/>
							<path id="&lt;Path&gt;" class="s11" d="m534.4 48c0 0.5-0.5 0.9-1 0.9-0.6 0-1-0.4-1-0.9 0-0.6 0.4-1 1-1 0.5 0 1 0.4 1 1z"/>
							<g id="&lt;Group&gt;">
								<path id="&lt;Compound Path&gt;" class="s8" d="m439.3 55.8q0.1 0 0.2 0 0.1 0.1 0.1 0.2v0.7q0 0.1-0.1 0.1-0.1 0.1-0.2 0.1h-4q-0.1 0-0.2-0.1-0.1 0-0.1-0.1v-6q0-0.1 0.1-0.2 0.1 0 0.2 0h3.9q0.1 0 0.2 0 0.1 0.1 0.1 0.2v0.7q0 0.1-0.1 0.1-0.1 0.1-0.2 0.1h-2.9v1.5h2.7q0.1 0 0.2 0.1 0.1 0 0.1 0.1v0.7q0 0.1-0.1 0.2-0.1 0-0.2 0h-2.7v1.6z"/>
								<path id="&lt;Compound Path&gt;" class="s8" d="m441.8 52.6q0.2-0.3 0.5-0.4 0.3-0.2 0.7-0.2 0.6 0 0.9 0.2 0.4 0.3 0.6 0.6 0.1-0.2 0.3-0.3 0.2-0.2 0.4-0.3 0.2-0.1 0.4-0.1 0.2-0.1 0.4-0.1 0.5 0 0.9 0.2 0.3 0.2 0.5 0.5 0.3 0.3 0.3 0.7 0.1 0.4 0.1 0.8v2.5q0 0.1 0 0.1-0.1 0.1-0.2 0.1h-0.7q-0.1 0-0.2-0.1-0.1 0-0.1-0.1v-2.5q0-0.6-0.2-0.8-0.2-0.3-0.7-0.3-0.3 0-0.6 0.2-0.3 0.3-0.3 0.9v2.5q0 0.1-0.1 0.1 0 0.1-0.1 0.1h-0.7q-0.1 0-0.2-0.1-0.1 0-0.1-0.1v-2.5q0-0.6-0.2-0.8-0.3-0.3-0.7-0.3-0.4 0-0.6 0.3-0.3 0.2-0.3 0.8v2.5q0 0.1-0.1 0.1 0 0.1-0.1 0.1h-0.7q-0.1 0-0.2-0.1-0.1 0-0.1-0.1v-4.3q0-0.1 0.1-0.2 0.1-0.1 0.2-0.1h0.7q0.1 0 0.1 0.1 0.1 0.1 0.1 0.2z"/>
								<path id="&lt;Compound Path&gt;" fill-rule="evenodd" class="s8" d="m451.6 57q-0.2 0-0.5-0.1-0.2 0-0.4-0.1-0.1-0.1-0.3-0.2-0.1-0.1-0.1-0.2v2q0 0.1-0.1 0.2-0.1 0.1-0.2 0.1h-0.7q-0.1 0-0.2-0.1 0-0.1 0-0.2v-6q0-0.1 0-0.2 0.1-0.1 0.2-0.1h0.7q0.1 0 0.2 0.1 0.1 0.1 0.1 0.2v0.2q0-0.1 0.1-0.2 0.2-0.1 0.3-0.2 0.2-0.1 0.4-0.1 0.3-0.1 0.5-0.1 0.5 0 0.9 0.2 0.3 0.2 0.6 0.5 0.3 0.3 0.4 0.7 0.2 0.4 0.2 0.8 0 0.1 0 0.3 0 0.2 0 0.3 0 0.5-0.2 0.9-0.1 0.3-0.4 0.6-0.3 0.3-0.6 0.5-0.4 0.2-0.9 0.2zm0.9-2.2q0-0.3 0-0.5-0.1-0.6-0.4-0.9-0.3-0.3-0.7-0.3-0.5 0-0.8 0.3-0.3 0.3-0.3 0.8-0.1 0.1-0.1 0.3 0 0.2 0.1 0.4 0 0.4 0.3 0.7 0.3 0.3 0.8 0.3 0.4 0 0.7-0.3 0.3-0.2 0.4-0.8z"/>
								<path id="&lt;Compound Path&gt;" class="s8" d="m455.9 56.7q0 0.1 0 0.1-0.1 0.1-0.2 0.1h-0.7q-0.1 0-0.2-0.1-0.1 0-0.1-0.1v-6.1q0-0.1 0.1-0.2 0.1 0 0.2 0h0.7q0.1 0 0.2 0 0 0.1 0 0.2z"/>
								<path id="&lt;Compound Path&gt;" fill-rule="evenodd" class="s8" d="m459.3 52q0.5 0 0.9 0.2 0.4 0.1 0.7 0.4 0.3 0.3 0.5 0.7 0.2 0.3 0.2 0.8 0 0 0 0.2 0 0.1 0 0.2 0 0.2 0 0.3 0 0.1 0 0.2 0 0.4-0.2 0.8-0.2 0.3-0.5 0.6-0.3 0.3-0.7 0.4-0.4 0.2-0.9 0.2-0.5 0-0.9-0.2-0.4-0.1-0.7-0.4-0.3-0.3-0.5-0.6-0.2-0.4-0.2-0.8 0-0.1 0-0.2 0-0.1 0-0.3 0-0.1 0-0.2 0-0.2 0-0.2 0-0.5 0.2-0.8 0.2-0.4 0.5-0.7 0.3-0.3 0.7-0.4 0.4-0.2 0.9-0.2zm1.1 2.1q0-0.3-0.1-0.5-0.1-0.2-0.3-0.3-0.1-0.1-0.3-0.1-0.2-0.1-0.4-0.1-0.2 0-0.4 0.1-0.1 0-0.3 0.1-0.2 0.1-0.3 0.3-0.1 0.2-0.1 0.5 0 0.1 0 0.2 0 0.1 0 0.2 0 0.1 0 0.3 0 0.1 0 0.1 0 0.3 0.1 0.5 0.1 0.2 0.3 0.3 0.2 0.1 0.3 0.2 0.2 0 0.4 0 0.2 0 0.4 0 0.2-0.1 0.3-0.2 0.2-0.1 0.3-0.3 0.1-0.2 0.1-0.5 0 0 0-0.1 0-0.2 0-0.3 0-0.1 0-0.2 0-0.1 0-0.2z"/>
								<path id="&lt;Compound Path&gt;" class="s8" d="m463.9 56.7l-1.8-4.3q0 0 0 0 0-0.1 0.1-0.2 0-0.1 0.2-0.1h0.6q0.2 0 0.2 0.1 0.1 0.1 0.1 0.1l1.3 2.9 1.2-2.9q0 0 0.1-0.1 0.1-0.1 0.2-0.1h0.7q0.1 0 0.2 0.1 0 0.1 0 0.2 0 0 0 0l-2.6 6q0 0.1-0.1 0.2-0.1 0.1-0.2 0.1h-0.7q-0.1 0-0.1-0.1-0.1-0.1-0.1-0.2 0 0 0-0.1z"/>
								<path id="&lt;Compound Path&gt;" class="s8" d="m469.1 52.6q0.2-0.3 0.5-0.4 0.3-0.2 0.7-0.2 0.6 0 0.9 0.2 0.4 0.3 0.6 0.6 0.1-0.2 0.3-0.3 0.2-0.2 0.4-0.3 0.2-0.1 0.4-0.1 0.2-0.1 0.4-0.1 0.5 0 0.9 0.2 0.3 0.2 0.5 0.5 0.2 0.3 0.3 0.7 0.1 0.4 0.1 0.8v2.5q0 0.1-0.1 0.1 0 0.1-0.1 0.1h-0.7q-0.1 0-0.2-0.1-0.1 0-0.1-0.1v-2.5q0-0.6-0.2-0.8-0.3-0.3-0.7-0.3-0.4 0-0.6 0.2-0.3 0.3-0.3 0.9v2.5q0 0.1-0.1 0.1 0 0.1-0.1 0.1h-0.7q-0.1 0-0.2-0.1-0.1 0-0.1-0.1v-2.5q0-0.6-0.2-0.8-0.3-0.3-0.7-0.3-0.4 0-0.6 0.3-0.3 0.2-0.3 0.8v2.5q0 0.1-0.1 0.1-0.1 0.1-0.2 0.1h-0.7q-0.1 0-0.1-0.1-0.1 0-0.1-0.1v-4.3q0-0.1 0.1-0.2 0-0.1 0.1-0.1h0.7q0.1 0 0.2 0.1 0.1 0.1 0.1 0.2z"/>
								<path id="&lt;Compound Path&gt;" fill-rule="evenodd" class="s8" d="m476.1 54.5q0-0.5 0.2-1 0.1-0.4 0.4-0.7 0.3-0.4 0.7-0.6 0.4-0.2 1-0.2 0.5 0 0.9 0.2 0.4 0.2 0.7 0.5 0.3 0.3 0.5 0.8 0.1 0.4 0.1 0.9v0.4q0 0.1-0.1 0.2 0 0-0.1 0h-3.1q0 0.2 0.1 0.4 0.1 0.2 0.2 0.3 0.2 0.1 0.4 0.1 0.2 0.1 0.4 0.1 0.3 0 0.4-0.1 0.2 0 0.3-0.1 0.1-0.1 0.2-0.1 0.1 0 0.2 0h0.7q0.1 0 0.2 0 0.1 0.1 0.1 0.2 0 0.1-0.2 0.3-0.1 0.2-0.4 0.4-0.2 0.2-0.6 0.4-0.4 0.1-0.9 0.1-0.6 0-1-0.2-0.4-0.2-0.7-0.5-0.3-0.3-0.4-0.8-0.2-0.4-0.2-1zm2.3-1.4q-0.3 0-0.5 0.1-0.2 0.1-0.3 0.2-0.1 0.1-0.2 0.3-0.1 0.1-0.1 0.3h2.1q0-0.2-0.1-0.3 0-0.2-0.2-0.3-0.1-0.1-0.3-0.2-0.1-0.1-0.4-0.1z"/>
								<path id="&lt;Compound Path&gt;" class="s8" d="m486.1 56.7q0 0.1-0.1 0.1 0 0.1-0.1 0.1h-0.7q-0.1 0-0.2-0.1-0.1 0-0.1-0.1v-2.4q0-0.5-0.2-0.9-0.3-0.3-0.8-0.3-0.5 0-0.8 0.3-0.3 0.4-0.3 0.9v2.4q0 0.1-0.1 0.1 0 0.1-0.1 0.1h-0.7q-0.1 0-0.2-0.1-0.1 0-0.1-0.1v-4.3q0-0.1 0.1-0.2 0.1-0.1 0.2-0.1h0.7q0.1 0 0.1 0.1 0.1 0.1 0.1 0.2v0.2q0.3-0.3 0.6-0.4 0.3-0.2 0.7-0.2 0.6 0 1 0.2 0.4 0.2 0.6 0.5 0.2 0.3 0.3 0.7 0.1 0.4 0.1 0.8z"/>
								<path id="&lt;Compound Path&gt;" class="s8" d="m488.9 55.2q0 0.3 0.1 0.4 0.2 0.2 0.6 0.2h0.6q0.1 0 0.1 0.1 0.1 0.1 0.1 0.2v0.6q0 0.1-0.1 0.1 0 0.1-0.1 0.1h-0.7q-0.9 0-1.3-0.4-0.5-0.4-0.5-1.3v-2h-0.6q-0.1 0-0.2 0-0.1-0.1-0.1-0.2v-0.6q0-0.1 0.1-0.2 0.1-0.1 0.2-0.1h0.6v-1.5q0-0.1 0.1-0.2 0 0 0.1 0h0.7q0.1 0 0.2 0 0.1 0.1 0.1 0.2v1.5h1.2q0.1 0 0.2 0.1 0 0.1 0 0.2v0.6q0 0.1 0 0.2-0.1 0-0.2 0h-1.2z"/>
								<path id="&lt;Compound Path&gt;" class="s8" d="m495.7 50.4q0.6 0 1.1 0.1 0.5 0.2 0.8 0.5 0.3 0.2 0.4 0.5 0.2 0.3 0.2 0.6 0 0.1 0 0.1-0.1 0.1-0.2 0.1h-0.7q-0.1 0-0.2 0-0.1-0.1-0.1-0.2-0.2-0.2-0.5-0.4-0.2-0.2-0.8-0.2-0.2 0-0.5 0.1-0.2 0-0.3 0.1-0.2 0.1-0.3 0.3-0.1 0.1-0.1 0.3 0 0.2 0.1 0.3 0.1 0.1 0.3 0.2 0.2 0.1 0.6 0.2 0.3 0.1 0.8 0.2 0.6 0.1 1 0.3 0.4 0.2 0.6 0.4 0.3 0.2 0.4 0.5 0.1 0.3 0.1 0.7 0 0.4-0.2 0.7-0.2 0.4-0.5 0.7-0.3 0.2-0.8 0.4-0.5 0.1-1.1 0.1-0.6 0-1-0.1-0.5-0.1-0.9-0.4-0.3-0.2-0.5-0.5-0.3-0.4-0.3-0.8 0-0.1 0.1-0.2 0 0 0.2 0h0.6q0.2 0 0.2 0 0.1 0.1 0.2 0.2 0 0.1 0.1 0.2 0.1 0.1 0.3 0.2 0.1 0.1 0.4 0.2 0.2 0.1 0.6 0.1 0.2 0 0.5-0.1 0.2 0 0.4-0.1 0.2-0.1 0.3-0.3 0.2-0.1 0.2-0.3 0-0.2-0.2-0.4-0.1-0.1-0.4-0.2-0.2-0.1-0.6-0.1-0.4-0.1-0.9-0.3-0.5-0.1-0.8-0.2-0.3-0.2-0.6-0.4-0.2-0.2-0.3-0.5-0.1-0.3-0.1-0.7 0-0.4 0.2-0.8 0.2-0.3 0.5-0.6 0.3-0.2 0.7-0.4 0.5-0.1 1-0.1z"/>
								<path id="&lt;Compound Path&gt;" fill-rule="evenodd" class="s8" d="m499.1 54.5q0-0.5 0.2-1 0.1-0.4 0.4-0.7 0.3-0.4 0.8-0.6 0.4-0.2 0.9-0.2 0.5 0 0.9 0.2 0.4 0.2 0.7 0.5 0.3 0.3 0.5 0.8 0.1 0.4 0.1 0.9v0.4q0 0.1 0 0.2-0.1 0-0.2 0h-3.1q0 0.2 0.1 0.4 0.1 0.2 0.3 0.3 0.1 0.1 0.3 0.1 0.2 0.1 0.4 0.1 0.3 0 0.5-0.1 0.1 0 0.3-0.1 0.1-0.1 0.1-0.1 0.1 0 0.2 0h0.7q0.1 0 0.2 0 0.1 0.1 0.1 0.2 0 0.1-0.2 0.3-0.1 0.2-0.4 0.4-0.2 0.2-0.6 0.4-0.4 0.1-0.9 0.1-0.5 0-0.9-0.2-0.5-0.2-0.8-0.5-0.3-0.3-0.4-0.8-0.2-0.4-0.2-1zm2.3-1.4q-0.3 0-0.5 0.1-0.2 0.1-0.3 0.2-0.1 0.1-0.2 0.3-0.1 0.1-0.1 0.3h2.1q0-0.2-0.1-0.3 0-0.2-0.1-0.3-0.1-0.1-0.3-0.2-0.2-0.1-0.5-0.1z"/>
								<path id="&lt;Compound Path&gt;" class="s8" d="m506.9 53.2q-0.6 0-0.8 0.3-0.3 0.2-0.3 0.8v2.4q0 0.1 0 0.1-0.1 0.1-0.2 0.1h-0.7q-0.1 0-0.2-0.1-0.1 0-0.1-0.1v-4.3q0-0.1 0.1-0.2 0.1-0.1 0.2-0.1h0.7q0.1 0 0.2 0.1 0 0.1 0 0.2v0.2q0.3-0.2 0.6-0.4 0.2-0.1 0.7-0.1h0.4q0.1 0 0.2 0.1 0 0.1 0 0.2v0.6q0 0.1 0 0.2-0.1 0-0.2 0z"/>
								<path id="&lt;Compound Path&gt;" class="s8" d="m510.1 56.8q-0.1 0-0.1-0.1l-1.9-4.3q0 0 0 0 0-0.1 0.1-0.2 0-0.1 0.1-0.1h0.7q0.2 0 0.2 0.1 0.1 0.1 0.1 0.1l1.3 2.9 1.2-2.9q0 0 0.1-0.1 0-0.1 0.2-0.1h0.7q0.1 0 0.2 0.1 0 0.1 0 0.2 0 0 0 0l-1.8 4.3q-0.1 0.1-0.1 0.1-0.1 0.1-0.2 0.1h-0.6q-0.2 0-0.2-0.1z"/>
								<path id="&lt;Compound Path&gt;" class="s8" d="m514.9 50.4q0.1 0 0.2 0 0 0.1 0 0.2v0.7q0 0.1 0 0.2-0.1 0.1-0.2 0.1h-0.8q-0.1 0-0.2-0.1 0-0.1 0-0.2v-0.7q0-0.1 0-0.2 0.1 0 0.2 0zm0.2 6.3q0 0.1-0.1 0.1 0 0.1-0.1 0.1h-0.7q-0.1 0-0.2-0.1-0.1 0-0.1-0.1v-4.3q0-0.1 0.1-0.2 0.1-0.1 0.2-0.1h0.7q0.1 0 0.1 0.1 0.1 0.1 0.1 0.2z"/>
								<path id="&lt;Compound Path&gt;" class="s8" d="m517.3 54.2q0 0.1 0 0.3 0 0.2 0 0.3 0.1 0.3 0.2 0.5 0.1 0.2 0.2 0.4 0.2 0.1 0.3 0.1 0.2 0.1 0.4 0.1 0.3 0 0.4 0 0.2-0.1 0.3-0.1 0.1-0.1 0.2-0.2 0-0.1 0.1-0.2 0.1-0.1 0.1-0.2 0.1 0 0.2 0h0.7q0.1 0 0.2 0 0.1 0.1 0.1 0.2 0 0.2-0.2 0.5-0.1 0.2-0.4 0.5-0.2 0.3-0.7 0.4-0.4 0.2-1 0.2-0.5 0-0.9-0.2-0.4-0.1-0.7-0.4-0.3-0.3-0.5-0.7-0.1-0.4-0.2-0.8 0-0.2 0-0.4 0-0.2 0-0.4 0.1-0.4 0.2-0.8 0.2-0.3 0.5-0.6 0.3-0.3 0.7-0.5 0.4-0.2 0.9-0.2 0.6 0 1 0.2 0.5 0.2 0.7 0.4 0.3 0.3 0.4 0.6 0.2 0.2 0.2 0.4 0 0.1-0.1 0.2-0.1 0.1-0.2 0.1h-0.7q-0.1 0-0.2-0.1 0-0.1-0.1-0.2-0.1-0.1-0.1-0.2-0.1-0.1-0.2-0.1-0.1-0.1-0.3-0.1-0.1-0.1-0.4-0.1-0.2 0-0.4 0.1-0.1 0.1-0.3 0.2-0.1 0.1-0.2 0.3-0.1 0.2-0.2 0.5z"/>
								<path id="&lt;Compound Path&gt;" fill-rule="evenodd" class="s8" d="m521.4 54.5q0-0.5 0.2-1 0.1-0.4 0.4-0.7 0.3-0.4 0.7-0.6 0.5-0.2 1-0.2 0.5 0 0.9 0.2 0.4 0.2 0.7 0.5 0.3 0.3 0.5 0.8 0.1 0.4 0.1 0.9v0.4q0 0.1 0 0.2-0.1 0-0.2 0h-3.1q0 0.2 0.1 0.4 0.1 0.2 0.2 0.3 0.2 0.1 0.4 0.1 0.2 0.1 0.4 0.1 0.3 0 0.5-0.1 0.1 0 0.3-0.1 0.1-0.1 0.1-0.1 0.1 0 0.2 0h0.7q0.1 0 0.2 0 0.1 0.1 0.1 0.2 0 0.1-0.2 0.3-0.1 0.2-0.4 0.4-0.2 0.2-0.6 0.4-0.4 0.1-0.9 0.1-0.5 0-1-0.2-0.4-0.2-0.7-0.5-0.3-0.3-0.4-0.8-0.2-0.4-0.2-1zm2.3-1.4q-0.3 0-0.5 0.1-0.2 0.1-0.3 0.2-0.1 0.1-0.2 0.3-0.1 0.1-0.1 0.3h2.1q0-0.2-0.1-0.3 0-0.2-0.1-0.3-0.1-0.1-0.3-0.2-0.2-0.1-0.5-0.1z"/>
							</g>
						</g>
						<g id="&lt;Group&gt;">
							<path id="&lt;Path&gt;" class="s12" d="m393.7 159.4l-53-0.3 0.3-67 53.1 0.3z"/>
							<path id="&lt;Path&gt;" class="s13" d="m339.2 99.8l-2-2.4 9.9-8.3 2 2.4z"/>
							<path id="&lt;Path&gt;" class="s13" d="m385.4 91.7l1.9-2.4 10.1 8.1-1.9 2.4z"/>
							<path id="&lt;Path&gt;" class="s13" d="m337.4 153.9l1.9-2.4 10.1 8.1-1.9 2.3z"/>
							<path id="&lt;Path&gt;" class="s13" d="m386.9 161.7l-1.9-2.4 10.4-7.8 1.8 2.5z"/>
						</g>
						<g id="&lt;Group&gt;">
							<path id="&lt;Path&gt;" class="s14" d="m692.9 40.4h-1.1v-39.7h1.1z"/>
							<g id="&lt;Group&gt;">
								<path id="&lt;Path&gt;" class="s15" d="m716.9 73.8c0 1.2-10.8 2.1-24 2.1-13.3 0-24-0.9-24-2.1 0-1.2 10.7-3.2 24-3.2 13.2 0 24 2 24 3.2z"/>
								<path id="&lt;Path&gt;" class="s16" d="m699.7 72.4c0 3.8-3 6.8-6.8 6.8-3.8 0-6.8-3-6.8-6.8 0-3.8 3-6.9 6.8-6.9 3.8 0 6.8 3.1 6.8 6.9z"/>
								<path id="&lt;Path&gt;" class="s17" d="m668.9 73.7c0 0 3.7-16.2 9.5-21.2 8.7-7.4 8.2-15.4 14.4-15 5.1 0.3 5.9 9.2 13.8 15.1 6.3 4.7 10.3 21.1 10.3 21.1-1.8-3.2-47.1-3.4-48 0z"/>
								<path id="&lt;Path&gt;" class="s8" d="m670.4 68.4c-1 3.1-1.5 5.3-1.5 5.3 0.9-3.4 46.2-3.2 48 0 0 0-0.6-2.2-1.6-5.3-7.3-2.1-37.9-2.3-44.9 0z"/>
								<path id="&lt;Path&gt;" class="s15" d="m693.1 37.8h-1.5c-0.9 0-1.5-0.6-1.5-1.5v-1.3c0-0.9 0.6-1.5 1.5-1.5h1.5c0.8 0 1.5 0.6 1.5 1.5v1.3c0 0.9-0.7 1.5-1.5 1.5z"/>
								<path id="&lt;Path&gt;" class="s8" d="m695.1 38.1h-5.6c-0.1 0-0.2-0.1-0.2-0.3v-0.5c0-0.1 0.1-0.2 0.2-0.2h5.6c0.2 0 0.3 0.1 0.3 0.2v0.5c0 0.2-0.1 0.3-0.3 0.3z"/>
							</g>
						</g>
						<g id="&lt;Group&gt;">
							<path id="&lt;Path&gt;" class="s18" d="m465.3 245.8l-15.5 14.8h64.5l27.3-23.4-35.5-2.4z"/>
							<g id="&lt;Group&gt;">
								<path id="&lt;Path&gt;" class="s19" d="m452 214.9l34.7-16.5v37.6l-34.7 22.6z"/>
								<path id="&lt;Path&gt;" class="s20" d="m486.7 198.4l36.8 5v37.6l-36.8-5z"/>
								<path id="&lt;Path&gt;" class="s21" d="m482.6 219l10.2 7-4 7.8-13-3.9z"/>
								<path id="&lt;Path&gt;" class="s15" d="m461.8 220.3l10.3 7-4.1 7.9-12.9-3.9z"/>
								<path id="&lt;Path&gt;" class="s15" d="m502.2 201.2h14.6l-2 20.5-13-3.9z"/>
								<path id="&lt;Path&gt;" class="s21" d="m488.5 211.9l19.4 1.6-8.9 6.2-12.9-3.9z"/>
								<path id="&lt;Path&gt;" class="s19" d="m499.6 214.9l23.9-11.5v37.6l-23.9 17.6z"/>
								<path id="&lt;Compound Path&gt;" fill-rule="evenodd" class="s22" d="m499.6 214.9v43.7h-47.6v-43.7zm-15.4 11.5c0-1.7-1.4-3.1-3.1-3.1h-13.5c-1.7 0-3.1 1.4-3.1 3.1 0 1.7 1.4 3 3.1 3h13.5c1.7 0 3.1-1.3 3.1-3z"/>
								<path id="&lt;Path&gt;" class="s23" d="m480.9 232.5h-13.1v-0.2h13.1z"/>
								<path id="&lt;Path&gt;" class="s23" d="m480.9 234.3h-13.1v-0.3h13.1z"/>
								<path id="&lt;Path&gt;" class="s23" d="m480.9 236h-13.1v-0.3h13.1z"/>
								<g id="&lt;Group&gt;">
									<path id="&lt;Path&gt;" class="s19" d="m494.6 206.7l25.5-25.8 1.1 7.1-25.5 26.2z"/>
									<path id="&lt;Compound Path&gt;" class="s24" d="m444.3 214.3l1.1 7.5 50.3-7.6-1.1-7.5z"/>
									<path id="&lt;Path&gt;" class="s25" d="m494.6 206.7l25.5-25.8-43.1 7.7-32.7 25.7z"/>
								</g>
								<path id="&lt;Path&gt;" class="s26" d="m506.3 211.7v-14.2l17.2-9.5v15.4z"/>
								<path id="&lt;Path&gt;" class="s27" d="m452.2 220.5l47.4 5.9 23.9-23v-15.4l-17.2 9.5-0.1 5.9-10.5 10.8z"/>
							</g>
						</g>
					</g>
					<g id="&lt;Group&gt;">
						<g id="&lt;Group&gt;">
							<path id="&lt;Path&gt;" class="s28" d="m718.3 260.1c0 11.6-38.6 21-86.3 21-47.7 0-86.3-9.4-86.3-21 0-11.6 38.6-21 86.3-21 47.7 0 86.3 9.4 86.3 21z"/>
							<g id="&lt;Group&gt;">
								<path id="&lt;Path&gt;" class="s8" d="m604.9 136l13.3 23.5c0 0-8 11.6-10.5 10.1-4.2-2.5-10.6-18.1-12.1-26.2-1.5-8.1 6.2-7.1 9.3-7.4z"/>
								<path id="&lt;Path&gt;" class="s27" d="m599.1 141.2c-0.5-2.5-0.1-4.2 0.8-5.2-2.7 0.5-5.1 2.1-4.2 6.9 1.5 8.1 7.6 23.8 11.8 26.3 0.2-0.6 2.1-3.3 3.1-4.5 0-0.4-10-15.4-11.5-23.5z"/>
								<path id="&lt;Path&gt;" class="s29" d="m638.2 255.4c0 0 1.1 1.5 2.9 1.5 2.1 0 2.8-1.5 2.8-1.5v-82.9h-5.7z"/>
								<g id="&lt;Group&gt;">
									<path id="&lt;Path&gt;" class="s30" d="m596.1 212.4l-2.5 4.2-30.5 1.2v-19.5h4.9v13.8z"/>
									<path id="&lt;Path&gt;" class="s30" d="m591 249.5h5.7v-45.7h-5.7z"/>
									<path id="&lt;Path&gt;" class="s31" d="m596.7 246l18.6 5.7v5.2h-2.5l-0.7-3.7-15.4-3.7z"/>
									<path id="&lt;Path&gt;" class="s31" d="m591 246l-18.5 5.7v5.2h2.5l0.7-3.7 15.3-3.7z"/>
									<path id="&lt;Path&gt;" class="s30" d="m610.6 257.8c0 2 1.5 3.6 3.3 3.6 1.9 0 3.4-1.6 3.4-3.6 0-2.1-1.5-3.7-3.4-3.7-1.8 0-3.3 1.6-3.3 3.7z"/>
									<path id="&lt;Path&gt;" class="s30" d="m569.9 258.4c0 2 1.5 3.7 3.4 3.7 1.9 0 3.4-1.7 3.4-3.7 0-2.1-1.5-3.7-3.4-3.7-1.9 0-3.4 1.6-3.4 3.7z"/>
									<path id="&lt;Path&gt;" class="s31" d="m595.8 248.7l-0.9 14.9h-2.2l-0.8-14.9z"/>
									<path id="&lt;Path&gt;" class="s30" d="m590.2 265.7c0 2.1 1.6 3.7 3.4 3.7 1.9 0 3.4-1.6 3.4-3.7 0-2-1.5-3.6-3.4-3.6-1.8 0-3.4 1.6-3.4 3.6z"/>
									<path id="&lt;Path&gt;" class="s32" d="m620.8 213.4h-49.5v-6.4l49.5 0.1z"/>
									<path id="&lt;Path&gt;" class="s15" d="m620.8 207.1l-3.7-6.6h-43.2l-2.6 6.5z"/>
									<path id="&lt;Path&gt;" class="s32" d="m571.6 200.5h-8.5l-1.9-54.8h6.4z"/>
									<path id="&lt;Path&gt;" class="s15" d="m567.6 145.7l2.9-2.1 3 53-1.9 3.9z"/>
									<path id="&lt;Path&gt;" class="s33" d="m570.5 143.6h-5.7l-3.6 2.1h6.4z"/>
								</g>
								<path id="&lt;Path&gt;" class="s34" d="m611.1 241.6c0 0-4.3 9.9-3.2 11.4 1.1 1.5 24.4 8.8 24.9 7 1.5-5.9-1.8-4.9-7.7-9-1.7-1.2-3.1-3.9-5.1-4.7-1.2-0.4-0.2-2.6-1.4-3-3.4-1-7.5-1.7-7.5-1.7z"/>
								<path id="&lt;Path&gt;" class="s35" d="m643.7 192.5c0.8 2.4-15.4 64.1-15.4 64.1l-20.5-7.1 13.7-48.5z"/>
								<path id="&lt;Path&gt;" class="s27" d="m623.9 202.8l19.5-7.4c0.3-1.6 0.4-2.6 0.3-2.8l-22.2 8.4-13.7 48.5 2.6 0.9z"/>
								<path id="&lt;Path&gt;" class="s34" d="m637.9 250.3c0 0-2.2 11.5-0.7 12.8 1.5 1.3 27.8 3.5 27.9 1.4 0.1-6.5-3.1-4.7-10.3-7.6-2.1-0.8-4.1-3.3-6.4-3.7-1.5-0.2-0.9-2.7-2.2-2.8-3.9-0.3-8.3-0.1-8.3-0.1z"/>
								<path id="&lt;Path&gt;" class="s31" d="m604.7 185.3c0 0 42.3 1.1 43.8 3.7 1.5 2.6-9.3 17.5-16.7 17.5-7.4 0-53.8 0.6-54.4-5.4-0.7-8.2 27.3-15.8 27.3-15.8z"/>
								<path id="&lt;Path&gt;" class="s31" d="m648.5 189c1.6 1.9 6.5 65.7 6.5 65.7l-21.7 1.5-1.9-50.7z"/>
								<path id="&lt;Path&gt;" class="s27" d="m636.8 253.1l-1.8-49.7c-8.4 0-53.5 0.6-54-5.3-0.1-1.2 0.3-2.3 1.1-3.3-2.9 2-4.9 4.2-4.7 6.4 0.6 5.9 45.7 5.4 54 5.4l1.9 49.7 21.7-1.5c0 0-0.1-1.1-0.2-2.9z"/>
								<path id="&lt;Path&gt;" class="s29" d="m681.4 255.4c0 0 1.1 1.5 2.9 1.5 2.1 0 2.8-1.5 2.8-1.5v-82.9h-5.7z"/>
								<path id="&lt;Path&gt;" class="s36" d="m592.3 128l5.9-7.3 7.4 4 1.4 8.2z"/>
								<path id="&lt;Path&gt;" class="s21" d="m591.2 128.8c-3 3.9-8.4 4.7-16.8 31.1-5.7 17.8 2.3 41.6 2.3 41.6l36.5-15.9-6.4-18.6-1-31.6c0 0-9.8-4.9-14.6-6.6z"/>
								<path id="&lt;Path&gt;" class="s29" d="m592.9 126l13 6.9 0.9 5.7-17.7-9.4z"/>
								<g id="&lt;Group&gt;">
									<path id="&lt;Path&gt;" class="s37" d="m616.9 120.7c0 0 0.8 5.3 1.1 6.3 0.2 1.1-4.1 0.9-4.1 0.9 0 0-2.1 1.8-4.2 5.5-1.1 2-9.6-4.6-10.4-7.4-1.3-4.9-1-6.1-2-7.7-0.9-1.6-5.8-11.4 4.2-15.6 10-4.1 16.5 0.6 17.8 5.7 0.9 4 1.3 6 0.1 8.1-1.2 2.2-2.5 4.2-2.5 4.2z"/>
									<path id="&lt;Path&gt;" class="s38" d="m598 123c2.4-2.7 10.3-15 15.1-10.9 3.4 3 7.4 4.8 8.1 2.7 3.3-9.9-11.9-23.6-23.3-13.5-6 5.3-8.9 18 0.1 21.7z"/>
									<path id="&lt;Path&gt;" class="s37" d="m603.4 117c0 0-2-3.1-3.2-3-1 0.2-2.8 2.7-2.5 4.7 0.3 2 0.9 3.4 1.6 3.5 0.8 0.2 4.1-5.2 4.1-5.2z"/>
									<path id="&lt;Path&gt;" class="s38" d="m598.4 122.3q0-0.1 0.1-0.2l4.6-6.1 1.1-0.9c0 0-3.6 5.6-3.8 7.6-0.2 1.6 1.2 3.3 2.5 4.7 1.3 1.4 4.6 4.2 6.5 4.1 1.8-0.2 2.5-1.4 2.5-1.4 0 0-2.2 4.5-3 5.5-0.7 1-2.4 0-3.5-1.1-1.1-1-7.6-7-7.4-11.5-0.1-0.3 0.4-0.7 0.4-0.7z"/>
								</g>
								<path id="&lt;Path&gt;" class="s27" d="m591.3 141.5c0 0-15.5 21.8-5.5 43.9 2.7 6.1 10 7.8 10 7.8l13.1-5.7-12.2-17.5-3.7-30.6z"/>
								<path id="&lt;Path&gt;" class="s8" d="m601.2 139.9c6 5.9-0.3 30.7-0.3 30.7 0 0-5.5 12.6-7.7 10.7-7.9-6.9-4.8-21.2-4.8-29.4-0.1-6.4 5.1-19.4 12.8-12z"/>
								<g id="&lt;Group&gt;">
									<path id="&lt;Path&gt;" class="s29" d="m692.9 269.2c0 0 1.1 1.7 3 1.7 2.2 0 3-1.7 3-1.7v-94h-6z"/>
									<path id="&lt;Path&gt;" class="s29" d="m627.5 269.2c0 0 1.1 1.7 3 1.7 2.2 0 3-1.7 3-1.7v-94h-6z"/>
									<g id="&lt;Group&gt;">
										<path id="&lt;Path&gt;" class="s26" d="m617.4 187.3h94.2v-8.1h-94.2z"/>
										<path id="&lt;Path&gt;" class="s29" d="m711.6 179.2l-14.2-8.7h-73l-7 8.7z"/>
									</g>
								</g>
								<path id="&lt;Path&gt;" class="s39" d="m671.2 175.2l5.5-25.3-1.1-0.3-5.5 24.4-23.3-0.1v1.3z"/>
								<path id="&lt;Path&gt;" class="s40" d="m675.6 149.6l-4.9-1.6-5.3 21.7 4.7 4.3z"/>
								<path id="&lt;Path&gt;" class="s41" d="m665.4 169.7h-16.8l-1.8 4.2 23.3 0.1z"/>
								<path id="&lt;Path&gt;" class="s42" d="m674.7 150.5l-4.8 21.8-3.8-3.1 4.7-19.9z"/>
								<path id="&lt;Path&gt;" class="s27" d="m638.2 175.2h17.8l1-4.8-15.2-1.9z"/>
								<path id="&lt;Path&gt;" class="s37" d="m641.7 167.2c3.6-0.5 8.3-1.6 9.3-1.2 2.3 0.4 6.4 3.3 7.4 4.5 0.4 0.5-1.7 1.4-3.4 1.6-2.2 0.3-5.7-1.1-6.4-2-3.6 1.6-9.4-0.9-9.4-0.9z"/>
								<path id="&lt;Path&gt;" class="s36" d="m644.5 167.2c1.2 0 2.1 3.3 4.1 2.9 2.1-0.4 5.8 0.6 5.8 1.2 0 0.6-3.6 0.2-6.3 0.6-2.7 0.5-6.4-1.4-6.4-1.4 0 0-2.5-3.2 2.8-3.3z"/>
								<path id="&lt;Path&gt;" class="s29" d="m643.5 165.9h2.5l-4 9.1-2.7-0.8z"/>
								<path id="&lt;Path&gt;" class="s8" d="m618.2 159.5l26.9 5.5-5.5 10.4c0 0-21.9-1.6-31-6.5-2.7-1.5 9.6-9.4 9.6-9.4z"/>
								<path id="&lt;Path&gt;" class="s27" d="m610.6 164.7c-0.4 0.4-2.3 2.8-3.1 4.5 8.4 5.9 32.1 6.2 32.1 6.2l3.1-5.8c-4.9-0.4-14.1-6.4-32.1-4.9z"/>
								<path id="&lt;Path&gt;" class="s37" d="m626.9 172l10.1 1.4c0.8 0.3 4.9 1.9 4.9 1.9 0.8 0.5 3.4 2.7 2.4 2.6l-17.2 0.1c-0.5 0-0.8-0.4-0.8-0.8l-0.5-4.2c-0.1-0.6 0.5-1.2 1.1-1z"/>
								<path id="&lt;Path&gt;" class="s8" d="m601.4 168.6l30.1-0.9-4.6 11.5c0 0-29.3 7.1-33.9 1.9-4.5-5.1 8.4-12.5 8.4-12.5z"/>
							</g>
						</g>
						<g id="&lt;Group&gt;">
							<path id="&lt;Path&gt;" class="s28" d="m835.9 261.1c0 8.3-20.9 15.1-46.6 15.1-25.8 0-46.7-6.8-46.7-15.1 0-8.3 20.9-15.1 46.7-15.1 25.7 0 46.6 6.8 46.6 15.1z"/>
							<g id="&lt;Group&gt;">
								<path id="&lt;Path&gt;" class="s35" d="m789.9 250c0 0 1.7 8.6 0.5 9.6-1.3 1-22.4 2.7-22.4 1.1-0.1-4.9 2.5-3.6 8.3-5.8 1.6-0.6 3.3-2.5 5.1-2.8 1.2-0.1 0.7-2 1.8-2.1 3.1-0.3 6.7 0 6.7 0z"/>
								<path id="&lt;Path&gt;" class="s26" d="m802.2 73h-2.1l0.4 1.2z"/>
								<path id="&lt;Path&gt;" class="s31" d="m801.6 250.6c0 0 2 10.3 0.6 11.4-1.5 1.2-26.3 3.1-26.4 1.3-0.1-5.8 2.9-4.3 9.8-6.8 1.9-0.7 3.8-3 6-3.3 1.4-0.2 0.8-2.4 2.1-2.5 3.7-0.3 7.9-0.1 7.9-0.1z"/>
								<path id="&lt;Path&gt;" class="s32" d="m806.9 145l-5.9 55.8-0.4 51.4h-21.2l2.7-51.9 0.8-55.3z"/>
								<path id="&lt;Path&gt;" class="s37" d="m793.1 157.6c0 0-2.4 0-4.7 4-0.2 3.7 3.1 5.7 3.1 5.7l3.2-8.7z"/>
								<path id="&lt;Path&gt;" class="s15" d="m810.8 147.6l-5.9 55.8-0.4 51.5h-18.3l-0.2-51.9-1.9-55.4z"/>
								<path id="&lt;Path&gt;" class="s27" d="m801.5 202.4l5.5-54.8h3.8l-5.9 55.8-0.4 51.5h-3.4z"/>
								<path id="&lt;Path&gt;" class="s36" d="m801.5 76.9l-2.4-9.1-10 5.2v6.2z"/>
								<path id="&lt;Path&gt;" class="s21" d="m803.4 77.4c13.9 7.2 7.4 78.8 7.4 78.8l-31.4 3.6 3.3-57.4 5-18.9c0 0 11.5-4.2 15.7-6.1z"/>
								<path id="&lt;Path&gt;" class="s8" d="m790.4 81.1l0.5 4.2-3.6 2.5v7.6l-5.6 23.5 1-16.5 5-18.9z"/>
								<g id="&lt;Group&gt;">
									<path id="&lt;Path&gt;" class="s43" d="m766.3 203.3l54.1 1.4c1.2 0 2.3-0.9 2.3-1.9l1.1-26.1c0-1.1-0.7-4.7-4.4-4.7-12.7 0-35.4-1.1-48.8-1.1-5.5 0-5.4 4.2-5.5 5.3l-1 25.1c0 1.1 1 2 2.2 2z"/>
									<path id="&lt;Path&gt;" class="s44" d="m766.3 207.7l54.1 1.3c1.2 0.1 2.3-0.8 2.3-1.9l1.1-30.4c0-1.1-1-2-2.3-2.1l-54-1.3c-1.3-0.1-2.3 0.8-2.4 1.9l-1 30.4c0 1.1 1 2 2.2 2.1z"/>
									<path id="&lt;Path&gt;" class="s27" d="m814.7 202.6c4.6-5.5 4.9-28.1 4.9-28.1h1.9c1.3 0.1 2.3 1 2.3 2l-1.1 30.5c0 1.1-1.1 2-2.3 1.9l-54.1-1.3c-1.2-0.1-2.2-1-2.2-2.1l0.1-1.8c0 0 47 3.2 50.5-1.1z"/>
									<path id="&lt;Path&gt;" class="s44" d="m794.8 165.3c-4.3-0.1-9.1 3.8-9.2 7.5l-2.8-0.1c0.1-5.6 5.5-10.1 12-9.9 6.5 0.1 11.7 4.8 11.6 10.5l-2.8-0.1c0.1-3.7-4.5-7.8-8.8-7.9z"/>
								</g>
								<path id="&lt;Path&gt;" class="s37" d="m801 161c0 0 0.9 2.5 0.7 7-0.1 1.7-2.7 3.3-8 2.8-5.3-0.5-5.3-2.3-5.3-2.3l2.5-8.7z"/>
								<path id="&lt;Path&gt;" class="s29" d="m804.9 158.1l-0.5 3.2-16.2-1.8 0.5-3.3z"/>
								<path id="&lt;Path&gt;" class="s27" d="m794.7 98.4c0 0-1.2 20.1-2.5 25.3-1.2 5.2-5.7 33.3-5.7 33.3l13.6-27.1z"/>
								<path id="&lt;Path&gt;" class="s8" d="m803.4 81.1c0 0 10.8 0.2 7.3 39.5-0.9 9.8-4.4 38.6-4.4 38.6l-19.8-2.2c0 0 8.6-33.5 8.2-38.7-1-13.9 0.3-27.1 1.8-31.1 2.2-5.6 6.9-6.1 6.9-6.1z"/>
								<path id="&lt;Path&gt;" class="s27" d="m807.6 120.6c2.6-30.3-3.1-37.3-5.9-38.9 1-0.5 1.7-0.6 1.7-0.6 0 0 10.8 0.2 7.3 39.5-0.9 9.8-4.4 38.6-4.4 38.6l-3.1-0.3c0.4-3.3 3.5-29.1 4.4-38.3z"/>
								<path id="&lt;Path&gt;" class="s27" d="m799.1 67.8c0 0 1 6.9-10 8.7 0-2.3 0-2.3 0-2.3z"/>
								<g id="&lt;Group&gt;">
									<path id="&lt;Path&gt;" class="s37" d="m783.7 61.3c0 0-2.7 4-3.4 4.8-0.6 0.7 3.2 2.1 3.2 2.1 0 0 1.2 2.3 1.6 6 0.2 2.1 10-0.2 11.8-2.2 3-3.5 3.2-4.6 4.7-5.6 1.4-0.9 9.4-7.1 2.3-14.1-7-7-14.4-5.6-17.5-1.9-2.4 2.9-3.5 4.4-3.2 6.6 0.2 2.1 0.5 4.3 0.5 4.3z"/>
									<path id="&lt;Path&gt;" class="s38" d="m799.6 69.8c-1-3.1-3.1-8-2.2-10.7 1.1-2.9-2.9-4.6-7.1-3.4-4.1 1.2-8.2-0.1-8.1-2 0.9-9.3 18.1-13.8 24.1-1.5 3.1 6.5 1.8 15.1-6.7 17.6z"/>
									<path id="&lt;Path&gt;" class="s37" d="m797.6 63.3c0 0 2.2-1.9 3.2-1.3 0.8 0.4 1.3 3.1 0.3 4.6-1.1 1.6-2.1 2.5-2.8 2.3-0.7-0.2-0.7-5.6-0.7-5.6z"/>
								</g>
								<path id="&lt;Path&gt;" class="s29" d="m802.2 73l-14.5 5.9-0.1 5 15.8-6.5z"/>
							</g>
						</g>
					</g>
				</g>
				<g id="&lt;Group&gt;">
					<g id="&lt;Group&gt;">
						<path id="&lt;Compound Path&gt;" class="s16" d="m70.3 75.9q0 2.4-0.9 4.2-0.9 1.8-2.3 3-1.5 1.2-3.5 1.8-1.9 0.6-4.1 0.6-2.3 0-4.2-0.6-2-0.6-3.4-1.7-1.4-1.1-2.2-2.7-0.8-1.6-0.9-3.5 0-0.3 0.2-0.6 0.3-0.2 0.6-0.2h4.6q0.7 0 0.9 0.2 0.2 0.2 0.4 0.8 0.5 1.3 1.4 1.9 0.9 0.6 2.6 0.6 2.1 0 3.1-1 1-1 1-3v-10h-12.3q-0.4 0-0.6-0.3-0.3-0.3-0.3-0.7v-3.8q0-0.4 0.3-0.7 0.2-0.3 0.6-0.3h18q0.4 0 0.7 0.3 0.3 0.3 0.3 0.7z"/>
						<path id="&lt;Compound Path&gt;" fill-rule="evenodd" class="s16" d="m75.2 69.3q0.1-2 0.8-3.8 0.8-1.8 2.2-3.1 1.5-1.3 3.5-2.1 2-0.7 4.7-0.7 2.6 0 4.7 0.7 2 0.8 3.5 2.1 1.4 1.3 2.1 3.1 0.8 1.8 0.9 3.8 0.1 1.6 0.1 3.3 0 1.7-0.1 3.1-0.1 2-0.9 3.8-0.7 1.8-2.1 3.1-1.5 1.4-3.5 2.1-2.1 0.8-4.7 0.8-2.7 0-4.7-0.8-2-0.7-3.5-2.1-1.4-1.3-2.2-3.1-0.7-1.8-0.8-3.8-0.1-1.4-0.1-3.1 0-1.7 0.1-3.3zm15.8 6.3q0-0.7 0-1.5 0.1-0.8 0.1-1.6 0-0.8-0.1-1.6 0-0.8 0-1.4-0.1-0.9-0.4-1.7-0.3-0.7-0.9-1.3-0.5-0.5-1.4-0.8-0.8-0.4-1.9-0.4-1.1 0-1.9 0.4-0.9 0.3-1.4 0.8-0.6 0.6-0.9 1.3-0.3 0.8-0.4 1.7 0 0.6-0.1 1.4 0 0.8 0 1.6 0 0.8 0 1.6 0.1 0.8 0.1 1.5 0.2 1.8 1.3 2.9 1.1 1.2 3.3 1.2 2.2 0 3.3-1.2 1.1-1.1 1.3-2.9z"/>
						<path id="&lt;Compound Path&gt;" fill-rule="evenodd" class="s16" d="m103.7 85.1q-0.4 0-0.7-0.3-0.3-0.2-0.3-0.6v-23.3q0-0.4 0.3-0.7 0.3-0.3 0.7-0.3h11.6q2.4 0 4.1 0.7 1.6 0.7 2.6 1.7 1 1.1 1.4 2.4 0.5 1.4 0.5 2.7 0 1.1-0.3 1.8-0.2 0.8-0.5 1.4-0.3 0.5-0.7 0.9-0.3 0.3-0.5 0.5 1.4 1 1.9 2.2 0.6 1.3 0.6 3.1 0 1.5-0.5 2.9-0.4 1.4-1.4 2.5-1 1.1-2.5 1.8-1.6 0.6-3.9 0.6zm13.4-17.5q0-1-0.5-1.5-0.6-0.6-1.7-0.6h-5.5v4.1h5.5q1.1 0 1.7-0.5 0.5-0.6 0.5-1.5zm-7.7 11.9h5.9q1.1 0 1.7-0.6 0.7-0.6 0.7-1.5 0-1-0.7-1.6-0.6-0.6-1.7-0.6h-5.9z"/>
						<path id="&lt;Compound Path&gt;" class="s16" d="m147.2 59.6q2.3 0 4.2 0.6 1.9 0.7 3.3 1.7 1.4 1.1 2.2 2.3 0.8 1.3 0.9 2.5-0.1 0.3-0.3 0.5-0.2 0.3-0.5 0.3h-4.7q-0.5 0-0.8-0.2-0.3-0.1-0.7-0.4-0.1-0.1-0.3-0.4-0.2-0.2-0.7-0.5-0.4-0.3-1-0.5-0.7-0.2-1.6-0.2-0.7 0-1.3 0.1-0.7 0.1-1.2 0.3-0.5 0.2-0.8 0.6-0.3 0.3-0.3 0.9 0 0.5 0.4 0.9 0.3 0.3 1.1 0.6 0.8 0.3 2.2 0.6 1.3 0.3 3.3 0.7 2 0.4 3.4 1 1.5 0.6 2.5 1.5 1 1 1.5 2.2 0.5 1.2 0.5 2.9 0 1.9-0.9 3.3-0.8 1.5-2.3 2.5-1.5 1-3.5 1.5-2 0.6-4.5 0.6-2.4 0-4.4-0.7-2-0.6-3.5-1.7-1.4-1-2.3-2.4-0.8-1.3-0.8-2.7 0-0.3 0.2-0.5 0.2-0.3 0.5-0.3h4.7q0.5 0 0.8 0.2 0.3 0.1 0.6 0.3 0.1 0.2 0.4 0.5 0.3 0.3 0.8 0.7 0.5 0.3 1.2 0.6 0.8 0.2 1.8 0.2 2 0 3.2-0.4 1.3-0.4 1.3-1.5 0-0.5-0.5-0.9-0.4-0.3-1.4-0.6-0.9-0.4-2.4-0.6-1.4-0.3-3.4-0.8-3.7-0.8-5.4-2.6-1.7-1.9-1.7-5 0-1.5 0.7-2.9 0.7-1.4 2-2.5 1.3-1.1 3.2-1.7 1.9-0.6 4.3-0.6z"/>
						<path id="&lt;Compound Path&gt;" class="s16" d="m181 79.4q0.4 0 0.7 0.3 0.3 0.2 0.3 0.6v3.9q0 0.4-0.3 0.6-0.3 0.3-0.7 0.3h-17.1q-0.4 0-0.6-0.3-0.3-0.2-0.3-0.6v-23.3q0-0.4 0.3-0.7 0.2-0.3 0.6-0.3h16.8q0.4 0 0.7 0.3 0.3 0.3 0.3 0.7v3.8q0 0.4-0.3 0.7-0.3 0.3-0.7 0.3h-11.1v3.9h10.3q0.4 0 0.7 0.3 0.3 0.3 0.3 0.6v3.9q0 0.4-0.3 0.6-0.3 0.3-0.7 0.3h-10.3v4.1z"/>
						<path id="&lt;Compound Path&gt;" fill-rule="evenodd" class="s16" d="m200.3 59.9q0.8 0 1.1 0.4 0.4 0.4 0.6 0.8l7.8 22.7q0.1 0.4 0.1 0.5 0 0.4-0.2 0.6-0.2 0.2-0.5 0.2h-4.6q-0.7 0-1-0.3-0.3-0.3-0.4-0.6l-1-3h-9.6l-1 3q0 0.3-0.4 0.6-0.3 0.3-1 0.3h-4.5q-0.3 0-0.6-0.2-0.2-0.2-0.2-0.6 0-0.1 0.1-0.5l7.9-22.7q0.1-0.4 0.5-0.8 0.4-0.4 1.1-0.4zm-5.8 15.8h5.8l-2.9-8.7z"/>
						<path id="&lt;Compound Path&gt;" fill-rule="evenodd" class="s16" d="m224.5 59.9q2.4 0 4.2 0.5 1.9 0.5 3.2 1.5 1.3 1.1 2 2.6 0.7 1.6 0.7 3.7 0 2.7-1.1 4.5-1.1 1.7-3.1 2.7l4.4 8.5q0.1 0.3 0.1 0.4 0 0.4-0.2 0.6-0.2 0.2-0.6 0.2h-4.9q-0.7 0-1-0.3-0.3-0.3-0.5-0.6l-4-7.7h-3.3v7.7q0 0.4-0.3 0.6-0.3 0.3-0.6 0.3h-4.8q-0.4 0-0.6-0.3-0.3-0.2-0.3-0.6v-23.3q0-0.4 0.3-0.7 0.2-0.3 0.6-0.3zm-4 10.9h4q1.5 0 2.5-0.5 1-0.6 1-2.1 0-1.5-1-2.1-1-0.6-2.5-0.6h-4z"/>
						<path id="&lt;Compound Path&gt;" class="s16" d="m245.5 69.5q-0.1 0.5-0.1 1.3 0 0.8 0 1.7 0 0.9 0 1.7 0 0.9 0.1 1.4 0.1 0.8 0.3 1.5 0.3 0.8 0.8 1.4 0.5 0.5 1.4 0.9 0.8 0.3 2 0.3 1.2 0 2-0.3 0.8-0.2 1.3-0.7 0.5-0.4 0.8-0.9 0.3-0.5 0.4-0.9 0.2-0.6 0.4-0.8 0.2-0.3 0.8-0.3h4.8q0.3 0 0.5 0.3 0.2 0.2 0.2 0.5 0 1.9-0.9 3.5-0.8 1.6-2.3 2.8-1.5 1.2-3.6 1.9-2 0.7-4.4 0.7-2.6 0-4.6-0.8-2-0.8-3.5-2.1-1.4-1.3-2.2-3.1-0.8-1.8-0.9-3.8-0.1-1.4-0.1-3.1 0-1.7 0.1-3.3 0.1-2 0.9-3.7 0.8-1.8 2.2-3.2 1.4-1.3 3.5-2.1 2-0.7 4.6-0.7 2.4 0 4.4 0.7 2.1 0.7 3.6 1.9 1.5 1.1 2.3 2.8 0.9 1.6 0.9 3.4 0 0.3-0.2 0.6-0.2 0.2-0.5 0.2h-4.8q-0.6 0-0.8-0.2-0.2-0.3-0.4-0.8-0.1-0.5-0.4-1-0.3-0.5-0.8-0.9-0.5-0.4-1.3-0.7-0.8-0.3-2-0.3-1.2 0-2 0.4-0.9 0.3-1.4 0.9-0.5 0.6-0.8 1.3-0.2 0.8-0.3 1.6z"/>
						<path id="&lt;Compound Path&gt;" class="s16" d="m286.2 59.9q0.4 0 0.7 0.3 0.3 0.3 0.3 0.7v23.3q0 0.4-0.3 0.6-0.3 0.3-0.7 0.3h-4.7q-0.4 0-0.7-0.3-0.3-0.2-0.3-0.6v-8.9h-8v8.9q0 0.4-0.3 0.6-0.3 0.3-0.7 0.3h-4.7q-0.4 0-0.7-0.2-0.2-0.3-0.2-0.7v-23.3q0-0.4 0.2-0.7 0.3-0.3 0.7-0.3h4.7q0.4 0 0.7 0.3 0.3 0.3 0.3 0.7v8.7h8v-8.7q0-0.4 0.3-0.7 0.3-0.3 0.7-0.3z"/>
					</g>
					<g id="&lt;Group&gt;">
						<path id="&lt;Compound Path&gt;" class="s16" d="m58.8 105.3q0-0.3 0.3-0.3h0.2q0.2 0 0.2 0.3v4.8q0 1.8-0.8 2.6-0.8 0.8-2.3 0.8-0.7 0-1.3-0.2-0.5-0.2-0.9-0.6-0.4-0.4-0.6-1.1-0.2-0.6-0.2-1.5v-4.8q0-0.3 0.2-0.3h0.2q0.3 0 0.3 0.3v4.9q0 1.3 0.6 1.9 0.7 0.7 1.7 0.7 1.1 0 1.8-0.7 0.6-0.6 0.6-1.9z"/>
						<path id="&lt;Compound Path&gt;" class="s16" d="m62.8 111.3q0 0.7 0.2 1 0.2 0.4 0.7 0.4h0.7q0.2 0 0.2 0.2v0.2q0 0.3-0.2 0.3h-0.7q-0.5 0-0.8-0.2-0.3-0.1-0.5-0.4-0.2-0.3-0.3-0.6-0.1-0.4-0.1-0.8v-3.6h-0.9q-0.3 0-0.3-0.2v-0.2q0-0.3 0.3-0.3h0.9v-2q0-0.2 0.3-0.2h0.2q0.3 0 0.3 0.2v2h1.4q0.3 0 0.3 0.3v0.2q0 0.2-0.3 0.2h-1.4z"/>
						<path id="&lt;Compound Path&gt;" fill-rule="evenodd" class="s16" d="m68.7 109.8q0-0.6 0.2-1.1 0.2-0.6 0.5-0.9 0.4-0.4 0.8-0.6 0.5-0.2 1.1-0.2 1.2 0 1.9 0.8 0.7 0.9 0.7 2.3v0.2q0 0.1 0 0.2-0.1 0.1-0.2 0.1h-4.3v0.1q0 0.4 0.1 0.8 0.2 0.4 0.4 0.6 0.3 0.3 0.6 0.5 0.3 0.2 0.8 0.2 0.4 0 0.7-0.1 0.2-0.1 0.4-0.2 0.2-0.1 0.4-0.3 0.1-0.1 0.1-0.2 0.2-0.1 0.2-0.2 0.1 0 0.2 0h0.2q0.1 0 0.2 0.1 0.1 0 0.1 0.1-0.1 0.2-0.2 0.5-0.2 0.2-0.5 0.4-0.3 0.3-0.8 0.4-0.5 0.2-1 0.2-0.6 0-1.1-0.2-0.4-0.2-0.8-0.6-0.3-0.3-0.5-0.8-0.2-0.6-0.2-1.2-0.1-0.1-0.1-0.4 0-0.3 0.1-0.5zm0.7 0.1h3.8v-0.1q0-0.4-0.1-0.8-0.2-0.4-0.4-0.7-0.3-0.3-0.6-0.4-0.4-0.2-0.8-0.2-0.5 0-0.8 0.2-0.4 0.1-0.6 0.4-0.3 0.3-0.4 0.7-0.1 0.4-0.1 0.8z"/>
						<path id="&lt;Compound Path&gt;" class="s16" d="m80.7 113.1q0 0.3-0.3 0.3h-0.2q-0.2 0-0.2-0.3v-3.3q0-1-0.5-1.5-0.5-0.6-1.4-0.6-0.8 0-1.3 0.6-0.6 0.5-0.6 1.5v3.3q0 0.3-0.2 0.3h-0.2q-0.3 0-0.3-0.3v-5.7q0-0.3 0.3-0.3h0.2q0.2 0 0.2 0.3v0.6q0.4-0.5 0.8-0.7 0.5-0.3 1.3-0.3 0.6 0 1 0.2 0.5 0.2 0.8 0.6 0.3 0.3 0.5 0.8 0.1 0.5 0.1 1.1z"/>
						<path id="&lt;Compound Path&gt;" class="s16" d="m83.5 105.6q0 0.1-0.1 0.2-0.1 0.1-0.2 0.1h-0.5q-0.2 0-0.2-0.3v-0.5q0-0.1 0-0.2 0.1 0 0.2 0h0.5q0.1 0 0.2 0 0.1 0.1 0.1 0.2zm-0.2 7.6q0 0.2-0.2 0.2h-0.2q-0.3 0-0.3-0.2v-5.8q0-0.2 0.3-0.2h0.2q0.2 0 0.2 0.2z"/>
						<path id="&lt;Compound Path&gt;" class="s16" d="m86 107.8q0.3-0.4 0.7-0.6 0.4-0.2 1-0.2 0.7 0 1.2 0.3 0.5 0.3 0.7 0.8 0.3-0.5 0.8-0.8 0.6-0.3 1.3-0.3 0.5 0 0.9 0.2 0.4 0.2 0.7 0.5 0.3 0.3 0.4 0.8 0.2 0.5 0.2 1.1v3.5q0 0.3-0.2 0.3h-0.2q-0.3 0-0.3-0.3v-3.4q0-0.5-0.1-0.9-0.2-0.4-0.4-0.7-0.2-0.2-0.5-0.3-0.3-0.1-0.6-0.1-0.3 0-0.6 0.1-0.3 0.1-0.5 0.3-0.2 0.3-0.4 0.7-0.1 0.4-0.1 0.9v3.4q0 0.3-0.3 0.3h-0.2q-0.3 0-0.3-0.3v-3.4q0-0.5-0.1-0.9-0.2-0.4-0.4-0.7-0.2-0.2-0.5-0.3-0.3-0.1-0.6-0.1-0.3 0-0.6 0.1-0.2 0.1-0.5 0.3-0.2 0.3-0.4 0.7-0.1 0.3-0.1 0.9v3.4q0 0.3-0.3 0.3h-0.2q-0.2 0-0.2-0.3v-5.7q0-0.3 0.2-0.3h0.2q0.3 0 0.3 0.3z"/>
						<path id="&lt;Compound Path&gt;" fill-rule="evenodd" class="s16" d="m103 113.4q-0.3 0-0.3-0.3v-0.6q-0.1 0.2-0.3 0.4-0.1 0.2-0.4 0.3-0.3 0.1-0.6 0.2-0.3 0.1-0.8 0.1-0.4 0-0.8-0.1-0.4-0.2-0.7-0.4-0.3-0.3-0.5-0.6-0.2-0.3-0.2-0.7 0-0.4 0.2-0.7 0.2-0.3 0.5-0.6 0.3-0.2 0.7-0.4 0.5-0.2 1-0.2l1.9-0.3v-0.4q0-0.7-0.4-1-0.4-0.4-1.2-0.4-0.7 0-1.1 0.3-0.3 0.2-0.4 0.5-0.1 0.2-0.1 0.2-0.1 0.1-0.2 0.1h-0.2q-0.1 0-0.2-0.1 0-0.1 0-0.2 0-0.2 0.1-0.4 0.1-0.3 0.4-0.5 0.2-0.2 0.7-0.4 0.4-0.2 1-0.2 0.7 0 1.1 0.2 0.5 0.2 0.8 0.5 0.2 0.3 0.3 0.7 0.1 0.4 0.1 0.7v4q0 0.3-0.2 0.3zm-2.3-0.6q0.4 0 0.8-0.1 0.3-0.2 0.6-0.5 0.3-0.2 0.5-0.6 0.1-0.5 0.1-1v-0.4l-1.5 0.2q-2 0.3-2 1.2 0 0.3 0.1 0.6 0.1 0.2 0.4 0.3 0.2 0.2 0.5 0.2 0.2 0.1 0.5 0.1z"/>
						<path id="&lt;Compound Path&gt;" fill-rule="evenodd" class="s16" d="m107.6 107q0.7 0 1.2 0.3 0.5 0.3 0.8 0.7v-2.9q0-0.2 0.3-0.2h0.2q0.2 0 0.2 0.2v8q0 0.3-0.2 0.3h-0.2q-0.3 0-0.3-0.3v-0.6q-0.3 0.5-0.8 0.7-0.5 0.3-1.2 0.3-0.7 0-1.2-0.3-0.5-0.2-0.8-0.6-0.3-0.4-0.4-1-0.2-0.5-0.2-1 0-0.3 0-0.7 0-0.5 0.2-1 0.1-0.5 0.4-1 0.3-0.4 0.8-0.6 0.5-0.3 1.2-0.3zm2 3.7q0-0.2 0-0.5 0-0.3 0-0.4 0-0.4-0.1-0.8-0.1-0.3-0.4-0.6-0.2-0.3-0.6-0.5-0.3-0.2-0.8-0.2-0.6 0-0.9 0.2-0.4 0.2-0.6 0.5-0.2 0.3-0.3 0.7-0.1 0.4-0.1 0.8-0.1 0.4 0 0.7 0 0.4 0.1 0.8 0.1 0.4 0.3 0.7 0.2 0.3 0.6 0.5 0.3 0.2 0.9 0.2 0.5 0 0.8-0.2 0.4-0.2 0.6-0.5 0.3-0.3 0.4-0.7 0.1-0.3 0.1-0.7z"/>
						<path id="&lt;Compound Path&gt;" class="s16" d="m116.1 107.8q0.3-0.4 0.7-0.6 0.4-0.2 1-0.2 0.7 0 1.2 0.3 0.5 0.3 0.8 0.8 0.2-0.5 0.8-0.8 0.5-0.3 1.2-0.3 0.5 0 0.9 0.2 0.4 0.2 0.7 0.5 0.3 0.3 0.5 0.8 0.1 0.5 0.1 1.1v3.5q0 0.3-0.2 0.3h-0.2q-0.3 0-0.3-0.3v-3.4q0-0.5-0.1-0.9-0.2-0.4-0.4-0.7-0.2-0.2-0.5-0.3-0.3-0.1-0.6-0.1-0.3 0-0.6 0.1-0.3 0.1-0.5 0.3-0.2 0.3-0.4 0.7-0.1 0.4-0.1 0.9v3.4q0 0.3-0.3 0.3h-0.2q-0.3 0-0.3-0.3v-3.4q0-0.5-0.1-0.9-0.1-0.4-0.4-0.7-0.2-0.2-0.5-0.3-0.3-0.1-0.6-0.1-0.3 0-0.5 0.1-0.3 0.1-0.6 0.3-0.2 0.3-0.3 0.7-0.2 0.3-0.2 0.9v3.4q0 0.3-0.2 0.3h-0.2q-0.3 0-0.3-0.3v-5.7q0-0.3 0.3-0.3h0.2q0.2 0 0.2 0.3z"/>
						<path id="&lt;Compound Path&gt;" class="s16" d="m126.8 105.6q0 0.1-0.1 0.2-0.1 0.1-0.2 0.1h-0.4q-0.3 0-0.3-0.3v-0.5q0-0.1 0.1-0.2 0 0 0.2 0h0.4q0.1 0 0.2 0 0.1 0.1 0.1 0.2zm-0.1 7.6q0 0.2-0.3 0.2h-0.2q-0.3 0-0.3-0.2v-5.8q0-0.2 0.3-0.2h0.2q0.3 0 0.3 0.2z"/>
						<path id="&lt;Compound Path&gt;" class="s16" d="m133.8 113.1q0 0.3-0.3 0.3h-0.2q-0.2 0-0.2-0.3v-3.3q0-1-0.5-1.5-0.5-0.6-1.4-0.6-0.8 0-1.4 0.6-0.5 0.5-0.5 1.5v3.3q0 0.3-0.2 0.3h-0.2q-0.3 0-0.3-0.3v-5.7q0-0.3 0.3-0.3h0.2q0.2 0 0.2 0.3v0.6q0.4-0.5 0.8-0.7 0.5-0.3 1.2-0.3 0.7 0 1.1 0.2 0.5 0.2 0.8 0.6 0.3 0.3 0.4 0.8 0.2 0.5 0.2 1.1z"/>
						<path id="&lt;Compound Path&gt;" class="s16" d="m136.5 105.6q0 0.1 0 0.2-0.1 0.1-0.2 0.1h-0.5q-0.3 0-0.2-0.3v-0.5q0-0.1 0-0.2 0.1 0 0.2 0h0.5q0.1 0 0.2 0 0 0.1 0 0.2zm-0.1 7.6q0 0.2-0.2 0.2h-0.3q-0.2 0-0.2-0.2v-5.8q0-0.2 0.2-0.2h0.3q0.2 0 0.2 0.2z"/>
						<path id="&lt;Compound Path&gt;" class="s16" d="m139.1 107.8q0.3-0.4 0.7-0.6 0.4-0.2 1-0.2 0.7 0 1.2 0.3 0.5 0.3 0.7 0.8 0.3-0.5 0.8-0.8 0.6-0.3 1.3-0.3 0.4 0 0.9 0.2 0.4 0.2 0.7 0.5 0.3 0.3 0.4 0.8 0.2 0.5 0.2 1.1v3.5q0 0.3-0.3 0.3h-0.2q-0.2 0-0.2-0.3v-3.4q0-0.5-0.2-0.9-0.1-0.4-0.3-0.7-0.2-0.2-0.5-0.3-0.3-0.1-0.7-0.1-0.2 0-0.5 0.1-0.3 0.1-0.5 0.3-0.3 0.3-0.4 0.7-0.2 0.4-0.1 0.9v3.4q-0.1 0.3-0.3 0.3h-0.2q-0.3 0-0.3-0.3v-3.4q0-0.5-0.1-0.9-0.2-0.4-0.4-0.7-0.2-0.2-0.5-0.3-0.3-0.1-0.6-0.1-0.3 0-0.6 0.1-0.3 0.1-0.5 0.3-0.2 0.3-0.4 0.7-0.1 0.3-0.1 0.9v3.4q0 0.3-0.3 0.3h-0.2q-0.2 0-0.2-0.3v-5.7q0-0.3 0.2-0.3h0.2q0.3 0 0.3 0.3z"/>
						<path id="&lt;Compound Path&gt;" class="s16" d="m153.5 113.3q-0.1-0.1-0.1-0.2l-2.3-5.6q0-0.1 0-0.1 0-0.1 0.1-0.2 0.1-0.1 0.2-0.1h0.2q0.1 0 0.2 0.1 0.1 0.1 0.1 0.1l2 5.2 2-5.2q0.1 0 0.1-0.1 0.1-0.1 0.2-0.1h0.3q0 0 0.1 0.1 0.1 0.1 0.1 0.2 0 0 0 0.1l-2.2 5.6q-0.1 0.1-0.2 0.2-0.1 0.1-0.3 0.1h-0.2q-0.2 0-0.3-0.1z"/>
						<path id="&lt;Compound Path&gt;" fill-rule="evenodd" class="s16" d="m157.6 109.8q0-0.6 0.2-1.1 0.2-0.6 0.5-0.9 0.4-0.4 0.8-0.6 0.5-0.2 1.1-0.2 1.3 0 2 0.8 0.6 0.9 0.6 2.3v0.2q0 0.1 0 0.2-0.1 0.1-0.2 0.1h-4.3v0.1q0 0.4 0.2 0.8 0.1 0.4 0.3 0.6 0.3 0.3 0.6 0.5 0.4 0.2 0.8 0.2 0.4 0 0.7-0.1 0.3-0.1 0.5-0.2 0.2-0.1 0.3-0.3 0.1-0.1 0.2-0.2 0.1-0.1 0.1-0.2 0.1 0 0.2 0h0.2q0.1 0 0.2 0.1 0.1 0 0.1 0.1 0 0.2-0.2 0.5-0.2 0.2-0.5 0.4-0.3 0.3-0.8 0.4-0.4 0.2-1 0.2-0.6 0-1-0.2-0.5-0.2-0.9-0.6-0.3-0.3-0.5-0.8-0.2-0.6-0.2-1.2 0-0.1 0-0.4 0-0.3 0-0.5zm0.7 0.1h3.8v-0.1q0-0.4-0.1-0.8-0.1-0.4-0.4-0.7-0.2-0.3-0.6-0.4-0.4-0.2-0.8-0.2-0.5 0-0.8 0.2-0.4 0.1-0.6 0.4-0.2 0.3-0.4 0.7-0.1 0.4-0.1 0.8z"/>
						<path id="&lt;Compound Path&gt;" class="s16" d="m169.6 113.1q0 0.3-0.2 0.3h-0.2q-0.3 0-0.3-0.3v-3.3q0-1-0.5-1.5-0.4-0.6-1.3-0.6-0.9 0-1.4 0.6-0.5 0.5-0.5 1.5v3.3q0 0.3-0.3 0.3h-0.2q-0.3 0-0.3-0.3v-5.7q0-0.3 0.3-0.3h0.2q0.3 0 0.3 0.3v0.6q0.3-0.5 0.7-0.7 0.5-0.3 1.3-0.3 0.6 0 1 0.2 0.5 0.2 0.8 0.6 0.3 0.3 0.5 0.8 0.1 0.5 0.1 1.1z"/>
						<path id="&lt;Compound Path&gt;" class="s16" d="m172.4 105.6q0 0.1-0.1 0.2-0.1 0.1-0.2 0.1h-0.5q-0.2 0-0.2-0.3v-0.5q0-0.1 0.1-0.2 0 0 0.1 0h0.5q0.1 0 0.2 0 0.1 0.1 0.1 0.2zm-0.2 7.6q0 0.2-0.2 0.2h-0.2q-0.3 0-0.3-0.2v-5.8q0-0.2 0.3-0.2h0.2q0.2 0 0.2 0.2z"/>
						<path id="&lt;Compound Path&gt;" fill-rule="evenodd" class="s16" d="m178.3 113.4q-0.3 0-0.3-0.3v-0.6q-0.1 0.2-0.3 0.4-0.2 0.2-0.4 0.3-0.3 0.1-0.6 0.2-0.4 0.1-0.8 0.1-0.5 0-0.9-0.1-0.3-0.2-0.6-0.4-0.3-0.3-0.5-0.6-0.2-0.3-0.2-0.7 0-0.4 0.2-0.7 0.2-0.3 0.5-0.6 0.3-0.2 0.7-0.4 0.5-0.2 1-0.2l1.9-0.3v-0.4q0-0.7-0.4-1-0.4-0.4-1.2-0.4-0.7 0-1.1 0.3-0.3 0.2-0.4 0.5-0.1 0.2-0.2 0.2 0 0.1-0.1 0.1h-0.2q-0.1 0-0.2-0.1-0.1-0.1-0.1-0.2 0-0.2 0.2-0.4 0.1-0.3 0.4-0.5 0.2-0.2 0.6-0.4 0.5-0.2 1.1-0.2 0.7 0 1.1 0.2 0.5 0.2 0.8 0.5 0.2 0.3 0.3 0.7 0.1 0.4 0.1 0.7v4q0 0.3-0.2 0.3zm-2.3-0.6q0.4 0 0.8-0.1 0.3-0.2 0.6-0.5 0.3-0.2 0.4-0.6 0.2-0.5 0.2-1v-0.4l-1.6 0.2q-1.9 0.3-1.9 1.2 0 0.3 0.1 0.6 0.1 0.2 0.3 0.3 0.3 0.2 0.5 0.2 0.3 0.1 0.6 0.1z"/>
						<path id="&lt;Compound Path&gt;" class="s16" d="m181.4 107.8q0.3-0.4 0.7-0.6 0.4-0.2 1-0.2 0.7 0 1.1 0.3 0.5 0.3 0.8 0.8 0.3-0.5 0.8-0.8 0.5-0.3 1.2-0.3 0.5 0 0.9 0.2 0.4 0.2 0.7 0.5 0.3 0.3 0.5 0.8 0.2 0.5 0.2 1.1v3.5q0 0.3-0.3 0.3h-0.2q-0.3 0-0.3-0.3v-3.4q0-0.5-0.1-0.9-0.1-0.4-0.4-0.7-0.2-0.2-0.5-0.3-0.3-0.1-0.6-0.1-0.3 0-0.5 0.1-0.3 0.1-0.6 0.3-0.2 0.3-0.3 0.7-0.2 0.4-0.2 0.9v3.4q0 0.3-0.3 0.3h-0.2q-0.2 0-0.2-0.3v-3.4q0-0.5-0.2-0.9-0.1-0.4-0.3-0.7-0.3-0.2-0.6-0.3-0.3-0.1-0.6-0.1-0.2 0-0.5 0.1-0.3 0.1-0.5 0.3-0.3 0.3-0.4 0.7-0.1 0.3-0.1 0.9v3.4q0 0.3-0.3 0.3h-0.2q-0.3 0-0.3-0.3v-5.7q0-0.3 0.3-0.3h0.2q0.3 0 0.3 0.3z"/>
						<path id="&lt;Compound Path&gt;" class="s16" d="m191.1 112.6q0-0.2 0.1-0.3 0.1 0 0.2 0h0.6q0 0 0.1 0 0 0.1 0 0.2 0 0.1 0 0.2l-0.5 1.3q-0.1 0.1-0.1 0.2-0.1 0.1-0.2 0.1h-0.2q-0.1 0-0.2-0.1 0-0.1 0-0.2z"/>
						<path id="&lt;Compound Path&gt;" fill-rule="evenodd" class="s16" d="m199.4 113.5q-0.7 0-1.2-0.3-0.5-0.2-0.8-0.6-0.3-0.4-0.4-0.9-0.2-0.5-0.2-1 0-0.2 0-0.4 0-0.3 0-0.4 0-0.6 0.2-1.1 0.1-0.5 0.4-0.9 0.3-0.4 0.8-0.6 0.5-0.3 1.2-0.3 0.7 0 1.2 0.3 0.5 0.3 0.8 0.7v-0.6q0-0.3 0.2-0.3h0.2q0.3 0 0.3 0.3v8q0 0.3-0.3 0.3h-0.2q-0.2 0-0.2-0.3v-2.9q-0.3 0.4-0.8 0.7-0.5 0.3-1.2 0.3zm2-3.7q0-0.3-0.1-0.7-0.2-0.4-0.4-0.7-0.2-0.3-0.6-0.5-0.3-0.2-0.9-0.2-0.5 0-0.8 0.2-0.4 0.2-0.6 0.5-0.2 0.3-0.4 0.7-0.1 0.4-0.1 0.8 0 0.4 0 0.7 0 0.4 0.1 0.8 0.2 0.4 0.4 0.7 0.2 0.3 0.6 0.5 0.3 0.2 0.8 0.2 0.5 0 0.9-0.2 0.4-0.2 0.6-0.5 0.2-0.2 0.4-0.6 0.1-0.4 0.1-0.7 0-0.2 0-0.5 0-0.3 0-0.5z"/>
						<path id="&lt;Compound Path&gt;" class="s16" d="m204 107.4q0-0.3 0.3-0.3h0.2q0.2 0 0.2 0.3v3.3q0 2.1 1.8 2.1 0.9 0 1.4-0.5 0.5-0.6 0.5-1.6v-3.3q0-0.3 0.3-0.3h0.2q0.2 0 0.2 0.3v5.7q0 0.3-0.2 0.3h-0.2q-0.3 0-0.3-0.3v-0.6q-0.3 0.5-0.8 0.7-0.4 0.3-1.2 0.3-0.6 0-1.1-0.2-0.4-0.2-0.7-0.6-0.3-0.3-0.4-0.8-0.2-0.5-0.2-1.1z"/>
						<path id="&lt;Compound Path&gt;" class="s16" d="m212 105.6q0 0.1-0.1 0.2-0.1 0.1-0.2 0.1h-0.5q-0.2 0-0.2-0.3v-0.5q0-0.1 0-0.2 0.1 0 0.2 0h0.5q0.1 0 0.2 0 0.1 0.1 0.1 0.2zm-0.2 7.6q0 0.2-0.2 0.2h-0.2q-0.3 0-0.3-0.2v-5.8q0-0.2 0.3-0.2h0.2q0.2 0 0.2 0.2z"/>
						<path id="&lt;Compound Path&gt;" class="s16" d="m217.4 111.7q0-0.2-0.1-0.4-0.1-0.2-0.3-0.3-0.3-0.2-0.7-0.3-0.4-0.1-0.9-0.2-0.6-0.1-1-0.3-0.3-0.2-0.5-0.4-0.2-0.2-0.3-0.5-0.1-0.3-0.1-0.5 0-0.4 0.2-0.7 0.1-0.3 0.4-0.5 0.2-0.3 0.6-0.4 0.4-0.2 1-0.2 0.6 0 1 0.2 0.4 0.1 0.7 0.3 0.2 0.3 0.4 0.5 0.1 0.2 0.1 0.3 0 0.2-0.1 0.2-0.1 0.1-0.2 0.1h-0.2q-0.1 0-0.2-0.2-0.1-0.1-0.2-0.2-0.1-0.2-0.3-0.3-0.2-0.1-0.4-0.1-0.3-0.1-0.6-0.1-0.7 0-1.1 0.3-0.3 0.3-0.3 0.8 0 0.2 0 0.3 0.1 0.2 0.3 0.3 0.2 0.1 0.6 0.3 0.3 0.1 0.9 0.2 0.6 0.2 1 0.3 0.4 0.2 0.6 0.4 0.2 0.2 0.3 0.5 0.1 0.3 0.1 0.6 0 0.4-0.1 0.7-0.2 0.3-0.5 0.6-0.3 0.2-0.7 0.4-0.5 0.1-1.1 0.1-0.6 0-1-0.2-0.5-0.1-0.8-0.4-0.3-0.2-0.4-0.4-0.1-0.3-0.1-0.4-0.1-0.1 0-0.2 0.1 0 0.2 0h0.2q0.1 0 0.1 0 0.1 0 0.2 0.1 0.1 0.2 0.2 0.3 0.2 0.2 0.4 0.3 0.2 0.1 0.4 0.1 0.3 0.1 0.6 0.1 0.8 0 1.2-0.3 0.5-0.3 0.5-0.8z"/>
						<path id="&lt;Compound Path&gt;" class="s16" d="m58.5 127.5q0 0.3-0.3 0.3h-0.2q-0.3 0-0.3-0.3v-3.3q0-1-0.4-1.5-0.5-0.6-1.4-0.6-0.9 0-1.4 0.6-0.5 0.5-0.5 1.5v3.3q0 0.3-0.3 0.3h-0.2q-0.2 0-0.2-0.3v-5.7q0-0.3 0.2-0.3h0.2q0.3 0 0.3 0.3v0.6q0.3-0.5 0.8-0.7 0.4-0.3 1.2-0.3 0.6 0 1.1 0.2 0.4 0.2 0.7 0.6 0.4 0.3 0.5 0.8 0.2 0.5 0.2 1.1z"/>
						<path id="&lt;Compound Path&gt;" fill-rule="evenodd" class="s16" d="m62.7 121.4q0.7 0 1.2 0.2 0.5 0.2 0.8 0.6 0.3 0.4 0.5 0.9 0.2 0.5 0.2 1.1 0 0 0 0.2 0 0.1 0 0.3 0 0.1 0 0.2 0 0.2 0 0.3 0 0.5-0.2 1-0.2 0.5-0.5 0.9-0.3 0.4-0.8 0.6-0.5 0.2-1.2 0.2-0.6 0-1.1-0.2-0.5-0.2-0.8-0.6-0.4-0.4-0.5-0.9-0.2-0.5-0.2-1 0-0.1 0-0.3-0.1-0.1-0.1-0.2 0-0.2 0.1-0.3 0-0.2 0-0.2 0-0.6 0.2-1.1 0.1-0.5 0.5-0.9 0.3-0.4 0.8-0.6 0.5-0.2 1.1-0.2zm2 2.8q-0.1-1-0.6-1.6-0.5-0.5-1.4-0.5-0.8 0-1.3 0.5-0.6 0.6-0.6 1.6 0 0.2 0 0.5 0 0.2 0 0.4 0 1 0.6 1.6 0.5 0.5 1.3 0.5 0.9 0 1.4-0.5 0.5-0.6 0.6-1.6 0-0.2 0-0.4 0-0.3 0-0.5z"/>
						<path id="&lt;Compound Path&gt;" class="s16" d="m70.7 126.1q0-0.2-0.1-0.4-0.1-0.2-0.4-0.3-0.2-0.2-0.6-0.3-0.4-0.1-0.9-0.2-0.6-0.1-1-0.3-0.3-0.2-0.5-0.4-0.2-0.2-0.3-0.5-0.1-0.3-0.1-0.5 0-0.4 0.1-0.7 0.2-0.3 0.5-0.5 0.2-0.3 0.6-0.4 0.4-0.2 1-0.2 0.6 0 1 0.2 0.4 0.1 0.6 0.3 0.3 0.3 0.4 0.5 0.2 0.2 0.2 0.3 0 0.2-0.1 0.2-0.1 0.1-0.2 0.1h-0.2q-0.1 0-0.2-0.2-0.1-0.1-0.2-0.2-0.1-0.2-0.3-0.3-0.2-0.1-0.4-0.1-0.3-0.1-0.6-0.1-0.8 0-1.1 0.3-0.4 0.3-0.4 0.8 0 0.2 0.1 0.3 0.1 0.2 0.3 0.3 0.2 0.1 0.6 0.3 0.3 0.1 0.9 0.2 0.6 0.2 1 0.3 0.3 0.2 0.6 0.4 0.2 0.2 0.3 0.5 0.1 0.3 0.1 0.6 0 0.4-0.1 0.7-0.2 0.3-0.5 0.6-0.3 0.2-0.7 0.4-0.5 0.1-1.1 0.1-0.6 0-1.1-0.2-0.4-0.1-0.7-0.4-0.3-0.2-0.4-0.4-0.2-0.3-0.2-0.4 0-0.1 0.1-0.2 0.1 0 0.2 0h0.2q0.1 0 0.1 0 0.1 0 0.1 0.1 0.2 0.2 0.3 0.3 0.1 0.2 0.3 0.3 0.2 0.1 0.5 0.1 0.3 0.1 0.6 0.1 0.7 0 1.2-0.3 0.5-0.3 0.5-0.8z"/>
						<path id="&lt;Compound Path&gt;" class="s16" d="m74.1 125.7q0 0.7 0.3 1 0.2 0.4 0.7 0.4h0.7q0.2 0 0.2 0.2v0.2q0 0.3-0.2 0.3h-0.8q-0.4 0-0.7-0.2-0.4-0.1-0.5-0.4-0.2-0.3-0.3-0.6-0.1-0.4-0.1-0.8v-3.6h-0.9q-0.3 0-0.3-0.2v-0.2q0-0.3 0.3-0.3h0.9v-2q0-0.2 0.3-0.2h0.2q0.2 0 0.2 0.2v2h1.5q0.3 0 0.3 0.3v0.2q0 0.2-0.3 0.2h-1.5z"/>
						<path id="&lt;Compound Path&gt;" class="s16" d="m79.6 121.5h0.5q0.2 0 0.2 0.3v0.2q0 0.2-0.2 0.2h-0.6q-0.7 0-1.1 0.5-0.4 0.4-0.4 1.1v3.7q0 0.1-0.1 0.2-0.1 0.1-0.2 0.1h-0.2q-0.2 0-0.2-0.3v-5.7q0-0.1 0-0.2 0.1-0.1 0.2-0.1h0.2q0.1 0 0.2 0.1 0.1 0.1 0.1 0.2v0.6q0.4-0.9 1.6-0.9z"/>
						<path id="&lt;Compound Path&gt;" class="s16" d="m81.4 121.8q0-0.3 0.2-0.3h0.2q0.3 0 0.3 0.3v3.3q0 2.1 1.8 2.1 0.9 0 1.4-0.5 0.5-0.6 0.5-1.6v-3.3q0-0.3 0.2-0.3h0.2q0.3 0 0.3 0.3v5.7q0 0.3-0.3 0.3h-0.2q-0.2 0-0.2-0.3v-0.6q-0.3 0.5-0.8 0.7-0.5 0.3-1.2 0.3-0.6 0-1.1-0.2-0.4-0.2-0.7-0.6-0.3-0.3-0.5-0.8-0.1-0.5-0.1-1.1z"/>
						<path id="&lt;Compound Path&gt;" fill-rule="evenodd" class="s16" d="m90.7 121.4q0.8 0 1.2 0.3 0.5 0.3 0.8 0.7v-2.9q0-0.2 0.3-0.2h0.2q0.3 0 0.3 0.2v8q0 0.3-0.3 0.3h-0.2q-0.3 0-0.3-0.3v-0.6q-0.3 0.5-0.8 0.7-0.4 0.3-1.2 0.3-0.7 0-1.2-0.3-0.5-0.2-0.8-0.6-0.3-0.4-0.4-1-0.1-0.5-0.2-1 0-0.3 0-0.7 0.1-0.5 0.2-1 0.1-0.5 0.4-1 0.3-0.4 0.8-0.6 0.5-0.3 1.2-0.3zm2 3.7q0-0.2 0-0.5 0-0.3 0-0.4 0-0.4-0.1-0.8-0.1-0.3-0.4-0.6-0.2-0.3-0.6-0.5-0.3-0.2-0.8-0.2-0.5 0-0.9 0.2-0.4 0.2-0.6 0.5-0.2 0.3-0.3 0.7-0.1 0.4-0.1 0.8 0 0.4 0 0.7 0 0.4 0.1 0.8 0.1 0.4 0.3 0.7 0.2 0.3 0.6 0.5 0.4 0.2 0.9 0.2 0.5 0 0.9-0.2 0.3-0.2 0.5-0.5 0.3-0.3 0.4-0.7 0.1-0.3 0.1-0.7z"/>
						<path id="&lt;Compound Path&gt;" fill-rule="evenodd" class="s16" d="m98.2 124.2q0-0.6 0.2-1.1 0.2-0.6 0.6-0.9 0.3-0.4 0.8-0.6 0.4-0.2 1-0.2 1.3 0 2 0.8 0.7 0.9 0.7 2.3v0.2q0 0.1-0.1 0.2-0.1 0.1-0.2 0.1h-4.3v0.1q0 0.4 0.2 0.8 0.1 0.4 0.4 0.6 0.2 0.3 0.5 0.5 0.4 0.2 0.8 0.2 0.4 0 0.7-0.1 0.3-0.1 0.5-0.2 0.2-0.1 0.3-0.3 0.1-0.1 0.2-0.2 0.1-0.1 0.2-0.2 0 0 0.2 0h0.1q0.2 0 0.2 0.1 0.1 0 0.1 0.1 0 0.2-0.2 0.5-0.2 0.2-0.5 0.4-0.3 0.3-0.8 0.4-0.4 0.2-1 0.2-0.6 0-1-0.2-0.5-0.2-0.8-0.6-0.4-0.3-0.6-0.8-0.2-0.6-0.2-1.2 0-0.1 0-0.4 0-0.3 0-0.5zm0.7 0.1h3.8v-0.1q0-0.4-0.1-0.8-0.1-0.4-0.4-0.7-0.2-0.3-0.6-0.4-0.3-0.2-0.8-0.2-0.4 0-0.8 0.2-0.3 0.1-0.6 0.4-0.2 0.3-0.3 0.7-0.2 0.4-0.2 0.8z"/>
						<path id="&lt;Compound Path&gt;" class="s16" d="m107.1 125.2l-1.9 2.4q-0.1 0.1-0.1 0.1-0.1 0.1-0.2 0.1h-0.2q-0.1 0-0.2-0.1-0.1-0.1-0.1-0.2 0 0 0-0.1 0 0 0.1-0.1l2.1-2.7-2-2.6q0-0.1-0.1-0.1 0-0.1 0-0.1 0-0.1 0.1-0.2 0.1-0.1 0.2-0.1h0.2q0.1 0 0.2 0.1 0.1 0.1 0.1 0.1l1.8 2.3 1.8-2.3q0.1 0 0.1-0.1 0.1-0.1 0.2-0.1h0.3q0 0 0.1 0.1 0.1 0.1 0.1 0.2 0 0 0 0.1 0 0-0.1 0.1l-2 2.6 2.1 2.7q0 0.1 0.1 0.1 0 0.1 0 0.1 0 0.1-0.1 0.2-0.1 0.1-0.2 0.1h-0.2q-0.1 0-0.2-0.1-0.1 0-0.1-0.1z"/>
						<path id="&lt;Compound Path&gt;" fill-rule="evenodd" class="s16" d="m110.7 124.2q0.1-0.6 0.3-1.1 0.2-0.6 0.5-0.9 0.3-0.4 0.8-0.6 0.5-0.2 1.1-0.2 1.2 0 1.9 0.8 0.7 0.9 0.7 2.3v0.2q0 0.1-0.1 0.2-0.1 0.1-0.2 0.1h-4.2v0.1q0 0.4 0.1 0.8 0.1 0.4 0.4 0.6 0.2 0.3 0.6 0.5 0.3 0.2 0.8 0.2 0.3 0 0.6-0.1 0.3-0.1 0.5-0.2 0.2-0.1 0.3-0.3 0.2-0.1 0.2-0.2 0.1-0.1 0.2-0.2 0 0 0.2 0h0.2q0.1 0 0.2 0.1 0 0 0 0.1 0 0.2-0.2 0.5-0.1 0.2-0.5 0.4-0.3 0.3-0.7 0.4-0.5 0.2-1 0.2-0.6 0-1.1-0.2-0.5-0.2-0.8-0.6-0.3-0.3-0.5-0.8-0.2-0.6-0.3-1.2 0-0.1 0-0.4 0-0.3 0-0.5zm0.8 0.1h3.8v-0.1q0-0.4-0.2-0.8-0.1-0.4-0.3-0.7-0.3-0.3-0.6-0.4-0.4-0.2-0.8-0.2-0.5 0-0.9 0.2-0.3 0.1-0.5 0.4-0.3 0.3-0.4 0.7-0.1 0.4-0.1 0.8z"/>
						<path id="&lt;Compound Path&gt;" class="s16" d="m120 121.5h0.4q0.3 0 0.3 0.3v0.2q0 0.2-0.3 0.2h-0.5q-0.7 0-1.2 0.5-0.4 0.4-0.4 1.1v3.7q0 0.1-0.1 0.2 0 0.1-0.2 0.1h-0.1q-0.3 0-0.3-0.3v-5.7q0-0.1 0.1-0.2 0-0.1 0.2-0.1h0.1q0.2 0 0.2 0.1 0.1 0.1 0.1 0.2v0.6q0.5-0.9 1.7-0.9z"/>
						<path id="&lt;Compound Path&gt;" class="s16" d="m122.1 124.2q0 0.2 0 0.5 0 0.2 0 0.4 0 1.1 0.5 1.6 0.6 0.5 1.4 0.5 0.6 0 1.1-0.3 0.4-0.2 0.6-0.9 0.1-0.2 0.2-0.2 0-0.1 0.1-0.1h0.2q0.1 0 0.2 0.1 0.1 0.1 0.1 0.2 0 0.3-0.2 0.6-0.1 0.4-0.5 0.7-0.3 0.2-0.7 0.4-0.5 0.2-1.1 0.2-1.3 0-2-0.7-0.6-0.8-0.7-2.1 0-0.1 0-0.4 0-0.3 0-0.5 0.1-1.3 0.7-2.1 0.7-0.7 2-0.7 0.6 0 1.1 0.2 0.4 0.2 0.7 0.4 0.4 0.3 0.5 0.7 0.2 0.3 0.2 0.6 0 0.1-0.1 0.2-0.1 0.1-0.2 0.1h-0.2q-0.1 0-0.1-0.1-0.1 0-0.2-0.2-0.2-0.6-0.6-0.9-0.5-0.3-1.1-0.3-0.8 0-1.4 0.5-0.5 0.5-0.5 1.6z"/>
						<path id="&lt;Compound Path&gt;" class="s16" d="m128.9 120q0 0.1-0.1 0.2 0 0.1-0.2 0.1h-0.4q-0.3 0-0.3-0.3v-0.5q0-0.1 0.1-0.2 0.1 0 0.2 0h0.4q0.2 0 0.2 0 0.1 0.1 0.1 0.2zm-0.1 7.6q0 0.2-0.3 0.2h-0.2q-0.3 0-0.2-0.2v-5.8q-0.1-0.2 0.2-0.2h0.2q0.3 0 0.3 0.2z"/>
						<path id="&lt;Compound Path&gt;" class="s16" d="m131.9 125.7q0 0.7 0.2 1 0.2 0.4 0.8 0.4h0.6q0.3 0 0.3 0.2v0.2q0 0.3-0.3 0.3h-0.7q-0.4 0-0.8-0.2-0.3-0.1-0.5-0.4-0.1-0.3-0.2-0.6-0.1-0.4-0.1-0.8v-3.6h-0.9q-0.3 0-0.3-0.2v-0.2q0-0.3 0.3-0.3h0.9v-2q0-0.2 0.3-0.2h0.2q0.2 0 0.2 0.2v2h1.5q0.3 0 0.3 0.3v0.2q0 0.2-0.3 0.2h-1.5z"/>
						<path id="&lt;Compound Path&gt;" fill-rule="evenodd" class="s16" d="m139.1 127.8q-0.3 0-0.3-0.3v-0.6q-0.1 0.2-0.2 0.4-0.2 0.2-0.5 0.3-0.2 0.1-0.6 0.2-0.3 0.1-0.8 0.1-0.4 0-0.8-0.1-0.4-0.2-0.7-0.4-0.3-0.3-0.5-0.6-0.1-0.3-0.1-0.7 0-0.4 0.1-0.7 0.2-0.3 0.5-0.6 0.3-0.2 0.8-0.4 0.4-0.2 0.9-0.2l1.9-0.3v-0.4q0-0.7-0.4-1-0.3-0.4-1.2-0.4-0.7 0-1 0.3-0.4 0.2-0.5 0.5 0 0.2-0.1 0.2-0.1 0.1-0.2 0.1h-0.1q-0.2 0-0.2-0.1-0.1-0.1-0.1-0.2 0-0.2 0.1-0.4 0.1-0.3 0.4-0.5 0.3-0.2 0.7-0.4 0.4-0.2 1-0.2 0.7 0 1.2 0.2 0.4 0.2 0.7 0.5 0.3 0.3 0.4 0.7 0.1 0.4 0.1 0.7v4q0 0.3-0.3 0.3zm-2.3-0.6q0.4 0 0.8-0.1 0.4-0.2 0.7-0.5 0.2-0.2 0.4-0.6 0.1-0.5 0.1-1v-0.4l-1.5 0.2q-2 0.3-2 1.2 0 0.3 0.1 0.6 0.2 0.2 0.4 0.3 0.2 0.2 0.5 0.2 0.3 0.1 0.5 0.1z"/>
						<path id="&lt;Compound Path&gt;" class="s16" d="m142.6 125.7q0 0.7 0.2 1 0.2 0.4 0.8 0.4h0.6q0.3 0 0.3 0.2v0.2q0 0.3-0.3 0.3h-0.7q-0.5 0-0.8-0.2-0.3-0.1-0.5-0.4-0.2-0.3-0.2-0.6-0.1-0.4-0.1-0.8v-3.6h-1q-0.2 0-0.2-0.2v-0.2q0-0.3 0.2-0.3h1v-2q0-0.2 0.2-0.2h0.2q0.3 0 0.3 0.2v2h1.5q0.3 0 0.3 0.3v0.2q0 0.2-0.3 0.2h-1.5z"/>
						<path id="&lt;Compound Path&gt;" class="s16" d="m146.6 120q0 0.1-0.1 0.2-0.1 0.1-0.2 0.1h-0.5q-0.2 0-0.2-0.3v-0.5q0-0.1 0.1-0.2 0 0 0.1 0h0.5q0.1 0 0.2 0 0.1 0.1 0.1 0.2zm-0.2 7.6q0 0.2-0.2 0.2h-0.2q-0.3 0-0.3-0.2v-5.8q0-0.2 0.3-0.2h0.2q0.2 0 0.2 0.2z"/>
						<path id="&lt;Compound Path&gt;" fill-rule="evenodd" class="s16" d="m150.8 121.4q0.6 0 1.1 0.2 0.5 0.2 0.8 0.6 0.4 0.4 0.5 0.9 0.2 0.5 0.2 1.1 0 0 0 0.2 0 0.1 0 0.3 0 0.1 0 0.2 0 0.2 0 0.3 0 0.5-0.2 1-0.1 0.5-0.5 0.9-0.3 0.4-0.8 0.6-0.5 0.2-1.1 0.2-0.7 0-1.2-0.2-0.5-0.2-0.8-0.6-0.3-0.4-0.5-0.9-0.2-0.5-0.2-1 0-0.1 0-0.3 0-0.1 0-0.2 0-0.2 0-0.3 0-0.2 0-0.2 0-0.6 0.2-1.1 0.2-0.5 0.5-0.9 0.3-0.4 0.8-0.6 0.5-0.2 1.2-0.2zm1.9 2.8q0-1-0.6-1.6-0.5-0.5-1.3-0.5-0.9 0-1.4 0.5-0.5 0.6-0.6 1.6 0 0.2 0 0.5 0 0.2 0 0.4 0.1 1 0.6 1.6 0.5 0.5 1.4 0.5 0.8 0 1.3-0.5 0.6-0.6 0.6-1.6 0-0.2 0-0.4 0-0.3 0-0.5z"/>
						<path id="&lt;Compound Path&gt;" class="s16" d="m160.3 127.5q0 0.3-0.3 0.3h-0.2q-0.3 0-0.3-0.3v-3.3q0-1-0.4-1.5-0.5-0.6-1.4-0.6-0.9 0-1.4 0.6-0.5 0.5-0.5 1.5v3.3q0 0.3-0.2 0.3h-0.3q-0.2 0-0.2-0.3v-5.7q0-0.3 0.2-0.3h0.3q0.2 0 0.2 0.3v0.6q0.3-0.5 0.8-0.7 0.5-0.3 1.2-0.3 0.6 0 1.1 0.2 0.5 0.2 0.8 0.6 0.3 0.3 0.4 0.8 0.2 0.5 0.2 1.1z"/>
						<path id="&lt;Compound Path&gt;" class="s16" d="m165.2 121.8q0-0.3 0.3-0.3h0.2q0.2 0 0.2 0.3v3.3q0 2.1 1.8 2.1 0.9 0 1.4-0.5 0.5-0.6 0.5-1.6v-3.3q0-0.3 0.3-0.3h0.2q0.2 0 0.2 0.3v5.7q0 0.3-0.2 0.3h-0.2q-0.3 0-0.3-0.3v-0.6q-0.3 0.5-0.8 0.7-0.4 0.3-1.2 0.3-0.6 0-1.1-0.2-0.4-0.2-0.7-0.6-0.3-0.3-0.5-0.8-0.1-0.5-0.1-1.1z"/>
						<path id="&lt;Compound Path&gt;" class="s16" d="m173 127.5q0 0.3-0.2 0.3h-0.2q-0.3 0-0.3-0.3v-8q0-0.2 0.3-0.2h0.2q0.2 0 0.2 0.2z"/>
						<path id="&lt;Compound Path&gt;" class="s16" d="m175.7 127.5q0 0.3-0.2 0.3h-0.2q-0.3 0-0.3-0.3v-8q0-0.2 0.3-0.2h0.2q0.2 0 0.2 0.2z"/>
						<path id="&lt;Compound Path&gt;" fill-rule="evenodd" class="s16" d="m181.7 127.8q-0.2 0-0.2-0.3v-0.6q-0.1 0.2-0.3 0.4-0.2 0.2-0.4 0.3-0.3 0.1-0.6 0.2-0.4 0.1-0.8 0.1-0.5 0-0.9-0.1-0.4-0.2-0.6-0.4-0.3-0.3-0.5-0.6-0.2-0.3-0.2-0.7 0-0.4 0.2-0.7 0.2-0.3 0.5-0.6 0.3-0.2 0.7-0.4 0.5-0.2 1-0.2l1.9-0.3v-0.4q0-0.7-0.4-1-0.4-0.4-1.2-0.4-0.7 0-1.1 0.3-0.4 0.2-0.4 0.5-0.1 0.2-0.2 0.2 0 0.1-0.1 0.1h-0.2q-0.1 0-0.2-0.1-0.1-0.1-0.1-0.2 0-0.2 0.2-0.4 0.1-0.3 0.3-0.5 0.3-0.2 0.7-0.4 0.5-0.2 1.1-0.2 0.7 0 1.1 0.2 0.5 0.2 0.7 0.5 0.3 0.3 0.4 0.7 0.1 0.4 0.1 0.7v4q0 0.3-0.2 0.3zm-2.3-0.6q0.4 0 0.8-0.1 0.3-0.2 0.6-0.5 0.3-0.2 0.4-0.6 0.2-0.5 0.2-1v-0.4l-1.6 0.2q-2 0.3-2 1.2 0 0.3 0.2 0.6 0.1 0.2 0.3 0.3 0.3 0.2 0.5 0.2 0.3 0.1 0.6 0.1z"/>
						<path id="&lt;Compound Path&gt;" class="s16" d="m184.8 122.2q0.3-0.4 0.8-0.6 0.4-0.2 1-0.2 0.6 0 1.1 0.3 0.5 0.3 0.8 0.8 0.3-0.5 0.8-0.8 0.5-0.3 1.2-0.3 0.5 0 0.9 0.2 0.4 0.2 0.7 0.5 0.3 0.3 0.5 0.8 0.2 0.5 0.2 1.1v3.5q0 0.3-0.3 0.3h-0.2q-0.3 0-0.3-0.3v-3.4q0-0.5-0.1-0.9-0.1-0.4-0.4-0.7-0.2-0.2-0.5-0.3-0.3-0.1-0.6-0.1-0.3 0-0.6 0.1-0.2 0.1-0.5 0.3-0.2 0.3-0.4 0.7-0.1 0.4-0.1 0.9v3.4q0 0.3-0.3 0.3h-0.2q-0.2 0-0.2-0.3v-3.4q0-0.5-0.2-0.9-0.1-0.4-0.3-0.7-0.3-0.2-0.6-0.3-0.3-0.1-0.6-0.1-0.2 0-0.5 0.1-0.3 0.1-0.5 0.3-0.3 0.3-0.4 0.7-0.2 0.3-0.2 0.9v3.4q0 0.3-0.2 0.3h-0.2q-0.3 0-0.3-0.3v-5.7q0-0.3 0.3-0.3h0.2q0.2 0 0.2 0.3z"/>
						<path id="&lt;Compound Path&gt;" class="s16" d="m195.1 124.2q0 0.2 0 0.5 0 0.2 0 0.4 0 1.1 0.6 1.6 0.5 0.5 1.3 0.5 0.6 0 1.1-0.3 0.4-0.2 0.7-0.9 0-0.2 0.1-0.2 0-0.1 0.2-0.1h0.1q0.1 0 0.2 0.1 0.1 0.1 0.1 0.2 0 0.3-0.2 0.6-0.1 0.4-0.4 0.7-0.3 0.2-0.8 0.4-0.5 0.2-1.1 0.2-1.3 0-1.9-0.7-0.7-0.8-0.7-2.1-0.1-0.1-0.1-0.4 0-0.3 0.1-0.5 0-1.3 0.7-2.1 0.6-0.7 1.9-0.7 0.6 0 1.1 0.2 0.5 0.2 0.8 0.4 0.3 0.3 0.4 0.7 0.2 0.3 0.2 0.6 0 0.1-0.1 0.2-0.1 0.1-0.2 0.1h-0.1q-0.2 0-0.2-0.1-0.1 0-0.1-0.2-0.3-0.6-0.7-0.9-0.5-0.3-1.1-0.3-0.8 0-1.3 0.5-0.6 0.5-0.6 1.6z"/>
						<path id="&lt;Compound Path&gt;" fill-rule="evenodd" class="s16" d="m203.5 121.4q0.6 0 1.1 0.2 0.5 0.2 0.8 0.6 0.3 0.4 0.5 0.9 0.2 0.5 0.2 1.1 0 0 0 0.2 0 0.1 0 0.3 0 0.1 0 0.2 0 0.2 0 0.3 0 0.5-0.2 1-0.2 0.5-0.5 0.9-0.3 0.4-0.8 0.6-0.5 0.2-1.1 0.2-0.7 0-1.2-0.2-0.5-0.2-0.8-0.6-0.3-0.4-0.5-0.9-0.2-0.5-0.2-1 0-0.1 0-0.3 0-0.1 0-0.2 0-0.2 0-0.3 0-0.2 0-0.2 0-0.6 0.2-1.1 0.2-0.5 0.5-0.9 0.3-0.4 0.8-0.6 0.5-0.2 1.2-0.2zm1.9 2.8q0-1-0.6-1.6-0.5-0.5-1.3-0.5-0.9 0-1.4 0.5-0.5 0.6-0.6 1.6 0 0.2 0 0.5 0 0.2 0 0.4 0.1 1 0.6 1.6 0.5 0.5 1.4 0.5 0.8 0 1.3-0.5 0.6-0.6 0.6-1.6 0-0.2 0-0.4 0-0.3 0-0.5z"/>
						<path id="&lt;Compound Path&gt;" class="s16" d="m54 141.9q0 0.3-0.3 0.3h-0.2q-0.2 0-0.2-0.3v-8q0-0.2 0.2-0.2h0.2q0.3 0 0.3 0.2z"/>
						<path id="&lt;Compound Path&gt;" fill-rule="evenodd" class="s16" d="m60 142.2q-0.2 0-0.2-0.3v-0.6q-0.1 0.2-0.3 0.4-0.2 0.2-0.4 0.3-0.3 0.1-0.6 0.2-0.4 0.1-0.9 0.1-0.4 0-0.8-0.1-0.4-0.2-0.7-0.4-0.3-0.3-0.4-0.6-0.2-0.3-0.2-0.7 0-0.4 0.2-0.7 0.1-0.3 0.5-0.6 0.3-0.2 0.7-0.4 0.4-0.2 1-0.2l1.9-0.3v-0.4q0-0.7-0.4-1-0.4-0.4-1.3-0.4-0.6 0-1 0.3-0.4 0.2-0.5 0.5 0 0.2-0.1 0.2 0 0.1-0.1 0.1h-0.2q-0.1 0-0.2-0.1-0.1-0.1-0.1-0.2 0-0.2 0.1-0.4 0.2-0.3 0.4-0.5 0.3-0.2 0.7-0.4 0.4-0.2 1-0.2 0.7 0 1.2 0.2 0.5 0.2 0.7 0.5 0.3 0.3 0.4 0.7 0.1 0.4 0.1 0.7v4q0 0.3-0.3 0.3zm-2.2-0.6q0.4 0 0.7-0.1 0.4-0.2 0.7-0.5 0.3-0.2 0.4-0.6 0.2-0.5 0.2-1v-0.4l-1.6 0.2q-2 0.3-2 1.2 0 0.3 0.2 0.6 0.1 0.2 0.3 0.3 0.2 0.2 0.5 0.2 0.3 0.1 0.6 0.1z"/>
						<path id="&lt;Compound Path&gt;" fill-rule="evenodd" class="s16" d="m65.2 135.8q0.7 0 1.1 0.3 0.5 0.2 0.8 0.6 0.3 0.5 0.5 1 0.1 0.5 0.1 1 0 0.4 0 0.7 0 0.5-0.1 1-0.2 0.6-0.5 1-0.3 0.4-0.8 0.6-0.4 0.3-1.1 0.3-0.8 0-1.3-0.3-0.5-0.2-0.8-0.7v0.6q0 0.3-0.2 0.3h-0.2q-0.3 0-0.3-0.3v-8q0-0.2 0.3-0.2h0.2q0.2 0 0.2 0.2v2.9q0.3-0.4 0.8-0.7 0.5-0.3 1.3-0.3zm-2.1 3.7q0.1 0.4 0.2 0.7 0.1 0.4 0.3 0.7 0.3 0.3 0.6 0.5 0.4 0.2 0.9 0.2 0.5 0 0.9-0.2 0.3-0.2 0.5-0.5 0.3-0.3 0.4-0.7 0.1-0.4 0.1-0.8 0-0.3 0-0.7 0-0.4-0.1-0.8-0.1-0.4-0.4-0.7-0.2-0.3-0.5-0.5-0.4-0.2-0.9-0.2-0.5 0-0.9 0.2-0.3 0.2-0.6 0.5-0.2 0.3-0.3 0.6-0.1 0.4-0.2 0.8 0 0.1 0 0.4 0 0.3 0 0.5z"/>
						<path id="&lt;Compound Path&gt;" fill-rule="evenodd" class="s16" d="m71.7 135.8q0.7 0 1.2 0.2 0.5 0.2 0.8 0.6 0.3 0.4 0.5 0.9 0.2 0.5 0.2 1.1 0 0 0 0.2 0 0.1 0 0.3 0 0.1 0 0.2 0 0.2 0 0.3 0 0.5-0.2 1-0.2 0.5-0.5 0.9-0.3 0.4-0.8 0.6-0.5 0.2-1.2 0.2-0.6 0-1.1-0.2-0.5-0.2-0.8-0.6-0.4-0.4-0.5-0.9-0.2-0.5-0.2-1 0-0.1 0-0.3 0-0.1 0-0.2 0-0.2 0-0.3 0-0.2 0-0.2 0-0.6 0.2-1.1 0.1-0.5 0.5-0.9 0.3-0.4 0.8-0.6 0.5-0.2 1.1-0.2zm2 2.8q-0.1-1-0.6-1.6-0.5-0.5-1.4-0.5-0.8 0-1.3 0.5-0.6 0.6-0.6 1.6 0 0.2 0 0.5 0 0.2 0 0.4 0 1 0.6 1.6 0.5 0.5 1.3 0.5 0.9 0 1.4-0.5 0.5-0.6 0.6-1.6 0-0.2 0-0.4 0-0.3 0-0.5z"/>
						<path id="&lt;Compound Path&gt;" class="s16" d="m78.4 135.9h0.5q0.2 0 0.2 0.3v0.2q0 0.2-0.2 0.2h-0.6q-0.7 0-1.1 0.5-0.4 0.4-0.4 1.1v3.7q0 0.1-0.1 0.2-0.1 0.1-0.2 0.1h-0.2q-0.2 0-0.2-0.3v-5.7q0-0.1 0-0.2 0.1-0.1 0.2-0.1h0.2q0.1 0 0.2 0.1 0.1 0.1 0.1 0.2v0.6q0.4-0.9 1.6-0.9z"/>
						<path id="&lt;Compound Path&gt;" class="s16" d="m81.1 134.4q0 0.1-0.1 0.2-0.1 0.1-0.2 0.1h-0.4q-0.3 0-0.3-0.3v-0.5q0-0.1 0.1-0.2 0 0 0.2 0h0.4q0.1 0 0.2 0 0.1 0.1 0.1 0.2zm-0.1 7.6q0 0.2-0.3 0.2h-0.2q-0.3 0-0.3-0.2v-5.8q0-0.2 0.3-0.2h0.2q0.3 0 0.3 0.2z"/>
						<path id="&lt;Compound Path&gt;" class="s16" d="m86.5 140.5q0-0.2-0.1-0.4-0.1-0.2-0.3-0.3-0.2-0.2-0.6-0.3-0.4-0.1-1-0.2-0.5-0.1-0.9-0.3-0.4-0.2-0.6-0.4-0.2-0.2-0.2-0.5-0.1-0.3-0.1-0.5 0-0.4 0.1-0.7 0.1-0.3 0.4-0.5 0.3-0.3 0.7-0.4 0.4-0.2 0.9-0.2 0.6 0 1 0.2 0.4 0.1 0.7 0.3 0.3 0.3 0.4 0.5 0.1 0.2 0.1 0.3 0 0.2 0 0.2-0.1 0.1-0.2 0.1h-0.2q-0.2 0-0.3-0.2-0.1-0.1-0.2-0.2-0.1-0.2-0.3-0.3-0.1-0.1-0.4-0.1-0.2-0.1-0.6-0.1-0.7 0-1 0.3-0.4 0.3-0.4 0.8 0 0.2 0.1 0.3 0.1 0.2 0.3 0.3 0.2 0.1 0.5 0.3 0.4 0.1 0.9 0.2 0.6 0.2 1 0.3 0.4 0.2 0.6 0.4 0.3 0.2 0.4 0.5 0.1 0.3 0.1 0.6 0 0.4-0.2 0.7-0.1 0.3-0.4 0.6-0.3 0.2-0.8 0.4-0.4 0.1-1 0.1-0.6 0-1.1-0.2-0.4-0.1-0.7-0.4-0.3-0.2-0.5-0.4-0.1-0.3-0.1-0.4 0-0.1 0.1-0.2 0.1 0 0.2 0h0.1q0.1 0 0.2 0 0 0 0.1 0.1 0.1 0.2 0.3 0.3 0.1 0.2 0.3 0.3 0.2 0.1 0.5 0.1 0.2 0.1 0.6 0.1 0.7 0 1.2-0.3 0.4-0.3 0.4-0.8z"/>
						<path id="&lt;Compound Path&gt;" class="s16" d="m97.1 141.9q0 0.3-0.3 0.3h-0.2q-0.2 0-0.2-0.3v-3.3q0-1-0.5-1.5-0.5-0.6-1.4-0.6-0.8 0-1.3 0.6-0.6 0.5-0.6 1.5v3.3q0 0.3-0.2 0.3h-0.2q-0.3 0-0.3-0.3v-5.7q0-0.3 0.3-0.3h0.2q0.2 0 0.2 0.3v0.6q0.4-0.5 0.8-0.7 0.5-0.3 1.3-0.3 0.6 0 1 0.2 0.5 0.2 0.8 0.6 0.3 0.3 0.4 0.8 0.2 0.5 0.2 1.1z"/>
						<path id="&lt;Compound Path&gt;" class="s16" d="m99.9 134.4q0 0.1-0.1 0.2-0.1 0.1-0.2 0.1h-0.5q-0.2 0-0.2-0.3v-0.5q0-0.1 0-0.2 0.1 0 0.2 0h0.5q0.1 0 0.2 0 0.1 0.1 0.1 0.2zm-0.2 7.6q0 0.2-0.2 0.2h-0.2q-0.3 0-0.3-0.2v-5.8q0-0.2 0.3-0.2h0.2q0.2 0 0.2 0.2z"/>
						<path id="&lt;Compound Path&gt;" class="s16" d="m105.3 140.5q0-0.2-0.1-0.4-0.1-0.2-0.3-0.3-0.3-0.2-0.7-0.3-0.4-0.1-0.9-0.2-0.6-0.1-1-0.3-0.3-0.2-0.5-0.4-0.2-0.2-0.3-0.5-0.1-0.3-0.1-0.5 0-0.4 0.2-0.7 0.1-0.3 0.4-0.5 0.2-0.3 0.6-0.4 0.4-0.2 1-0.2 0.6 0 1 0.2 0.4 0.1 0.7 0.3 0.2 0.3 0.4 0.5 0.1 0.2 0.1 0.3 0 0.2-0.1 0.2-0.1 0.1-0.2 0.1h-0.2q-0.1 0-0.2-0.2-0.1-0.1-0.2-0.2-0.1-0.2-0.3-0.3-0.2-0.1-0.4-0.1-0.3-0.1-0.6-0.1-0.7 0-1.1 0.3-0.3 0.3-0.3 0.8 0 0.2 0 0.3 0.1 0.2 0.3 0.3 0.2 0.1 0.6 0.3 0.3 0.1 0.9 0.2 0.6 0.2 1 0.3 0.4 0.2 0.6 0.4 0.2 0.2 0.3 0.5 0.1 0.3 0.1 0.6 0 0.4-0.1 0.7-0.2 0.3-0.5 0.6-0.3 0.2-0.7 0.4-0.5 0.1-1.1 0.1-0.6 0-1-0.2-0.5-0.1-0.8-0.4-0.3-0.2-0.4-0.4-0.1-0.3-0.1-0.4-0.1-0.1 0-0.2 0.1 0 0.2 0h0.2q0.1 0 0.1 0 0.1 0 0.2 0.1 0.1 0.2 0.2 0.3 0.2 0.2 0.4 0.3 0.2 0.1 0.4 0.1 0.3 0.1 0.6 0.1 0.8 0 1.2-0.3 0.5-0.3 0.5-0.8z"/>
						<path id="&lt;Compound Path&gt;" class="s16" d="m108.4 134.4q0 0.1 0 0.2-0.1 0.1-0.2 0.1h-0.5q-0.3 0-0.3-0.3v-0.5q0-0.1 0.1-0.2 0.1 0 0.2 0h0.5q0.1 0 0.2 0 0 0.1 0 0.2zm-0.1 7.6q0 0.2-0.3 0.2h-0.2q-0.2 0-0.2-0.2v-5.8q0-0.2 0.2-0.2h0.2q0.3 0 0.3 0.2z"/>
						<path id="&lt;Compound Path&gt;" class="s16" d="m113.3 136.2q0-0.3 0.2-0.3h0.2q0.3 0 0.3 0.3v3.3q0 2.1 1.8 2.1 0.9 0 1.4-0.5 0.5-0.6 0.5-1.6v-3.3q0-0.3 0.2-0.3h0.3q0.2 0 0.2 0.3v5.7q0 0.3-0.2 0.3h-0.3q-0.2 0-0.2-0.3v-0.6q-0.3 0.5-0.8 0.7-0.5 0.3-1.2 0.3-0.6 0-1.1-0.2-0.4-0.2-0.7-0.6-0.3-0.3-0.5-0.8-0.1-0.5-0.1-1.1z"/>
						<path id="&lt;Compound Path&gt;" class="s16" d="m121.6 140.1q0 0.7 0.2 1 0.2 0.4 0.7 0.4h0.7q0.2 0 0.2 0.2v0.2q0 0.3-0.2 0.3h-0.7q-0.5 0-0.8-0.2-0.3-0.1-0.5-0.4-0.2-0.3-0.3-0.6-0.1-0.4-0.1-0.8v-3.6h-0.9q-0.3 0-0.3-0.2v-0.2q0-0.3 0.3-0.3h0.9v-2q0-0.2 0.3-0.2h0.2q0.3 0 0.3 0.2v2h1.4q0.3 0 0.3 0.3v0.2q0 0.2-0.3 0.2h-1.4z"/>
						<path id="&lt;Compound Path&gt;" fill-rule="evenodd" class="s16" d="m131.8 142.2q-0.2 0-0.2-0.3v-0.6q-0.1 0.2-0.3 0.4-0.2 0.2-0.4 0.3-0.3 0.1-0.6 0.2-0.4 0.1-0.9 0.1-0.4 0-0.8-0.1-0.4-0.2-0.7-0.4-0.3-0.3-0.4-0.6-0.2-0.3-0.2-0.7 0-0.4 0.2-0.7 0.1-0.3 0.5-0.6 0.3-0.2 0.7-0.4 0.4-0.2 1-0.2l1.9-0.3v-0.4q0-0.7-0.4-1-0.4-0.4-1.3-0.4-0.6 0-1 0.3-0.4 0.2-0.5 0.5 0 0.2-0.1 0.2 0 0.1-0.2 0.1h-0.1q-0.1 0-0.2-0.1-0.1-0.1-0.1-0.2 0-0.2 0.1-0.4 0.2-0.3 0.4-0.5 0.3-0.2 0.7-0.4 0.4-0.2 1-0.2 0.7 0 1.2 0.2 0.5 0.2 0.7 0.5 0.3 0.3 0.4 0.7 0.1 0.4 0.1 0.7v4q0 0.3-0.3 0.3zm-2.2-0.6q0.4 0 0.7-0.1 0.4-0.2 0.7-0.5 0.3-0.2 0.4-0.6 0.2-0.5 0.2-1v-0.4l-1.6 0.2q-2 0.3-2 1.2 0 0.3 0.2 0.6 0.1 0.2 0.3 0.3 0.2 0.2 0.5 0.2 0.3 0.1 0.6 0.1z"/>
						<path id="&lt;Compound Path&gt;" class="s16" d="m134.9 141.9q0 0.3-0.2 0.3h-0.2q-0.3 0-0.3-0.3v-8q0-0.2 0.3-0.2h0.2q0.2 0 0.2 0.2z"/>
						<path id="&lt;Compound Path&gt;" class="s16" d="m137.8 134.4q0 0.1-0.1 0.2-0.1 0.1-0.2 0.1h-0.5q-0.2 0-0.2-0.3v-0.5q0-0.1 0-0.2 0.1 0 0.2 0h0.5q0.1 0 0.2 0 0.1 0.1 0.1 0.2zm-0.2 7.6q0 0.2-0.2 0.2h-0.2q-0.3 0-0.3-0.2v-5.8q0-0.2 0.3-0.2h0.2q0.2 0 0.2 0.2z"/>
						<path id="&lt;Compound Path&gt;" fill-rule="evenodd" class="s16" d="m141.8 142.3q-0.7 0-1.2-0.3-0.4-0.2-0.7-0.6-0.3-0.4-0.5-0.9-0.1-0.5-0.1-1 0-0.2 0-0.4 0-0.3 0-0.4 0-0.6 0.1-1.1 0.2-0.5 0.5-0.9 0.3-0.4 0.7-0.6 0.5-0.3 1.2-0.3 0.8 0 1.3 0.3 0.5 0.3 0.8 0.7v-0.6q0-0.3 0.2-0.3h0.2q0.3 0 0.3 0.3v8q0 0.3-0.3 0.3h-0.2q-0.2 0-0.2-0.3v-2.9q-0.3 0.4-0.8 0.7-0.5 0.3-1.3 0.3zm2.1-3.7q-0.1-0.3-0.2-0.7-0.1-0.4-0.3-0.7-0.3-0.3-0.6-0.5-0.4-0.2-0.9-0.2-0.5 0-0.9 0.2-0.3 0.2-0.5 0.5-0.3 0.3-0.4 0.7-0.1 0.4-0.1 0.8 0 0.4 0 0.7 0 0.4 0.1 0.8 0.1 0.4 0.4 0.7 0.2 0.3 0.5 0.5 0.4 0.2 0.9 0.2 0.5 0 0.9-0.2 0.3-0.2 0.6-0.5 0.2-0.2 0.3-0.6 0.1-0.4 0.2-0.7 0-0.2 0-0.5 0-0.3 0-0.5z"/>
						<path id="&lt;Compound Path&gt;" class="s16" d="m146.5 136.2q0-0.3 0.2-0.3h0.2q0.3 0 0.3 0.3v3.3q0 2.1 1.8 2.1 0.9 0 1.4-0.5 0.5-0.6 0.5-1.6v-3.3q0-0.3 0.2-0.3h0.3q0.2 0 0.2 0.3v5.7q0 0.3-0.2 0.3h-0.3q-0.2 0-0.2-0.3v-0.6q-0.3 0.5-0.8 0.7-0.5 0.3-1.2 0.3-0.6 0-1.1-0.2-0.4-0.2-0.7-0.6-0.3-0.3-0.5-0.8-0.1-0.5-0.1-1.1z"/>
						<path id="&lt;Compound Path&gt;" class="s16" d="m154.4 134.4q0 0.1-0.1 0.2 0 0.1-0.2 0.1h-0.4q-0.3 0-0.3-0.3v-0.5q0-0.1 0.1-0.2 0.1 0 0.2 0h0.4q0.2 0 0.2 0 0.1 0.1 0.1 0.2zm-0.1 7.6q0 0.2-0.3 0.2h-0.2q-0.2 0-0.2-0.2v-5.8q0-0.2 0.2-0.2h0.2q0.3 0 0.3 0.2z"/>
						<path id="&lt;Compound Path&gt;" fill-rule="evenodd" class="s16" d="m159 142.3q-0.8 0-1.2-0.3-0.5-0.3-0.8-0.7v2.9q0 0.3-0.3 0.3h-0.2q-0.3 0-0.3-0.3v-8q0-0.3 0.3-0.3h0.2q0.3 0 0.3 0.3v0.6q0.3-0.4 0.8-0.7 0.4-0.3 1.2-0.3 0.7 0 1.2 0.3 0.5 0.2 0.8 0.6 0.3 0.4 0.4 0.9 0.1 0.5 0.2 1.1 0 0.1 0 0.4 0 0.2 0 0.4-0.1 0.5-0.2 1-0.1 0.5-0.4 0.9-0.3 0.4-0.8 0.6-0.5 0.3-1.2 0.3zm-2-3.7q0 0.2 0 0.5 0 0.3 0 0.5 0 0.3 0.1 0.7 0.1 0.4 0.4 0.6 0.2 0.3 0.6 0.5 0.3 0.2 0.8 0.2 0.6 0 0.9-0.2 0.4-0.2 0.6-0.5 0.2-0.3 0.3-0.7 0.1-0.4 0.1-0.8 0-0.3 0-0.7 0-0.4-0.1-0.8-0.1-0.4-0.3-0.7-0.2-0.3-0.6-0.5-0.3-0.2-0.9-0.2-0.5 0-0.9 0.2-0.3 0.2-0.5 0.5-0.3 0.3-0.4 0.7-0.1 0.4-0.1 0.7z"/>
						<path id="&lt;Compound Path&gt;" fill-rule="evenodd" class="s16" d="m166 138.6q0-0.6 0.2-1.1 0.2-0.6 0.6-0.9 0.3-0.4 0.8-0.6 0.4-0.2 1-0.2 1.3 0 2 0.8 0.7 0.9 0.7 2.3v0.2q0 0.1-0.1 0.2-0.1 0.1-0.2 0.1h-4.3v0.1q0 0.4 0.2 0.8 0.1 0.4 0.4 0.6 0.2 0.3 0.5 0.5 0.4 0.2 0.8 0.2 0.4 0 0.7-0.1 0.3-0.1 0.5-0.2 0.2-0.1 0.3-0.3 0.1-0.1 0.2-0.2 0.1-0.1 0.2-0.2 0 0 0.1 0h0.2q0.1 0 0.2 0.1 0.1 0 0.1 0.1 0 0.2-0.2 0.5-0.2 0.2-0.5 0.4-0.3 0.3-0.8 0.4-0.4 0.2-1 0.2-0.6 0-1-0.2-0.5-0.2-0.8-0.6-0.4-0.3-0.6-0.8-0.2-0.6-0.2-1.2 0-0.1 0-0.4 0-0.3 0-0.5zm0.7 0.1h3.8v-0.1q0-0.4-0.1-0.8-0.1-0.4-0.4-0.7-0.2-0.3-0.6-0.4-0.3-0.2-0.8-0.2-0.4 0-0.8 0.2-0.3 0.1-0.6 0.4-0.2 0.3-0.4 0.7-0.1 0.4-0.1 0.8z"/>
						<path id="&lt;Compound Path&gt;" class="s16" d="m174.9 139.6l-1.9 2.4q-0.1 0.1-0.1 0.1-0.1 0.1-0.2 0.1h-0.3q0 0-0.1-0.1-0.1-0.1-0.1-0.2 0 0 0-0.1 0 0 0.1-0.1l2.1-2.7-2-2.6q0-0.1-0.1-0.1 0-0.1 0-0.1 0-0.1 0.1-0.2 0.1-0.1 0.2-0.1h0.2q0.1 0 0.2 0.1 0 0.1 0.1 0.1l1.8 2.3 1.8-2.3q0.1 0 0.1-0.1 0.1-0.1 0.2-0.1h0.2q0.1 0 0.2 0.1 0.1 0.1 0.1 0.2 0 0 0 0.1 0 0-0.1 0.1l-2 2.6 2.1 2.7q0 0.1 0.1 0.1 0 0.1 0 0.1 0 0.1-0.1 0.2-0.1 0.1-0.2 0.1h-0.2q-0.1 0-0.2-0.1-0.1 0-0.1-0.1z"/>
						<path id="&lt;Compound Path&gt;" fill-rule="evenodd" class="s16" d="m181.8 138.6q0-0.6 0.2-1.1 0.2-0.6 0.5-0.9 0.4-0.4 0.8-0.6 0.5-0.2 1.1-0.2 1.2 0 1.9 0.8 0.7 0.9 0.7 2.3v0.2q0 0.1 0 0.2-0.1 0.1-0.2 0.1h-4.3v0.1q0 0.4 0.1 0.8 0.2 0.4 0.4 0.6 0.3 0.3 0.6 0.5 0.4 0.2 0.8 0.2 0.4 0 0.7-0.1 0.2-0.1 0.5-0.2 0.2-0.1 0.3-0.3 0.1-0.1 0.2-0.2 0.1-0.1 0.1-0.2 0.1 0 0.2 0h0.2q0.1 0 0.2 0.1 0.1 0 0.1 0.1-0.1 0.2-0.2 0.5-0.2 0.2-0.5 0.4-0.3 0.3-0.8 0.4-0.4 0.2-1 0.2-0.6 0-1.1-0.2-0.4-0.2-0.8-0.6-0.3-0.3-0.5-0.8-0.2-0.6-0.2-1.2-0.1-0.1-0.1-0.4 0-0.3 0.1-0.5zm0.7 0.1h3.8v-0.1q0-0.4-0.1-0.8-0.2-0.4-0.4-0.7-0.2-0.3-0.6-0.4-0.4-0.2-0.8-0.2-0.5 0-0.8 0.2-0.4 0.1-0.6 0.4-0.3 0.3-0.4 0.7-0.1 0.4-0.1 0.8z"/>
						<path id="&lt;Compound Path&gt;" fill-rule="evenodd" class="s16" d="m192.7 142.2q-0.3 0-0.3-0.3v-0.6q-0.1 0.2-0.3 0.4-0.1 0.2-0.4 0.3-0.2 0.1-0.6 0.2-0.3 0.1-0.8 0.1-0.4 0-0.8-0.1-0.4-0.2-0.7-0.4-0.3-0.3-0.5-0.6-0.1-0.3-0.1-0.7 0-0.4 0.1-0.7 0.2-0.3 0.5-0.6 0.3-0.2 0.8-0.4 0.4-0.2 0.9-0.2l1.9-0.3v-0.4q0-0.7-0.4-1-0.4-0.4-1.2-0.4-0.7 0-1 0.3-0.4 0.2-0.5 0.5-0.1 0.2-0.1 0.2-0.1 0.1-0.2 0.1h-0.2q-0.1 0-0.1-0.1-0.1-0.1-0.1-0.2 0-0.2 0.1-0.4 0.1-0.3 0.4-0.5 0.3-0.2 0.7-0.4 0.4-0.2 1-0.2 0.7 0 1.2 0.2 0.4 0.2 0.7 0.5 0.3 0.3 0.4 0.7 0.1 0.4 0.1 0.7v4q0 0.3-0.3 0.3zm-2.3-0.6q0.4 0 0.8-0.1 0.4-0.2 0.6-0.5 0.3-0.2 0.5-0.6 0.1-0.5 0.1-1v-0.4l-1.5 0.2q-2 0.3-2 1.2 0 0.3 0.1 0.6 0.2 0.2 0.4 0.3 0.2 0.2 0.5 0.2 0.3 0.1 0.5 0.1z"/>
						<path id="&lt;Compound Path&gt;" class="s16" d="m53.7 153q0 0.2 0 0.5 0 0.2 0 0.4 0 1.1 0.6 1.6 0.5 0.5 1.3 0.5 0.7 0 1.1-0.3 0.4-0.2 0.7-0.9 0.1-0.2 0.1-0.2 0.1-0.1 0.2-0.1h0.2q0.1 0 0.1 0.1 0.1 0.1 0.1 0.2 0 0.3-0.1 0.6-0.2 0.4-0.5 0.7-0.3 0.2-0.8 0.4-0.4 0.2-1.1 0.2-1.2 0-1.9-0.7-0.7-0.8-0.7-2.1 0-0.1 0-0.4 0-0.3 0-0.5 0-1.3 0.7-2.1 0.7-0.7 1.9-0.7 0.7 0 1.1 0.2 0.5 0.2 0.8 0.4 0.3 0.3 0.5 0.7 0.1 0.3 0.1 0.6 0 0.1-0.1 0.2 0 0.1-0.1 0.1h-0.2q-0.1 0-0.2-0.1 0 0-0.1-0.2-0.3-0.6-0.7-0.9-0.4-0.3-1.1-0.3-0.8 0-1.3 0.5-0.6 0.5-0.6 1.6z"/>
						<path id="&lt;Compound Path&gt;" fill-rule="evenodd" class="s16" d="m62.1 150.2q0.6 0 1.1 0.2 0.5 0.2 0.8 0.6 0.4 0.4 0.5 0.9 0.2 0.5 0.2 1.1 0 0 0 0.2 0.1 0.1 0.1 0.3 0 0.1-0.1 0.2 0 0.2 0 0.3 0 0.5-0.2 1-0.1 0.5-0.5 0.9-0.3 0.4-0.8 0.6-0.5 0.2-1.1 0.2-0.7 0-1.2-0.2-0.5-0.2-0.8-0.6-0.3-0.4-0.5-0.9-0.2-0.5-0.2-1 0-0.1 0-0.3 0-0.1 0-0.2 0-0.2 0-0.3 0-0.2 0-0.2 0-0.6 0.2-1.1 0.2-0.5 0.5-0.9 0.3-0.4 0.8-0.6 0.5-0.2 1.2-0.2zm1.9 2.8q0-1-0.6-1.6-0.5-0.5-1.3-0.5-0.9 0-1.4 0.5-0.5 0.6-0.6 1.6 0 0.2 0 0.5 0 0.2 0 0.4 0.1 1 0.6 1.6 0.5 0.5 1.4 0.5 0.8 0 1.3-0.5 0.6-0.6 0.6-1.6 0-0.2 0-0.4 0-0.3 0-0.5z"/>
						<path id="&lt;Compound Path&gt;" class="s16" d="m67.1 151q0.3-0.4 0.7-0.6 0.4-0.2 1-0.2 0.7 0 1.2 0.3 0.5 0.3 0.8 0.8 0.2-0.5 0.8-0.8 0.5-0.3 1.2-0.3 0.5 0 0.9 0.2 0.4 0.2 0.7 0.5 0.3 0.3 0.5 0.8 0.1 0.5 0.1 1.1v3.5q0 0.3-0.2 0.3h-0.2q-0.3 0-0.3-0.3v-3.4q0-0.5-0.1-0.9-0.1-0.4-0.4-0.7-0.2-0.2-0.5-0.3-0.3-0.1-0.6-0.1-0.3 0-0.6 0.1-0.3 0.1-0.5 0.3-0.2 0.3-0.4 0.7-0.1 0.4-0.1 0.9v3.4q0 0.3-0.3 0.3h-0.2q-0.2 0-0.2-0.3v-3.4q0-0.5-0.2-0.9-0.1-0.4-0.4-0.7-0.2-0.2-0.5-0.3-0.3-0.1-0.6-0.1-0.3 0-0.5 0.1-0.3 0.1-0.6 0.3-0.2 0.3-0.3 0.7-0.2 0.3-0.2 0.9v3.4q0 0.3-0.2 0.3h-0.2q-0.3 0-0.3-0.3v-5.7q0-0.3 0.3-0.3h0.2q0.2 0 0.2 0.3z"/>
						<path id="&lt;Compound Path&gt;" class="s16" d="m77.7 151q0.3-0.4 0.7-0.6 0.4-0.2 1-0.2 0.7 0 1.1 0.3 0.5 0.3 0.8 0.8 0.3-0.5 0.8-0.8 0.5-0.3 1.2-0.3 0.5 0 0.9 0.2 0.4 0.2 0.7 0.5 0.3 0.3 0.5 0.8 0.2 0.5 0.2 1.1v3.5q0 0.3-0.3 0.3h-0.2q-0.2 0-0.2-0.3v-3.4q0-0.5-0.2-0.9-0.1-0.4-0.3-0.7-0.3-0.2-0.6-0.3-0.3-0.1-0.6-0.1-0.3 0-0.5 0.1-0.3 0.1-0.6 0.3-0.2 0.3-0.3 0.7-0.2 0.4-0.2 0.9v3.4q0 0.3-0.2 0.3h-0.2q-0.3 0-0.3-0.3v-3.4q0-0.5-0.2-0.9-0.1-0.4-0.3-0.7-0.3-0.2-0.5-0.3-0.3-0.1-0.6-0.1-0.3 0-0.6 0.1-0.3 0.1-0.5 0.3-0.2 0.3-0.4 0.7-0.1 0.3-0.1 0.9v3.4q0 0.3-0.3 0.3h-0.2q-0.3 0-0.3-0.3v-5.7q0-0.3 0.3-0.3h0.2q0.3 0 0.3 0.3z"/>
						<path id="&lt;Compound Path&gt;" fill-rule="evenodd" class="s16" d="m89.8 150.2q0.7 0 1.2 0.2 0.5 0.2 0.8 0.6 0.3 0.4 0.5 0.9 0.2 0.5 0.2 1.1 0 0 0 0.2 0 0.1 0 0.3 0 0.1 0 0.2 0 0.2 0 0.3 0 0.5-0.2 1-0.2 0.5-0.5 0.9-0.3 0.4-0.8 0.6-0.5 0.2-1.2 0.2-0.6 0-1.1-0.2-0.5-0.2-0.8-0.6-0.3-0.4-0.5-0.9-0.2-0.5-0.2-1 0-0.1 0-0.3 0-0.1 0-0.2 0-0.2 0-0.3 0-0.2 0-0.2 0-0.6 0.2-1.1 0.2-0.5 0.5-0.9 0.3-0.4 0.8-0.6 0.5-0.2 1.1-0.2zm2 2.8q-0.1-1-0.6-1.6-0.5-0.5-1.4-0.5-0.8 0-1.3 0.5-0.6 0.6-0.6 1.6 0 0.2 0 0.5 0 0.2 0 0.4 0 1 0.6 1.6 0.5 0.5 1.3 0.5 0.9 0 1.4-0.5 0.5-0.6 0.6-1.6 0-0.2 0-0.4 0-0.3 0-0.5z"/>
						<path id="&lt;Compound Path&gt;" fill-rule="evenodd" class="s16" d="m96.4 150.2q0.8 0 1.3 0.3 0.4 0.3 0.7 0.7v-2.9q0-0.2 0.3-0.2h0.2q0.3 0 0.3 0.2v8q0 0.3-0.3 0.3h-0.2q-0.3 0-0.3-0.3v-0.6q-0.3 0.5-0.7 0.7-0.5 0.3-1.3 0.3-0.7 0-1.2-0.3-0.4-0.2-0.7-0.6-0.3-0.4-0.5-1-0.1-0.5-0.1-1-0.1-0.3 0-0.7 0-0.5 0.1-1 0.2-0.5 0.5-1 0.3-0.4 0.7-0.6 0.5-0.3 1.2-0.3zm2 3.7q0-0.2 0-0.5 0-0.3 0-0.4 0-0.4-0.1-0.8-0.1-0.3-0.3-0.6-0.3-0.3-0.6-0.5-0.4-0.2-0.9-0.2-0.5 0-0.9 0.2-0.3 0.2-0.6 0.5-0.2 0.3-0.3 0.7-0.1 0.4-0.1 0.8 0 0.4 0 0.7 0 0.4 0.1 0.8 0.1 0.4 0.3 0.7 0.3 0.3 0.6 0.5 0.4 0.2 0.9 0.2 0.5 0 0.9-0.2 0.3-0.2 0.6-0.5 0.2-0.3 0.3-0.7 0.1-0.3 0.1-0.7z"/>
						<path id="&lt;Compound Path&gt;" fill-rule="evenodd" class="s16" d="m103.5 150.2q0.6 0 1.1 0.2 0.5 0.2 0.9 0.6 0.3 0.4 0.5 0.9 0.1 0.5 0.2 1.1 0 0 0 0.2 0 0.1 0 0.3 0 0.1 0 0.2 0 0.2 0 0.3-0.1 0.5-0.2 1-0.2 0.5-0.5 0.9-0.4 0.4-0.9 0.6-0.5 0.2-1.1 0.2-0.6 0-1.1-0.2-0.5-0.2-0.9-0.6-0.3-0.4-0.5-0.9-0.2-0.5-0.2-1 0-0.1 0-0.3 0-0.1 0-0.2 0-0.2 0-0.3 0-0.2 0-0.2 0-0.6 0.2-1.1 0.2-0.5 0.5-0.9 0.4-0.4 0.9-0.6 0.5-0.2 1.1-0.2zm1.9 2.8q0-1-0.5-1.6-0.6-0.5-1.4-0.5-0.8 0-1.4 0.5-0.5 0.6-0.5 1.6 0 0.2 0 0.5 0 0.2 0 0.4 0 1 0.5 1.6 0.6 0.5 1.4 0.5 0.8 0 1.4-0.5 0.5-0.6 0.5-1.6 0-0.2 0-0.4 0-0.3 0-0.5z"/>
						<path id="&lt;Compound Path&gt;" class="s16" d="m111.4 153q-0.1 0.2-0.1 0.5 0 0.2 0.1 0.4 0 1.1 0.5 1.6 0.6 0.5 1.4 0.5 0.6 0 1.1-0.3 0.4-0.2 0.6-0.9 0.1-0.2 0.2-0.2 0-0.1 0.1-0.1h0.2q0.1 0 0.2 0.1 0.1 0.1 0.1 0.2 0 0.3-0.2 0.6-0.1 0.4-0.5 0.7-0.3 0.2-0.7 0.4-0.5 0.2-1.1 0.2-1.3 0-2-0.7-0.6-0.8-0.7-2.1 0-0.1 0-0.4 0-0.3 0-0.5 0.1-1.3 0.7-2.1 0.7-0.7 2-0.7 0.6 0 1.1 0.2 0.4 0.2 0.7 0.4 0.4 0.3 0.5 0.7 0.2 0.3 0.2 0.6 0 0.1-0.1 0.2-0.1 0.1-0.2 0.1h-0.2q-0.1 0-0.1-0.1-0.1 0-0.2-0.2-0.2-0.6-0.6-0.9-0.5-0.3-1.1-0.3-0.8 0-1.4 0.5-0.5 0.5-0.5 1.6z"/>
						<path id="&lt;Compound Path&gt;" fill-rule="evenodd" class="s16" d="m119.7 150.2q0.7 0 1.2 0.2 0.5 0.2 0.8 0.6 0.3 0.4 0.5 0.9 0.2 0.5 0.2 1.1 0 0 0 0.2 0 0.1 0 0.3 0 0.1 0 0.2 0 0.2 0 0.3 0 0.5-0.2 1-0.2 0.5-0.5 0.9-0.3 0.4-0.8 0.6-0.5 0.2-1.2 0.2-0.6 0-1.1-0.2-0.5-0.2-0.8-0.6-0.4-0.4-0.5-0.9-0.2-0.5-0.2-1 0-0.1 0-0.3-0.1-0.1-0.1-0.2 0-0.2 0.1-0.3 0-0.2 0-0.2 0-0.6 0.2-1.1 0.1-0.5 0.5-0.9 0.3-0.4 0.8-0.6 0.5-0.2 1.1-0.2zm2 2.8q-0.1-1-0.6-1.6-0.5-0.5-1.4-0.5-0.8 0-1.3 0.5-0.6 0.6-0.6 1.6 0 0.2 0 0.5 0 0.2 0 0.4 0 1 0.6 1.6 0.5 0.5 1.3 0.5 0.9 0 1.4-0.5 0.5-0.6 0.6-1.6 0-0.2 0-0.4 0-0.3 0-0.5z"/>
						<path id="&lt;Compound Path&gt;" class="s16" d="m129.2 156.3q0 0.3-0.2 0.3h-0.2q-0.3 0-0.3-0.3v-3.3q0-1-0.5-1.5-0.4-0.6-1.3-0.6-0.9 0-1.4 0.6-0.5 0.5-0.5 1.5v3.3q0 0.3-0.3 0.3h-0.2q-0.3 0-0.3-0.3v-5.7q0-0.3 0.3-0.3h0.2q0.3 0 0.3 0.3v0.6q0.3-0.5 0.8-0.7 0.4-0.3 1.2-0.3 0.6 0 1.1 0.2 0.4 0.2 0.7 0.6 0.3 0.3 0.5 0.8 0.1 0.5 0.1 1.1z"/>
						<path id="&lt;Compound Path&gt;" class="s16" d="m134.8 154.9q0-0.2-0.1-0.4-0.1-0.2-0.4-0.3-0.2-0.2-0.6-0.3-0.4-0.1-1-0.2-0.5-0.1-0.9-0.3-0.4-0.2-0.6-0.4-0.2-0.2-0.2-0.5-0.1-0.3-0.1-0.5 0-0.4 0.1-0.7 0.2-0.3 0.4-0.5 0.3-0.3 0.7-0.4 0.4-0.2 0.9-0.2 0.6 0 1 0.2 0.5 0.1 0.7 0.3 0.3 0.3 0.4 0.5 0.1 0.2 0.2 0.3 0 0.2-0.1 0.2-0.1 0.1-0.2 0.1h-0.2q-0.2 0-0.3-0.2-0.1-0.1-0.2-0.2-0.1-0.2-0.2-0.3-0.2-0.1-0.4-0.1-0.3-0.1-0.7-0.1-0.7 0-1 0.3-0.4 0.3-0.4 0.8 0 0.2 0.1 0.3 0.1 0.2 0.3 0.3 0.2 0.1 0.5 0.3 0.4 0.1 1 0.2 0.5 0.2 0.9 0.3 0.4 0.2 0.7 0.4 0.2 0.2 0.3 0.5 0.1 0.3 0.1 0.6 0 0.4-0.2 0.7-0.1 0.3-0.4 0.6-0.3 0.2-0.8 0.4-0.4 0.1-1 0.1-0.6 0-1.1-0.2-0.4-0.1-0.7-0.4-0.3-0.2-0.4-0.4-0.2-0.3-0.2-0.4 0-0.1 0.1-0.2 0.1 0 0.2 0h0.2q0 0 0.1 0 0 0 0.1 0.1 0.1 0.2 0.3 0.3 0.1 0.2 0.3 0.3 0.2 0.1 0.5 0.1 0.2 0.1 0.6 0.1 0.7 0 1.2-0.3 0.5-0.3 0.5-0.8z"/>
						<path id="&lt;Compound Path&gt;" fill-rule="evenodd" class="s16" d="m136.7 153q0.1-0.6 0.3-1.1 0.2-0.6 0.5-0.9 0.3-0.4 0.8-0.6 0.5-0.2 1-0.2 1.3 0 2 0.8 0.7 0.9 0.7 2.3v0.2q0 0.1-0.1 0.2-0.1 0.1-0.2 0.1h-4.3v0.1q0.1 0.4 0.2 0.8 0.1 0.4 0.4 0.6 0.2 0.3 0.6 0.5 0.3 0.2 0.7 0.2 0.4 0 0.7-0.1 0.3-0.1 0.5-0.2 0.2-0.1 0.3-0.3 0.2-0.1 0.2-0.2 0.1-0.1 0.2-0.2 0 0 0.2 0h0.2q0.1 0 0.2 0.1 0 0 0 0.1 0 0.2-0.2 0.5-0.1 0.2-0.5 0.4-0.3 0.3-0.7 0.4-0.5 0.2-1.1 0.2-0.5 0-1-0.2-0.5-0.2-0.8-0.6-0.3-0.3-0.5-0.8-0.2-0.6-0.3-1.2 0-0.1 0-0.4 0-0.3 0-0.5zm0.7 0.1h3.9v-0.1q0-0.4-0.2-0.8-0.1-0.4-0.3-0.7-0.3-0.3-0.7-0.4-0.3-0.2-0.8-0.2-0.4 0-0.8 0.2-0.3 0.1-0.6 0.4-0.2 0.3-0.3 0.7-0.2 0.4-0.2 0.8z"/>
						<path id="&lt;Compound Path&gt;" fill-rule="evenodd" class="s16" d="m145.8 156.7q-0.7 0-1.1-0.3-0.5-0.2-0.8-0.6-0.3-0.4-0.5-0.9-0.1-0.5-0.1-1 0-0.2 0-0.4 0-0.3 0-0.4 0-0.6 0.1-1.1 0.2-0.5 0.5-0.9 0.3-0.4 0.8-0.6 0.4-0.3 1.1-0.3 0.8 0 1.3 0.3 0.5 0.3 0.8 0.7v-0.6q0-0.3 0.2-0.3h0.2q0.3 0 0.3 0.3v8q0 0.3-0.3 0.3h-0.2q-0.2 0-0.2-0.3v-2.9q-0.3 0.4-0.8 0.7-0.5 0.3-1.3 0.3zm2.1-3.7q0-0.3-0.2-0.7-0.1-0.4-0.3-0.7-0.2-0.3-0.6-0.5-0.4-0.2-0.9-0.2-0.5 0-0.9 0.2-0.3 0.2-0.5 0.5-0.3 0.3-0.4 0.7-0.1 0.4-0.1 0.8 0 0.4 0 0.7 0 0.4 0.1 0.8 0.1 0.4 0.4 0.7 0.2 0.3 0.5 0.5 0.4 0.2 0.9 0.2 0.5 0 0.9-0.2 0.3-0.2 0.6-0.5 0.2-0.2 0.3-0.6 0.2-0.4 0.2-0.7 0-0.2 0-0.5 0-0.3 0-0.5z"/>
						<path id="&lt;Compound Path&gt;" class="s16" d="m150.5 150.6q0-0.3 0.3-0.3h0.2q0.2 0 0.2 0.3v3.3q0 2.1 1.8 2.1 0.9 0 1.4-0.5 0.5-0.6 0.5-1.6v-3.3q0-0.3 0.3-0.3h0.2q0.2 0 0.2 0.3v5.7q0 0.3-0.2 0.3h-0.2q-0.3 0-0.3-0.3v-0.6q-0.3 0.5-0.8 0.7-0.4 0.3-1.2 0.3-0.6 0-1.1-0.2-0.4-0.2-0.7-0.6-0.3-0.3-0.5-0.8-0.1-0.5-0.1-1.1z"/>
						<path id="&lt;Compound Path&gt;" fill-rule="evenodd" class="s16" d="m161.6 156.6q-0.2 0-0.2-0.3v-0.6q-0.1 0.2-0.3 0.4-0.2 0.2-0.4 0.3-0.3 0.1-0.6 0.2-0.4 0.1-0.8 0.1-0.5 0-0.9-0.1-0.4-0.2-0.7-0.4-0.2-0.3-0.4-0.6-0.2-0.3-0.2-0.7 0-0.4 0.2-0.7 0.2-0.3 0.5-0.6 0.3-0.2 0.7-0.4 0.5-0.2 1-0.2l1.9-0.3v-0.4q0-0.7-0.4-1-0.4-0.4-1.3-0.4-0.6 0-1 0.3-0.4 0.2-0.5 0.5 0 0.2-0.1 0.2 0 0.1-0.1 0.1h-0.2q-0.1 0-0.2-0.1-0.1-0.1-0.1-0.2 0-0.2 0.1-0.4 0.2-0.3 0.4-0.5 0.3-0.2 0.7-0.4 0.4-0.2 1-0.2 0.8 0 1.2 0.2 0.5 0.2 0.7 0.5 0.3 0.3 0.4 0.7 0.1 0.4 0.1 0.7v4q0 0.3-0.3 0.3zm-2.2-0.6q0.4 0 0.7-0.1 0.4-0.2 0.7-0.5 0.3-0.2 0.4-0.6 0.2-0.5 0.2-1v-0.4l-1.6 0.2q-2 0.3-2 1.2 0 0.3 0.2 0.6 0.1 0.2 0.3 0.3 0.2 0.2 0.5 0.2 0.3 0.1 0.6 0.1z"/>
						<path id="&lt;Compound Path&gt;" class="s16" d="m165.1 154.5q0 0.7 0.3 1 0.2 0.4 0.7 0.4h0.7q0.2 0 0.2 0.2v0.2q0 0.3-0.2 0.3h-0.8q-0.4 0-0.7-0.2-0.4-0.1-0.5-0.4-0.2-0.3-0.3-0.6-0.1-0.4-0.1-0.8v-3.6h-0.9q-0.3 0-0.3-0.2v-0.2q0-0.3 0.3-0.3h0.9v-2q0-0.2 0.3-0.2h0.2q0.2 0 0.2 0.2v2h1.5q0.3 0 0.3 0.3v0.2q0 0.2-0.3 0.2h-1.5z"/>
						<path id="&lt;Compound Path&gt;" class="s16" d="m169.3 156.3q0 0.1-0.1 0.2-0.1 0.1-0.2 0.1h-0.6q-0.2 0-0.2-0.3v-0.6q0-0.1 0-0.2 0.1 0 0.2 0h0.6q0.1 0 0.2 0 0.1 0.1 0.1 0.2z"/>
					</g>
					<g id="&lt;Group&gt;">
						<path id="&lt;Path&gt;" class="s16" d="m201.9 235.3h-138.3c-5.8 0-10.6-4.7-10.6-10.5v-32.4c0-5.8 4.8-10.5 10.6-10.5h138.3c5.8 0 10.5 4.7 10.5 10.5v32.4c0 5.8-4.7 10.5-10.5 10.5z"/>
						<g id="&lt;Group&gt;">
							<path id="&lt;Compound Path&gt;" fill-rule="evenodd" class="s45" d="m70.5 200.6q2.6 0 4.2 1.2 1.6 1.3 1.6 3.9 0 2-1 3.2-1 1.2-2.8 1.6l4 6.9q0.1 0.1 0.1 0.3 0 0.2-0.2 0.3-0.1 0.2-0.3 0.2h-0.3q-0.4 0-0.6-0.2-0.2-0.2-0.4-0.5l-4-6.8h-5.1v6.9q0 0.6-0.6 0.6h-0.5q-0.5 0-0.5-0.6v-16.4q0-0.6 0.5-0.6zm-4.8 8.6h4.7q4.3 0 4.3-3.5 0-3.6-4.3-3.6h-4.7z"/>
							<path id="&lt;Compound Path&gt;" class="s45" d="m91.3 216.7q0.6 0 0.6 0.5v0.4q0 0.6-0.6 0.6h-10q-0.5 0-0.5-0.6v-16.4q0-0.6 0.5-0.6h9.8q0.6 0 0.6 0.6v0.3q0 0.6-0.6 0.6h-8.7v6.4h8.2q0.6 0 0.6 0.6v0.4q0 0.5-0.6 0.5h-8.2v6.7z"/>
							<path id="&lt;Compound Path&gt;" fill-rule="evenodd" class="s45" d="m106.6 213.8h-8.9l-1.6 4q0 0.1-0.2 0.2-0.1 0.2-0.4 0.2h-0.5q-0.2 0-0.3-0.2-0.2-0.1-0.2-0.3 0-0.2 0.1-0.3l6.3-16.3q0.1-0.3 0.3-0.4 0.2-0.1 0.5-0.1h0.8q0.3 0 0.5 0.1 0.2 0.1 0.3 0.4l6.3 16.3q0.1 0.1 0.1 0.3 0 0.2-0.2 0.3-0.1 0.2-0.3 0.2h-0.5q-0.3 0-0.4-0.2-0.1-0.1-0.2-0.2zm-8.3-1.5h7.7l-3.8-9.9z"/>
							<path id="&lt;Compound Path&gt;" fill-rule="evenodd" class="s45" d="m119.2 200.6q2 0 3.3 0.4 1.3 0.5 2.1 1.3 0.8 0.9 1.2 2.2 0.3 1.2 0.4 2.9 0 1.1 0 2 0 0.8 0 2-0.1 1.7-0.4 3-0.4 1.3-1.2 2.1-0.8 0.8-2.1 1.3-1.3 0.4-3.2 0.4h-5.5q-0.5 0-0.5-0.6v-16.4q0-0.6 0.5-0.6zm5.4 6.9q0-1.4-0.3-2.4-0.3-1-1-1.7-0.6-0.7-1.7-1-1-0.3-2.5-0.3h-4.2v14.6h4.3q1.5 0 2.5-0.3 1.1-0.3 1.7-1 0.6-0.6 0.9-1.6 0.3-1.1 0.3-2.6 0-0.5 0-1 0-0.4 0-0.8 0-0.4 0-0.9 0-0.4 0-1z"/>
							<path id="&lt;Compound Path&gt;" class="s45" d="m145.2 214q-0.6 0-0.8-0.5l-4.8-9.5v13.6q0 0.6-0.6 0.6h-0.4q-0.6 0-0.6-0.6v-16.4q0-0.6 0.6-0.6h0.6q0.3 0 0.4 0.1 0.1 0.1 0.2 0.2l5.7 11.1 5.7-11.1q0-0.1 0.2-0.2 0.1-0.1 0.3-0.1h0.6q0.6 0 0.6 0.6v16.4q0 0.6-0.6 0.6h-0.4q-0.6 0-0.6-0.6v-13.6l-4.8 9.5q-0.2 0.5-0.8 0.5z"/>
							<path id="&lt;Compound Path&gt;" fill-rule="evenodd" class="s45" d="m164.2 200.3q1.5 0 2.7 0.5 1.2 0.4 2 1.3 0.9 0.8 1.4 2.1 0.5 1.3 0.5 3.1 0.1 1.1 0.1 2.1 0 1-0.1 2.1-0.1 3.6-1.8 5.2-1.7 1.7-4.8 1.7-3.1 0-4.8-1.7-1.7-1.6-1.8-5.2-0.1-1.1-0.1-2.1 0-1 0.1-2.1 0-1.8 0.5-3.1 0.5-1.3 1.4-2.1 0.8-0.9 2-1.3 1.2-0.5 2.7-0.5zm0 1.5q-1 0-2 0.4-0.9 0.3-1.5 0.9-0.7 0.7-1.1 1.8-0.4 1-0.4 2.5-0.1 0.6-0.1 1.1 0 0.4 0 0.9 0 0.4 0 0.9 0 0.5 0.1 1.1 0 1.4 0.4 2.5 0.4 1 1 1.7 0.7 0.7 1.6 1 0.9 0.3 2 0.3 1.1 0 2-0.3 0.9-0.3 1.6-1 0.6-0.7 1-1.7 0.4-1.1 0.5-2.5 0-0.6 0-1.1 0-0.5 0-0.9 0-0.5 0-0.9 0-0.5 0-1.1-0.1-1.5-0.5-2.5-0.4-1.1-1.1-1.8-0.6-0.6-1.5-0.9-0.9-0.4-2-0.4z"/>
							<path id="&lt;Compound Path&gt;" fill-rule="evenodd" class="s45" d="m181.9 200.6q2.7 0 4.2 1.2 1.6 1.3 1.6 3.9 0 2-1 3.2-1 1.2-2.8 1.6l4.1 6.9q0 0.1 0 0.3 0 0.2-0.1 0.3-0.2 0.2-0.4 0.2h-0.3q-0.4 0-0.6-0.2-0.2-0.2-0.3-0.5l-4-6.8h-5.2v6.9q0 0.6-0.6 0.6h-0.4q-0.6 0-0.6-0.6v-16.4q0-0.6 0.6-0.6zm-4.9 8.6h4.7q4.4 0 4.4-3.5 0-3.6-4.4-3.6h-4.7z"/>
							<path id="&lt;Compound Path&gt;" class="s45" d="m202.8 216.7q0.6 0 0.6 0.5v0.4q0 0.6-0.6 0.6h-10q-0.6 0-0.6-0.6v-16.4q0-0.6 0.6-0.6h9.8q0.6 0 0.6 0.6v0.3q0 0.6-0.6 0.6h-8.8v6.4h8.2q0.6 0 0.6 0.6v0.4q0 0.5-0.6 0.5h-8.2v6.7z"/>
						</g>
					</g>
				</g>
				<path id="&lt;Path&gt;" class="s46" d="m-0.7 0.7v300h900v-300z"/>
			</g>
		</g>
	</g>
</svg>