<svg version="1.2" xmlns="http://www.w3.org/2000/svg" viewBox="0 0 900 300" width="1800" height="600">
	<title>20682-ai</title>
	<defs>
		<linearGradient id="g1" x1="524.3" y1="517.2" x2="169.4" y2="-97.5" gradientUnits="userSpaceOnUse">
			<stop offset="0" stop-color="#213860"/>
			<stop offset=".995" stop-color="#c36968"/>
		</linearGradient>
	</defs>
	<style>
		.s0 { fill: #febf53 } 
		.s1 { opacity: .5;fill: #3d4137 } 
		.s2 { opacity: .3;mix-blend-mode: multiply;fill: #7a665a } 
		.s3 { opacity: .6;mix-blend-mode: multiply;fill: #dcddde } 
		.s4 { fill: #285578 } 
		.s5 { fill: #f2f2f2 } 
		.s6 { fill: #554b50 } 
		.s7 { opacity: .5;mix-blend-mode: multiply;fill: #dcddde } 
		.s8 { fill: #dcddde } 
		.s9 { opacity: .3;fill: #383838 } 
		.s10 { opacity: .4;fill: #383838 } 
		.s11 { opacity: .3;fill: #554b50 } 
		.s12 { fill: #cbbbaf } 
		.s13 { fill: #687278 } 
		.s14 { fill: #c42e27 } 
		.s15 { fill: #e4e4e4 } 
		.s16 { opacity: .1;mix-blend-mode: multiply;fill: #7a665a } 
		.s17 { fill: #ffffff } 
		.s18 { opacity: .5;fill: #f3feff } 
		.s19 { opacity: .7;fill: #ffffff } 
		.s20 { opacity: .4;mix-blend-mode: multiply;fill: #a59a95 } 
		.s21 { fill: #d2d2d2 } 
		.s22 { fill: #2f638f } 
		.s23 { fill: #423a3e } 
		.s24 { fill: #004277 } 
		.s25 { fill: #493737 } 
		.s26 { fill: #f4beab } 
		.s27 { fill: #005594 } 
		.s28 { fill: #f4cfc1 } 
		.s29 { fill: #f0f0f1 } 
		.s30 { fill: #271f23 } 
		.s31 { fill: #3c3438 } 
		.s32 { fill: #95a9c1 } 
		.s33 { fill: #a5b9d6 } 
		.s34 { fill: #566e8c } 
		.s35 { fill: #cccccc } 
		.s36 { fill: #726f65 } 
		.s37 { fill: #f9d8cd } 
		.s38 { fill: #7a6351 } 
		.s39 { fill: #b39379 } 
		.s40 { fill: #e3b998 } 
		.s41 { fill: #f8971e } 
		.s42 { mix-blend-mode: overlay;fill: url(#g1) } 
	</style>
	<g id="_Artboards_">
	</g>
	<g id="Layer 1">
		<g id="&lt;Group&gt;">
			<g id="&lt;Group&gt;">
				<g id="&lt;Group&gt;">
					<path id="&lt;Path&gt;" class="s0" d="m899.3 300.7h-900v-300h900z"/>
					<path id="&lt;Path&gt;" class="s1" d="m899.3 227.4h-900v73.3h900z"/>
					<path id="&lt;Path&gt;" class="s2" d="m899.3 227.4h-900v-8.6h900z"/>
				</g>
				<g id="&lt;Group&gt;">
					<g id="&lt;Group&gt;">
						<g id="&lt;Group&gt;">
							<path id="&lt;Path&gt;" class="s3" d="m266.3 62.2c0 14-11.4 25.4-25.3 25.4-14 0-25.4-11.4-25.4-25.4 0-13.9 11.4-25.3 25.4-25.3 13.9 0 25.3 11.4 25.3 25.3z"/>
							<path id="&lt;Path&gt;" class="s4" d="m262.1 60c0 13.4-10.9 24.3-24.3 24.3-13.4 0-24.3-10.9-24.3-24.3 0-13.4 10.9-24.3 24.3-24.3 13.4 0 24.3 10.9 24.3 24.3z"/>
							<path id="&lt;Compound Path&gt;" fill-rule="evenodd" class="s5" d="m237.8 85.4c-14 0-25.4-11.4-25.4-25.4 0-14 11.4-25.4 25.4-25.4 14 0 25.4 11.4 25.4 25.4 0 14-11.4 25.4-25.4 25.4zm0-47.8c-12.4 0-22.5 10-22.5 22.4 0 12.4 10.1 22.5 22.5 22.5 12.4 0 22.5-10.1 22.5-22.5 0-12.4-10.1-22.4-22.5-22.4z"/>
							<path id="&lt;Path&gt;" class="s5" d="m249.3 71.3q-0.3 0-0.5-0.2l-11.5-10.5c-0.3-0.3-0.3-0.8 0-1.1 0.2-0.3 0.7-0.3 1 0l11.5 10.6c0.3 0.2 0.3 0.7 0 1q-0.2 0.2-0.5 0.2z"/>
							<path id="&lt;Path&gt;" class="s5" d="m237.8 60.7q-0.1 0-0.2 0l-9.6-2.3c-0.4-0.1-0.7-0.5-0.6-0.9 0.1-0.4 0.5-0.6 0.9-0.5l9.7 2.3c0.4 0.1 0.6 0.5 0.5 0.9-0.1 0.3-0.4 0.5-0.7 0.5z"/>
							<path id="&lt;Path&gt;" class="s5" d="m239.9 60c0 1.2-0.9 2.1-2.1 2.1-1.2 0-2.1-0.9-2.1-2.1 0-1.2 0.9-2.1 2.1-2.1 1.2 0 2.1 0.9 2.1 2.1z"/>
						</g>
						<g id="&lt;Group&gt;">
							<g id="&lt;Group&gt;" style="opacity: .3;mix-blend-mode: multiply">
								<path id="&lt;Path&gt;" class="s6" d="m412.9 115.3l-41.1 0.1v-56.7l41-0.1z"/>
							</g>
							<g id="&lt;Group&gt;">
								<path id="&lt;Path&gt;" class="s6" d="m412.3 114.6l-41 0.1-0.1-56.8h41.1z"/>
							</g>
							<path id="&lt;Path&gt;" class="s3" d="m392.2 122.3h-34.8v-46.8h34.8z"/>
							<path id="&lt;Path&gt;" class="s7" d="m330.5 122.6h-39.2v-52.7h39.2z"/>
							<path id="&lt;Path&gt;" class="s8" d="m391.5 121.5h-34.8v-46.9h34.8z"/>
							<path id="&lt;Path&gt;" class="s8" d="m329.6 121.4h-39.1v-52.7h39.1z"/>
							<g id="&lt;Group&gt;">
								<path id="&lt;Path&gt;" class="s9" d="m386.6 84.1h-24.7v-0.8h24.7z"/>
								<path id="&lt;Path&gt;" class="s9" d="m386.6 86.2h-24.7v-0.7h24.7z"/>
								<path id="&lt;Path&gt;" class="s9" d="m386.6 88.3h-24.7v-0.7h24.7z"/>
								<path id="&lt;Path&gt;" class="s9" d="m386.6 90.4h-24.7v-0.7h24.7z"/>
								<path id="&lt;Path&gt;" class="s9" d="m386.6 92.6h-24.7v-0.8h24.7z"/>
								<path id="&lt;Path&gt;" class="s9" d="m386.6 94.7h-24.7v-0.7h24.7z"/>
							</g>
							<path id="&lt;Path&gt;" class="s10" d="m386.6 81.3h-24.8v-3.2h24.8z"/>
							<path id="&lt;Path&gt;" class="s5" d="m326.6 96h-32.5v-24h32.5z"/>
							<path id="&lt;Path&gt;" class="s5" d="m326.6 97.5h-32.5v2.6h32.5z"/>
							<path id="&lt;Path&gt;" class="s5" d="m301.1 106.5c0 1.6-1.4 3-3 3-1.7 0-3.1-1.4-3.1-3 0-1.7 1.4-3.1 3.1-3.1 1.6 0 3 1.4 3 3.1z"/>
							<path id="&lt;Path&gt;" class="s5" d="m309.1 106.5c0 1.6-1.4 3-3 3-1.7 0-3.1-1.4-3.1-3 0-1.7 1.4-3.1 3.1-3.1 1.6 0 3 1.4 3 3.1z"/>
							<path id="&lt;Path&gt;" class="s5" d="m317.1 106.5c0 1.6-1.3 3-3 3-1.7 0-3.1-1.4-3.1-3 0-1.7 1.4-3.1 3.1-3.1 1.7 0 3 1.4 3 3.1z"/>
							<path id="&lt;Path&gt;" class="s5" d="m325.1 106.5c0 1.6-1.3 3-3 3-1.7 0-3.1-1.4-3.1-3 0-1.7 1.4-3.1 3.1-3.1 1.7 0 3 1.4 3 3.1z"/>
							<path id="&lt;Path&gt;" class="s11" d="m326.6 74.1h-32.5v-2.1h32.5z"/>
							<path id="&lt;Path&gt;" class="s11" d="m326.6 96.3h-32.5v-2.1h32.5z"/>
						</g>
						<g id="&lt;Group&gt;">
							<path id="&lt;Path&gt;" class="s12" d="m172.2 227.4h-96.9v-211.4h96.9z"/>
							<path id="&lt;Path&gt;" class="s13" d="m149.9 79.7h-51.4c-2.6 0-4.7-2.1-4.7-4.7v-6.6c0-2.6 2.1-4.7 4.7-4.7h51.4c2.6 0 4.7 2.1 4.7 4.7v6.6c0 2.6-2.1 4.7-4.7 4.7z"/>
							<path id="&lt;Path&gt;" class="s14" d="m149.4 78.6h-52.3c-2.3 0-4.2-1.9-4.2-4.2v-7.1c0-2.3 1.9-4.2 4.2-4.2h52.3c2.3 0 4.3 1.9 4.3 4.2v7.1c0 2.3-2 4.2-4.3 4.2z"/>
							<path id="&lt;Path&gt;" class="s15" d="m95.6 65.1c0 0.3-0.2 0.6-0.5 0.6-0.3 0-0.5-0.3-0.5-0.6 0-0.3 0.2-0.5 0.5-0.5 0.3 0 0.5 0.2 0.5 0.5z"/>
							<path id="&lt;Path&gt;" class="s15" d="m95.6 76.5c0 0.3-0.2 0.5-0.5 0.5-0.3 0-0.5-0.2-0.5-0.5 0-0.3 0.2-0.5 0.5-0.5 0.3 0 0.5 0.2 0.5 0.5z"/>
							<path id="&lt;Path&gt;" class="s15" d="m151.5 65.1c0 0.3-0.3 0.6-0.5 0.6-0.3 0-0.6-0.3-0.6-0.6 0-0.3 0.3-0.5 0.6-0.5 0.2 0 0.5 0.2 0.5 0.5z"/>
							<path id="&lt;Path&gt;" class="s15" d="m151.5 76.5c0 0.3-0.3 0.5-0.5 0.5-0.3 0-0.6-0.2-0.6-0.5 0-0.3 0.3-0.5 0.6-0.5 0.2 0 0.5 0.2 0.5 0.5z"/>
							<g id="&lt;Group&gt;">
								<path id="&lt;Path&gt;" class="s16" d="m156 130.6h-0.1c-2 0-3.5-1.6-3.5-3.5v-22.6c0-1.9 1.5-3.4 3.5-3.4h0.1c1.9 0 3.5 1.5 3.5 3.4v22.6c0 1.9-1.6 3.5-3.5 3.5z"/>
								<path id="&lt;Path&gt;" class="s17" d="m155.3 130.3h-0.1c-1.9 0-3.5-1.6-3.5-3.5v-22.6c0-1.9 1.6-3.5 3.5-3.5h0.1c1.9 0 3.5 1.6 3.5 3.5v22.6c0 1.9-1.6 3.5-3.5 3.5z"/>
								<path id="&lt;Path&gt;" class="s6" d="m142.4 113.8v0.4c0 0.7 0.6 1.8 2.4 0.7 3.2-1.8 7.4-0.1 9.9 0.5 1.6 0.4 2.1-0.4 2.1-1.4 0.1-0.7 0.1-1.5-2-1.5h-11c-0.8 0-1.4 0.6-1.4 1.3z"/>
								<path id="&lt;Path&gt;" class="s6" d="m156.3 123.1c0 0.6-0.4 1-0.9 1-0.6 0-1-0.4-1-1 0-0.5 0.4-0.9 1-0.9 0.5 0 0.9 0.4 0.9 0.9z"/>
								<path id="&lt;Path&gt;" class="s6" d="m155.3 125.5c-0.3 0-0.6-0.3-0.6-0.6v-1.2c0-0.3 0.3-0.6 0.6-0.6 0.4 0 0.6 0.3 0.6 0.6v1.2c0 0.3-0.2 0.6-0.6 0.6z"/>
							</g>
							<g id="&lt;Group&gt;">
								<path id="&lt;Compound Path&gt;" class="s17" d="m100.9 69.1h-2.6q-0.1 0-0.1-0.1-0.1 0-0.1-0.1v-0.6q0 0 0.1-0.1 0-0.1 0.1-0.1h3.4q0.1 0 0.2 0.1 0 0.1 0 0.1v3.4q0 1-0.5 1.5-0.6 0.5-1.6 0.5-0.6 0-1-0.1-0.4-0.2-0.7-0.4-0.2-0.2-0.4-0.6-0.1-0.3-0.1-0.6 0-0.1 0-0.2 0.1 0 0.2 0h0.6q0.1 0 0.2 0 0 0 0 0.1 0.1 0.2 0.2 0.3 0 0.2 0.2 0.3 0.1 0.1 0.3 0.2 0.2 0 0.5 0 0.5 0 0.8-0.3 0.3-0.2 0.3-0.8z"/>
								<path id="&lt;Compound Path&gt;" fill-rule="evenodd" class="s17" d="m104.9 69.5q0.4 0 0.7 0.1 0.4 0.1 0.6 0.4 0.3 0.2 0.5 0.5 0.1 0.3 0.1 0.7 0 0.1 0 0.2 0 0.1 0 0.2 0 0.1 0 0.2 0 0.1 0 0.2 0 0.3-0.2 0.7-0.1 0.3-0.4 0.5-0.2 0.2-0.6 0.4-0.3 0.1-0.7 0.1-0.5 0-0.8-0.1-0.4-0.2-0.6-0.4-0.3-0.2-0.4-0.5-0.2-0.4-0.2-0.7 0-0.1 0-0.2 0-0.1 0-0.2 0-0.1 0-0.2 0-0.1 0-0.2 0-0.4 0.2-0.7 0.1-0.3 0.4-0.5 0.2-0.3 0.6-0.4 0.3-0.1 0.8-0.1zm0.9 1.7q0-0.2-0.1-0.4-0.1-0.1-0.2-0.2-0.2-0.1-0.3-0.2-0.2 0-0.3 0-0.2 0-0.4 0-0.1 0.1-0.3 0.2-0.1 0.1-0.2 0.2-0.1 0.2-0.1 0.4 0 0.1 0 0.2 0 0.1 0 0.2 0 0.1 0 0.2 0 0.1 0 0.1 0 0.3 0.1 0.4 0.1 0.2 0.2 0.3 0.2 0.1 0.3 0.1 0.2 0.1 0.4 0.1 0.1 0 0.3-0.1 0.1 0 0.3-0.1 0.1-0.1 0.2-0.3 0.1-0.1 0.1-0.4 0 0 0-0.1 0-0.1 0-0.2 0-0.1 0-0.2 0-0.1 0-0.2z"/>
								<path id="&lt;Compound Path&gt;" fill-rule="evenodd" class="s17" d="m109.9 69.5q0.4 0 0.7 0.1 0.4 0.2 0.6 0.4 0.2 0.3 0.3 0.6 0.2 0.3 0.2 0.7 0 0.1 0 0.3 0 0.1 0 0.3 0 0.3-0.2 0.7-0.1 0.3-0.3 0.5-0.2 0.3-0.6 0.4-0.3 0.2-0.7 0.2-0.2 0-0.4 0-0.2-0.1-0.3-0.2-0.2 0-0.3-0.1-0.1-0.1-0.1-0.2v0.2q0 0.1-0.1 0.2-0.1 0-0.2 0h-0.6q0 0-0.1 0-0.1-0.1-0.1-0.2v-5.1q0-0.1 0.1-0.2 0.1-0.1 0.1-0.1h0.6q0.1 0 0.2 0.1 0.1 0.1 0.1 0.2v1.6q0 0 0.1-0.1 0.1-0.1 0.3-0.2 0.1 0 0.3-0.1 0.2 0 0.4 0zm0.8 1.9q-0.1-0.5-0.3-0.8-0.3-0.2-0.7-0.2-0.4 0-0.6 0.2-0.3 0.3-0.3 0.7-0.1 0.1-0.1 0.3 0 0.2 0.1 0.3 0 0.4 0.3 0.6 0.2 0.3 0.6 0.3 0.4 0 0.7-0.3 0.2-0.2 0.3-0.7 0-0.2 0-0.4z"/>
								<path id="&lt;Compound Path&gt;" class="s17" d="m114.7 73.6q-0.1 0-0.2 0 0-0.1 0-0.2v-5.1q0 0 0-0.1 0.1-0.1 0.2-0.1h0.6q0.1 0 0.1 0.1 0.1 0.1 0.1 0.1v5.1q0 0.1-0.1 0.2 0 0-0.1 0z"/>
								<path id="&lt;Compound Path&gt;" class="s17" d="m120.5 73.4q0 0.1-0.1 0.2 0 0-0.1 0h-0.6q-0.1 0-0.2 0 0-0.1 0-0.2v-2q0-0.5-0.2-0.7-0.3-0.3-0.7-0.3-0.4 0-0.7 0.3-0.2 0.2-0.2 0.7v2q0 0.1-0.1 0.2 0 0-0.1 0h-0.6q-0.1 0-0.2 0 0-0.1 0-0.2v-3.6q0-0.1 0-0.2 0.1-0.1 0.2-0.1h0.6q0.1 0 0.1 0.1 0.1 0.1 0.1 0.2v0.1q0.2-0.2 0.5-0.3 0.2-0.1 0.6-0.1 0.5 0 0.8 0.1 0.3 0.2 0.5 0.4 0.2 0.3 0.3 0.6 0.1 0.3 0.1 0.7z"/>
								<path id="&lt;Compound Path&gt;" class="s17" d="m122.9 72.1q0 0.3 0.1 0.4 0.1 0.2 0.5 0.2h0.5q0 0 0.1 0 0.1 0.1 0.1 0.2v0.5q0 0.1-0.1 0.2-0.1 0-0.1 0h-0.6q-0.8 0-1.2-0.3-0.3-0.4-0.3-1.1v-1.7h-0.6q-0.1 0-0.1-0.1-0.1 0-0.1-0.1v-0.5q0-0.1 0.1-0.2 0-0.1 0.1-0.1h0.6v-1.2q0-0.1 0-0.2 0.1-0.1 0.2-0.1h0.6q0 0 0.1 0.1 0.1 0.1 0.1 0.2v1.2h1q0.1 0 0.1 0.1 0.1 0.1 0.1 0.2v0.5q0 0.1-0.1 0.1 0 0.1-0.1 0.1h-1z"/>
								<path id="&lt;Compound Path&gt;" fill-rule="evenodd" class="s17" d="m124.7 71.6q0-0.5 0.2-0.8 0.1-0.4 0.4-0.7 0.2-0.3 0.6-0.5 0.3-0.1 0.8-0.1 0.4 0 0.8 0.1 0.3 0.2 0.6 0.5 0.2 0.2 0.4 0.6 0.1 0.4 0.1 0.8v0.3q0 0.1-0.1 0.2 0 0-0.1 0h-2.6q0 0.2 0 0.3 0.1 0.2 0.2 0.3 0.2 0.1 0.3 0.1 0.2 0.1 0.4 0.1 0.2 0 0.4-0.1 0.1 0 0.2-0.1 0.1-0.1 0.2-0.1 0 0 0.1 0h0.6q0.1 0 0.2 0 0.1 0.1 0.1 0.2 0 0.1-0.2 0.3-0.1 0.1-0.3 0.3-0.2 0.2-0.6 0.3-0.3 0.1-0.7 0.1-0.5 0-0.8-0.2-0.4-0.1-0.6-0.4-0.3-0.3-0.4-0.7-0.2-0.3-0.2-0.8zm2-1.2q-0.3 0-0.4 0.1-0.2 0-0.3 0.1-0.1 0.1-0.2 0.3 0 0.1 0 0.2h1.7q0-0.1 0-0.2-0.1-0.2-0.2-0.3-0.1-0.1-0.2-0.1-0.2-0.1-0.4-0.1z"/>
								<path id="&lt;Compound Path&gt;" class="s17" d="m131.4 70.5q-0.5 0-0.7 0.2-0.2 0.2-0.2 0.7v2q0 0.1-0.1 0.2-0.1 0-0.1 0h-0.6q-0.1 0-0.2 0 0-0.1-0.1-0.2v-3.6q0.1-0.1 0.1-0.2 0.1-0.1 0.2-0.1h0.6q0 0 0.1 0.1 0.1 0.1 0.1 0.2v0.1q0.2-0.2 0.4-0.3 0.2-0.1 0.6-0.1h0.4q0.1 0 0.1 0.1 0.1 0.1 0.1 0.2v0.5q0 0.1-0.1 0.1 0 0.1-0.1 0.1z"/>
								<path id="&lt;Compound Path&gt;" class="s17" d="m134.1 73.6q-0.1-0.1-0.1-0.2l-1.6-3.6q0 0 0 0 0-0.1 0.1-0.2 0-0.1 0.1-0.1h0.6q0.1 0 0.2 0.1 0 0.1 0.1 0.1l1 2.5 1-2.5q0.1 0 0.1-0.1 0.1-0.1 0.2-0.1h0.6q0.1 0 0.1 0.1 0.1 0.1 0.1 0.2 0 0 0 0l-1.6 3.6q0 0.1-0.1 0.2 0 0-0.1 0h-0.6q-0.1 0-0.1 0z"/>
								<path id="&lt;Compound Path&gt;" class="s17" d="m138.2 68q0.1 0 0.1 0.1 0.1 0.1 0.1 0.2v0.6q0 0.1-0.1 0.1 0 0.1-0.1 0.1h-0.7q-0.1 0-0.1-0.1-0.1 0-0.1-0.1v-0.6q0-0.1 0.1-0.2 0-0.1 0.1-0.1zm0.2 5.4q0 0.1-0.1 0.2 0 0-0.1 0h-0.6q-0.1 0-0.2 0 0-0.1 0-0.2v-3.6q0-0.1 0-0.2 0.1-0.1 0.2-0.1h0.6q0.1 0 0.1 0.1 0.1 0.1 0.1 0.2z"/>
								<path id="&lt;Compound Path&gt;" fill-rule="evenodd" class="s17" d="m139.2 71.6q0-0.5 0.2-0.8 0.1-0.4 0.4-0.7 0.2-0.3 0.6-0.5 0.3-0.1 0.8-0.1 0.4 0 0.8 0.1 0.3 0.2 0.6 0.5 0.2 0.2 0.4 0.6 0.1 0.4 0.1 0.8v0.3q0 0.1-0.1 0.2 0 0-0.1 0h-2.6q0 0.2 0 0.3 0.1 0.2 0.2 0.3 0.2 0.1 0.3 0.1 0.2 0.1 0.4 0.1 0.2 0 0.4-0.1 0.1 0 0.2-0.1 0.1-0.1 0.2-0.1 0 0 0.1 0h0.7q0 0 0.1 0 0.1 0.1 0.1 0.2 0 0.1-0.2 0.3-0.1 0.1-0.3 0.3-0.2 0.2-0.6 0.3-0.3 0.1-0.7 0.1-0.5 0-0.8-0.2-0.4-0.1-0.6-0.4-0.3-0.3-0.4-0.7-0.2-0.3-0.2-0.8zm2-1.2q-0.3 0-0.4 0.1-0.2 0-0.3 0.1-0.1 0.1-0.2 0.3 0 0.1 0 0.2h1.7q0-0.1 0-0.2-0.1-0.2-0.2-0.3-0.1-0.1-0.2-0.1-0.2-0.1-0.4-0.1z"/>
								<path id="&lt;Compound Path&gt;" class="s17" d="m147.8 72l0.7-2.3q0.1 0 0.1-0.1 0-0.1 0.2-0.1h0.5q0.1 0 0.2 0.1 0.1 0.1 0.1 0.2 0 0 0 0l-1.2 3.6q-0.1 0.1-0.1 0.2-0.1 0-0.2 0h-0.6q-0.1 0-0.1 0-0.1-0.1-0.1-0.2l-0.7-2.1-0.8 2.1q0 0.1-0.1 0.2 0 0-0.1 0h-0.6q-0.1 0-0.2 0 0-0.1-0.1-0.2l-1.1-3.6q-0.1 0-0.1 0 0-0.1 0.1-0.2 0.1-0.1 0.2-0.1h0.6q0.1 0 0.1 0.1 0.1 0.1 0.1 0.1l0.7 2.3 0.7-2.3q0.1 0 0.1-0.1 0.1-0.1 0.2-0.1h0.6q0 0 0.1 0.1 0.1 0.1 0.1 0.1z"/>
							</g>
							<path id="&lt;Path&gt;" class="s6" d="m75.3 16v211.4h7.4l0.1-204.4h81.9v199.7 2.7 2h7.5v-211.4z"/>
							<path id="&lt;Path&gt;" class="s16" d="m79.9 227.4l0.7-206.5h83.4l0.7 2.1h-81.9l-0.1 204.4z"/>
						</g>
						<g id="&lt;Group&gt;">
							<path id="&lt;Path&gt;" class="s18" d="m497.5 146.3l-53.1-0.3 0.3-67 53.1 0.3z"/>
							<path id="&lt;Path&gt;" class="s19" d="m442.9 86.6l-2-2.3 10-8.3 1.9 2.3z"/>
							<path id="&lt;Path&gt;" class="s19" d="m489.1 78.6l1.9-2.4 10.1 8.1-1.9 2.3z"/>
							<path id="&lt;Path&gt;" class="s19" d="m441.1 140.8l1.9-2.4 10.2 8-1.9 2.4z"/>
							<path id="&lt;Path&gt;" class="s19" d="m490.6 148.6l-1.8-2.4 10.3-7.8 1.8 2.4z"/>
						</g>
					</g>
					<g id="&lt;Group&gt;">
						<path id="&lt;Path&gt;" class="s20" d="m390.1 257.4c0 10.1-20.8 18.3-46.3 18.3-25.6 0-46.3-8.2-46.3-18.3 0-10.1 20.7-18.3 46.3-18.3 25.5 0 46.3 8.2 46.3 18.3z"/>
						<g id="&lt;Group&gt;">
							<g id="&lt;Group&gt;">
								<path id="&lt;Path&gt;" class="s21" d="m312.4 194.9v50c0 0 0.2 1.1-1.5 1.1-1.7-0.1-1.6-1-1.6-1l0.5-50c0 0-0.4-1.2 1.4-1.1 1.7 0.2 1.2 1 1.2 1z"/>
							</g>
							<g id="&lt;Group&gt;">
								<path id="&lt;Path&gt;" class="s21" d="m363.7 195l-0.1 49.9c0 0-0.2 1.1 1.6 1.1 1.7 0 1.6-1 1.6-1l-0.5-49.9c0 0 0.4-1.3-1.4-1.1-1.8 0.1-1.2 1-1.2 1z"/>
							</g>
							<path id="&lt;Path&gt;" class="s21" d="m313 183.7v9.7h2.9v-9.7z"/>
							<path id="&lt;Path&gt;" class="s21" d="m360.2 183.7v9.7h2.8v-9.7z"/>
							<path id="&lt;Path&gt;" class="s22" d="m310.9 192.2h54.3c0 0 7.8 4 4.7 9.7-2 3.8-6.8 8.9-32.2 8.9-24.6 0-29-4.7-31.4-9-2.9-5.3 4.6-9.6 4.6-9.6z"/>
							<path id="&lt;Path&gt;" class="s21" d="m310.9 192.2c0 0-1.5 0.1-2 0.1-1.5-0.1-4 1.8-4.1 4-1 15-3.4 63.1-3.4 63.1 0 0-0.2 1.3 2 1.3 2.2 0.1 2-1.3 2-1.3 0 0 1.4-43.9 2.4-62.7 0.2-3 3.1-4.5 3.1-4.5z"/>
							<path id="&lt;Path&gt;" class="s21" d="m365.2 192.2c0 0 1.5 0.1 2 0.1 1.5-0.1 3.9 1.8 4.1 4 1 15 3.4 63.1 3.4 63.1 0 0 0.2 1.3-2 1.3-2.2 0.1-2-1.3-2-1.3 0 0-1.4-43.9-2.4-62.7-0.2-3-3.1-4.5-3.1-4.5z"/>
							<path id="&lt;Path&gt;" class="s22" d="m366.5 186.6v-5c0-20.5-6.1-30.9-17.7-30.9h-21.1c-11.6 0-18.3 10.4-18.3 30.9v5z"/>
						</g>
						<g id="&lt;Group&gt;">
							<path id="&lt;Path&gt;" class="s23" d="m320.1 181.3l36.4 0.7c0 0 4.5 19.6-4.9 19.4-9.4-0.3-23.1 0-29.6 0-6.6 0-1.9-20.1-1.9-20.1z"/>
							<path id="&lt;Path&gt;" class="s24" d="m327.8 130.8l-15.4 10 7.2 47.2 38.4-0.8 1.3-55.6-16.5-2.5z"/>
							<path id="&lt;Path&gt;" class="s16" d="m320.1 154.8c0 0 1.6 27.7 17.8 26.5 16.2-1.2 20.9-25.2 20.9-25.2l-0.9 31.9-30-0.5-7.3-1.9z"/>
							<path id="&lt;Path&gt;" class="s16" d="m315.2 205.2c0 0 39.9 0.7 41.6-3.8 1.8-4.5 0-7.6-8.4-8.2-8.5-0.6-33.2 2.9-33.2 2.9z"/>
							<path id="&lt;Path&gt;" class="s25" d="m346.6 252.1c0 0-1.6 10.4-0.7 11.4 0.8 1.1 4.3 3.7 6.5 4.9 2.1 1.3 11.3 1.3 11.3 0 0-4.7-4.9-7.5-6.8-11.9-1.9-4.4-1.9-4.4-1.9-4.4z"/>
							<path id="&lt;Path&gt;" class="s25" d="m327.8 254.2c0 0-5.3 7-8.6 9.5-2.1 1.5-1.9 2.6-1.4 4.4 0.4 1.7 7.7 0.6 12.1-0.8 4.4-1.4 10.2-2.5 10.2-4.3 0-1.7-2.1-8.8-2.1-8.8z"/>
							<path id="&lt;Path&gt;" class="s21" d="m327.8 130.8l15.2-0.2c0 0-5.5 32-5.6 32.1 0 0.2-1.5 1.9-1.5 1.9 0 0-7.4-27.8-7.5-28.2-0.2-0.4-0.6-5.6-0.6-5.6z"/>
							<path id="&lt;Path&gt;" class="s26" d="m329.4 121.2v11.4l11.9 1-1.2-7.9z"/>
							<path id="&lt;Path&gt;" class="s14" d="m334.1 135.2l-0.9 23.8 2.7 5.6 2.1-5.5-0.9-24.3z"/>
							<path id="&lt;Path&gt;" class="s24" d="m312.5 140.7c-1.7 0.8-4.8 39.2-3.4 41.1 1.4 1.9 11.2 0.6 11.2-2.1 0-2.6-1.7-37.5-3.1-39-1.3-1.5-4.7 0-4.7 0z"/>
							<path id="&lt;Path&gt;" class="s24" d="m359.3 131.5c0 0 21 11 22.1 15 1.1 3.8 1.3 6.4-1.4 6.9-2.6 0.5-21.6-5.3-21.6-5.3z"/>
							<path id="&lt;Path&gt;" class="s27" d="m308.7 178.6c0-2.1 10-3.7 11.4-0.4 0.7 1.7 0.7 4.3 1.6 5.7 0.9 1.4-4.5 7.6-9.3 5.8-3.7-1.4-3.5-5-3.7-8.6 0-1.3 0-2 0-2.5z"/>
							<path id="&lt;Path&gt;" class="s15" d="m317.9 177.8c0 0-3.2 0-3.9 0.6-3.2 2.7-2 8.1-1.2 8.8 1.5 1.4 5.9 1 6.3-0.7 0.3-1.7-1.2-8.7-1.2-8.7z"/>
							<path id="&lt;Path&gt;" class="s28" d="m314.9 180.4c0 0 1.3-3.4 5.7-2.9 2.3 0.2 2.7 0.3 3.6 0.3 0 1.3-3.5 2.1-5.6 1.8-2.2-0.3-3.7 0.8-3.7 0.8z"/>
							<path id="&lt;Path&gt;" class="s15" d="m317.3 180.2l6.2-2c0 0 19.4 9.1 31.5 8.4-12.2 3.1-37.7-6.4-37.7-6.4z"/>
							<path id="&lt;Path&gt;" class="s28" d="m319.6 186.8c2.1-0.4 7.7-1.3 9.9-2.4 1-0.5-2.6-1.1-3.9-1.5-3-0.9-4.9-2.7-5.3-3.2-0.4-0.5-2.3-0.9-3.7-0.7-2.4 0.3-5.4 9.1 3 7.8z"/>
							<path id="&lt;Path&gt;" class="s21" d="m334.9 131.5l0.4 1.1h-1.2z"/>
							<path id="&lt;Path&gt;" class="s21" d="m337.3 131.5l-0.2 1.1 0.9-0.1z"/>
							<path id="&lt;Path&gt;" class="s14" d="m334.4 132.3h3.3c0 0 1.5 2.1 1.1 2.9-0.8 1.9-5.1 2-6.2 0-0.5-0.8 1.8-2.9 1.8-2.9z"/>
							<path id="&lt;Path&gt;" class="s15" d="m329.4 127.4l-1.6 3.4 4.5 6 2.6-5.3z"/>
							<path id="&lt;Path&gt;" class="s15" d="m339.7 136.8l-2.4-5.3 5.3-4.1 0.2 4.7z"/>
							<path id="&lt;Path&gt;" class="s27" d="m327.8 130.8l-5.3 8.4 5.3 1.6-1.8 17.1 9.9 6.7z"/>
							<path id="&lt;Path&gt;" class="s27" d="m342.7 129.1l6 7.8-5.2 2.1 1.7 17.5-9.3 8.1z"/>
							<path id="&lt;Path&gt;" class="s6" d="m356.6 147.3c0 1.3-1 2.2-2.2 2.2-1.2 0-2.2-0.9-2.2-2.2 0-1.2 1-2.2 2.2-2.2 1.2 0 2.2 1 2.2 2.2z"/>
							<g id="&lt;Group&gt;">
								<path id="&lt;Path&gt;" class="s28" d="m353.1 146.7l-10.8 1c-1.3 0.1-1.7 0.8-2.2 1.9-1 2.3-2.5 5.8-2.4 7.6 0.1 2.7 15.4-4.8 15.4-4.8l7.5 1.4v-6.1z"/>
								<path id="&lt;Path&gt;" class="s28" d="m348.3 153.3c-0.7 0.7-2.2 3-2.2 3 0 0-3.8 0.4-3.4 2 4.2-0.6 4.9-0.7 4.9-0.7 0 0 4.7-4.6 4.4-5.3-0.3-0.8-3.7 1-3.7 1z"/>
							</g>
							<path id="&lt;Path&gt;" class="s26" d="m343.4 148.5l1.7 0.8c0.6 0.3 1 0.9 0.8 1.6l-2.5 5.4c-0.1 0.7-0.7 1.1-1.4 1.1l-3.6 0.4c-0.9 0-1.3-0.8-0.6-2.5l2.6-6.6c0.6-0.9 2.3-0.5 3-0.2z"/>
							<path id="&lt;Path&gt;" class="s6" d="m353.3 146l-0.4 7.5h3l0.3-7.1z"/>
							<path id="&lt;Path&gt;" class="s15" d="m359 145.1h-1.8v10.1h2.1z"/>
							<path id="&lt;Path&gt;" class="s27" d="m379.3 144.6c-16.5-1-20.9-0.7-20.9-0.7v14c0 0 23.9-0.4 25.1-5 1.1-4.5-1.9-8.2-4.2-8.3z"/>
							<path id="&lt;Path&gt;" class="s21" d="m336.9 169.3c0 0.5-0.3 0.8-0.7 0.8-0.5 0-0.8-0.3-0.8-0.8 0-0.4 0.3-0.8 0.8-0.8 0.4 0 0.7 0.4 0.7 0.8z"/>
							<path id="&lt;Path&gt;" class="s21" d="m337.4 178.4c0 0.4-0.4 0.7-0.8 0.7-0.4 0-0.8-0.3-0.8-0.7 0-0.5 0.4-0.8 0.8-0.8 0.4 0 0.8 0.3 0.8 0.8z"/>
							<path id="&lt;Path&gt;" class="s6" d="m321.7 186.3c-3.4 0.3-9-1.1-7.4 14.4 1.7 15.5 10.8 55.8 10.8 55.8l16.2-2c0 0-8.9-50.4-9.7-56.2-0.9-5.8-1.7-12.7-9.9-12z"/>
							<path id="&lt;Path&gt;" class="s16" d="m317.2 202c-1.6-15.5 4-14.1 7.4-14.4 1.2-0.1 2.2 0 3 0.2-1.3-1.1-3.2-1.7-5.9-1.5-3.4 0.3-9-1.1-7.4 14.4 1.7 15.5 10.8 55.8 10.8 55.8l2.5-0.3c-1.7-7.6-8.9-40.5-10.4-54.2z"/>
							<path id="&lt;Path&gt;" class="s6" d="m353.3 184c-5.6-0.1-10.5 1.3-10.3 16.4 0.1 15 1.4 54.7 1.4 54.7h15.2c0 0 1-51.7 0.7-61.9-0.1-6-1.8-9.1-7-9.2z"/>
							<path id="&lt;Path&gt;" class="s16" d="m344.8 202.5c-0.1-15.1 4.8-16.5 10.4-16.4 1.6 0 2.9 0.4 3.9 1.1-1-2.1-2.8-3.1-5.8-3.2-5.6-0.1-10.5 1.3-10.3 16.4 0.1 15 1.4 54.7 1.4 54.7h1.8c-0.3-8.4-1.2-39.6-1.4-52.6z"/>
							<path id="&lt;Path&gt;" class="s16" d="m329.4 125c0 0 6.1 6.3 8.8 6.3 2.8 0.1 3.7-1.8 3.7-1.8z"/>
							<g id="&lt;Group&gt;">
								<path id="&lt;Path&gt;" class="s28" d="m329.4 125c0 0 5.5 3.7 7.6 4.6 1.3 0.6 5.4 2.5 6.9-1.5 0.9-2.6 2.6-6.5 2.4-8.5-0.1-0.9-0.8-2.1-0.8-3.3 0-1.1 1.4-0.1 0.8-5.5-0.7-5.4-0.7-9.5-9.1-10-8.5-0.5-10.8 4.1-11.3 6.3-0.6 2.3-0.5 9.7 3.5 17.9z"/>
								<path id="&lt;Path&gt;" class="s25" d="m334.2 109.8c-3.5 0.4-5.3 5.4-5.3 6.6 0 1.8-4.5 3-4.7-3.5-0.1-9.1 4.7-13.4 10.3-13.8 5.4-0.4 11.4 3.2 12.7 7.8 2.6 9-10.1 2.6-13 2.9z"/>
								<path id="&lt;Path&gt;" class="s28" d="m329.6 115.2c0 0-2.3-1.7-3.7-0.5-1 0.9-0.7 2.9 0 4.7 0.7 1.7 2.5 2.8 2.5 2.8z"/>
							</g>
						</g>
					</g>
					<g id="&lt;Group&gt;">
						<path id="&lt;Path&gt;" class="s20" d="m282 256.9c0 10-20.6 18.1-46 18.1-25.4 0-46-8.1-46-18.1 0-9.9 20.6-18 46-18 25.4 0 46 8.1 46 18z"/>
						<g id="&lt;Group&gt;">
							<g id="&lt;Group&gt;">
								<path id="&lt;Path&gt;" class="s21" d="m211.8 194.7v50c0 0 0.2 1.1-1.5 1.1-1.7-0.1-1.6-1-1.6-1l0.5-50c0 0-0.4-1.2 1.4-1.1 1.8 0.2 1.2 1 1.2 1z"/>
							</g>
							<g id="&lt;Group&gt;">
								<path id="&lt;Path&gt;" class="s21" d="m263.1 194.8v49.9c0 0-0.2 1.1 1.5 1.1 1.7 0 1.6-1 1.6-1l-0.5-49.9c0 0 0.4-1.3-1.4-1.1-1.8 0.1-1.2 1-1.2 1z"/>
							</g>
							<path id="&lt;Path&gt;" class="s21" d="m212.4 183.5v9.7h2.9v-9.7z"/>
							<path id="&lt;Path&gt;" class="s21" d="m259.6 183.5v9.7h2.8v-9.7z"/>
							<path id="&lt;Path&gt;" class="s22" d="m210.3 192h54.3c0 0 7.8 4.3 4.7 9.7-2.1 3.8-6.8 8.9-32.2 8.9-24.6 0-29-4.7-31.4-9.1-2.9-5.2 4.6-9.5 4.6-9.5z"/>
							<path id="&lt;Path&gt;" class="s21" d="m210.3 192c0 0-1.5 0.1-2 0.1-1.5-0.1-3.9 1.7-4.1 4-1 15-3.4 63.1-3.4 63.1 0 0-0.2 1.3 2 1.3 2.2 0.1 2-1.3 2-1.3 0 0 1.4-43.9 2.4-62.7 0.2-3 3.1-4.5 3.1-4.5z"/>
							<path id="&lt;Path&gt;" class="s21" d="m264.6 192c0 0 1.5 0.1 2 0.1 1.5-0.1 3.9 1.7 4.1 4 1 15 3.4 63.1 3.4 63.1 0 0 0.2 1.3-2 1.3-2.2 0.1-2-1.3-2-1.3 0 0-1.4-43.9-2.4-62.7-0.2-3-3.1-4.5-3.1-4.5z"/>
							<path id="&lt;Path&gt;" class="s22" d="m265.9 186.4v-5c0-20.5-6.1-30.9-17.7-30.9h-21.1c-11.6 0-18.2 10.4-18.2 30.9v5z"/>
						</g>
						<g id="&lt;Group&gt;">
							<path id="&lt;Path&gt;" class="s29" d="m248.3 262.2l0.3-4.6-1.7-15-0.2-3.5h-5.5c0 0-2.6 16.1-3.3 19.1-0.8 3-2.5 5.8 0 8 2.5 2.3 8.4 1.2 9.9-0.8 0.2-0.4 0.3-0.8 0.4-1.4 0.1-0.6 0.2-1.2 0.1-1.8z"/>
							<path id="&lt;Path&gt;" class="s29" d="m234 262.2l0.3-4.6-1.7-15-0.3-3.5h-5.5c0 0-2.5 16.1-3.2 19.1-0.8 3-2.6 5.8 0 8 2.5 2.3 8.3 1.2 9.8-0.8 0.3-0.4 0.4-0.8 0.5-1.4 0.1-0.6 0.1-1.2 0.1-1.8z"/>
							<path id="&lt;Path&gt;" class="s16" d="m230.3 205.2c0 0 30.9 0.7 32.7-3.8 1.7-4.5 0-7.6-8.5-8.2-8.5-0.6-28 6-28 6z"/>
							<path id="&lt;Path&gt;" class="s30" d="m220.5 179.9c0 0-6.9 16.6-3.7 19.9 3.2 3.2 30.7 3.3 34.8 1.8 4.1-1.6 10.2-8.2-2.7-23.4-4.7-5.5-28.4 1.7-28.4 1.7z"/>
							<path id="&lt;Path&gt;" class="s21" d="m224.7 141.4c-5.2 1.3-12.9 5-12.9 5l9.8 34.3 24.9-2.9 4.7-33.7-14.6-2.7z"/>
							<path id="&lt;Path&gt;" class="s26" d="m236 138.8v10.4l-5.2 2.5-6.7-4.2 1.6-9.8z"/>
							<path id="&lt;Path&gt;" class="s15" d="m236.3 140.6l-3.2 10 2.1 3.5 4-9.3z"/>
							<path id="&lt;Path&gt;" class="s15" d="m216.8 146c-0.3-0.8-1.1-1.2-1.9-1.1-2.5 0.3-6.4 3.3-4.9 6.8 0.8 1.9 7.8 28.8 9.9 30.7 2 1.9 9.5-2.1 8.9-5.4-0.6-2.9-10-25.3-12-31z"/>
							<path id="&lt;Path&gt;" class="s31" d="m244.2 182.7c-4.8 0.1-5.4 5-5.6 11.2-0.4 8.4-1.1 48.7-1.1 48.7h12.3c0 0 3-41.5 2.4-50.3-0.5-8.8-1-9.8-8-9.6z"/>
							<path id="&lt;Path&gt;" class="s16" d="m244.2 182.7c-4.8 0.1-5.4 5-5.6 11.2-0.4 8.4-1.1 48.7-1.1 48.7h2c0.2-7.1 0.8-39.9 1.1-47.3 0.3-6.2 0.9-11.1 5.7-11.2 2-0.1 3.4 0 4.5 0.2-1-1.5-2.9-1.7-6.6-1.6z"/>
							<path id="&lt;Path&gt;" class="s31" d="m227.2 182.7c4.6 0 6.8 1.9 7.6 3.9 0.7 1.9-0.5 35.7 0 44 0.5 8.3 0.2 12 0.2 12h-10.8c0 0-2.7-47.6-2.7-53.5 0-5.9 5.7-6.4 5.7-6.4z"/>
							<path id="&lt;Path&gt;" class="s16" d="m223.5 190.2c0-5.8 5.8-6.4 5.8-6.4 1.6 0 2.9 0.3 4 0.7-1.2-1.1-3.2-1.9-6.1-1.9 0 0-5.7 0.6-5.7 6.5 0 5.9 2.7 53.5 2.7 53.5h1.9c-0.4-7.4-2.6-47-2.6-52.4z"/>
							<g id="&lt;Group&gt;">
								<path id="&lt;Path&gt;" class="s32" d="m234.2 186.6l1 22.3-4.2-0.6 0.9-21.7z"/>
								<path id="&lt;Path&gt;" class="s33" d="m202 184.5l32.2 2.1v23.3l-32.2-1.9z"/>
								<path id="&lt;Path&gt;" class="s34" d="m202 187.3l32.2 2.2v-2.9l-32.2-2.1z"/>
							</g>
							<path id="&lt;Path&gt;" class="s15" d="m234.6 172.1c0.1 0.4 0 0.8-0.3 0.9-0.3 0.1-0.7-0.1-0.8-0.5-0.2-0.4 0-0.8 0.3-0.9 0.3-0.1 0.6 0.1 0.8 0.5z"/>
							<path id="&lt;Path&gt;" class="s15" d="m232.8 165.1c0.1 0.4 0 0.8-0.3 0.9-0.3 0.1-0.7-0.1-0.8-0.5-0.1-0.4 0-0.8 0.3-0.9 0.3-0.1 0.6 0.1 0.8 0.5z"/>
							<path id="&lt;Path&gt;" class="s35" d="m232 151.1l1.8 0.6-0.7-1.1z"/>
							<path id="&lt;Path&gt;" class="s16" d="m221.6 158.1c0 0-3.2 6.7-3.5 13.2-0.3 6.5 1.3 10.4 1.3 10.4l4.7-21.2z"/>
							<path id="&lt;Path&gt;" class="s16" d="m228.1 144.9c0 0 1.9 3.5 4.8 2.3 2.9-1.3 3.3-8.6 3.3-8.6z"/>
							<g id="&lt;Group&gt;">
								<path id="&lt;Path&gt;" class="s28" d="m222.5 127.2c0 0-0.8-3.1-1.9-2.1-1.2 1-1.4 3.8-1.1 5.3 0.3 1.4 1.7 2.8 1.7 2.8z"/>
								<path id="&lt;Path&gt;" class="s28" d="m233.1 112.4c3.2 0.4 10.4 0.8 10.9 8 0.5 7.1-4.3 22.3-13.3 24.9-3.2 1-6.3-4.4-7.2-9.1-0.8-4.8-2.2-10.3-0.8-14.6 1.3-4.3 6.6-9.5 10.4-9.2z"/>
								<path id="&lt;Path&gt;" class="s36" d="m221.4 129.5c0 0 11.6-8.4 16.3-7 4.6 1.4 2.1 10.5 3.5 10.5 1.4 0 4.8-8.8 3.3-14.7-1.5-5.9-3.7-6.5-10-6.7-6.2-0.3-14 3.6-13.1 17.9z"/>
								<path id="&lt;Path&gt;" class="s28" d="m241.3 131.9c0 0 2.1-2.3 2.6-0.9 0.5 1.5-0.7 4.1-1.7 5.1-1 1.1-3 1.6-3 1.6z"/>
							</g>
							<path id="&lt;Path&gt;" class="s37" d="m221.3 127.2c-0.4 0.4-4 5-3.9 6 0.2 1.1 4.1 9.6 5.5 10.2 1.3 0.6 2.3 3.1 2.3 4.6 0 1.5 4.9 0.6 4.9 0.6 0 0 0-3.9-2.5-7-2.4-3.1-4.2-6-3.9-6.8 0.4-0.9 1.3-5.3 0-7.2-1.2-2-2.4-0.4-2.4-0.4z"/>
							<path id="&lt;Path&gt;" class="s16" d="m246.2 154.1c0 0-0.2 13.6-1.3 15.2-2.2 3.1-16.6 6.4-16.6 8.4 0 2 20.8-6.1 20.8-6.1z"/>
							<path id="&lt;Path&gt;" class="s15" d="m246 144.8c0-0.7 0.3-1.3 1-1.6 1.8-1 6.2-0.1 6.4 5.7 0.1 1.8 4.8 24.6 3.9 27.1-0.8 2.6-9.2 3.2-10.1 0.2-0.9-2.5-1-26.2-1.2-31.4z"/>
							<path id="&lt;Path&gt;" class="s15" d="m224.1 144.5l8.1 3.5c0 0-1.4 34.3-5 34.7-3.5 0.3-7.2 0.4-7.8-1-1.9-5 4.7-37.2 4.7-37.2z"/>
							<path id="&lt;Path&gt;" class="s37" d="m227.7 180c-0.4-0.1-5.1 0-5.1 0 0 0-8 4.1-8.5 5.4-0.4 1.3-1.3 8.7-0.9 9.4 0.5 0.8 6.8-0.3 7.6-1.8 0.9-1.5 0-5.7 0.9-6.2 1-0.6 4.1-1.1 4.7-2.2 0.4-0.8 3.9-0.5 3.9-0.5z"/>
							<path id="&lt;Path&gt;" class="s15" d="m251.7 169.3l-25.2 9.1 2 7.5c0 0 30.3-4.4 28.9-10.8-1.4-6.4-5.7-5.8-5.7-5.8z"/>
							<path id="&lt;Path&gt;" class="s16" d="m253.4 148.9c-0.1-3.5-1.7-5.1-3.3-5.8 0.8 1 1.4 2.4 1.4 4.4 0.1 1.7 4.4 22.7 4 26.7-0.1 5.4-21.6 9.2-27.4 10.1l0.4 1.6c0 0 28.8-4.2 28.9-10.3 0.4-4.1-4-25-4-26.7z"/>
						</g>
					</g>
					<g id="&lt;Group&gt;">
						<g id="&lt;Group&gt;">
							<path id="&lt;Path&gt;" class="s20" d="m410.3 270.2l9.1-28.9h63l12.9 28.4z"/>
							<g id="&lt;Group&gt;">
								<path id="&lt;Path&gt;" class="s15" d="m477.1 251.7c0 0-1.1 1.3-2.9 1.3-2.1 0-2.9-1.3-2.9-1.3v-72.2h5.8z"/>
								<path id="&lt;Path&gt;" class="s15" d="m433.9 251.7c0 0-1 1.3-2.9 1.3-2.1 0-2.8-1.3-2.8-1.3v-72.2h5.7z"/>
								<g id="&lt;Group&gt;">
									<path id="&lt;Path&gt;" class="s15" d="m422.4 263.8c0 0-1.1 1.5-2.9 1.5-2.2 0-3-1.5-3-1.5v-82h5.9z"/>
									<path id="&lt;Path&gt;" class="s15" d="m487.7 263.8c0 0-1 1.5-2.9 1.5-2.2 0-3-1.5-3-1.5v-82h5.9z"/>
									<g id="&lt;Group&gt;">
										<path id="&lt;Path&gt;" class="s21" d="m497.8 192.4h-94v-7.1h94z"/>
										<path id="&lt;Path&gt;" class="s15" d="m403.8 185.3l14.2-7.6h72.8l7 7.6z"/>
									</g>
								</g>
							</g>
						</g>
						<g id="&lt;Group&gt;">
							<path id="&lt;Path&gt;" class="s20" d="m430.3 182.5c0 0.9-2.8 1.5-6.2 1.5-3.4 0-6.2-0.6-6.2-1.5 0-0.8 2.8-1.4 6.2-1.4 3.4 0 6.2 0.6 6.2 1.4z"/>
							<g id="&lt;Group&gt;">
								<path id="&lt;Path&gt;" class="s38" d="m417.9 164.7c0 0 2.3 15.1 2.6 16.9 0.2 1.7 6.8 2.1 7.2 0l1.9-16.9c0 0-5.3-2.1-11.7 0z"/>
								<path id="&lt;Path&gt;" class="s39" d="m418.8 170.4c0 0 5.2 1.3 10.1 0-0.5 5.5-0.7 7.1-0.7 7.1 0 0-3 1.4-8.3 0.4-0.6-4.1-1.1-7.5-1.1-7.5z"/>
								<path id="&lt;Path&gt;" class="s39" d="m417.2 164.7c0 0 0.2 2 0.4 2.2 0.6 0.5 1.9 0.8 5.7 0.8 3.8 0 6.4-0.3 6.9-1.1 0.2-0.3 0.1-1.9 0.1-1.9z"/>
								<path id="&lt;Path&gt;" class="s40" d="m430.3 164.7c0 0.5-2.9 0.8-6.6 0.8-3.6 0-6.5-0.3-6.5-0.8 0-0.5 2.9-0.8 6.5-0.8 3.7 0 6.6 0.3 6.6 0.8z"/>
								<path id="&lt;Path&gt;" class="s38" d="m428.7 163.9c-0.6-0.3-2.2-0.5-5-0.5-2.4 0-4.6 0.3-4.9 0.6-0.1 0 0 0.4 0 0.4 0 0.3 2.2 0.6 4.9 0.6 2.8 0 5-0.3 5-0.6 0 0 0.1-0.5 0-0.5z"/>
							</g>
						</g>
					</g>
				</g>
				<g id="&lt;Group&gt;">
					<g id="&lt;Group&gt;">
						<path id="&lt;Compound Path&gt;" class="s17" d="m579.3 77.3q0 2.4-0.9 4.2-0.8 1.8-2.3 3-1.5 1.2-3.4 1.8-2 0.6-4.1 0.6-2.4 0-4.3-0.6-2-0.7-3.4-1.8-1.4-1.1-2.2-2.6-0.8-1.6-0.9-3.5 0-0.4 0.3-0.6 0.2-0.2 0.5-0.2h4.6q0.7 0 0.9 0.2 0.3 0.2 0.5 0.8 0.4 1.3 1.3 1.9 0.9 0.6 2.7 0.6 2 0 3-1 1.1-1 1.1-3v-10h-12.3q-0.4 0-0.7-0.3-0.3-0.3-0.3-0.7v-3.8q0-0.4 0.3-0.7 0.3-0.3 0.7-0.3h17.9q0.4 0 0.7 0.3 0.3 0.3 0.3 0.7z"/>
						<path id="&lt;Compound Path&gt;" fill-rule="evenodd" class="s17" d="m584.2 70.7q0.1-2 0.9-3.8 0.7-1.8 2.2-3.1 1.4-1.3 3.4-2.1 2.1-0.8 4.7-0.8 2.6 0 4.7 0.8 2.1 0.8 3.5 2.1 1.4 1.3 2.2 3.1 0.7 1.8 0.9 3.8 0 1.6 0 3.2 0 1.7 0 3.2-0.2 2-0.9 3.8-0.8 1.8-2.2 3.1-1.4 1.4-3.5 2.1-2.1 0.8-4.7 0.8-2.6 0-4.7-0.8-2-0.7-3.4-2.1-1.5-1.3-2.2-3.1-0.8-1.8-0.9-3.8-0.1-1.5-0.1-3.2 0-1.6 0.1-3.2zm15.8 6.2q0-0.6 0.1-1.4 0-0.8 0-1.6 0-0.9 0-1.6-0.1-0.8-0.1-1.4-0.1-0.9-0.4-1.7-0.3-0.7-0.9-1.3-0.5-0.5-1.3-0.9-0.9-0.3-2-0.3-1.1 0-1.9 0.3-0.9 0.4-1.4 0.9-0.6 0.6-0.9 1.3-0.3 0.8-0.4 1.7 0 0.6 0 1.4-0.1 0.7-0.1 1.6 0 0.8 0.1 1.6 0 0.8 0 1.4 0.2 1.8 1.3 3 1.1 1.2 3.3 1.2 2.3 0 3.3-1.2 1.1-1.2 1.3-3z"/>
						<path id="&lt;Compound Path&gt;" fill-rule="evenodd" class="s17" d="m612.7 86.5q-0.4 0-0.6-0.3-0.3-0.3-0.3-0.7v-23.2q0-0.4 0.3-0.7 0.2-0.3 0.6-0.3h11.6q2.4 0 4.1 0.7 1.7 0.6 2.6 1.7 1 1.1 1.5 2.4 0.4 1.4 0.4 2.7 0 1-0.2 1.8-0.3 0.8-0.6 1.3-0.3 0.6-0.7 0.9-0.3 0.4-0.5 0.6 1.4 0.9 1.9 2.2 0.6 1.3 0.6 3.1 0 1.5-0.4 2.9-0.5 1.4-1.5 2.5-0.9 1.1-2.5 1.7-1.6 0.7-3.9 0.7zm13.4-17.6q0-0.9-0.5-1.5-0.6-0.5-1.6-0.5h-5.6v4.1h5.6q1 0 1.6-0.6 0.5-0.5 0.5-1.5zm-7.7 12h5.9q1.1 0 1.7-0.6 0.7-0.6 0.7-1.6 0-0.9-0.7-1.5-0.6-0.7-1.7-0.7h-5.9z"/>
						<path id="&lt;Compound Path&gt;" class="s17" d="m647.8 86.5q-0.4 0-0.7-0.3-0.3-0.3-0.3-0.7v-23.2q0-0.4 0.3-0.7 0.3-0.3 0.7-0.3h4.7q0.4 0 0.7 0.3 0.3 0.3 0.3 0.7v23.2q0 0.4-0.3 0.7-0.3 0.3-0.7 0.3z"/>
						<path id="&lt;Compound Path&gt;" class="s17" d="m675.8 86.5q-0.6 0-1-0.3-0.4-0.3-0.5-0.5l-8.2-12.3v12.1q0 0.4-0.3 0.7-0.3 0.3-0.7 0.3h-4.7q-0.4 0-0.7-0.3-0.3-0.3-0.3-0.7v-23.2q0-0.4 0.3-0.7 0.3-0.3 0.7-0.3h3.7q0.7 0 1 0.3 0.4 0.4 0.5 0.5l8.3 12.3v-12.1q0-0.4 0.3-0.7 0.2-0.3 0.6-0.3h4.7q0.4 0 0.7 0.3 0.3 0.3 0.3 0.7v23.2q0 0.4-0.3 0.7-0.3 0.3-0.7 0.3z"/>
						<path id="&lt;Compound Path&gt;" class="s17" d="m705 61.3q0.4 0 0.7 0.3 0.2 0.3 0.2 0.7v3.8q0 0.4-0.2 0.7-0.3 0.3-0.7 0.3h-6.4v18.4q0 0.4-0.3 0.7-0.2 0.3-0.6 0.3h-4.8q-0.4 0-0.6-0.3-0.3-0.3-0.3-0.7v-18.4h-6.4q-0.4 0-0.6-0.3-0.3-0.3-0.3-0.7v-3.8q0-0.4 0.3-0.7 0.2-0.3 0.6-0.3z"/>
						<path id="&lt;Compound Path&gt;" class="s17" d="m728.1 80.7q0.4 0 0.7 0.3 0.3 0.3 0.3 0.7v3.8q0 0.4-0.3 0.7-0.3 0.3-0.7 0.3h-17.1q-0.3 0-0.6-0.3-0.3-0.3-0.3-0.7v-23.2q0-0.4 0.3-0.7 0.3-0.3 0.6-0.3h16.8q0.4 0 0.7 0.3 0.3 0.3 0.3 0.7v3.8q0 0.4-0.3 0.7-0.3 0.3-0.7 0.3h-11.1v3.9h10.3q0.4 0 0.7 0.2 0.3 0.3 0.3 0.7v3.8q0 0.4-0.3 0.7-0.3 0.3-0.7 0.3h-10.3v4z"/>
						<path id="&lt;Compound Path&gt;" fill-rule="evenodd" class="s17" d="m744.9 61.3q2.3 0 4.2 0.5 1.9 0.5 3.2 1.5 1.3 1 2 2.6 0.7 1.6 0.7 3.7 0 2.7-1.1 4.4-1.1 1.8-3.2 2.8l4.5 8.5q0.1 0.2 0.1 0.4 0 0.3-0.2 0.6-0.3 0.2-0.6 0.2h-4.9q-0.7 0-1-0.3-0.3-0.3-0.5-0.7l-4-7.7h-3.3v7.7q0 0.4-0.3 0.7-0.3 0.3-0.7 0.3h-4.7q-0.4 0-0.7-0.3-0.3-0.3-0.3-0.7v-23.2q0-0.4 0.3-0.7 0.3-0.3 0.7-0.3zm-4.1 10.9h4.1q1.5 0 2.5-0.6 1-0.5 1-2 0-1.6-1-2.1-1-0.6-2.5-0.6h-4.1z"/>
						<path id="&lt;Compound Path&gt;" class="s17" d="m766.9 86.5q-1.5 0-2-1.4l-7.3-22.5q-0.1-0.3-0.1-0.4 0 0 0-0.1 0-0.3 0.2-0.6 0.3-0.2 0.6-0.2h4.5q0.7 0 1 0.3 0.3 0.3 0.4 0.6l5 15.8 5-15.8q0.1-0.3 0.4-0.6 0.3-0.3 1-0.3h4.6q0.3 0 0.5 0.2 0.3 0.3 0.3 0.6 0 0.1-0.1 0.1 0 0.1 0 0.4l-7.4 22.5q-0.5 1.4-1.9 1.4z"/>
						<path id="&lt;Compound Path&gt;" class="s17" d="m786.1 86.5q-0.4 0-0.6-0.3-0.3-0.3-0.3-0.7v-23.2q0-0.4 0.3-0.7 0.2-0.3 0.6-0.3h4.8q0.4 0 0.6 0.3 0.3 0.3 0.3 0.7v23.2q0 0.4-0.3 0.7-0.2 0.3-0.6 0.3z"/>
						<path id="&lt;Compound Path&gt;" class="s17" d="m815.8 80.7q0.4 0 0.7 0.3 0.3 0.3 0.3 0.7v3.8q0 0.4-0.3 0.7-0.3 0.3-0.7 0.3h-17.1q-0.4 0-0.6-0.3-0.3-0.3-0.3-0.7v-23.2q0-0.4 0.3-0.7 0.2-0.3 0.6-0.3h16.8q0.4 0 0.7 0.3 0.3 0.3 0.3 0.7v3.8q0 0.4-0.3 0.7-0.3 0.3-0.7 0.3h-11.1v3.9h10.3q0.4 0 0.7 0.2 0.3 0.3 0.3 0.7v3.8q0 0.4-0.3 0.7-0.3 0.3-0.7 0.3h-10.3v4z"/>
						<path id="&lt;Compound Path&gt;" class="s17" d="m839.3 74.4l2.3-12.1q0.1-0.6 0.5-0.8 0.3-0.2 0.6-0.2h4.8q0.3 0 0.5 0.2 0.2 0.3 0.2 0.6 0 0.1 0 0.3l-4.6 22.7q-0.1 0.5-0.6 1-0.5 0.4-1.2 0.4h-3q-0.7 0-1.2-0.4-0.4-0.5-0.6-1l-2.7-8.1-2.7 8.1q-0.2 0.5-0.7 1-0.4 0.4-1.1 0.4h-3q-0.7 0-1.2-0.4-0.5-0.5-0.6-1l-4.7-22.7q0-0.2 0-0.3 0-0.3 0.2-0.6 0.3-0.2 0.6-0.2h4.7q0.4 0 0.7 0.2 0.3 0.2 0.4 0.8l2.3 12.1 2.2-6.5q0-0.2 0.3-0.6 0.2-0.4 0.9-0.4h3.4q0.6 0 0.9 0.4 0.2 0.4 0.3 0.6z"/>
					</g>
					<g id="&lt;Group&gt;">
						<path id="&lt;Compound Path&gt;" class="s17" d="m686.8 106.6q0-0.2 0.3-0.2h0.2q0.3 0 0.3 0.2v4.9q0 1.8-0.8 2.6-0.8 0.8-2.3 0.8-0.7 0-1.3-0.2-0.6-0.2-1-0.6-0.4-0.4-0.6-1.1-0.2-0.6-0.2-1.5v-4.9q0-0.2 0.3-0.2h0.2q0.3 0 0.3 0.2v4.9q0 1.4 0.6 2 0.6 0.7 1.7 0.7 1.1 0 1.7-0.7 0.6-0.6 0.6-2z"/>
						<path id="&lt;Compound Path&gt;" class="s17" d="m690.8 112.7q0 0.7 0.2 1 0.3 0.4 0.8 0.4h0.6q0.3 0 0.3 0.2v0.2q0 0.3-0.3 0.3h-0.7q-0.4 0-0.8-0.2-0.3-0.2-0.5-0.4-0.1-0.3-0.2-0.7-0.1-0.3-0.1-0.7v-3.6h-0.9q-0.3 0-0.3-0.3v-0.1q0-0.3 0.3-0.3h0.9v-2q0-0.3 0.3-0.3h0.2q0.2 0 0.2 0.3v2h1.5q0.3 0 0.3 0.3v0.1q0 0.3-0.3 0.3h-1.5z"/>
						<path id="&lt;Compound Path&gt;" fill-rule="evenodd" class="s17" d="m696.7 111.2q0.1-0.7 0.3-1.2 0.2-0.5 0.5-0.8 0.3-0.4 0.8-0.6 0.5-0.2 1.1-0.2 1.2 0 1.9 0.8 0.7 0.8 0.7 2.3v0.2q0 0.1-0.1 0.2-0.1 0-0.2 0h-4.2v0.2q0 0.4 0.1 0.7 0.1 0.4 0.4 0.7 0.2 0.3 0.6 0.5 0.3 0.2 0.8 0.2 0.3 0 0.6-0.1 0.3-0.1 0.5-0.2 0.2-0.2 0.3-0.3 0.2-0.1 0.2-0.2 0.1-0.2 0.2-0.2 0 0 0.2 0h0.2q0.1 0 0.2 0.1 0 0 0 0.1 0 0.2-0.2 0.4-0.1 0.3-0.5 0.5-0.3 0.3-0.7 0.4-0.5 0.2-1 0.2-0.6 0-1.1-0.2-0.5-0.2-0.8-0.6-0.3-0.4-0.5-0.9-0.2-0.5-0.3-1.1 0-0.2 0-0.5 0-0.3 0-0.4zm0.8 0.1h3.8v-0.1q0-0.4-0.2-0.8-0.1-0.4-0.3-0.7-0.3-0.3-0.6-0.4-0.4-0.2-0.8-0.2-0.5 0-0.9 0.2-0.3 0.1-0.5 0.4-0.3 0.3-0.4 0.7-0.1 0.4-0.1 0.8z"/>
						<path id="&lt;Compound Path&gt;" class="s17" d="m708.8 114.5q0 0.3-0.3 0.3h-0.2q-0.3 0-0.3-0.3v-3.4q0.1-0.9-0.4-1.5-0.5-0.5-1.4-0.5-0.9 0-1.4 0.5-0.5 0.6-0.5 1.5v3.4q0 0.3-0.2 0.3h-0.2q-0.3 0-0.3-0.3v-5.7q0-0.3 0.3-0.3h0.2q0.2 0 0.2 0.3v0.5q0.3-0.4 0.8-0.6 0.5-0.3 1.2-0.3 0.6 0 1.1 0.2 0.5 0.2 0.8 0.6 0.3 0.3 0.4 0.8 0.2 0.5 0.2 1.1z"/>
						<path id="&lt;Compound Path&gt;" class="s17" d="m711.5 107q0 0.1 0 0.2-0.1 0-0.2 0h-0.5q-0.3 0-0.3-0.2v-0.5q0-0.1 0.1-0.2 0.1-0.1 0.2-0.1h0.5q0.1 0 0.2 0.1 0 0.1 0 0.2zm-0.1 7.5q0 0.3-0.3 0.3h-0.2q-0.2 0-0.2-0.3v-5.7q0-0.2 0.2-0.2h0.2q0.3 0 0.3 0.2z"/>
						<path id="&lt;Compound Path&gt;" class="s17" d="m714.1 109.2q0.3-0.4 0.7-0.6 0.4-0.2 1-0.2 0.7 0 1.2 0.3 0.4 0.3 0.7 0.8 0.3-0.5 0.8-0.8 0.6-0.3 1.2-0.3 0.5 0 0.9 0.2 0.4 0.1 0.7 0.5 0.3 0.3 0.5 0.8 0.2 0.5 0.2 1.1v3.5q0 0.3-0.3 0.3h-0.2q-0.2 0-0.2-0.3v-3.4q0-0.6-0.2-1-0.1-0.3-0.3-0.6-0.3-0.2-0.6-0.3-0.2-0.1-0.6-0.1-0.2 0-0.5 0.1-0.3 0.1-0.5 0.3-0.3 0.3-0.4 0.6-0.2 0.4-0.2 1v3.4q0 0.3-0.2 0.3h-0.2q-0.3 0-0.3-0.3v-3.4q0-0.6-0.1-1-0.2-0.3-0.4-0.6-0.2-0.2-0.5-0.3-0.3-0.1-0.6-0.1-0.3 0-0.6 0.1-0.3 0.1-0.5 0.3-0.2 0.3-0.4 0.6-0.1 0.4-0.1 1v3.4q0 0.3-0.3 0.3h-0.2q-0.3 0-0.3-0.3v-5.7q0-0.3 0.3-0.3h0.2q0.3 0 0.3 0.3z"/>
						<path id="&lt;Compound Path&gt;" fill-rule="evenodd" class="s17" d="m731 114.8q-0.2 0-0.2-0.3v-0.6q-0.1 0.2-0.3 0.4-0.2 0.1-0.4 0.3-0.3 0.1-0.6 0.2-0.4 0.1-0.8 0.1-0.5 0-0.9-0.2-0.4-0.1-0.7-0.3-0.2-0.3-0.4-0.6-0.2-0.3-0.2-0.7 0-0.4 0.2-0.7 0.2-0.4 0.5-0.6 0.3-0.3 0.7-0.4 0.5-0.2 1-0.3l1.9-0.2v-0.4q0-0.7-0.4-1-0.4-0.4-1.3-0.4-0.6 0-1 0.3-0.4 0.2-0.5 0.5 0 0.2-0.1 0.2 0 0.1-0.1 0.1h-0.2q-0.1 0-0.2-0.1-0.1-0.1-0.1-0.2 0-0.2 0.1-0.4 0.2-0.3 0.4-0.5 0.3-0.3 0.7-0.4 0.4-0.2 1-0.2 0.8 0 1.2 0.2 0.5 0.2 0.7 0.5 0.3 0.3 0.4 0.7 0.1 0.3 0.1 0.7v4q0 0.3-0.3 0.3zm-2.2-0.6q0.4 0 0.8-0.2 0.3-0.1 0.6-0.4 0.3-0.2 0.4-0.7 0.2-0.4 0.2-1v-0.4l-1.6 0.3q-2 0.2-2 1.2 0 0.3 0.2 0.5 0.1 0.3 0.3 0.4 0.2 0.1 0.5 0.2 0.3 0.1 0.6 0.1z"/>
						<path id="&lt;Compound Path&gt;" fill-rule="evenodd" class="s17" d="m735.7 108.4q0.7 0 1.2 0.3 0.5 0.2 0.8 0.6v-2.8q0-0.3 0.2-0.3h0.2q0.3 0 0.3 0.3v8q0 0.3-0.3 0.3h-0.2q-0.2 0-0.2-0.3v-0.6q-0.3 0.4-0.8 0.7-0.5 0.3-1.2 0.3-0.7 0-1.2-0.3-0.5-0.2-0.8-0.7-0.3-0.4-0.5-0.9-0.1-0.5-0.1-1 0-0.4 0-0.7 0-0.5 0.1-1 0.2-0.6 0.5-1 0.3-0.4 0.8-0.6 0.5-0.3 1.2-0.3zm2 3.7q0-0.2 0-0.5 0-0.3 0-0.5 0-0.3-0.1-0.7-0.2-0.4-0.4-0.6-0.2-0.3-0.6-0.5-0.4-0.2-0.9-0.2-0.5 0-0.8 0.2-0.4 0.2-0.6 0.5-0.2 0.3-0.4 0.7-0.1 0.4-0.1 0.8 0 0.3 0 0.7 0 0.4 0.1 0.8 0.2 0.4 0.4 0.7 0.2 0.3 0.6 0.5 0.3 0.2 0.8 0.2 0.5 0 0.9-0.2 0.4-0.2 0.6-0.5 0.2-0.3 0.4-0.7 0.1-0.4 0.1-0.7z"/>
						<path id="&lt;Compound Path&gt;" class="s17" d="m744.2 109.2q0.3-0.4 0.7-0.6 0.4-0.2 1-0.2 0.7 0 1.2 0.3 0.5 0.3 0.7 0.8 0.3-0.5 0.8-0.8 0.6-0.3 1.3-0.3 0.4 0 0.9 0.2 0.4 0.1 0.7 0.5 0.3 0.3 0.4 0.8 0.2 0.5 0.2 1.1v3.5q0 0.3-0.3 0.3h-0.2q-0.2 0-0.2-0.3v-3.4q0-0.6-0.2-1-0.1-0.3-0.3-0.6-0.2-0.2-0.5-0.3-0.3-0.1-0.7-0.1-0.2 0-0.5 0.1-0.3 0.1-0.5 0.3-0.3 0.3-0.4 0.6-0.1 0.4-0.1 1v3.4q0 0.3-0.3 0.3h-0.2q-0.3 0-0.3-0.3v-3.4q0-0.6-0.1-1-0.2-0.3-0.4-0.6-0.2-0.2-0.5-0.3-0.3-0.1-0.6-0.1-0.3 0-0.6 0.1-0.3 0.1-0.5 0.3-0.2 0.3-0.4 0.6-0.1 0.4-0.1 1v3.4q0 0.3-0.3 0.3h-0.2q-0.2 0-0.2-0.3v-5.7q0-0.3 0.2-0.3h0.2q0.3 0 0.3 0.3z"/>
						<path id="&lt;Compound Path&gt;" class="s17" d="m754.9 107q0 0.1-0.1 0.2-0.1 0-0.2 0h-0.5q-0.2 0-0.2-0.2v-0.5q0-0.1 0-0.2 0.1-0.1 0.2-0.1h0.5q0.1 0 0.2 0.1 0.1 0.1 0.1 0.2zm-0.2 7.5q0 0.3-0.2 0.3h-0.2q-0.3 0-0.3-0.3v-5.7q0-0.2 0.3-0.2h0.2q0.2 0 0.2 0.2z"/>
						<path id="&lt;Compound Path&gt;" class="s17" d="m761.9 114.5q0 0.3-0.3 0.3h-0.2q-0.3 0-0.3-0.3v-3.4q0-0.9-0.4-1.5-0.5-0.5-1.4-0.5-0.9 0-1.4 0.5-0.5 0.6-0.5 1.5v3.4q0 0.3-0.3 0.3h-0.2q-0.2 0-0.2-0.3v-5.7q0-0.3 0.2-0.3h0.2q0.3 0 0.3 0.3v0.5q0.3-0.4 0.8-0.6 0.4-0.3 1.2-0.3 0.6 0 1.1 0.2 0.4 0.2 0.8 0.6 0.3 0.3 0.4 0.8 0.2 0.5 0.2 1.1z"/>
						<path id="&lt;Compound Path&gt;" class="s17" d="m764.6 107q0 0.1-0.1 0.2 0 0-0.2 0h-0.4q-0.3 0-0.3-0.2v-0.5q0-0.1 0.1-0.2 0.1-0.1 0.2-0.1h0.4q0.2 0 0.2 0.1 0.1 0.1 0.1 0.2zm-0.1 7.5q0 0.3-0.3 0.3h-0.2q-0.2 0-0.2-0.3v-5.7q0-0.2 0.2-0.2h0.2q0.3 0 0.3 0.2z"/>
						<path id="&lt;Compound Path&gt;" class="s17" d="m767.2 109.2q0.3-0.4 0.7-0.6 0.4-0.2 1-0.2 0.7 0 1.1 0.3 0.5 0.3 0.8 0.8 0.3-0.5 0.8-0.8 0.5-0.3 1.2-0.3 0.5 0 0.9 0.2 0.4 0.1 0.7 0.5 0.3 0.3 0.5 0.8 0.2 0.5 0.2 1.1v3.5q0 0.3-0.3 0.3h-0.2q-0.3 0-0.3-0.3v-3.4q0-0.6-0.1-1-0.1-0.3-0.3-0.6-0.3-0.2-0.6-0.3-0.3-0.1-0.6-0.1-0.3 0-0.5 0.1-0.3 0.1-0.6 0.3-0.2 0.3-0.3 0.6-0.2 0.4-0.2 1v3.4q0 0.3-0.2 0.3h-0.2q-0.3 0-0.3-0.3v-3.4q0-0.6-0.2-1-0.1-0.3-0.3-0.6-0.3-0.2-0.5-0.3-0.3-0.1-0.6-0.1-0.3 0-0.6 0.1-0.3 0.1-0.5 0.3-0.3 0.3-0.4 0.6-0.1 0.4-0.1 1v3.4q0 0.3-0.3 0.3h-0.2q-0.3 0-0.3-0.3v-5.7q0-0.3 0.3-0.3h0.2q0.3 0 0.3 0.3z"/>
						<path id="&lt;Compound Path&gt;" class="s17" d="m781.6 114.7q-0.1-0.1-0.2-0.2l-2.2-5.6q0-0.1 0-0.1 0-0.1 0.1-0.2 0-0.1 0.1-0.1h0.3q0.1 0 0.2 0.1 0 0 0.1 0.1l2 5.2 2-5.2q0-0.1 0.1-0.1 0.1-0.1 0.2-0.1h0.2q0.1 0 0.2 0.1 0.1 0.1 0.1 0.2 0 0-0.1 0.1l-2.2 5.6q0 0.1-0.1 0.2-0.1 0.1-0.3 0.1h-0.2q-0.2 0-0.3-0.1z"/>
						<path id="&lt;Compound Path&gt;" fill-rule="evenodd" class="s17" d="m785.6 111.2q0.1-0.7 0.3-1.2 0.2-0.5 0.5-0.8 0.3-0.4 0.8-0.6 0.5-0.2 1.1-0.2 1.2 0 1.9 0.8 0.7 0.8 0.7 2.3v0.2q0 0.1-0.1 0.2 0 0-0.2 0h-4.2v0.2q0 0.4 0.1 0.7 0.2 0.4 0.4 0.7 0.2 0.3 0.6 0.5 0.3 0.2 0.8 0.2 0.4 0 0.6-0.1 0.3-0.1 0.5-0.2 0.2-0.2 0.4-0.3 0.1-0.1 0.1-0.2 0.1-0.2 0.2-0.2 0.1 0 0.2 0h0.2q0.1 0 0.2 0.1 0.1 0 0 0.1 0 0.2-0.1 0.4-0.2 0.3-0.5 0.5-0.4 0.3-0.8 0.4-0.5 0.2-1 0.2-0.6 0-1.1-0.2-0.4-0.2-0.8-0.6-0.3-0.4-0.5-0.9-0.2-0.5-0.3-1.1 0-0.2 0-0.5 0-0.3 0-0.4zm0.8 0.1h3.8v-0.1q0-0.4-0.1-0.8-0.2-0.4-0.4-0.7-0.3-0.3-0.6-0.4-0.4-0.2-0.8-0.2-0.5 0-0.8 0.2-0.4 0.1-0.6 0.4-0.3 0.3-0.4 0.7-0.1 0.4-0.1 0.8z"/>
						<path id="&lt;Compound Path&gt;" class="s17" d="m797.7 114.5q0 0.3-0.3 0.3h-0.2q-0.2 0-0.2-0.3v-3.4q0-0.9-0.5-1.5-0.5-0.5-1.4-0.5-0.8 0-1.3 0.5-0.6 0.6-0.6 1.5v3.4q0 0.3-0.2 0.3h-0.2q-0.3 0-0.3-0.3v-5.7q0-0.3 0.3-0.3h0.2q0.2 0 0.2 0.3v0.5q0.4-0.4 0.8-0.6 0.5-0.3 1.3-0.3 0.6 0 1 0.2 0.5 0.2 0.8 0.6 0.3 0.3 0.4 0.8 0.2 0.5 0.2 1.1z"/>
						<path id="&lt;Compound Path&gt;" class="s17" d="m800.4 107q0 0.1 0 0.2-0.1 0-0.2 0h-0.5q-0.2 0-0.2-0.2v-0.5q0-0.1 0-0.2 0.1-0.1 0.2-0.1h0.5q0.1 0 0.2 0.1 0 0.1 0 0.2zm-0.1 7.5q0 0.3-0.2 0.3h-0.3q-0.2 0-0.2-0.3v-5.7q0-0.2 0.2-0.2h0.3q0.2 0 0.2 0.2z"/>
						<path id="&lt;Compound Path&gt;" fill-rule="evenodd" class="s17" d="m806.3 114.8q-0.2 0-0.2-0.3v-0.6q-0.1 0.2-0.3 0.4-0.2 0.1-0.4 0.3-0.3 0.1-0.6 0.2-0.4 0.1-0.9 0.1-0.4 0-0.8-0.2-0.4-0.1-0.7-0.3-0.3-0.3-0.4-0.6-0.2-0.3-0.2-0.7 0-0.4 0.2-0.7 0.1-0.4 0.5-0.6 0.3-0.3 0.7-0.4 0.4-0.2 1-0.3l1.9-0.2v-0.4q0-0.7-0.4-1-0.4-0.4-1.3-0.4-0.6 0-1 0.3-0.4 0.2-0.5 0.5 0 0.2-0.1 0.2 0 0.1-0.2 0.1h-0.1q-0.1 0-0.2-0.1-0.1-0.1-0.1-0.2 0-0.2 0.1-0.4 0.2-0.3 0.4-0.5 0.3-0.3 0.7-0.4 0.4-0.2 1-0.2 0.7 0 1.2 0.2 0.5 0.2 0.7 0.5 0.3 0.3 0.4 0.7 0.1 0.3 0.1 0.7v4q0 0.3-0.3 0.3zm-2.2-0.6q0.4 0 0.7-0.2 0.4-0.1 0.7-0.4 0.3-0.2 0.4-0.7 0.2-0.4 0.2-1v-0.4l-1.6 0.3q-2 0.2-2 1.2 0 0.3 0.2 0.5 0.1 0.3 0.3 0.4 0.2 0.1 0.5 0.2 0.3 0.1 0.6 0.1z"/>
						<path id="&lt;Compound Path&gt;" class="s17" d="m809.4 109.2q0.3-0.4 0.7-0.6 0.4-0.2 1-0.2 0.7 0 1.2 0.3 0.5 0.3 0.8 0.8 0.2-0.5 0.8-0.8 0.5-0.3 1.2-0.3 0.5 0 0.9 0.2 0.4 0.1 0.7 0.5 0.3 0.3 0.5 0.8 0.1 0.5 0.1 1.1v3.5q0 0.3-0.2 0.3h-0.2q-0.3 0-0.3-0.3v-3.4q0-0.6-0.1-1-0.2-0.3-0.4-0.6-0.2-0.2-0.5-0.3-0.3-0.1-0.6-0.1-0.3 0-0.6 0.1-0.3 0.1-0.5 0.3-0.2 0.3-0.4 0.6-0.1 0.4-0.1 1v3.4q0 0.3-0.3 0.3h-0.2q-0.2 0-0.2-0.3v-3.4q0-0.6-0.2-1-0.1-0.3-0.4-0.6-0.2-0.2-0.5-0.3-0.3-0.1-0.6-0.1-0.3 0-0.5 0.1-0.3 0.1-0.6 0.3-0.2 0.3-0.3 0.6-0.2 0.4-0.2 1v3.4q0 0.3-0.2 0.3h-0.2q-0.3 0-0.3-0.3v-5.7q0-0.3 0.3-0.3h0.2q0.2 0 0.2 0.3z"/>
						<path id="&lt;Compound Path&gt;" class="s17" d="m819.2 114q0-0.2 0.1-0.3 0-0.1 0.2-0.1h0.5q0.1 0 0.2 0.1 0 0.1 0 0.1 0 0.1 0 0.2l-0.6 1.4q0 0.1-0.1 0.2 0 0.1-0.2 0.1h-0.2q-0.1 0-0.1-0.1-0.1-0.1 0-0.2z"/>
						<path id="&lt;Compound Path&gt;" fill-rule="evenodd" class="s17" d="m827.4 114.9q-0.7 0-1.2-0.3-0.4-0.2-0.7-0.6-0.3-0.4-0.5-0.9-0.1-0.5-0.1-1.1 0-0.1 0-0.4 0-0.2 0-0.4 0-0.5 0.1-1 0.2-0.5 0.5-0.9 0.3-0.4 0.7-0.7 0.5-0.2 1.2-0.2 0.8 0 1.3 0.3 0.5 0.2 0.8 0.6v-0.5q0-0.3 0.2-0.3h0.2q0.3 0 0.3 0.3v8q0 0.2-0.3 0.2h-0.2q-0.2 0-0.2-0.2v-2.9q-0.3 0.4-0.8 0.7-0.5 0.3-1.3 0.3zm2.1-3.7q-0.1-0.4-0.2-0.7-0.1-0.4-0.3-0.7-0.3-0.3-0.6-0.5-0.4-0.2-0.9-0.2-0.5 0-0.9 0.2-0.3 0.2-0.6 0.5-0.2 0.3-0.3 0.7-0.1 0.4-0.1 0.8 0 0.3 0 0.7 0 0.4 0.1 0.8 0.1 0.4 0.3 0.7 0.3 0.3 0.6 0.5 0.4 0.2 0.9 0.2 0.5 0 0.9-0.2 0.3-0.2 0.6-0.5 0.2-0.3 0.3-0.6 0.1-0.4 0.2-0.8 0-0.1 0-0.4 0-0.3 0-0.5z"/>
						<path id="&lt;Compound Path&gt;" class="s17" d="m832.1 108.8q0-0.3 0.2-0.3h0.2q0.3 0 0.3 0.3v3.3q0 2.1 1.8 2.1 0.9 0 1.4-0.6 0.5-0.5 0.5-1.5v-3.3q0-0.3 0.2-0.3h0.3q0.2 0 0.2 0.3v5.7q0 0.3-0.2 0.3h-0.3q-0.2 0-0.2-0.3v-0.6q-0.3 0.4-0.8 0.7-0.5 0.3-1.2 0.3-0.6 0-1.1-0.2-0.4-0.2-0.7-0.6-0.3-0.4-0.5-0.8-0.1-0.5-0.1-1.1z"/>
						<path id="&lt;Compound Path&gt;" class="s17" d="m840 107q0 0.1-0.1 0.2 0 0-0.2 0h-0.4q-0.3 0-0.3-0.2v-0.5q0-0.1 0.1-0.2 0.1-0.1 0.2-0.1h0.4q0.2 0 0.2 0.1 0.1 0.1 0.1 0.2zm-0.1 7.5q0 0.3-0.3 0.3h-0.2q-0.2 0-0.2-0.3v-5.7q0-0.2 0.2-0.2h0.2q0.3 0 0.3 0.2z"/>
						<path id="&lt;Compound Path&gt;" class="s17" d="m845.5 113.1q0-0.3-0.1-0.4-0.1-0.2-0.4-0.3-0.2-0.2-0.6-0.3-0.4-0.1-0.9-0.2-0.6-0.2-1-0.3-0.3-0.2-0.5-0.4-0.3-0.3-0.3-0.5-0.1-0.3-0.1-0.6 0-0.3 0.1-0.6 0.2-0.3 0.4-0.5 0.3-0.3 0.7-0.4 0.4-0.2 1-0.2 0.5 0 1 0.2 0.4 0.1 0.6 0.3 0.3 0.2 0.4 0.5 0.1 0.2 0.2 0.3 0 0.1-0.1 0.2-0.1 0.1-0.2 0.1h-0.2q-0.2 0-0.2-0.2-0.1-0.1-0.3-0.3-0.1-0.1-0.2-0.2-0.2-0.1-0.4-0.1-0.3-0.1-0.6-0.1-0.8 0-1.1 0.3-0.4 0.3-0.4 0.7 0 0.2 0.1 0.4 0.1 0.2 0.3 0.3 0.2 0.1 0.5 0.2 0.4 0.2 1 0.3 0.6 0.1 0.9 0.3 0.4 0.2 0.7 0.4 0.2 0.2 0.3 0.5 0.1 0.3 0.1 0.6 0 0.3-0.2 0.7-0.1 0.3-0.4 0.5-0.3 0.3-0.8 0.4-0.4 0.2-1 0.2-0.6 0-1.1-0.2-0.4-0.2-0.7-0.4-0.3-0.2-0.4-0.4-0.2-0.3-0.2-0.4 0-0.1 0.1-0.2 0.1-0.1 0.2-0.1h0.2q0 0 0.1 0.1 0.1 0 0.1 0.1 0.1 0.1 0.3 0.3 0.1 0.1 0.3 0.2 0.2 0.1 0.5 0.2 0.3 0.1 0.6 0.1 0.7 0 1.2-0.3 0.5-0.3 0.5-0.8z"/>
						<path id="&lt;Compound Path&gt;" class="s17" d="m698.4 128.9q0 0.3-0.2 0.3h-0.2q-0.3 0-0.3-0.3v-3.4q0-0.9-0.5-1.5-0.4-0.5-1.3-0.5-0.9 0-1.4 0.5-0.5 0.6-0.5 1.5v3.4q0 0.3-0.3 0.3h-0.2q-0.3 0-0.3-0.3v-5.7q0-0.3 0.3-0.3h0.2q0.3 0 0.3 0.3v0.5q0.3-0.4 0.7-0.6 0.5-0.3 1.3-0.3 0.6 0 1 0.2 0.5 0.2 0.8 0.6 0.3 0.3 0.5 0.8 0.1 0.5 0.1 1.1z"/>
						<path id="&lt;Compound Path&gt;" fill-rule="evenodd" class="s17" d="m702.7 122.8q0.6 0 1.1 0.2 0.5 0.2 0.8 0.6 0.4 0.3 0.6 0.9 0.1 0.5 0.2 1 0 0.1 0 0.3 0 0.1 0 0.2 0 0.2 0 0.3 0 0.2 0 0.2-0.1 0.6-0.2 1.1-0.2 0.5-0.6 0.9-0.3 0.4-0.8 0.6-0.5 0.2-1.1 0.2-0.7 0-1.2-0.2-0.4-0.2-0.8-0.6-0.3-0.4-0.5-0.9-0.2-0.5-0.2-1.1 0 0 0-0.2 0-0.1 0-0.3 0-0.1 0-0.2 0-0.2 0-0.3 0-0.5 0.2-1 0.2-0.6 0.5-0.9 0.4-0.4 0.8-0.6 0.5-0.2 1.2-0.2zm1.9 2.8q0-1-0.5-1.6-0.6-0.5-1.4-0.5-0.9 0-1.4 0.5-0.5 0.6-0.5 1.6-0.1 0.2-0.1 0.4 0 0.3 0.1 0.5 0 1 0.5 1.5 0.5 0.6 1.4 0.6 0.8 0 1.4-0.6 0.5-0.5 0.5-1.5 0-0.2 0-0.5 0-0.2 0-0.4z"/>
						<path id="&lt;Compound Path&gt;" class="s17" d="m710.6 127.5q0-0.3-0.1-0.4-0.1-0.2-0.3-0.3-0.2-0.2-0.6-0.3-0.4-0.1-1-0.2-0.5-0.2-0.9-0.3-0.4-0.2-0.6-0.4-0.2-0.3-0.2-0.5-0.1-0.3-0.1-0.6 0-0.3 0.1-0.6 0.1-0.3 0.4-0.5 0.3-0.3 0.7-0.4 0.4-0.2 0.9-0.2 0.6 0 1 0.2 0.4 0.1 0.7 0.3 0.3 0.2 0.4 0.5 0.1 0.2 0.1 0.3 0 0.1 0 0.2-0.1 0.1-0.2 0.1h-0.2q-0.2 0-0.3-0.2-0.1-0.1-0.2-0.3-0.1-0.1-0.3-0.2-0.1-0.1-0.4-0.1-0.2-0.1-0.6-0.1-0.7 0-1 0.3-0.4 0.3-0.4 0.7 0 0.2 0.1 0.4 0.1 0.2 0.3 0.3 0.2 0.1 0.5 0.2 0.4 0.2 0.9 0.3 0.6 0.1 1 0.3 0.4 0.2 0.6 0.4 0.3 0.2 0.4 0.5 0.1 0.3 0.1 0.6 0 0.3-0.2 0.7-0.1 0.3-0.4 0.5-0.3 0.3-0.8 0.4-0.4 0.2-1 0.2-0.6 0-1.1-0.2-0.4-0.2-0.7-0.4-0.3-0.2-0.5-0.4-0.1-0.3-0.1-0.4 0-0.1 0.1-0.2 0.1-0.1 0.2-0.1h0.1q0.1 0 0.2 0.1 0 0 0.1 0.1 0.1 0.1 0.3 0.3 0.1 0.1 0.3 0.2 0.2 0.1 0.5 0.2 0.2 0.1 0.6 0.1 0.7 0 1.2-0.3 0.4-0.3 0.4-0.8z"/>
						<path id="&lt;Compound Path&gt;" class="s17" d="m714.1 127.1q0 0.7 0.2 1 0.2 0.4 0.8 0.4h0.6q0.3 0 0.3 0.2v0.2q0 0.3-0.3 0.3h-0.7q-0.5 0-0.8-0.2-0.3-0.2-0.5-0.4-0.2-0.3-0.2-0.7-0.1-0.3-0.1-0.7v-3.6h-1q-0.2 0-0.2-0.2v-0.2q0-0.3 0.2-0.3h1v-2q0-0.3 0.2-0.3h0.2q0.3 0 0.3 0.3v2h1.5q0.3 0 0.3 0.3v0.2q0 0.2-0.3 0.2h-1.5z"/>
						<path id="&lt;Compound Path&gt;" class="s17" d="m719.6 122.9h0.4q0.3 0 0.3 0.3v0.2q0 0.2-0.3 0.2h-0.5q-0.7 0-1.1 0.4-0.4 0.5-0.4 1.2v3.7q0 0.1-0.1 0.2-0.1 0.1-0.2 0.1h-0.2q-0.3 0-0.3-0.3v-5.7q0-0.1 0.1-0.2 0.1-0.1 0.2-0.1h0.2q0.1 0 0.2 0.1 0.1 0.1 0.1 0.2v0.5q0.4-0.8 1.6-0.8z"/>
						<path id="&lt;Compound Path&gt;" class="s17" d="m721.3 123.2q0-0.3 0.3-0.3h0.2q0.3 0 0.3 0.3v3.3q0 2.1 1.8 2.1 0.8 0 1.3-0.6 0.5-0.5 0.5-1.5v-3.3q0-0.3 0.3-0.3h0.2q0.3 0 0.3 0.3v5.7q0 0.3-0.3 0.3h-0.2q-0.3 0-0.3-0.3v-0.6q-0.3 0.4-0.7 0.7-0.5 0.3-1.3 0.3-0.6 0-1-0.2-0.5-0.2-0.8-0.6-0.3-0.3-0.4-0.8-0.2-0.5-0.2-1.1z"/>
						<path id="&lt;Compound Path&gt;" fill-rule="evenodd" class="s17" d="m730.7 122.8q0.7 0 1.2 0.3 0.5 0.3 0.8 0.6v-2.8q0-0.3 0.3-0.3h0.2q0.2 0 0.2 0.3v8q0 0.3-0.2 0.3h-0.2q-0.3 0-0.3-0.3v-0.6q-0.3 0.4-0.8 0.7-0.5 0.3-1.2 0.3-0.7 0-1.2-0.3-0.5-0.2-0.8-0.7-0.3-0.4-0.4-0.9-0.2-0.5-0.2-1 0-0.4 0-0.7 0-0.5 0.2-1 0.1-0.6 0.4-1 0.3-0.4 0.8-0.6 0.5-0.3 1.2-0.3zm2 3.7q0-0.2 0-0.5 0-0.3 0-0.5 0-0.3-0.1-0.7-0.2-0.4-0.4-0.6-0.2-0.3-0.6-0.5-0.4-0.2-0.9-0.2-0.5 0-0.8 0.2-0.4 0.2-0.6 0.5-0.2 0.3-0.3 0.7-0.2 0.4-0.2 0.8 0 0.3 0 0.7 0 0.4 0.2 0.8 0.1 0.4 0.3 0.7 0.2 0.3 0.6 0.5 0.3 0.2 0.8 0.2 0.6 0 0.9-0.2 0.4-0.2 0.6-0.5 0.2-0.3 0.4-0.7 0.1-0.4 0.1-0.7z"/>
						<path id="&lt;Compound Path&gt;" fill-rule="evenodd" class="s17" d="m738.2 125.6q0-0.7 0.2-1.2 0.2-0.5 0.5-0.8 0.4-0.4 0.8-0.6 0.5-0.2 1.1-0.2 1.2 0 1.9 0.8 0.7 0.8 0.7 2.3v0.2q0 0.1 0 0.2-0.1 0-0.2 0h-4.3v0.2q0 0.4 0.1 0.7 0.2 0.4 0.4 0.7 0.3 0.3 0.6 0.5 0.4 0.2 0.8 0.2 0.4 0 0.7-0.1 0.2-0.1 0.5-0.2 0.2-0.2 0.3-0.3 0.1-0.1 0.2-0.2 0.1-0.2 0.1-0.2 0.1 0 0.2 0h0.2q0.1 0 0.2 0.1 0.1 0 0.1 0.1-0.1 0.2-0.2 0.4-0.2 0.3-0.5 0.5-0.3 0.3-0.8 0.4-0.4 0.2-1 0.2-0.6 0-1.1-0.2-0.4-0.2-0.8-0.6-0.3-0.4-0.5-0.9-0.2-0.5-0.2-1.1-0.1-0.2-0.1-0.5 0-0.3 0.1-0.4zm0.7 0.1h3.8v-0.1q0-0.4-0.1-0.8-0.2-0.4-0.4-0.7-0.2-0.3-0.6-0.4-0.4-0.2-0.8-0.2-0.5 0-0.8 0.2-0.4 0.1-0.6 0.4-0.3 0.3-0.4 0.7-0.1 0.4-0.1 0.8z"/>
						<path id="&lt;Compound Path&gt;" class="s17" d="m747 126.6l-1.8 2.4q-0.1 0-0.2 0.1 0 0.1-0.1 0.1h-0.3q-0.1 0-0.2-0.1 0-0.1 0-0.2 0 0 0-0.1 0 0 0.1-0.1l2.1-2.7-2-2.6q-0.1-0.1-0.1-0.1 0-0.1 0-0.1 0-0.1 0.1-0.2 0-0.1 0.1-0.1h0.3q0.1 0 0.2 0.1 0 0 0.1 0.1l1.8 2.3 1.8-2.3q0 0 0.1-0.1 0.1-0.1 0.2-0.1h0.2q0.1 0 0.2 0.1 0.1 0.1 0.1 0.2 0 0-0.1 0.1 0 0 0 0.1l-2.1 2.6 2.1 2.7q0.1 0.1 0.1 0.1 0 0.1 0 0.1 0 0.1 0 0.2-0.1 0.1-0.2 0.1h-0.3q-0.1 0-0.1-0.1-0.1-0.1-0.2-0.1z"/>
						<path id="&lt;Compound Path&gt;" fill-rule="evenodd" class="s17" d="m750.7 125.6q0-0.7 0.2-1.2 0.2-0.5 0.6-0.8 0.3-0.4 0.8-0.6 0.4-0.2 1-0.2 1.3 0 2 0.8 0.7 0.8 0.7 2.3v0.2q0 0.1-0.1 0.2-0.1 0-0.2 0h-4.3v0.2q0 0.4 0.2 0.7 0.1 0.4 0.3 0.7 0.3 0.3 0.6 0.5 0.4 0.2 0.8 0.2 0.4 0 0.7-0.1 0.3-0.1 0.5-0.2 0.2-0.2 0.3-0.3 0.1-0.1 0.2-0.2 0.1-0.2 0.1-0.2 0.1 0 0.2 0h0.2q0.1 0 0.2 0.1 0.1 0 0.1 0.1 0 0.2-0.2 0.4-0.2 0.3-0.5 0.5-0.3 0.3-0.8 0.4-0.4 0.2-1 0.2-0.6 0-1-0.2-0.5-0.2-0.8-0.6-0.4-0.4-0.6-0.9-0.2-0.5-0.2-1.1 0-0.2 0-0.5 0-0.3 0-0.4zm0.7 0.1h3.8v-0.1q0-0.4-0.1-0.8-0.1-0.4-0.4-0.7-0.2-0.3-0.6-0.4-0.3-0.2-0.8-0.2-0.4 0-0.8 0.2-0.3 0.1-0.6 0.4-0.2 0.3-0.4 0.7-0.1 0.4-0.1 0.8z"/>
						<path id="&lt;Compound Path&gt;" class="s17" d="m759.9 122.9h0.5q0.2 0 0.2 0.3v0.2q0 0.2-0.2 0.2h-0.6q-0.7 0-1.1 0.4-0.4 0.5-0.4 1.2v3.7q0 0.1-0.1 0.2-0.1 0.1-0.2 0.1h-0.2q-0.3 0-0.3-0.3v-5.7q0-0.1 0.1-0.2 0.1-0.1 0.2-0.1h0.2q0.1 0 0.2 0.1 0.1 0.1 0.1 0.2v0.5q0.4-0.8 1.6-0.8z"/>
						<path id="&lt;Compound Path&gt;" class="s17" d="m762 125.6q0 0.2 0 0.4 0 0.3 0 0.5 0.1 1.1 0.6 1.6 0.5 0.5 1.3 0.5 0.7 0 1.1-0.3 0.5-0.3 0.7-0.9 0.1-0.2 0.1-0.2 0.1-0.1 0.2-0.1h0.2q0.1 0 0.2 0.1 0 0.1 0 0.2 0 0.3-0.1 0.6-0.2 0.4-0.5 0.6-0.3 0.3-0.8 0.5-0.4 0.2-1.1 0.2-1.2 0-1.9-0.8-0.7-0.7-0.7-2 0-0.2 0-0.5 0-0.3 0-0.4 0-1.3 0.7-2.1 0.7-0.7 1.9-0.7 0.7 0 1.1 0.2 0.5 0.1 0.8 0.4 0.3 0.3 0.5 0.6 0.1 0.4 0.1 0.7 0 0.1 0 0.2-0.1 0.1-0.2 0.1h-0.2q-0.1 0-0.2-0.1 0 0-0.1-0.2-0.2-0.7-0.7-0.9-0.4-0.3-1.1-0.3-0.8 0-1.3 0.5-0.5 0.5-0.6 1.6z"/>
						<path id="&lt;Compound Path&gt;" class="s17" d="m768.9 121.4q0 0.1-0.1 0.2-0.1 0-0.2 0h-0.5q-0.2 0-0.2-0.2v-0.5q0-0.1 0.1-0.2 0-0.1 0.1-0.1h0.5q0.1 0 0.2 0.1 0.1 0.1 0.1 0.2zm-0.2 7.5q0 0.3-0.2 0.3h-0.2q-0.3 0-0.3-0.3v-5.7q0-0.2 0.3-0.2h0.2q0.2 0 0.2 0.2z"/>
						<path id="&lt;Compound Path&gt;" class="s17" d="m771.9 127.1q0 0.7 0.2 1 0.2 0.4 0.7 0.4h0.7q0.3 0 0.3 0.2v0.2q0 0.3-0.3 0.3h-0.7q-0.5 0-0.8-0.2-0.3-0.2-0.5-0.4-0.2-0.3-0.3-0.7 0-0.3 0-0.7v-3.6h-1q-0.2 0-0.2-0.2v-0.2q0-0.3 0.2-0.3h1v-2q0-0.3 0.2-0.3h0.2q0.3 0 0.3 0.3v2h1.5q0.2 0 0.2 0.3v0.2q0 0.2-0.2 0.2h-1.5z"/>
						<path id="&lt;Compound Path&gt;" fill-rule="evenodd" class="s17" d="m779.1 129.2q-0.3 0-0.3-0.3v-0.6q-0.1 0.2-0.3 0.4-0.2 0.1-0.4 0.3-0.3 0.1-0.6 0.2-0.4 0.1-0.8 0.1-0.5 0-0.8-0.2-0.4-0.1-0.7-0.3-0.3-0.3-0.5-0.6-0.2-0.3-0.2-0.7 0-0.4 0.2-0.7 0.2-0.4 0.5-0.6 0.3-0.3 0.7-0.4 0.5-0.2 1-0.3l1.9-0.2v-0.4q0-0.7-0.4-1-0.4-0.4-1.2-0.4-0.7 0-1.1 0.3-0.3 0.2-0.4 0.5-0.1 0.2-0.1 0.2-0.1 0.1-0.2 0.1h-0.2q-0.1 0-0.2-0.1-0.1-0.1-0.1-0.2 0-0.2 0.2-0.4 0.1-0.3 0.4-0.5 0.2-0.3 0.6-0.4 0.5-0.2 1.1-0.2 0.7 0 1.1 0.2 0.5 0.2 0.8 0.5 0.2 0.3 0.3 0.7 0.1 0.3 0.1 0.7v4q0 0.3-0.2 0.3zm-2.3-0.6q0.4 0 0.8-0.2 0.3-0.1 0.6-0.4 0.3-0.2 0.4-0.7 0.2-0.4 0.2-0.9v-0.5l-1.5 0.3q-2 0.2-2 1.2 0 0.3 0.1 0.5 0.1 0.3 0.4 0.4 0.2 0.2 0.4 0.2 0.3 0.1 0.6 0.1z"/>
						<path id="&lt;Compound Path&gt;" class="s17" d="m782.6 127.1q0 0.7 0.2 1 0.2 0.4 0.7 0.4h0.7q0.2 0 0.2 0.2v0.2q0 0.3-0.2 0.3h-0.7q-0.5 0-0.8-0.2-0.3-0.2-0.5-0.4-0.2-0.3-0.3-0.7-0.1-0.3-0.1-0.7v-3.6h-0.9q-0.3 0-0.3-0.2v-0.2q0-0.3 0.3-0.3h0.9v-2q0-0.3 0.3-0.3h0.2q0.3 0 0.3 0.3v2h1.5q0.2 0 0.2 0.3v0.2q0 0.2-0.2 0.2h-1.5z"/>
						<path id="&lt;Compound Path&gt;" class="s17" d="m786.5 121.4q0 0.1 0 0.2-0.1 0-0.2 0h-0.5q-0.3 0-0.3-0.2v-0.5q0-0.1 0.1-0.2 0.1-0.1 0.2-0.1h0.5q0.1 0 0.2 0.1 0 0.1 0 0.2zm-0.1 7.5q0 0.3-0.3 0.3h-0.2q-0.2 0-0.2-0.3v-5.7q0-0.2 0.2-0.2h0.2q0.3 0 0.3 0.2z"/>
						<path id="&lt;Compound Path&gt;" fill-rule="evenodd" class="s17" d="m790.7 122.8q0.7 0 1.2 0.2 0.5 0.2 0.8 0.6 0.3 0.3 0.5 0.9 0.2 0.5 0.2 1 0 0.1 0 0.3 0 0.1 0 0.2 0 0.2 0 0.3 0 0.2 0 0.2 0 0.6-0.2 1.1-0.2 0.5-0.5 0.9-0.3 0.4-0.8 0.6-0.5 0.2-1.2 0.2-0.6 0-1.1-0.2-0.5-0.2-0.8-0.6-0.4-0.4-0.5-0.9-0.2-0.5-0.2-1.1 0 0 0-0.2 0-0.1 0-0.3 0-0.1 0-0.2 0-0.2 0-0.3 0-0.5 0.2-1 0.1-0.6 0.5-0.9 0.3-0.4 0.8-0.6 0.5-0.2 1.1-0.2zm2 2.8q-0.1-1-0.6-1.6-0.5-0.5-1.4-0.5-0.8 0-1.3 0.5-0.6 0.6-0.6 1.6 0 0.2 0 0.4 0 0.3 0 0.5 0 1 0.6 1.5 0.5 0.6 1.3 0.6 0.9 0 1.4-0.6 0.5-0.5 0.6-1.5 0-0.2 0-0.5 0-0.2 0-0.4z"/>
						<path id="&lt;Compound Path&gt;" class="s17" d="m800.2 128.9q0 0.3-0.2 0.3h-0.2q-0.3 0-0.3-0.3v-3.4q0-0.9-0.5-1.5-0.4-0.5-1.3-0.5-0.9 0-1.4 0.5-0.5 0.6-0.5 1.5v3.4q0 0.3-0.3 0.3h-0.2q-0.3 0-0.3-0.3v-5.7q0-0.3 0.3-0.3h0.2q0.3 0 0.3 0.3v0.5q0.3-0.4 0.8-0.6 0.4-0.3 1.2-0.3 0.6 0 1.1 0.2 0.4 0.2 0.7 0.6 0.3 0.3 0.5 0.8 0.1 0.5 0.1 1.1z"/>
						<path id="&lt;Compound Path&gt;" class="s17" d="m805.2 123.2q0-0.3 0.2-0.3h0.2q0.3 0 0.3 0.3v3.3q0 2.1 1.8 2.1 0.8 0 1.4-0.6 0.5-0.5 0.5-1.5v-3.3q0-0.3 0.2-0.3h0.2q0.3 0 0.3 0.3v5.7q0 0.3-0.3 0.3h-0.2q-0.2 0-0.2-0.3v-0.6q-0.4 0.4-0.8 0.7-0.5 0.3-1.2 0.3-0.6 0-1.1-0.2-0.4-0.2-0.7-0.6-0.3-0.3-0.5-0.8-0.1-0.5-0.1-1.1z"/>
						<path id="&lt;Compound Path&gt;" class="s17" d="m813 128.9q0 0.3-0.3 0.3h-0.2q-0.2 0-0.2-0.3v-8q0-0.3 0.2-0.3h0.2q0.3 0 0.3 0.3z"/>
						<path id="&lt;Compound Path&gt;" class="s17" d="m815.7 128.9q0 0.3-0.3 0.3h-0.2q-0.2 0-0.2-0.3v-8q0-0.3 0.2-0.3h0.2q0.3 0 0.3 0.3z"/>
						<path id="&lt;Compound Path&gt;" fill-rule="evenodd" class="s17" d="m821.7 129.2q-0.3 0-0.3-0.3v-0.6q-0.1 0.2-0.2 0.4-0.2 0.1-0.5 0.3-0.2 0.1-0.6 0.2-0.3 0.1-0.8 0.1-0.4 0-0.8-0.2-0.4-0.1-0.7-0.3-0.3-0.3-0.4-0.6-0.2-0.3-0.2-0.7 0-0.4 0.2-0.7 0.1-0.4 0.4-0.6 0.3-0.3 0.8-0.4 0.4-0.2 1-0.3l1.8-0.2v-0.4q0-0.7-0.3-1-0.4-0.4-1.3-0.4-0.7 0-1 0.3-0.4 0.2-0.5 0.5 0 0.2-0.1 0.2-0.1 0.1-0.2 0.1h-0.1q-0.1 0-0.2-0.1-0.1-0.1-0.1-0.2 0-0.2 0.1-0.4 0.1-0.3 0.4-0.5 0.3-0.3 0.7-0.4 0.4-0.2 1-0.2 0.7 0 1.2 0.2 0.4 0.2 0.7 0.5 0.3 0.3 0.4 0.7 0.1 0.3 0.1 0.7v4q0 0.3-0.3 0.3zm-2.3-0.6q0.5 0 0.8-0.2 0.4-0.1 0.7-0.4 0.2-0.2 0.4-0.7 0.2-0.4 0.2-0.9v-0.5l-1.6 0.3q-2 0.2-2 1.2 0 0.3 0.2 0.5 0.1 0.3 0.3 0.4 0.2 0.2 0.5 0.2 0.3 0.1 0.5 0.1z"/>
						<path id="&lt;Compound Path&gt;" class="s17" d="m824.8 123.6q0.3-0.4 0.7-0.6 0.4-0.2 1-0.2 0.7 0 1.2 0.3 0.5 0.3 0.7 0.8 0.3-0.5 0.9-0.8 0.5-0.3 1.2-0.3 0.5 0 0.9 0.2 0.4 0.1 0.7 0.5 0.3 0.3 0.5 0.8 0.1 0.5 0.1 1.1v3.5q0 0.3-0.2 0.3h-0.2q-0.3 0-0.3-0.3v-3.4q0-0.6-0.1-1-0.2-0.3-0.4-0.6-0.2-0.2-0.5-0.3-0.3-0.1-0.6-0.1-0.3 0-0.6 0.1-0.3 0.1-0.5 0.3-0.2 0.3-0.4 0.6-0.1 0.4-0.1 1v3.4q0 0.3-0.3 0.3h-0.2q-0.3 0-0.3-0.3v-3.4q0-0.6-0.1-1-0.2-0.3-0.4-0.6-0.2-0.2-0.5-0.3-0.3-0.1-0.6-0.1-0.3 0-0.6 0.1-0.2 0.1-0.5 0.3-0.2 0.3-0.3 0.6-0.2 0.4-0.2 1v3.4q0 0.3-0.3 0.3h-0.2q-0.2 0-0.2-0.3v-5.7q0-0.3 0.2-0.3h0.2q0.3 0 0.3 0.3z"/>
						<path id="&lt;Compound Path&gt;" class="s17" d="m835.1 125.6q-0.1 0.2-0.1 0.4 0 0.3 0.1 0.5 0 1.1 0.5 1.6 0.6 0.5 1.4 0.5 0.6 0 1-0.3 0.5-0.3 0.7-0.9 0.1-0.2 0.1-0.2 0.1-0.1 0.2-0.1h0.2q0.1 0 0.2 0.1 0.1 0.1 0.1 0.2-0.1 0.3-0.2 0.6-0.2 0.4-0.5 0.6-0.3 0.3-0.7 0.5-0.5 0.2-1.1 0.2-1.3 0-2-0.8-0.6-0.7-0.7-2 0-0.2 0-0.5 0-0.3 0-0.4 0.1-1.3 0.7-2.1 0.7-0.7 2-0.7 0.6 0 1.1 0.2 0.4 0.1 0.7 0.4 0.3 0.3 0.5 0.6 0.1 0.4 0.2 0.7 0 0.1-0.1 0.2-0.1 0.1-0.2 0.1h-0.2q-0.1 0-0.2-0.1 0 0-0.1-0.2-0.2-0.7-0.7-0.9-0.4-0.3-1-0.3-0.8 0-1.4 0.5-0.5 0.5-0.5 1.6z"/>
						<path id="&lt;Compound Path&gt;" fill-rule="evenodd" class="s17" d="m843.4 122.8q0.7 0 1.2 0.2 0.5 0.2 0.8 0.6 0.3 0.3 0.5 0.9 0.2 0.5 0.2 1 0 0.1 0 0.3 0 0.1 0 0.2 0 0.2 0 0.3 0 0.2 0 0.2 0 0.6-0.2 1.1-0.2 0.5-0.5 0.9-0.3 0.4-0.8 0.6-0.5 0.2-1.2 0.2-0.6 0-1.1-0.2-0.5-0.2-0.8-0.6-0.4-0.4-0.6-0.9-0.1-0.5-0.1-1.1 0 0-0.1-0.2 0-0.1 0-0.3 0-0.1 0-0.2 0.1-0.2 0.1-0.3 0-0.5 0.1-1 0.2-0.6 0.6-0.9 0.3-0.4 0.8-0.6 0.5-0.2 1.1-0.2zm2 2.8q-0.1-1-0.6-1.6-0.5-0.5-1.4-0.5-0.8 0-1.3 0.5-0.6 0.6-0.6 1.6 0 0.2 0 0.4 0 0.3 0 0.5 0 1 0.6 1.5 0.5 0.6 1.3 0.6 0.9 0 1.4-0.6 0.5-0.5 0.6-1.5 0-0.2 0-0.5 0-0.2 0-0.4z"/>
						<path id="&lt;Compound Path&gt;" class="s17" d="m706.7 143.3q0 0.3-0.3 0.3h-0.2q-0.2 0-0.2-0.3v-8q0-0.3 0.2-0.3h0.2q0.3 0 0.3 0.3z"/>
						<path id="&lt;Compound Path&gt;" fill-rule="evenodd" class="s17" d="m712.7 143.6q-0.2 0-0.2-0.3v-0.6q-0.2 0.2-0.3 0.4-0.2 0.1-0.5 0.3-0.2 0.1-0.6 0.2-0.3 0.1-0.8 0.1-0.4 0-0.8-0.2-0.4-0.1-0.7-0.3-0.3-0.3-0.4-0.6-0.2-0.3-0.2-0.7 0-0.4 0.2-0.7 0.1-0.4 0.4-0.6 0.4-0.3 0.8-0.4 0.4-0.2 1-0.3l1.9-0.2v-0.4q0-0.7-0.4-1-0.4-0.4-1.3-0.4-0.6 0-1 0.3-0.4 0.2-0.5 0.5 0 0.2-0.1 0.2-0.1 0.1-0.2 0.1h-0.1q-0.1 0-0.2-0.1-0.1-0.1-0.1-0.2 0-0.2 0.1-0.4 0.1-0.3 0.4-0.5 0.3-0.3 0.7-0.4 0.4-0.2 1-0.2 0.7 0 1.2 0.2 0.5 0.2 0.7 0.5 0.3 0.3 0.4 0.7 0.1 0.3 0.1 0.7v4q0 0.3-0.3 0.3zm-2.2-0.6q0.4 0 0.7-0.2 0.4-0.1 0.7-0.4 0.2-0.2 0.4-0.7 0.2-0.4 0.2-0.9v-0.5l-1.6 0.3q-2 0.2-2 1.2 0 0.3 0.2 0.5 0.1 0.3 0.3 0.4 0.2 0.2 0.5 0.2 0.3 0.1 0.6 0.1z"/>
						<path id="&lt;Compound Path&gt;" fill-rule="evenodd" class="s17" d="m717.8 137.2q0.7 0 1.2 0.3 0.5 0.2 0.8 0.6 0.3 0.4 0.4 1 0.2 0.5 0.2 1 0 0.3 0 0.7 0 0.5-0.2 1-0.1 0.5-0.4 0.9-0.3 0.5-0.8 0.7-0.5 0.3-1.2 0.3-0.7 0-1.2-0.3-0.5-0.3-0.8-0.7v0.6q0 0.3-0.2 0.3h-0.2q-0.3 0-0.3-0.3v-8q0-0.3 0.3-0.3h0.2q0.2 0 0.2 0.3v2.8q0.3-0.3 0.8-0.6 0.5-0.3 1.2-0.3zm-2 3.7q0 0.3 0.2 0.7 0.1 0.4 0.3 0.7 0.2 0.3 0.6 0.5 0.4 0.2 0.9 0.2 0.5 0 0.9-0.2 0.3-0.2 0.5-0.5 0.3-0.3 0.4-0.7 0.1-0.4 0.1-0.8 0-0.4 0-0.7 0-0.4-0.1-0.8-0.1-0.4-0.4-0.7-0.2-0.3-0.5-0.5-0.4-0.2-0.9-0.2-0.5 0-0.9 0.2-0.4 0.2-0.6 0.5-0.2 0.2-0.3 0.6-0.2 0.4-0.2 0.7 0 0.2 0 0.5 0 0.3 0 0.5z"/>
						<path id="&lt;Compound Path&gt;" fill-rule="evenodd" class="s17" d="m724.4 137.2q0.7 0 1.2 0.2 0.5 0.2 0.8 0.6 0.3 0.4 0.5 0.9 0.2 0.5 0.2 1 0 0.1 0 0.3 0 0.1 0 0.2 0 0.2 0 0.3 0 0.2 0 0.2 0 0.6-0.2 1.1-0.2 0.5-0.5 0.9-0.3 0.4-0.8 0.6-0.5 0.2-1.2 0.2-0.6 0-1.1-0.2-0.5-0.2-0.8-0.6-0.4-0.4-0.6-0.9-0.1-0.5-0.1-1.1 0 0-0.1-0.2 0-0.1 0-0.3 0-0.1 0-0.2 0.1-0.2 0.1-0.3 0-0.5 0.1-1 0.2-0.5 0.6-0.9 0.3-0.4 0.8-0.6 0.5-0.2 1.1-0.2zm2 2.8q-0.1-1-0.6-1.6-0.5-0.5-1.4-0.5-0.8 0-1.3 0.5-0.6 0.6-0.6 1.6 0 0.2 0 0.4 0 0.3 0 0.5 0 1 0.6 1.5 0.5 0.6 1.3 0.6 0.9 0 1.4-0.6 0.5-0.5 0.6-1.5 0-0.2 0-0.5 0-0.2 0-0.4z"/>
						<path id="&lt;Compound Path&gt;" class="s17" d="m731.1 137.3h0.4q0.3 0 0.3 0.3v0.2q0 0.2-0.3 0.2h-0.5q-0.7 0-1.1 0.4-0.4 0.5-0.4 1.2v3.7q0 0.1-0.1 0.2-0.1 0.1-0.2 0.1h-0.2q-0.3 0-0.3-0.3v-5.7q0-0.1 0.1-0.2 0.1-0.1 0.2-0.1h0.2q0.1 0 0.2 0.1 0.1 0.1 0.1 0.2v0.5q0.4-0.8 1.6-0.8z"/>
						<path id="&lt;Compound Path&gt;" class="s17" d="m733.8 135.8q0 0.1-0.1 0.2-0.1 0-0.2 0h-0.5q-0.2 0-0.2-0.2v-0.5q0-0.1 0.1-0.2 0-0.1 0.1-0.1h0.5q0.1 0 0.2 0.1 0.1 0.1 0.1 0.2zm-0.2 7.5q0 0.3-0.2 0.3h-0.2q-0.3 0-0.3-0.3v-5.7q0-0.2 0.3-0.2h0.2q0.2 0 0.2 0.2z"/>
						<path id="&lt;Compound Path&gt;" class="s17" d="m739.2 141.9q0-0.3-0.1-0.4-0.1-0.2-0.3-0.3-0.2-0.2-0.6-0.3-0.4-0.1-1-0.2-0.6-0.2-0.9-0.3-0.4-0.2-0.6-0.4-0.2-0.3-0.3-0.5 0-0.3 0-0.6 0-0.3 0.1-0.6 0.1-0.3 0.4-0.5 0.3-0.3 0.7-0.4 0.4-0.2 0.9-0.2 0.6 0 1 0.2 0.4 0.1 0.7 0.3 0.3 0.2 0.4 0.5 0.1 0.2 0.1 0.3 0 0.1-0.1 0.2 0 0.1-0.1 0.1h-0.2q-0.2 0-0.3-0.2-0.1-0.1-0.2-0.2-0.1-0.2-0.3-0.3-0.1-0.1-0.4-0.1-0.2-0.1-0.6-0.1-0.7 0-1.1 0.3-0.3 0.3-0.3 0.7 0 0.2 0.1 0.4 0 0.2 0.2 0.3 0.2 0.1 0.6 0.3 0.4 0.1 0.9 0.2 0.6 0.1 1 0.3 0.4 0.2 0.6 0.4 0.3 0.2 0.4 0.5 0.1 0.3 0.1 0.6 0 0.4-0.2 0.7-0.2 0.3-0.5 0.5-0.3 0.3-0.7 0.4-0.4 0.2-1 0.2-0.7 0-1.1-0.2-0.5-0.2-0.7-0.4-0.3-0.2-0.5-0.4-0.1-0.3-0.1-0.4 0-0.1 0.1-0.2 0.1-0.1 0.1-0.1h0.2q0.1 0 0.2 0.1 0 0 0.1 0.1 0.1 0.1 0.2 0.3 0.2 0.1 0.4 0.2 0.2 0.2 0.4 0.2 0.3 0.1 0.7 0.1 0.7 0 1.2-0.3 0.4-0.3 0.4-0.8z"/>
						<path id="&lt;Compound Path&gt;" class="s17" d="m749.8 143.3q0 0.3-0.3 0.3h-0.2q-0.2 0-0.2-0.3v-3.4q0-0.9-0.5-1.5-0.5-0.5-1.4-0.5-0.8 0-1.4 0.5-0.5 0.6-0.5 1.5v3.4q0 0.3-0.2 0.3h-0.2q-0.3 0-0.3-0.3v-5.7q0-0.3 0.3-0.3h0.2q0.2 0 0.2 0.3v0.5q0.3-0.4 0.8-0.6 0.5-0.3 1.2-0.3 0.7 0 1.1 0.2 0.5 0.2 0.8 0.6 0.3 0.3 0.4 0.8 0.2 0.5 0.2 1.1z"/>
						<path id="&lt;Compound Path&gt;" class="s17" d="m752.5 135.8q0 0.1 0 0.2-0.1 0-0.2 0h-0.5q-0.3 0-0.3-0.2v-0.5q0-0.1 0.1-0.2 0.1-0.1 0.2-0.1h0.5q0.1 0 0.2 0.1 0 0.1 0 0.2zm-0.1 7.5q0 0.3-0.3 0.3h-0.2q-0.2 0-0.2-0.3v-5.7q0-0.2 0.2-0.2h0.2q0.3 0 0.3 0.2z"/>
						<path id="&lt;Compound Path&gt;" class="s17" d="m758 141.9q0-0.3-0.1-0.4-0.1-0.2-0.4-0.3-0.2-0.2-0.6-0.3-0.4-0.1-0.9-0.2-0.6-0.2-1-0.3-0.3-0.2-0.5-0.4-0.2-0.3-0.3-0.5-0.1-0.3-0.1-0.6 0-0.3 0.2-0.6 0.1-0.3 0.4-0.5 0.2-0.3 0.6-0.4 0.4-0.2 1-0.2 0.6 0 1 0.2 0.4 0.1 0.6 0.3 0.3 0.2 0.4 0.5 0.2 0.2 0.2 0.3 0 0.1-0.1 0.2-0.1 0.1-0.2 0.1h-0.2q-0.1 0-0.2-0.2-0.1-0.1-0.2-0.2-0.1-0.2-0.3-0.3-0.2-0.1-0.4-0.1-0.3-0.1-0.6-0.1-0.8 0-1.1 0.3-0.3 0.3-0.3 0.7 0 0.2 0 0.4 0.1 0.2 0.3 0.3 0.2 0.1 0.6 0.3 0.3 0.1 0.9 0.2 0.6 0.1 1 0.3 0.3 0.2 0.6 0.4 0.2 0.2 0.3 0.5 0.1 0.3 0.1 0.6 0 0.4-0.1 0.7-0.2 0.3-0.5 0.5-0.3 0.3-0.7 0.4-0.5 0.2-1.1 0.2-0.6 0-1.1-0.2-0.4-0.2-0.7-0.4-0.3-0.2-0.4-0.4-0.1-0.3-0.2-0.4 0-0.1 0.1-0.2 0.1-0.1 0.2-0.1h0.2q0.1 0 0.1 0.1 0.1 0 0.1 0.1 0.2 0.1 0.3 0.3 0.1 0.1 0.3 0.2 0.2 0.2 0.5 0.2 0.3 0.1 0.6 0.1 0.7 0 1.2-0.3 0.5-0.3 0.5-0.8z"/>
						<path id="&lt;Compound Path&gt;" class="s17" d="m761.1 135.8q0 0.1-0.1 0.2 0 0-0.2 0h-0.4q-0.3 0-0.3-0.2v-0.5q0-0.1 0.1-0.2 0.1-0.1 0.2-0.1h0.4q0.2 0 0.2 0.1 0.1 0.1 0.1 0.2zm-0.1 7.5q0 0.3-0.3 0.3h-0.2q-0.2 0-0.2-0.3v-5.7q0-0.2 0.2-0.2h0.2q0.3 0 0.3 0.2z"/>
						<path id="&lt;Compound Path&gt;" class="s17" d="m766 137.6q0-0.3 0.2-0.3h0.2q0.3 0 0.3 0.3v3.3q0 2.1 1.8 2.1 0.8 0 1.4-0.6 0.5-0.5 0.5-1.5v-3.3q0-0.3 0.2-0.3h0.2q0.3 0 0.3 0.3v5.7q0 0.3-0.3 0.3h-0.2q-0.2 0-0.2-0.3v-0.6q-0.4 0.4-0.8 0.7-0.5 0.3-1.2 0.3-0.6 0-1.1-0.2-0.4-0.2-0.7-0.6-0.3-0.3-0.5-0.8-0.1-0.5-0.1-1.1z"/>
						<path id="&lt;Compound Path&gt;" class="s17" d="m774.2 141.5q0 0.7 0.3 1 0.2 0.4 0.7 0.4h0.7q0.2 0 0.2 0.2v0.2q0 0.3-0.2 0.3h-0.8q-0.4 0-0.7-0.2-0.4-0.2-0.5-0.4-0.2-0.3-0.3-0.7-0.1-0.3-0.1-0.7v-3.6h-0.9q-0.3 0-0.3-0.2v-0.2q0-0.3 0.3-0.3h0.9v-2q0-0.3 0.3-0.3h0.2q0.2 0 0.2 0.3v2h1.5q0.3 0 0.3 0.3v0.2q0 0.2-0.3 0.2h-1.5z"/>
						<path id="&lt;Compound Path&gt;" fill-rule="evenodd" class="s17" d="m784.5 143.6q-0.2 0-0.2-0.3v-0.6q-0.2 0.2-0.3 0.4-0.2 0.1-0.5 0.3-0.2 0.1-0.6 0.2-0.3 0.1-0.8 0.1-0.4 0-0.8-0.2-0.4-0.1-0.7-0.3-0.3-0.3-0.4-0.6-0.2-0.3-0.2-0.7 0-0.4 0.2-0.7 0.1-0.4 0.4-0.6 0.4-0.3 0.8-0.4 0.4-0.2 1-0.3l1.9-0.2v-0.4q0-0.7-0.4-1-0.4-0.4-1.3-0.4-0.7 0-1 0.3-0.4 0.2-0.5 0.5 0 0.2-0.1 0.2-0.1 0.1-0.2 0.1h-0.1q-0.1 0-0.2-0.1-0.1-0.1-0.1-0.2 0-0.2 0.1-0.4 0.1-0.3 0.4-0.5 0.3-0.3 0.7-0.4 0.4-0.2 1-0.2 0.7 0 1.2 0.2 0.5 0.2 0.7 0.5 0.3 0.3 0.4 0.7 0.1 0.3 0.1 0.7v4q0 0.3-0.3 0.3zm-2.2-0.6q0.4 0 0.7-0.2 0.4-0.1 0.7-0.4 0.2-0.2 0.4-0.7 0.2-0.4 0.2-0.9v-0.5l-1.6 0.3q-2 0.2-2 1.2 0 0.3 0.2 0.5 0.1 0.3 0.3 0.4 0.2 0.2 0.5 0.2 0.3 0.1 0.6 0.1z"/>
						<path id="&lt;Compound Path&gt;" class="s17" d="m787.6 143.3q0 0.3-0.2 0.3h-0.2q-0.3 0-0.3-0.3v-8q0-0.3 0.3-0.3h0.2q0.2 0 0.2 0.3z"/>
						<path id="&lt;Compound Path&gt;" class="s17" d="m790.4 135.8q0 0.1 0 0.2-0.1 0-0.2 0h-0.5q-0.3 0-0.3-0.2v-0.5q0-0.1 0.1-0.2 0.1-0.1 0.2-0.1h0.5q0.1 0 0.2 0.1 0 0.1 0 0.2zm-0.1 7.5q0 0.3-0.3 0.3h-0.2q-0.2 0-0.2-0.3v-5.7q0-0.2 0.2-0.2h0.2q0.3 0 0.3 0.2z"/>
						<path id="&lt;Compound Path&gt;" fill-rule="evenodd" class="s17" d="m794.5 143.7q-0.7 0-1.2-0.3-0.4-0.2-0.7-0.6-0.3-0.4-0.5-0.9-0.1-0.5-0.1-1.1-0.1-0.1-0.1-0.4 0-0.2 0.1-0.4 0-0.5 0.1-1 0.2-0.5 0.5-0.9 0.3-0.4 0.7-0.7 0.5-0.2 1.2-0.2 0.8 0 1.3 0.3 0.4 0.2 0.7 0.6v-0.5q0-0.3 0.3-0.3h0.2q0.3 0 0.3 0.3v8q0 0.2-0.3 0.2h-0.2q-0.3 0-0.3-0.2v-2.9q-0.3 0.4-0.7 0.7-0.5 0.3-1.3 0.3zm2-3.7q0-0.4-0.1-0.7-0.1-0.4-0.3-0.7-0.3-0.3-0.6-0.5-0.4-0.2-0.9-0.2-0.5 0-0.9 0.2-0.3 0.2-0.6 0.5-0.2 0.3-0.3 0.7-0.1 0.4-0.1 0.8 0 0.3 0 0.7 0 0.4 0.1 0.8 0.1 0.4 0.3 0.7 0.3 0.3 0.6 0.5 0.4 0.2 0.9 0.2 0.5 0 0.9-0.2 0.3-0.2 0.6-0.5 0.2-0.3 0.3-0.6 0.1-0.4 0.1-0.8 0-0.1 0-0.4 0-0.3 0-0.5z"/>
						<path id="&lt;Compound Path&gt;" class="s17" d="m799.2 137.6q0-0.3 0.2-0.3h0.2q0.3 0 0.3 0.3v3.3q0 2.1 1.8 2.1 0.8 0 1.4-0.6 0.5-0.5 0.5-1.5v-3.3q0-0.3 0.2-0.3h0.2q0.3 0 0.3 0.3v5.7q0 0.3-0.3 0.3h-0.2q-0.2 0-0.2-0.3v-0.6q-0.4 0.4-0.8 0.7-0.5 0.3-1.2 0.3-0.6 0-1.1-0.2-0.4-0.2-0.7-0.6-0.3-0.3-0.5-0.8-0.1-0.5-0.1-1.1z"/>
						<path id="&lt;Compound Path&gt;" class="s17" d="m807.1 135.8q0 0.1-0.1 0.2 0 0-0.2 0h-0.4q-0.3 0-0.3-0.2v-0.5q0-0.1 0.1-0.2 0.1-0.1 0.2-0.1h0.4q0.2 0 0.2 0.1 0.1 0.1 0.1 0.2zm-0.1 7.5q0 0.3-0.3 0.3h-0.2q-0.3 0-0.3-0.3v-5.7q0-0.2 0.3-0.2h0.2q0.3 0 0.3 0.2z"/>
						<path id="&lt;Compound Path&gt;" fill-rule="evenodd" class="s17" d="m811.7 143.7q-0.8 0-1.3-0.3-0.4-0.3-0.7-0.7v2.9q0 0.2-0.3 0.2h-0.2q-0.3 0-0.3-0.2v-8q0-0.3 0.3-0.3h0.2q0.3 0 0.3 0.3v0.5q0.3-0.4 0.7-0.6 0.5-0.3 1.3-0.3 0.7 0 1.2 0.2 0.4 0.3 0.7 0.7 0.3 0.4 0.5 0.9 0.1 0.5 0.1 1 0.1 0.2 0.1 0.4 0 0.3-0.1 0.4 0 0.6-0.1 1.1-0.2 0.5-0.5 0.9-0.3 0.4-0.7 0.6-0.5 0.3-1.2 0.3zm-2-3.7q0 0.2 0 0.5 0 0.3 0 0.4 0 0.4 0.1 0.8 0.1 0.3 0.3 0.6 0.3 0.3 0.6 0.5 0.4 0.2 0.9 0.2 0.5 0 0.9-0.2 0.3-0.2 0.6-0.5 0.2-0.3 0.3-0.7 0.1-0.4 0.1-0.8 0-0.4 0-0.7 0-0.4-0.1-0.8-0.1-0.4-0.3-0.7-0.3-0.3-0.6-0.5-0.4-0.2-0.9-0.2-0.5 0-0.9 0.2-0.3 0.2-0.6 0.5-0.2 0.3-0.3 0.7-0.1 0.3-0.1 0.7z"/>
						<path id="&lt;Compound Path&gt;" fill-rule="evenodd" class="s17" d="m818.7 140q0-0.7 0.2-1.2 0.2-0.5 0.6-0.8 0.3-0.4 0.7-0.6 0.5-0.2 1.1-0.2 1.3 0 2 0.8 0.7 0.8 0.7 2.3v0.2q0 0.1-0.1 0.2-0.1 0-0.2 0h-4.3v0.2q0 0.4 0.2 0.7 0.1 0.4 0.3 0.7 0.3 0.3 0.6 0.5 0.4 0.2 0.8 0.2 0.4 0 0.7-0.1 0.3-0.1 0.5-0.2 0.2-0.2 0.3-0.3 0.1-0.1 0.2-0.2 0.1-0.2 0.1-0.2 0.1 0 0.2 0h0.2q0.1 0 0.2 0.1 0.1 0 0.1 0.1 0 0.2-0.2 0.4-0.2 0.3-0.5 0.5-0.3 0.3-0.8 0.4-0.4 0.2-1 0.2-0.6 0-1-0.2-0.5-0.2-0.8-0.6-0.4-0.3-0.6-0.9-0.2-0.5-0.2-1.1 0-0.2 0-0.5 0-0.3 0-0.4zm0.7 0.1h3.8v-0.1q0-0.4-0.1-0.8-0.1-0.4-0.4-0.7-0.2-0.3-0.6-0.4-0.4-0.2-0.8-0.2-0.5 0-0.8 0.2-0.3 0.1-0.6 0.4-0.2 0.3-0.4 0.7-0.1 0.4-0.1 0.8z"/>
						<path id="&lt;Compound Path&gt;" class="s17" d="m827.6 141l-1.9 2.4q-0.1 0-0.1 0.1-0.1 0.1-0.2 0.1h-0.3q-0.1 0-0.1-0.1-0.1-0.1-0.1-0.2 0 0 0-0.1 0 0 0.1-0.1l2.1-2.7-2-2.6q-0.1-0.1-0.1-0.1 0-0.1 0-0.1 0-0.1 0.1-0.2 0-0.1 0.1-0.1h0.3q0.1 0 0.2 0.1 0 0 0.1 0.1l1.8 2.3 1.8-2.3q0.1 0 0.1-0.1 0.1-0.1 0.2-0.1h0.2q0.1 0 0.2 0.1 0.1 0.1 0.1 0.2 0 0 0 0.1-0.1 0-0.1 0.1l-2.1 2.6 2.2 2.7q0 0.1 0 0.1 0.1 0.1 0.1 0.1 0 0.1-0.1 0.2-0.1 0.1-0.2 0.1h-0.2q-0.2 0-0.2-0.1-0.1-0.1-0.1-0.1z"/>
						<path id="&lt;Compound Path&gt;" fill-rule="evenodd" class="s17" d="m834.4 140q0.1-0.7 0.3-1.2 0.2-0.5 0.5-0.8 0.3-0.4 0.8-0.6 0.5-0.2 1.1-0.2 1.2 0 1.9 0.8 0.7 0.8 0.7 2.3v0.2q0 0.1-0.1 0.2 0 0-0.2 0h-4.2v0.2q0 0.4 0.1 0.7 0.2 0.4 0.4 0.7 0.2 0.3 0.6 0.5 0.3 0.2 0.8 0.2 0.4 0 0.6-0.1 0.3-0.1 0.5-0.2 0.2-0.2 0.4-0.3 0.1-0.1 0.1-0.2 0.1-0.2 0.2-0.2 0.1 0 0.2 0h0.2q0.1 0 0.2 0.1 0.1 0 0 0.1 0 0.2-0.1 0.4-0.2 0.3-0.5 0.5-0.4 0.3-0.8 0.4-0.5 0.2-1 0.2-0.6 0-1.1-0.2-0.4-0.2-0.8-0.6-0.3-0.3-0.5-0.9-0.2-0.5-0.3-1.1 0-0.2 0-0.5 0-0.3 0-0.4zm0.8 0.1h3.8v-0.1q0-0.4-0.1-0.8-0.2-0.4-0.4-0.7-0.3-0.3-0.6-0.4-0.4-0.2-0.8-0.2-0.5 0-0.8 0.2-0.4 0.1-0.6 0.4-0.3 0.3-0.4 0.7-0.1 0.4-0.1 0.8z"/>
						<path id="&lt;Compound Path&gt;" fill-rule="evenodd" class="s17" d="m845.4 143.6q-0.3 0-0.3-0.3v-0.6q-0.1 0.2-0.3 0.4-0.1 0.1-0.4 0.3-0.2 0.1-0.6 0.2-0.3 0.1-0.8 0.1-0.4 0-0.8-0.2-0.4-0.1-0.7-0.3-0.3-0.3-0.5-0.6-0.2-0.3-0.2-0.7 0-0.4 0.2-0.7 0.2-0.4 0.5-0.6 0.3-0.3 0.7-0.4 0.5-0.2 1-0.3l1.9-0.2v-0.4q0-0.7-0.4-1-0.4-0.4-1.2-0.4-0.7 0-1.1 0.3-0.3 0.2-0.4 0.5-0.1 0.2-0.1 0.2-0.1 0.1-0.2 0.1h-0.2q-0.1 0-0.2-0.1 0-0.1 0-0.2 0-0.2 0.1-0.4 0.1-0.3 0.4-0.5 0.2-0.3 0.7-0.4 0.4-0.2 1-0.2 0.7 0 1.1 0.2 0.5 0.2 0.8 0.5 0.2 0.3 0.3 0.7 0.1 0.3 0.1 0.7v4q0 0.3-0.2 0.3zm-2.3-0.6q0.4 0 0.8-0.2 0.4-0.1 0.6-0.4 0.3-0.2 0.5-0.7 0.1-0.4 0.1-0.9v-0.5l-1.5 0.3q-2 0.2-2 1.2 0 0.3 0.1 0.5 0.2 0.3 0.4 0.4 0.2 0.2 0.5 0.2 0.2 0.1 0.5 0.1z"/>
						<path id="&lt;Compound Path&gt;" class="s17" d="m730.3 154.4q0 0.2 0 0.4 0 0.3 0 0.5 0.1 1.1 0.6 1.6 0.5 0.5 1.4 0.5 0.6 0 1-0.3 0.5-0.3 0.7-0.9 0.1-0.2 0.1-0.2 0.1-0.1 0.2-0.1h0.2q0.1 0 0.2 0.1 0.1 0 0.1 0.2-0.1 0.3-0.2 0.6-0.2 0.4-0.5 0.6-0.3 0.3-0.7 0.5-0.5 0.2-1.1 0.2-1.3 0-2-0.8-0.6-0.7-0.7-2 0-0.2 0-0.5 0-0.3 0-0.4 0.1-1.3 0.7-2.1 0.7-0.7 2-0.7 0.6 0 1.1 0.2 0.4 0.1 0.7 0.4 0.3 0.3 0.5 0.6 0.1 0.4 0.2 0.7 0 0.1-0.1 0.2-0.1 0.1-0.2 0.1h-0.2q-0.1 0-0.2-0.1 0 0-0.1-0.2-0.2-0.7-0.7-0.9-0.4-0.3-1-0.3-0.9 0-1.4 0.5-0.5 0.5-0.6 1.6z"/>
						<path id="&lt;Compound Path&gt;" fill-rule="evenodd" class="s17" d="m738.7 151.6q0.7 0 1.2 0.2 0.4 0.2 0.8 0.6 0.3 0.3 0.5 0.9 0.2 0.5 0.2 1 0 0.1 0 0.3 0 0.1 0 0.2 0 0.2 0 0.3 0 0.2 0 0.2 0 0.6-0.2 1.1-0.2 0.5-0.5 0.9-0.4 0.4-0.8 0.6-0.5 0.2-1.2 0.2-0.6 0-1.1-0.2-0.5-0.2-0.9-0.6-0.3-0.4-0.5-0.9-0.1-0.5-0.2-1.1 0 0 0-0.2 0-0.1 0-0.3 0-0.1 0-0.2 0-0.2 0-0.3 0.1-0.5 0.2-1 0.2-0.6 0.5-0.9 0.4-0.4 0.9-0.6 0.5-0.2 1.1-0.2zm1.9 2.8q0-1-0.5-1.6-0.5-0.5-1.4-0.5-0.8 0-1.4 0.5-0.5 0.6-0.5 1.6 0 0.2 0 0.4 0 0.3 0 0.5 0 1 0.5 1.5 0.6 0.6 1.4 0.6 0.9 0 1.4-0.6 0.5-0.5 0.5-1.5 0.1-0.2 0.1-0.5 0-0.2-0.1-0.4z"/>
						<path id="&lt;Compound Path&gt;" class="s17" d="m743.8 152.4q0.3-0.4 0.7-0.6 0.4-0.2 1-0.2 0.7 0 1.1 0.3 0.5 0.3 0.8 0.8 0.3-0.5 0.8-0.8 0.5-0.3 1.2-0.3 0.5 0 0.9 0.2 0.4 0.1 0.7 0.5 0.3 0.3 0.5 0.8 0.2 0.5 0.2 1.1v3.5q0 0.3-0.3 0.3h-0.2q-0.2 0-0.2-0.3v-3.4q-0.1-0.6-0.2-1-0.1-0.3-0.3-0.6-0.3-0.2-0.6-0.3-0.3-0.1-0.6-0.1-0.3 0-0.5 0.1-0.3 0.1-0.6 0.3-0.2 0.3-0.3 0.6-0.2 0.4-0.2 1v3.4q0 0.3-0.2 0.3h-0.2q-0.3 0-0.3-0.3v-3.4q0-0.6-0.2-1-0.1-0.3-0.3-0.6-0.3-0.2-0.5-0.3-0.3-0.1-0.6-0.1-0.3 0-0.6 0.1-0.3 0.1-0.5 0.3-0.2 0.3-0.4 0.6-0.1 0.4-0.1 1v3.4q0 0.3-0.3 0.3h-0.2q-0.3 0-0.3-0.3v-5.7q0-0.3 0.3-0.3h0.2q0.3 0 0.3 0.3z"/>
						<path id="&lt;Compound Path&gt;" class="s17" d="m754.3 152.4q0.3-0.4 0.7-0.6 0.4-0.2 1-0.2 0.7 0 1.2 0.3 0.5 0.3 0.7 0.8 0.3-0.5 0.8-0.8 0.6-0.3 1.3-0.3 0.5 0 0.9 0.2 0.4 0.1 0.7 0.5 0.3 0.3 0.4 0.8 0.2 0.5 0.2 1.1v3.5q0 0.3-0.2 0.3h-0.2q-0.3 0-0.3-0.3v-3.4q0-0.6-0.1-1-0.2-0.3-0.4-0.6-0.2-0.2-0.5-0.3-0.3-0.1-0.6-0.1-0.3 0-0.6 0.1-0.3 0.1-0.5 0.3-0.3 0.3-0.4 0.6-0.1 0.4-0.1 1v3.4q0 0.3-0.3 0.3h-0.2q-0.3 0-0.3-0.3v-3.4q0-0.6-0.1-1-0.2-0.3-0.4-0.6-0.2-0.2-0.5-0.3-0.3-0.1-0.6-0.1-0.3 0-0.6 0.1-0.2 0.1-0.5 0.3-0.2 0.3-0.4 0.6-0.1 0.4-0.1 1v3.4q0 0.3-0.3 0.3h-0.2q-0.2 0-0.2-0.3v-5.7q0-0.3 0.2-0.3h0.2q0.3 0 0.3 0.3z"/>
						<path id="&lt;Compound Path&gt;" fill-rule="evenodd" class="s17" d="m766.5 151.6q0.6 0 1.1 0.2 0.5 0.2 0.8 0.6 0.4 0.3 0.5 0.9 0.2 0.5 0.2 1 0 0.1 0 0.3 0.1 0.1 0.1 0.2 0 0.2-0.1 0.3 0 0.2 0 0.2 0 0.6-0.2 1.1-0.1 0.5-0.5 0.9-0.3 0.4-0.8 0.6-0.5 0.2-1.1 0.2-0.7 0-1.2-0.2-0.5-0.2-0.8-0.6-0.3-0.4-0.5-0.9-0.2-0.5-0.2-1.1 0 0 0-0.2 0-0.1 0-0.3 0-0.1 0-0.2 0-0.2 0-0.3 0-0.5 0.2-1 0.2-0.6 0.5-0.9 0.3-0.4 0.8-0.6 0.5-0.2 1.2-0.2zm1.9 2.8q0-1-0.6-1.6-0.5-0.5-1.3-0.5-0.9 0-1.4 0.5-0.5 0.6-0.6 1.6 0 0.2 0 0.4 0 0.3 0 0.5 0.1 1 0.6 1.5 0.5 0.6 1.4 0.6 0.8 0 1.3-0.6 0.6-0.5 0.6-1.5 0-0.2 0-0.5 0-0.2 0-0.4z"/>
						<path id="&lt;Compound Path&gt;" fill-rule="evenodd" class="s17" d="m773.1 151.6q0.7 0 1.2 0.3 0.5 0.3 0.8 0.6v-2.8q0-0.3 0.2-0.3h0.2q0.3 0 0.3 0.3v8q0 0.3-0.3 0.3h-0.2q-0.2 0-0.2-0.3v-0.6q-0.3 0.4-0.8 0.7-0.5 0.3-1.2 0.3-0.8 0-1.2-0.3-0.5-0.2-0.8-0.7-0.3-0.4-0.5-0.9-0.1-0.5-0.1-1 0-0.4 0-0.7 0-0.5 0.1-1 0.2-0.6 0.5-1 0.3-0.4 0.8-0.6 0.4-0.3 1.2-0.3zm2 3.7q0-0.2 0-0.5 0-0.3 0-0.5 0-0.3-0.2-0.7-0.1-0.4-0.3-0.6-0.2-0.3-0.6-0.5-0.4-0.2-0.9-0.2-0.5 0-0.9 0.2-0.3 0.2-0.5 0.5-0.3 0.3-0.4 0.7-0.1 0.4-0.1 0.8 0 0.3 0 0.7 0 0.4 0.1 0.8 0.1 0.4 0.4 0.7 0.2 0.3 0.5 0.5 0.4 0.2 0.9 0.2 0.5 0 0.9-0.2 0.4-0.2 0.6-0.5 0.2-0.3 0.3-0.7 0.2-0.4 0.2-0.7z"/>
						<path id="&lt;Compound Path&gt;" fill-rule="evenodd" class="s17" d="m780.1 151.6q0.7 0 1.2 0.2 0.5 0.2 0.8 0.6 0.3 0.3 0.5 0.9 0.2 0.5 0.2 1 0 0.1 0 0.3 0 0.1 0 0.2 0 0.2 0 0.3 0 0.2 0 0.2 0 0.6-0.2 1.1-0.2 0.5-0.5 0.9-0.3 0.4-0.8 0.6-0.5 0.2-1.2 0.2-0.6 0-1.1-0.2-0.5-0.2-0.8-0.6-0.4-0.4-0.5-0.9-0.2-0.5-0.2-1.1 0 0 0-0.2 0-0.1 0-0.3 0-0.1 0-0.2 0-0.2 0-0.3 0-0.5 0.2-1 0.1-0.6 0.5-0.9 0.3-0.4 0.8-0.6 0.5-0.2 1.1-0.2zm2 2.8q-0.1-1-0.6-1.6-0.5-0.5-1.4-0.5-0.8 0-1.3 0.5-0.6 0.6-0.6 1.6 0 0.2 0 0.4 0 0.3 0 0.5 0 1 0.6 1.5 0.5 0.6 1.3 0.6 0.9 0 1.4-0.6 0.5-0.5 0.6-1.5 0-0.2 0-0.5 0-0.2 0-0.4z"/>
						<path id="&lt;Compound Path&gt;" class="s17" d="m788 154.4q0 0.2 0 0.4 0 0.3 0 0.5 0 1.1 0.6 1.6 0.5 0.5 1.3 0.5 0.7 0 1.1-0.3 0.4-0.3 0.7-0.9 0-0.2 0.1-0.2 0-0.1 0.2-0.1h0.1q0.1 0 0.2 0.1 0.1 0 0.1 0.2 0 0.3-0.2 0.6-0.1 0.4-0.4 0.6-0.3 0.3-0.8 0.5-0.4 0.2-1.1 0.2-1.3 0-1.9-0.8-0.7-0.7-0.7-2 0-0.2 0-0.5 0-0.3 0-0.4 0-1.3 0.7-2.1 0.6-0.7 1.9-0.7 0.7 0 1.1 0.2 0.5 0.1 0.8 0.4 0.3 0.3 0.4 0.6 0.2 0.4 0.2 0.7 0 0.1-0.1 0.2-0.1 0.1-0.2 0.1h-0.1q-0.2 0-0.2-0.1-0.1 0-0.1-0.2-0.3-0.7-0.7-0.9-0.4-0.3-1.1-0.3-0.8 0-1.3 0.5-0.6 0.5-0.6 1.6z"/>
						<path id="&lt;Compound Path&gt;" fill-rule="evenodd" class="s17" d="m796.4 151.6q0.6 0 1.1 0.2 0.5 0.2 0.8 0.6 0.4 0.3 0.5 0.9 0.2 0.5 0.2 1 0 0.1 0 0.3 0 0.1 0 0.2 0 0.2 0 0.3 0 0.2 0 0.2 0 0.6-0.2 1.1-0.1 0.5-0.5 0.9-0.3 0.4-0.8 0.6-0.5 0.2-1.1 0.2-0.7 0-1.2-0.2-0.5-0.2-0.8-0.6-0.3-0.4-0.5-0.9-0.2-0.5-0.2-1.1 0 0 0-0.2 0-0.1 0-0.3 0-0.1 0-0.2 0-0.2 0-0.3 0-0.5 0.2-1 0.2-0.6 0.5-0.9 0.3-0.4 0.8-0.6 0.5-0.2 1.2-0.2zm1.9 2.8q0-1-0.6-1.6-0.5-0.5-1.3-0.5-0.9 0-1.4 0.5-0.5 0.6-0.6 1.6 0 0.2 0 0.4 0 0.3 0 0.5 0.1 1 0.6 1.5 0.5 0.6 1.4 0.6 0.8 0 1.3-0.6 0.6-0.5 0.6-1.5 0-0.2 0-0.5 0-0.2 0-0.4z"/>
						<path id="&lt;Compound Path&gt;" class="s17" d="m805.9 157.7q0 0.3-0.3 0.3h-0.2q-0.3 0-0.3-0.3v-3.4q0-0.9-0.4-1.5-0.5-0.5-1.4-0.5-0.9 0-1.4 0.5-0.5 0.6-0.5 1.5v3.4q0 0.3-0.3 0.3h-0.2q-0.2 0-0.2-0.3v-5.7q0-0.3 0.2-0.3h0.2q0.3 0 0.3 0.3v0.5q0.3-0.4 0.8-0.6 0.4-0.3 1.2-0.3 0.6 0 1.1 0.2 0.4 0.2 0.8 0.6 0.3 0.3 0.4 0.8 0.2 0.5 0.2 1.1z"/>
						<path id="&lt;Compound Path&gt;" class="s17" d="m811.4 156.3q0-0.3-0.1-0.4-0.1-0.2-0.3-0.3-0.3-0.2-0.7-0.3-0.4-0.1-0.9-0.2-0.6-0.2-1-0.3-0.3-0.2-0.5-0.4-0.2-0.3-0.3-0.5-0.1-0.3-0.1-0.6 0-0.3 0.2-0.6 0.1-0.3 0.4-0.5 0.2-0.3 0.6-0.4 0.4-0.2 1-0.2 0.6 0 1 0.2 0.4 0.1 0.7 0.3 0.2 0.2 0.3 0.5 0.2 0.2 0.2 0.3 0 0.1-0.1 0.2-0.1 0.1-0.2 0.1h-0.2q-0.1 0-0.2-0.2-0.1-0.1-0.2-0.3-0.1-0.1-0.3-0.2-0.2-0.1-0.4-0.1-0.3-0.1-0.6-0.1-0.7 0-1.1 0.3-0.3 0.3-0.3 0.7 0 0.2 0 0.4 0.1 0.2 0.3 0.3 0.2 0.1 0.6 0.2 0.3 0.2 0.9 0.3 0.6 0.1 1 0.3 0.4 0.2 0.6 0.4 0.2 0.2 0.3 0.5 0.1 0.3 0.1 0.6 0 0.3-0.1 0.7-0.2 0.3-0.5 0.5-0.3 0.3-0.7 0.4-0.5 0.2-1.1 0.2-0.6 0-1-0.2-0.5-0.2-0.8-0.4-0.3-0.2-0.4-0.4-0.1-0.3-0.1-0.4-0.1-0.1 0-0.2 0.1-0.1 0.2-0.1h0.2q0.1 0 0.1 0.1 0.1 0 0.2 0.1 0.1 0.1 0.2 0.3 0.2 0.1 0.4 0.2 0.2 0.1 0.4 0.2 0.3 0.1 0.6 0.1 0.8 0 1.2-0.3 0.5-0.3 0.5-0.8z"/>
						<path id="&lt;Compound Path&gt;" fill-rule="evenodd" class="s17" d="m813.4 154.4q0-0.7 0.2-1.2 0.2-0.5 0.5-0.8 0.4-0.4 0.8-0.6 0.5-0.2 1.1-0.2 1.2 0 1.9 0.8 0.7 0.8 0.7 2.3v0.2q0 0.1 0 0.2-0.1 0-0.2 0h-4.3v0.2q0 0.4 0.1 0.7 0.2 0.4 0.4 0.7 0.3 0.3 0.6 0.5 0.3 0.2 0.8 0.2 0.4 0 0.7-0.1 0.2-0.1 0.4-0.2 0.2-0.2 0.4-0.3 0.1-0.1 0.1-0.2 0.2-0.2 0.2-0.2 0.1 0 0.2 0h0.2q0.1 0 0.2 0.1 0.1 0 0.1 0.1-0.1 0.2-0.2 0.4-0.2 0.3-0.5 0.5-0.3 0.3-0.8 0.4-0.5 0.2-1 0.2-0.6 0-1.1-0.2-0.4-0.2-0.8-0.6-0.3-0.4-0.5-0.9-0.2-0.5-0.2-1.1-0.1-0.2-0.1-0.5 0-0.3 0.1-0.4zm0.7 0.1h3.8v-0.1q0-0.4-0.1-0.8-0.2-0.4-0.4-0.7-0.3-0.3-0.6-0.4-0.4-0.2-0.8-0.2-0.5 0-0.8 0.2-0.4 0.1-0.6 0.4-0.3 0.3-0.4 0.7-0.1 0.4-0.1 0.8z"/>
						<path id="&lt;Compound Path&gt;" fill-rule="evenodd" class="s17" d="m822.5 158.1q-0.7 0-1.2-0.3-0.5-0.2-0.8-0.6-0.3-0.4-0.4-0.9-0.2-0.5-0.2-1.1 0-0.1 0-0.4 0-0.2 0-0.4 0-0.5 0.2-1 0.1-0.5 0.4-0.9 0.3-0.4 0.8-0.7 0.5-0.2 1.2-0.2 0.7 0 1.2 0.3 0.5 0.2 0.8 0.6v-0.5q0-0.3 0.3-0.3h0.2q0.2 0 0.2 0.3v8q0 0.2-0.2 0.2h-0.2q-0.3 0-0.3-0.2v-2.9q-0.3 0.4-0.8 0.7-0.5 0.3-1.2 0.3zm2-3.7q0-0.4-0.1-0.7-0.1-0.4-0.4-0.7-0.2-0.3-0.6-0.5-0.3-0.2-0.8-0.2-0.6 0-0.9 0.2-0.4 0.2-0.6 0.5-0.2 0.3-0.3 0.7-0.1 0.4-0.2 0.8 0 0.3 0 0.7 0.1 0.4 0.2 0.8 0.1 0.4 0.3 0.7 0.2 0.3 0.6 0.5 0.3 0.2 0.9 0.2 0.5 0 0.8-0.2 0.4-0.2 0.6-0.5 0.3-0.3 0.4-0.6 0.1-0.4 0.1-0.8 0-0.1 0-0.4 0-0.3 0-0.5z"/>
						<path id="&lt;Compound Path&gt;" class="s17" d="m827.1 152q0-0.3 0.3-0.3h0.2q0.3 0 0.3 0.3v3.3q0 2.1 1.7 2.1 0.9 0 1.4-0.6 0.5-0.5 0.5-1.5v-3.3q0-0.3 0.3-0.3h0.2q0.3 0 0.3 0.3v5.7q0 0.3-0.3 0.3h-0.2q-0.3 0-0.3-0.3v-0.6q-0.3 0.4-0.7 0.7-0.5 0.3-1.3 0.3-0.6 0-1-0.2-0.5-0.2-0.8-0.6-0.3-0.3-0.4-0.8-0.2-0.5-0.2-1.1z"/>
						<path id="&lt;Compound Path&gt;" fill-rule="evenodd" class="s17" d="m838.3 158q-0.3 0-0.3-0.3v-0.6q-0.1 0.2-0.3 0.4-0.1 0.1-0.4 0.3-0.2 0.1-0.6 0.2-0.3 0.1-0.8 0.1-0.4 0-0.8-0.2-0.4-0.1-0.7-0.3-0.3-0.3-0.5-0.6-0.2-0.3-0.2-0.7 0-0.4 0.2-0.7 0.2-0.4 0.5-0.6 0.3-0.3 0.7-0.4 0.5-0.2 1-0.3l1.9-0.2v-0.4q0-0.7-0.4-1-0.4-0.4-1.2-0.4-0.7 0-1.1 0.3-0.3 0.2-0.4 0.5-0.1 0.2-0.1 0.2-0.1 0.1-0.2 0.1h-0.2q-0.1 0-0.2-0.1 0-0.1 0-0.2 0-0.2 0.1-0.4 0.1-0.3 0.4-0.5 0.2-0.3 0.7-0.4 0.4-0.2 1-0.2 0.7 0 1.1 0.2 0.5 0.2 0.8 0.5 0.2 0.3 0.3 0.7 0.1 0.3 0.1 0.7v4q0 0.3-0.2 0.3zm-2.3-0.6q0.4 0 0.8-0.2 0.3-0.1 0.6-0.4 0.3-0.2 0.5-0.7 0.1-0.4 0.1-1v-0.4l-1.5 0.3q-2 0.2-2 1.2 0 0.3 0.1 0.5 0.1 0.3 0.4 0.4 0.2 0.1 0.5 0.2 0.2 0.1 0.5 0.1z"/>
						<path id="&lt;Compound Path&gt;" class="s17" d="m841.8 155.9q0 0.7 0.2 1 0.2 0.4 0.7 0.4h0.7q0.2 0 0.2 0.2v0.2q0 0.3-0.2 0.3h-0.7q-0.5 0-0.8-0.2-0.3-0.2-0.5-0.4-0.2-0.3-0.3-0.7-0.1-0.3-0.1-0.7v-3.6h-0.9q-0.3 0-0.3-0.3v-0.1q0-0.3 0.3-0.3h0.9v-2q0-0.3 0.3-0.3h0.2q0.3 0 0.3 0.3v2h1.5q0.2 0 0.2 0.3v0.1q0 0.3-0.2 0.3h-1.5z"/>
						<path id="&lt;Compound Path&gt;" class="s17" d="m845.9 157.7q0 0.1-0.1 0.2 0 0.1-0.2 0.1h-0.5q-0.3 0-0.3-0.3v-0.6q0-0.1 0.1-0.2 0-0.1 0.2-0.1h0.5q0.2 0 0.2 0.1 0.1 0.1 0.1 0.2z"/>
					</g>
					<g id="&lt;Group&gt;">
						<path id="&lt;Path&gt;" class="s17" d="m837.6 235.9h-138.2c-5.8 0-10.6-4.7-10.6-10.5v-32.3c0-5.9 4.8-10.6 10.6-10.6h138.2c5.9 0 10.6 4.7 10.6 10.6v32.3c0 5.8-4.7 10.5-10.6 10.5z"/>
						<g id="&lt;Group&gt;">
							<path id="&lt;Compound Path&gt;" fill-rule="evenodd" class="s41" d="m706.3 201.2q2.6 0 4.2 1.2 1.6 1.3 1.6 3.9 0 2-1 3.2-1 1.2-2.8 1.6l4 6.9q0.1 0.2 0.1 0.3 0 0.2-0.2 0.3-0.1 0.2-0.3 0.2h-0.3q-0.4 0-0.6-0.2-0.2-0.2-0.4-0.5l-4-6.8h-5.1v6.9q0 0.6-0.6 0.6h-0.5q-0.5 0-0.5-0.6v-16.4q0-0.6 0.5-0.6zm-4.8 8.6h4.7q4.3 0 4.3-3.5 0-3.6-4.3-3.6h-4.7z"/>
							<path id="&lt;Compound Path&gt;" class="s41" d="m727.1 217.3q0.6 0 0.6 0.6v0.3q0 0.6-0.6 0.6h-10q-0.5 0-0.5-0.6v-16.4q0-0.6 0.5-0.6h9.8q0.6 0 0.6 0.6v0.3q0 0.6-0.6 0.6h-8.7v6.4h8.2q0.6 0 0.6 0.6v0.4q0 0.5-0.6 0.5h-8.2v6.7z"/>
							<path id="&lt;Compound Path&gt;" fill-rule="evenodd" class="s41" d="m742.4 214.4h-8.9l-1.6 4q-0.1 0.1-0.2 0.2-0.1 0.2-0.4 0.2h-0.5q-0.2 0-0.3-0.2-0.2-0.1-0.2-0.3 0-0.1 0.1-0.3l6.3-16.3q0.1-0.3 0.3-0.4 0.2-0.1 0.5-0.1h0.8q0.3 0 0.5 0.1 0.2 0.1 0.3 0.4l6.3 16.3q0.1 0.2 0.1 0.3 0 0.2-0.2 0.3-0.1 0.2-0.3 0.2h-0.5q-0.3 0-0.4-0.2-0.1-0.1-0.2-0.2zm-8.3-1.5h7.7l-3.8-9.9z"/>
							<path id="&lt;Compound Path&gt;" fill-rule="evenodd" class="s41" d="m755 201.2q2 0 3.3 0.4 1.3 0.5 2.1 1.3 0.8 0.9 1.2 2.2 0.3 1.2 0.4 2.9 0 1.1 0 2 0 0.8 0 2-0.1 1.7-0.4 3-0.4 1.3-1.2 2.1-0.8 0.9-2.1 1.3-1.3 0.4-3.2 0.4h-5.5q-0.5 0-0.5-0.6v-16.4q0-0.6 0.5-0.6zm5.4 6.9q0-1.4-0.3-2.4-0.3-1-1-1.7-0.6-0.6-1.7-1-1-0.3-2.5-0.3h-4.2v14.6h4.3q1.5 0 2.5-0.3 1.1-0.3 1.7-1 0.6-0.6 0.9-1.6 0.3-1.1 0.3-2.6 0-0.5 0-1 0-0.4 0-0.8 0-0.4 0-0.9 0-0.4 0-1z"/>
							<path id="&lt;Compound Path&gt;" class="s41" d="m781 214.6q-0.6 0-0.8-0.5l-4.8-9.5v13.6q0 0.6-0.6 0.6h-0.4q-0.6 0-0.6-0.6v-16.4q0-0.6 0.6-0.6h0.6q0.3 0 0.4 0.1 0.1 0.1 0.2 0.2l5.7 11.1 5.7-11.1q0-0.1 0.1-0.2 0.2-0.1 0.4-0.1h0.6q0.6 0 0.6 0.6v16.4q0 0.6-0.6 0.6h-0.4q-0.6 0-0.6-0.6v-13.6l-4.8 9.5q-0.2 0.5-0.8 0.5z"/>
							<path id="&lt;Compound Path&gt;" fill-rule="evenodd" class="s41" d="m800 200.9q1.5 0 2.7 0.5 1.2 0.4 2 1.3 0.9 0.8 1.4 2.1 0.5 1.3 0.5 3.1 0.1 1.1 0.1 2.1 0 1-0.1 2.1-0.1 3.6-1.8 5.2-1.7 1.7-4.8 1.7-3.1 0-4.8-1.7-1.7-1.6-1.8-5.2-0.1-1.1-0.1-2.1 0-1 0.1-2.1 0-1.8 0.5-3.1 0.5-1.3 1.4-2.1 0.8-0.9 2-1.3 1.2-0.5 2.7-0.5zm0 1.5q-1 0-2 0.4-0.9 0.3-1.5 1-0.7 0.6-1.1 1.7-0.4 1-0.4 2.5-0.1 0.6-0.1 1.1 0 0.4 0 0.9 0 0.4 0 0.9 0 0.5 0.1 1.1 0 1.5 0.4 2.5 0.4 1 1 1.7 0.7 0.7 1.6 1 0.9 0.3 2 0.3 1.1 0 2-0.3 0.9-0.3 1.6-1 0.6-0.7 1-1.7 0.4-1 0.5-2.5 0-0.6 0-1.1 0-0.5 0-0.9 0-0.5 0-0.9 0-0.5 0-1.1-0.1-1.5-0.5-2.5-0.4-1.1-1.1-1.7-0.6-0.7-1.5-1-0.9-0.4-2-0.4z"/>
							<path id="&lt;Compound Path&gt;" fill-rule="evenodd" class="s41" d="m817.7 201.2q2.7 0 4.2 1.2 1.6 1.3 1.6 3.9 0 2-1 3.2-1 1.2-2.8 1.6l4.1 6.9q0 0.2 0 0.3 0 0.2-0.1 0.3-0.2 0.2-0.4 0.2h-0.3q-0.4 0-0.6-0.2-0.2-0.2-0.3-0.5l-4-6.8h-5.2v6.9q0 0.6-0.6 0.6h-0.4q-0.6 0-0.6-0.6v-16.4q0-0.6 0.6-0.6zm-4.9 8.6h4.7q4.4 0 4.4-3.5 0-3.6-4.4-3.6h-4.7z"/>
							<path id="&lt;Compound Path&gt;" class="s41" d="m838.6 217.3q0.6 0 0.6 0.6v0.3q0 0.6-0.6 0.6h-10q-0.6 0-0.6-0.6v-16.4q0-0.6 0.6-0.6h9.8q0.6 0 0.6 0.6v0.3q0 0.6-0.6 0.6h-8.8v6.4h8.2q0.6 0 0.6 0.6v0.4q0 0.5-0.6 0.5h-8.2v6.7z"/>
						</g>
					</g>
				</g>
				<path id="&lt;Path&gt;" class="s42" d="m-0.7 0.7v300h900v-300z"/>
			</g>
		</g>
	</g>
</svg>